<?xml version="1.0" standalone="no"?>
<!DOCTYPE svg PUBLIC "-//W3C//DTD SVG 1.1//EN" "http://www.w3.org/Graphics/SVG/1.1/DTD/svg11.dtd" >
<svg xmlns="http://www.w3.org/2000/svg" xmlns:xlink="http://www.w3.org/1999/xlink" version="1.1">
<metadata>
Created by FontForge 20170731 at Tue Sep 26 12:49:13 2006
 By Aleksey,,,
Part of this font software is copyrighted (c) 2006 Linotype GmbH, www.linotype.com. All rights reserved. This font software may not be reproduced, modified, disclosed or transferred without the express written approval of Linotype GmbH. (c) Copyright 1997 International Typeface Corporation. All rights reserved.
</metadata>
<defs>
<font id="ITCCharterCom-BoldItalic" horiz-adv-x="500" >
  <font-face 
    font-family="ITC Charter Com"
    font-weight="700"
    font-style="italic"
    font-stretch="normal"
    units-per-em="1000"
    panose-1="2 4 8 3 6 9 6 13 11 4"
    ascent="800"
    descent="-200"
    x-height="489"
    cap-height="671"
    bbox="-177 -246 1243 952"
    underline-thickness="50"
    underline-position="-150"
    slope="-11"
    unicode-range="U+000D-FB02"
  />
<missing-glyph horiz-adv-x="485" 
d="M210 174h53v-63h-53v63zM211 238q0 25 2.5 43t9 32.5t17.5 27.5t28 28q30 29 38 46t8 34q0 34 -21.5 57t-50.5 23t-50.5 -20.5t-26.5 -69.5l-48 8q7 69 42 99.5t86 30.5q52 0 85 -33.5t33 -90.5q0 -31 -12 -55.5t-48 -57.5q-16 -14 -25 -24t-13.5 -19.5t-6 -20
t-1.5 -26.5v-28h-46v16zM438 47v585h-391v-585h391zM0 680h485v-680h-485v680z" />
    <glyph glyph-name="IJ" unicode="IJ" horiz-adv-x="817" 
d="M-20 48l66 7l15 14l100 534l-10 14l-65 6v48h282v-48l-66 -6l-16 -14l-100 -534l12 -14l65 -7v-48h-283v48zM334 192h71l1 -136l13 -12q36 0 61 10t42.5 35t30 69t23.5 112l59 333l-10 14l-67 6v48h282v-48l-67 -6l-14 -14l-56 -335q-25 -145 -87 -213t-171 -68
q-41 0 -75 6.5t-70 20.5z" />
    <glyph glyph-name="ij" unicode="ij" horiz-adv-x="611" 
d="M293 73v-41q-32 -11 -55.5 -18.5t-42.5 -12t-35.5 -6t-33.5 -1.5q-78 0 -78 76q0 11 2.5 30.5t6.5 37.5l53 269l-82 12v35l171 39h44l-63 -338q-2 -11 -3.5 -22.5t-1.5 -19.5q0 -54 48 -54q13 0 24 2t39 10zM219 727q29 0 46.5 -18t17.5 -47q0 -32 -21.5 -54t-53.5 -22
q-29 0 -47.5 17.5t-18.5 46.5q0 33 22 55t55 22zM319 -140q10 13 18.5 31.5t16 45.5t14.5 64t15 89l46 317l-90 12v35l179 39h44l-54 -338q-9 -54 -16.5 -91t-17 -65t-22.5 -49.5t-31 -44.5q-43 -54 -94.5 -86.5t-93.5 -32.5q-29 0 -47 17t-18 45q0 40 34 59zM530 727
q29 0 46.5 -18t17.5 -47q0 -32 -21.5 -54t-53.5 -22q-29 0 -47.5 18t-18.5 47q0 33 22 54.5t55 21.5z" />
    <glyph glyph-name="napostrophe" unicode="&#x22;n" horiz-adv-x="598" 
d="M109 407l-83 12v35l176 39h39l-20 -99q34 27 62 45.5t51.5 30.5t44.5 17t41 5q41 0 66.5 -27t25.5 -70q0 -14 -2.5 -35.5t-7.5 -43.5l-30 -137q-6 -26 -8.5 -43t-2.5 -30q0 -24 12 -37.5t34 -13.5q13 0 26.5 2.5t35.5 8.5v-38q-50 -18 -85.5 -26t-67.5 -8
q-38 0 -58.5 18.5t-20.5 51.5q0 9 1.5 21.5t6.5 32.5l35 166q4 17 6.5 36t2.5 30q0 27 -12.5 42.5t-34.5 15.5q-24 0 -53.5 -15.5t-73.5 -50.5l-58 -342h-127zM87 697q8 18 21.5 28.5t33.5 10.5q17 0 27 -9t10 -25q0 -11 -4.5 -22t-12.5 -22l-89 -123h-59z" />
    <glyph glyph-name="fi" unicode="fi" horiz-adv-x="620" 
d="M-7 -146q11 16 19.5 35t16 47.5t14.5 68.5t15 97l42 306l-66 -8v44l78 34q11 58 33.5 105t53.5 80.5t69 51.5t81 18q40 0 65 -18t25 -46q0 -42 -53 -67l-89 84q-44 -55 -74 -219h185l95 26h44l-63 -338q-5 -28 -5 -43q0 -24 12.5 -38.5t35.5 -14.5q6 0 12 0.5t13.5 2
t18 4t26.5 7.5v-41q-30 -11 -53.5 -18t-43 -11.5t-36 -6.5t-33.5 -2q-79 0 -79 77q0 7 0.5 12.5t1 12t2.5 16.5t5 26l53 271h-199l-37 -262q-11 -76 -30.5 -134.5t-51.5 -104.5q-39 -57 -88 -89.5t-96 -32.5q-28 0 -47.5 18.5t-19.5 44.5q0 40 41 62zM529 722q28 0 45 -17.5
t17 -45.5q0 -31 -20.5 -51.5t-51.5 -20.5q-27 0 -45 17.5t-18 44.5q0 31 21 52t52 21z" />
    <glyph glyph-name="fl" unicode="fl" horiz-adv-x="624" 
d="M-8 -146q11 16 19.5 35t16 47.5t14.5 68.5t15 97l43 306l-66 -8v44l78 34q11 58 33.5 105t53.5 80.5t69.5 51.5t82.5 18q27 0 45.5 -6.5t33.5 -23.5l120 33h43q-6 -28 -9 -49l-2 -10l-92 -490q-5 -24 -7.5 -46.5t-2.5 -36.5q0 -24 12 -37t33 -13q14 0 29.5 3.5t45.5 12.5
v-39q-100 -37 -157 -37q-85 0 -85 85q0 14 3.5 40.5t9.5 59.5l90 471l-38 3l-44 -48l-81 81q-23 -27 -42 -82.5t-34 -136.5h128v-58h-135l-36 -262q-11 -78 -32 -137t-55 -107q-39 -55 -87 -86t-93 -31q-28 0 -47.5 18.5t-19.5 44.5q0 41 40 62z" />
    <glyph glyph-name=".notdef" horiz-adv-x="485" 
d="M210 174h53v-63h-53v63zM211 238q0 25 2.5 43t9 32.5t17.5 27.5t28 28q30 29 38 46t8 34q0 34 -21.5 57t-50.5 23t-50.5 -20.5t-26.5 -69.5l-48 8q7 69 42 99.5t86 30.5q52 0 85 -33.5t33 -90.5q0 -31 -12 -55.5t-48 -57.5q-16 -14 -25 -24t-13.5 -19.5t-6 -20
t-1.5 -26.5v-28h-46v16zM438 47v585h-391v-585h391zM0 680h485v-680h-485v680z" />
    <glyph glyph-name=".null" 
 />
    <glyph glyph-name="nonmarkingreturn" unicode="&#xd;" horiz-adv-x="0" 
 />
    <glyph glyph-name="space" unicode=" " horiz-adv-x="220" 
 />
    <glyph glyph-name="exclam" unicode="!" horiz-adv-x="340" 
d="M140 553q4 69 26 100t68 31q31 0 48 -15t17 -43q0 -25 -15 -71l-113 -357h-52zM133 144q28 0 47 -19t19 -48q0 -17 -7 -32t-18.5 -26.5t-27 -18.5t-32.5 -7q-28 0 -47 19t-19 48q0 34 25 59t60 25z" />
    <glyph glyph-name="quotedbl" unicode="&#x22;" horiz-adv-x="339" 
d="M103 636q-1 8 -1.5 15t-0.5 13q0 23 12.5 36.5t35.5 13.5q21 0 33.5 -13t12.5 -36q0 -5 -0.5 -13.5t-1.5 -15.5l-36 -218h-18zM267 636q-1 6 -1.5 14t-0.5 14q0 23 12.5 36.5t35.5 13.5q21 0 33.5 -13t12.5 -36q0 -13 -3 -29l-35 -218h-19z" />
    <glyph glyph-name="numbersign" unicode="#" horiz-adv-x="751" 
d="M118 -7l79 228h-140v61h160l44 135h-154v61h175l80 232l63 -18l-76 -214h138l77 231l64 -17l-76 -214h137v-61h-157l-46 -135h161v-61h-182l-81 -244l-63 16l76 228h-134l-82 -244zM417 282l47 135h-135l-45 -135h133z" />
    <glyph glyph-name="dollar" unicode="$" horiz-adv-x="587" 
d="M204 1q-55 4 -95.5 12.5t-83.5 26.5l33 166h68l-4 -119l12 -9q23 -9 41.5 -14t40.5 -7l44 233q-82 32 -119 73t-37 101q0 42 17 78t47.5 63t73.5 44t95 21l15 74h52l-14 -73q40 -2 76 -9.5t77 -21.5l-33 -161h-64l4 113l-12 10q-19 6 -29.5 8.5t-30.5 4.5l-42 -223
q88 -31 127.5 -72t39.5 -101q0 -45 -17.5 -82.5t-49.5 -66t-77.5 -46.5t-102.5 -23l-19 -105h-53zM327 615q-51 -6 -80 -37t-29 -77q0 -33 15.5 -53.5t53.5 -37.5zM269 57q56 9 87 40t31 77q0 71 -76 99z" />
    <glyph glyph-name="percent" unicode="%" horiz-adv-x="898" 
d="M267 683q63 0 98 -40.5t35 -113.5q0 -56 -16 -104.5t-44.5 -84.5t-67 -56.5t-82.5 -20.5q-65 0 -100 39.5t-35 111.5q0 57 16 106.5t44.5 85.5t67.5 56.5t84 20.5zM256 638q-41 0 -69 -63q-17 -39 -27 -88t-10 -94q0 -84 47 -84q39 0 70 61q17 36 27.5 86.5t10.5 98.5
q0 83 -49 83zM681 671h75l-538 -671h-76zM712 407q63 0 98.5 -40t35.5 -111q0 -57 -16 -106t-44.5 -85t-67 -56.5t-83.5 -20.5q-65 0 -100 39.5t-35 112.5q0 57 16 106t44.5 84.5t67.5 56t84 20.5zM700 363q-38 0 -66 -57q-19 -39 -29.5 -90t-10.5 -101q0 -82 47 -82
q39 0 68 57q9 18 16 41t12.5 48t8.5 50.5t3 48.5q0 85 -49 85z" />
    <glyph glyph-name="ampersand" unicode="&#x26;" horiz-adv-x="731" 
d="M615 -4q-14 -2 -27.5 -2.5t-24.5 -0.5q-44 0 -76.5 18t-68.5 63q-59 -45 -110 -66t-105 -21q-39 0 -72.5 13t-58 35.5t-38 54t-13.5 68.5q0 132 170 200q-34 40 -48.5 71t-14.5 66q0 40 17.5 74.5t48.5 60t72.5 40t89.5 14.5q39 0 70.5 -10t54.5 -29t35.5 -45t12.5 -57
q0 -65 -48 -111t-142 -70l133 -173q22 22 40 48t38 64l-9 17l-47 7v48h204v-49l-70 -9q-15 -26 -29 -47.5t-28.5 -41t-30.5 -38.5t-35 -40q37 -53 72.5 -76t80.5 -23h7.5t8.5 1v-48zM223 322q-42 -29 -59 -58t-17 -68q0 -56 35.5 -91.5t90.5 -35.5q30 0 57.5 10t57.5 33z
M306 394q57 29 83 64.5t26 83.5q0 41 -20 64t-55 23q-20 0 -37.5 -8t-30 -22.5t-20 -33.5t-7.5 -41q0 -29 13.5 -58t47.5 -72z" />
    <glyph glyph-name="quotesingle" unicode="'" horiz-adv-x="175" 
d="M102 636q-1 8 -1.5 15t-0.5 13q0 23 12.5 36.5t35.5 13.5q21 0 33.5 -13t12.5 -36q0 -5 -0.5 -13.5t-1.5 -15.5l-36 -218h-18z" />
    <glyph glyph-name="parenleft" unicode="(" horiz-adv-x="419" 
d="M295 -142q-45 2 -75.5 12t-58.5 31q-47 36 -71.5 98.5t-24.5 144.5q0 65 11 130.5t31.5 126t48.5 112.5t62 89q53 58 109.5 85.5t129.5 30.5l-9 -51q-87 -10 -148 -96q-25 -35 -43 -76.5t-35 -99.5q-21 -78 -32.5 -152t-11.5 -137q0 -181 127 -197z" />
    <glyph glyph-name="parenright" unicode=")" horiz-adv-x="419" 
d="M-43 -91q87 10 148 96q25 36 47.5 90t39 117t26 129.5t9.5 127.5q0 182 -127 198l10 51q112 -5 171 -78.5t59 -208.5q0 -65 -11 -130.5t-31.5 -125.5t-48.5 -112t-62 -89q-53 -58 -109 -85t-130 -31z" />
    <glyph glyph-name="asterisk" unicode="*" 
d="M262 657l58 61l37 -61l-63 -125h-16zM303 522l120 76l67 -26l-55 -64l-131 -2zM299 360l-19 124l15 9l91 -78l-17 -77zM143 415l119 78l11 -9l-64 -125l-78 -21zM97 570l77 28l92 -76l-8 -15h-130z" />
    <glyph glyph-name="plus" unicode="+" horiz-adv-x="833" 
d="M375 258h-251v81h251v257h83v-257h251v-81h-251v-258h-83v258z" />
    <glyph glyph-name="comma" unicode="," horiz-adv-x="292" 
d="M-49 -129q60 12 91.5 44.5t41.5 91.5h-61q-11 15 -11 36q0 38 23.5 62t59.5 24q34 0 53.5 -21t19.5 -56q0 -42 -17 -80t-47 -68.5t-71.5 -51t-89.5 -27.5z" />
    <glyph glyph-name="hyphen" unicode="-" horiz-adv-x="322" 
d="M26 290h253l-17 -98h-254z" />
    <glyph glyph-name="period" unicode="." horiz-adv-x="294" 
d="M100 148q32 0 54 -22.5t22 -54.5t-22.5 -54.5t-54.5 -22.5t-54.5 22.5t-22.5 54.5t22.5 54.5t55.5 22.5z" />
    <glyph glyph-name="slash" unicode="/" horiz-adv-x="482" 
d="M444 671h82l-561 -764h-83z" />
    <glyph glyph-name="zero" unicode="0" horiz-adv-x="587" 
d="M358 683q40 0 75 -13.5t61 -39.5q63 -63 63 -189q0 -53 -9 -105t-25.5 -99.5t-39.5 -88.5t-52 -71q-41 -43 -90.5 -65.5t-106.5 -22.5q-95 0 -149 63.5t-54 173.5q0 52 9.5 105t26.5 102t41.5 91t53.5 73q84 86 196 86zM345 625q-64 0 -113 -99q-16 -32 -29.5 -74.5
t-23.5 -89t-15.5 -94t-5.5 -90.5q0 -64 22.5 -97.5t64.5 -33.5q34 0 61 22.5t51 70.5q16 32 29 74.5t23 89.5t15.5 95.5t5.5 92.5q0 69 -20.5 101t-64.5 32z" />
    <glyph glyph-name="one" unicode="1" horiz-adv-x="587" 
d="M82 52l110 6l17 17l99 500l-11 5l-150 -19v50l246 72h63l-121 -611l12 -15l96 -7v-50h-361v52z" />
    <glyph glyph-name="two" unicode="2" horiz-adv-x="587" 
d="M3 75q62 44 99.5 71t62 45t41 32.5t37.5 32.5q42 37 72 70t49 64.5t28 62t9 62.5q0 48 -28.5 75.5t-76.5 27.5q-14 0 -29 -2t-29 -7l-25 -136q-32 -15 -58 -15q-28 0 -44.5 16t-16.5 43q0 32 20 62t54 53t77 37t90 14q44 0 80.5 -12t62 -34.5t39.5 -53.5t14 -69
q0 -67 -45 -133.5t-141 -141.5q-18 -14 -35.5 -26.5t-41.5 -27.5t-56.5 -35.5t-79.5 -48.5h279l33 90h66l-35 -191h-478z" />
    <glyph glyph-name="three" unicode="3" horiz-adv-x="587" 
d="M141 63q21 -10 34 -13t30 -3q34 0 63.5 12.5t51 34t34 50.5t12.5 63q0 106 -118 106q-25 0 -62 -6l12 73q8 -1 13.5 -1h13.5q80 0 128.5 39t48.5 104q0 45 -28.5 72.5t-76.5 27.5q-14 0 -26.5 -2.5t-32.5 -10.5l-20 -118q-20 -8 -31.5 -11.5t-22.5 -3.5q-26 0 -43.5 16.5
t-17.5 42.5q0 30 19.5 57t53 47t77.5 32t93 12q43 0 79 -10.5t61 -29.5t39 -46t14 -60q0 -65 -53 -112.5t-147 -67.5q43 -4 69.5 -11.5t46.5 -22.5q50 -36 50 -103q0 -47 -24 -89t-65.5 -73.5t-96.5 -50t-116 -18.5q-41 0 -75.5 9t-60.5 25t-40.5 38t-14.5 47
q0 31 20.5 52.5t49.5 21.5q19 0 47 -11z" />
    <glyph glyph-name="four" unicode="4" horiz-adv-x="587" 
d="M309 180h-311l16 79l406 417h98l-79 -417h111l-14 -79h-111l-41 -212h-114zM325 259l56 284l-274 -284h218z" />
    <glyph glyph-name="five" unicode="5" horiz-adv-x="587" 
d="M147 56q12 -5 22.5 -7t24.5 -2q39 0 71.5 13t56.5 35.5t37.5 53.5t13.5 68q0 60 -41 93t-116 33q-23 0 -49 -2t-67 -7l66 337h385l-19 -101h-308l-35 -170q42 11 71 15.5t56 4.5q42 0 77 -12t59.5 -33.5t38 -52.5t13.5 -68q0 -55 -24 -103.5t-65.5 -84.5t-97 -56.5
t-119.5 -20.5q-39 0 -71.5 8.5t-56.5 24t-37 36.5t-13 46q0 30 20 49.5t52 19.5q19 0 40 -9z" />
    <glyph glyph-name="six" unicode="6" horiz-adv-x="587" 
d="M516 656q-118 -10 -203 -76t-119 -175q43 26 81.5 38.5t77.5 12.5q40 0 73 -13t56.5 -37.5t36 -59t12.5 -77.5q0 -58 -22.5 -109t-61.5 -89t-91 -60t-111 -22q-100 0 -157 63.5t-57 174.5q0 54 12.5 106.5t36.5 101.5t58.5 92t78.5 78q61 49 129 75.5t162 38.5zM180 349
q-10 -37 -14.5 -68.5t-4.5 -66.5q0 -78 27.5 -120.5t77.5 -42.5q28 0 53 14.5t43.5 40t29 60.5t10.5 75q0 66 -30.5 101t-89.5 35q-26 0 -50.5 -6.5t-51.5 -21.5z" />
    <glyph glyph-name="seven" unicode="7" horiz-adv-x="587" 
d="M483 563h-286l-34 -99h-66l39 207h476l-10 -61l-417 -617l-2 -27h-109z" />
    <glyph glyph-name="eight" unicode="8" horiz-adv-x="587" 
d="M399 358q68 -35 97 -69.5t29 -83.5q0 -48 -21.5 -88.5t-59 -70.5t-88.5 -47t-111 -17q-51 0 -91.5 12t-69.5 34t-44.5 53.5t-15.5 70.5q0 63 42 110t123 76q-46 26 -66.5 58t-20.5 78q0 45 19.5 84t53.5 67.5t81 44.5t101 16q88 0 140 -41t52 -110q0 -118 -150 -177z
M354 379q82 57 82 147q0 47 -25.5 74.5t-68.5 27.5q-50 0 -83 -33t-33 -83q0 -21 6 -37t20.5 -31t39 -30.5t62.5 -34.5zM230 313q-46 -32 -66 -66.5t-20 -80.5q0 -56 33.5 -89t90.5 -33q28 0 51.5 9t40.5 25.5t27 39t10 49.5q0 33 -19.5 57t-66.5 50q-6 3 -12.5 6.5t-15.5 8
t-21.5 10t-31.5 14.5z" />
    <glyph glyph-name="nine" unicode="9" horiz-adv-x="587" 
d="M56 -3q231 70 331 272q-28 -13 -50 -22t-41 -14.5t-36 -8t-34 -2.5q-38 0 -70.5 13.5t-56.5 38t-37.5 58t-13.5 72.5q0 57 23.5 108t63 89t93 60t113.5 22q103 0 159.5 -58t56.5 -162q0 -126 -70 -238t-199 -191q-24 -15 -47.5 -27t-49.5 -23.5t-55 -22t-64 -20.5z
M408 332q11 42 15 73t4 63q0 71 -28.5 113t-76.5 42q-29 0 -54.5 -15.5t-45 -41.5t-31 -60.5t-11.5 -72.5q0 -64 31 -99.5t87 -35.5q27 0 53 8t57 26z" />
    <glyph glyph-name="colon" unicode=":" horiz-adv-x="346" 
d="M187 485q31 0 53.5 -22.5t22.5 -54.5t-22.5 -54t-54.5 -22t-54 22t-22 54t22.5 54.5t54.5 22.5zM127 148q32 0 54.5 -22.5t22.5 -54.5t-23 -54.5t-55 -22.5t-54 22t-22 54q0 33 22.5 55.5t54.5 22.5z" />
    <glyph glyph-name="semicolon" unicode=";" horiz-adv-x="346" 
d="M187 485q31 0 53.5 -22.5t22.5 -54.5t-22.5 -54t-54.5 -22t-54 22t-22 54t22.5 54.5t54.5 22.5zM-16 -129q60 12 91.5 44.5t41.5 91.5h-61q-11 15 -11 36q0 38 23.5 62t59.5 24q34 0 53.5 -21t19.5 -56q0 -42 -17 -80t-47 -68.5t-71.5 -51t-89.5 -27.5z" />
    <glyph glyph-name="less" unicode="&#x3c;" horiz-adv-x="833" 
d="M129 259v78l575 237v-90l-456 -186l456 -186v-89z" />
    <glyph glyph-name="equal" unicode="=" horiz-adv-x="833" 
d="M124 440h585v-82h-585v82zM124 238h585v-81h-585v81z" />
    <glyph glyph-name="greater" unicode="&#x3e;" horiz-adv-x="833" 
d="M129 112l456 186l-456 186v90l575 -237v-78l-575 -236v89z" />
    <glyph glyph-name="question" unicode="?" horiz-adv-x="490" 
d="M161 328q180 63 180 200q0 49 -26.5 72t-85.5 25l-66 -113q-11 -1 -16 -1h-10q-27 0 -42.5 13t-15.5 36q0 26 15.5 48.5t42.5 39t63.5 26t78.5 9.5q90 0 140.5 -41.5t50.5 -113.5q0 -163 -252 -244l-17 -91h-65zM159 144q28 0 47 -19t19 -48q0 -17 -7 -32t-18.5 -26.5
t-27 -18.5t-32.5 -7q-28 0 -47 19t-19 47q0 17 7 32.5t18.5 27t27 18.5t32.5 7z" />
    <glyph glyph-name="at" unicode="@" horiz-adv-x="936" 
d="M781 -122q-85 -45 -158.5 -66.5t-145.5 -21.5q-85 0 -159 29t-130 84q-112 110 -112 284q0 96 34.5 178t95.5 142.5t144.5 94.5t181.5 34q76 0 139 -23t107 -65t68.5 -101.5t24.5 -131.5q0 -74 -25 -137.5t-71 -109.5q-35 -35 -75 -53t-80 -18q-39 0 -57.5 18.5
t-20.5 62.5q-23 -22 -42.5 -37t-36.5 -24t-33.5 -13t-34.5 -4q-27 0 -50 12t-39 33t-25 50.5t-9 64.5q0 55 20 105t54 88t79 60t95 22q25 0 45 -5.5t54 -21.5l18 23h68q-7 -17 -13 -40t-14 -64l-37 -170q-9 -42 -9 -59t10 -27t26 -10q28 0 55.5 21.5t49 57t34.5 80.5t13 93
q0 62 -20.5 112.5t-58.5 86t-91 55t-119 19.5q-82 0 -151.5 -29t-120 -80.5t-79 -122t-28.5 -153.5q0 -80 25.5 -145.5t72 -112.5t111.5 -72.5t144 -25.5q67 0 128.5 17t130.5 55zM582 332l-37 53q-7 1 -12.5 1.5t-8.5 0.5q-31 0 -58 -16.5t-47 -45t-31.5 -67t-11.5 -82.5
q0 -54 18.5 -82.5t53.5 -28.5q26 0 48.5 15.5t48.5 52.5z" />
    <glyph glyph-name="A" unicode="A" horiz-adv-x="636" 
d="M-67 48l56 7l350 622h103l103 -608l10 -14l58 -7v-48h-263v48l61 7l11 14l-28 167h-223l-92 -167l10 -14l59 -7v-48h-215v48zM384 291l-42 260l-141 -260h183z" />
    <glyph glyph-name="B" unicode="B" horiz-adv-x="628" 
d="M-24 48l64 7l15 14l100 534l-11 14l-64 6v48h300q197 0 197 -130q0 -133 -172 -183q81 -7 118 -40.5t37 -100.5q0 -103 -74.5 -160t-211.5 -57h-298v48zM238 375q13 -2 20 -2h15q80 0 124 39.5t44 111.5q0 50 -29.5 73t-92.5 23h-17.5t-18.5 -2zM179 56q20 -2 30.5 -2.5
t23.5 -0.5q94 0 141.5 40.5t47.5 118.5q0 57 -33.5 83t-106.5 26q-14 0 -25 -0.5t-28 -2.5z" />
    <glyph glyph-name="C" unicode="C" horiz-adv-x="624" 
d="M445 72l46 124h67l-32 -173q-57 -19 -105.5 -27.5t-96.5 -8.5q-66 0 -119.5 20t-91 57.5t-57.5 90.5t-20 119q0 85 31.5 160t86 130.5t128.5 87.5t159 32q44 0 88.5 -7.5t104.5 -26.5l-30 -169h-66l-2 109l-10 18q-23 8 -38.5 11.5t-35.5 3.5q-59 0 -110 -27t-88.5 -74.5
t-58.5 -112.5t-21 -141q0 -105 51 -162.5t145 -57.5q14 0 26 1t30 5z" />
    <glyph glyph-name="D" unicode="D" horiz-adv-x="689" 
d="M-25 48l66 7l14 14l100 534l-10 14l-64 6v48h270q66 0 112 -9.5t81 -29.5q56 -33 85 -89t29 -130q0 -57 -14.5 -111.5t-40.5 -102t-63 -86t-83 -63.5q-88 -50 -233 -50h-249v48zM221 57q65 0 112.5 17.5t84.5 53.5q22 22 41 54.5t32.5 71t21 80t7.5 83.5q0 95 -47 146.5
t-134 51.5h-54l-104 -558h40z" />
    <glyph glyph-name="E" unicode="E" horiz-adv-x="578" 
d="M-24 48l65 7l14 14l100 534l-9 14l-64 6v48h495l-30 -156h-64v88l-12 12h-188l-44 -240h122l15 14l24 74h57l-43 -233h-54l2 75l-13 14h-121l-50 -261h226l14 14l38 107h66l-33 -179h-513v48z" />
    <glyph glyph-name="F" unicode="F" horiz-adv-x="536" 
d="M-25 48l66 7l13 14l101 534l-10 14l-65 6v48h486l-33 -168h-63l-2 100l-9 11h-176l-49 -250h119l18 12l26 75h57l-44 -235h-55l2 78l-14 13h-118l-45 -238l12 -14l65 -7v-48h-282v48z" />
    <glyph glyph-name="G" unicode="G" horiz-adv-x="692" 
d="M465 261l-11 14l-68 6v49h283v-48l-63 -6l-15 -14l-45 -232q-68 -23 -119 -33t-103 -10q-66 0 -119.5 20t-91 57t-57.5 90t-20 119q0 88 32.5 163t89.5 130t135 86.5t169 31.5q51 0 97 -7.5t95 -24.5l-30 -171h-72l1 111l-12 19q-24 7 -39.5 9.5t-35.5 2.5
q-62 0 -115.5 -27t-92.5 -74t-61.5 -111t-22.5 -139q0 -104 53 -162.5t147 -58.5q21 0 53 3z" />
    <glyph glyph-name="H" unicode="H" horiz-adv-x="738" 
d="M-25 48l64 7l16 14l100 534l-10 14l-62 6v48h276v-48l-65 -6l-13 -14l-42 -222h280l42 222l-13 14l-60 6v48h278v-48l-66 -6l-13 -14l-100 -534l9 -14l64 -7v-48h-277v48l63 7l16 14l46 252h-280l-47 -252l11 -14l64 -7v-48h-281v48z" />
    <glyph glyph-name="I" unicode="I" horiz-adv-x="345" 
d="M-20 48l66 7l15 14l100 534l-10 14l-65 6v48h282v-48l-66 -6l-16 -14l-100 -534l12 -14l65 -7v-48h-283v48z" />
    <glyph glyph-name="J" unicode="J" horiz-adv-x="472" 
d="M-11 192h71l1 -136l13 -12q36 0 61 10t42.5 35t30 69t23.5 112l59 333l-10 14l-67 6v48h282v-48l-67 -6l-14 -14l-56 -335q-25 -145 -87 -213t-171 -68q-41 0 -75 6.5t-70 20.5z" />
    <glyph glyph-name="K" unicode="K" horiz-adv-x="655" 
d="M-24 48l64 7l15 14l100 534l-10 14l-63 6v48h279v-48l-66 -6l-13 -14l-50 -260h30l251 260l-6 14l-62 6v48h250v-48l-79 -6l-234 -240l128 -256q11 -22 21.5 -36.5t23 -22.5t28 -11.5t37.5 -3.5h9t10 1v-47q-38 -4 -72 -6t-50 -2q-26 0 -45.5 5t-35 17t-29.5 33.5
t-30 54.5l-91 190h-63l-41 -224l11 -14l62 -7v-48h-279v48z" />
    <glyph glyph-name="L" unicode="L" horiz-adv-x="531" 
d="M-24 48l62 7l16 14l100 534l-10 14l-63 6v48h279v-48l-63 -6l-17 -14l-101 -545h181l18 11l39 128h72l-38 -197h-475v48z" />
    <glyph glyph-name="M" unicode="M" horiz-adv-x="886" 
d="M-25 48l64 7l15 14l104 534l-9 14l-66 6v48h258v-30l75 -463l243 466v27h251v-48l-64 -6l-15 -14l-95 -534l10 -14l62 -7v-48h-270v48l66 7l14 14l94 534l-315 -603h-72l-96 603l-103 -534l12 -14l60 -7v-48h-223v48z" />
    <glyph glyph-name="N" unicode="N" horiz-adv-x="716" 
d="M-24 48l65 7l14 14l101 534l-11 14l-64 6v48h221v-24l206 -485l84 441l-12 14l-65 6v48h229v-48l-64 -6l-16 -14l-112 -603h-103l-231 542l-90 -473l10 -14l66 -7v-48h-228v48z" />
    <glyph glyph-name="O" unicode="O" horiz-adv-x="728" 
d="M418 684q55 0 105 -18.5t88 -52.5q39 -37 60 -90.5t21 -119.5q0 -50 -11 -98t-31 -92.5t-49.5 -82.5t-65.5 -67q-47 -38 -102.5 -57t-116.5 -19q-63 0 -114 20t-87 57t-55.5 89.5t-19.5 116.5q0 51 11.5 100.5t32.5 94t51 83t67 66.5q94 70 216 70zM405 623
q-78 0 -142 -85q-39 -54 -62 -128.5t-23 -150.5q0 -48 10.5 -87t30 -66.5t47 -42.5t61.5 -15q46 0 87 29t72 79t49.5 115.5t18.5 139.5q0 100 -39 156t-110 56z" />
    <glyph glyph-name="P" unicode="P" horiz-adv-x="582" 
d="M-25 48l64 7l15 14l100 534l-10 14l-62 6v48h258q126 0 184 -41t58 -129q0 -101 -69 -170q-42 -42 -102.5 -62.5t-141.5 -20.5h-26t-29 2l-34 -181l9 -14l66 -7v-48h-280v48zM224 306q9 -1 14.5 -1h11.5q93 0 143.5 50.5t50.5 141.5q0 119 -137 119h-10.5t-13.5 -1z" />
    <glyph glyph-name="Q" unicode="Q" horiz-adv-x="723" 
d="M706 -116q-32 -14 -57 -23t-46 -14.5t-39 -8t-35 -2.5q-59 0 -101.5 35.5t-82.5 118.5q-12 -1 -19 -1h-13q-40 0 -72.5 7.5t-61.5 22.5q-66 36 -104 102.5t-38 146.5q0 53 13 105t37 99t57.5 86t75.5 67q88 59 195 59q63 0 113.5 -20t86 -57t55 -89.5t19.5 -117.5
q0 -77 -25.5 -148.5t-74.5 -128.5q-12 -15 -23.5 -26.5t-24.5 -22.5t-29.5 -21.5t-37.5 -23.5q18 -35 32.5 -58.5t29.5 -37t32 -19t38 -5.5q20 0 43.5 5t56.5 16v-46zM397 617q-44 0 -84 -29t-70.5 -77.5t-49 -112t-18.5 -132.5q0 -47 11.5 -85.5t32.5 -66.5t49.5 -43.5
t63.5 -15.5q45 0 84.5 27.5t69.5 75t47.5 110t17.5 132.5q0 100 -41.5 158.5t-112.5 58.5z" />
    <glyph glyph-name="R" unicode="R" horiz-adv-x="643" 
d="M-24 48l63 7l15 14l101 534l-11 14l-65 6v48h290q110 0 162 -35t52 -109q0 -80 -53.5 -131t-157.5 -70q28 -6 48 -17t35.5 -30.5t27.5 -51t25 -77.5q9 -34 18 -54.5t22 -31.5t32.5 -14.5t49.5 -2.5v-46q-28 -4 -50 -5.5t-41 -1.5q-38 0 -65 8.5t-46.5 29t-33 54.5
t-24.5 85q-6 25 -10.5 41t-9.5 27t-12 18t-17 15q-15 11 -36 17.5t-44 6.5h-7.5t-9.5 -1l-43 -226l9 -14l67 -7v-48h-281v48zM234 352q8 -1 12.5 -1h11.5q90 0 138.5 41.5t48.5 116.5q0 107 -132 107h-10t-19 -1z" />
    <glyph glyph-name="S" unicode="S" horiz-adv-x="552" 
d="M49 204h66v-119l6 -10q27 -11 47.5 -15.5t43.5 -4.5q62 0 101.5 32.5t39.5 83.5q0 19 -5 33.5t-18.5 28.5t-37.5 30t-62 37q-43 24 -70.5 43.5t-43.5 39t-22 40.5t-6 49q0 46 19 84.5t53 66.5t81.5 43t104.5 15q38 0 75.5 -6.5t85.5 -21.5l-26 -169h-60l2 110l-8 10
q-20 9 -35 12.5t-35 3.5q-30 0 -55 -8.5t-43.5 -23t-29 -34.5t-10.5 -44q0 -17 4.5 -30t18 -26.5t38 -29.5t65.5 -39q43 -25 71.5 -45t44.5 -39.5t22.5 -40.5t6.5 -48q0 -48 -20 -88.5t-56 -70t-84.5 -46.5t-105.5 -17q-52 0 -96 12t-93 40z" />
    <glyph glyph-name="T" unicode="T" horiz-adv-x="583" 
d="M91 48l69 7l14 14l100 547h-113l-18 -13l-36 -108h-70l34 176h556l-33 -176h-67l2 108l-14 13h-113l-102 -547l11 -14l68 -7v-48h-288v48z" />
    <glyph glyph-name="U" unicode="U" horiz-adv-x="703" 
d="M587 603l-11 14l-66 6v48h226v-48l-64 -6l-15 -14l-67 -352q-7 -37 -14 -63.5t-15.5 -47t-19 -37t-24.5 -31.5q-38 -42 -95.5 -63.5t-132.5 -21.5q-104 0 -159.5 45.5t-55.5 130.5q0 20 2.5 42t7.5 49l66 349l-12 14l-61 6v48h277v-48l-63 -6l-15 -14l-64 -345
q-5 -25 -7 -42t-2 -31q0 -57 34.5 -88t97.5 -31q40 0 70 10t52 32t36.5 56.5t24.5 84.5z" />
    <glyph glyph-name="V" unicode="V" horiz-adv-x="623" 
d="M95 603l-9 14l-56 6v48h258v-48l-61 -6l-9 -14l75 -466l241 466l-7 14l-58 6v48h211v-48l-58 -6l-330 -620h-97z" />
    <glyph glyph-name="W" unicode="W" horiz-adv-x="916" 
d="M105 603l-10 14l-55 6v48h256v-48l-61 -6l-11 -14l33 -419l223 487h96l52 -496l186 428l-8 14l-58 6v48h212v-48l-63 -6l-272 -617h-90l-54 515l-237 -515h-91z" />
    <glyph glyph-name="X" unicode="X" horiz-adv-x="609" 
d="M-65 48l58 7l13 8l239 269l-123 277l-8 8l-63 6v48h274v-48l-61 -6l-11 -14l79 -183l162 183l-6 14l-56 6v48h225v-48l-65 -6l-229 -257l132 -299l10 -6l60 -7v-48h-277v48l65 7l11 14l-86 198l-177 -198l11 -14l62 -7v-48h-239v48z" />
    <glyph glyph-name="Y" unicode="Y" horiz-adv-x="589" 
d="M95 48l67 7l16 14l36 193l-115 347l-9 8l-63 6v48h273v-48l-62 -6l-12 -14l86 -260l185 260l-10 14l-64 6v48h234v-48l-64 -6l-254 -341l-39 -207l11 -14l68 -7v-48h-284v48z" />
    <glyph glyph-name="Z" unicode="Z" horiz-adv-x="572" 
d="M-13 50l434 562h-213l-18 -10l-34 -109h-72l34 178h462l-3 -49l-435 -563h241l16 14l38 123h71l-37 -196h-487z" />
    <glyph glyph-name="bracketleft" unicode="[" horiz-adv-x="441" 
d="M201 708h269l-10 -56h-154l-132 -729h154l-9 -55h-270z" />
    <glyph glyph-name="backslash" unicode="\" horiz-adv-x="481" 
d="M21 671h81l402 -764h-79z" />
    <glyph glyph-name="bracketright" unicode="]" horiz-adv-x="441" 
d="M-33 -77h154l131 730h-154l10 55h269l-151 -840h-269z" />
    <glyph glyph-name="asciicircum" unicode="^" horiz-adv-x="833" 
d="M364 714h105l245 -276h-51l-247 194l-247 -194h-51z" />
    <glyph glyph-name="underscore" unicode="_" 
d="M0 -67h500v-84h-500v84z" />
    <glyph glyph-name="grave" unicode="`" 
d="M158 741h124l60 -190h-67z" />
    <glyph glyph-name="a" unicode="a" horiz-adv-x="573" 
d="M548 29q-30 -11 -52 -17.5t-39.5 -10.5t-32.5 -5.5t-30 -1.5q-72 0 -72 78q-85 -82 -162 -82q-66 0 -103.5 49t-37.5 134q0 67 21.5 125.5t59.5 101.5t89 67.5t110 24.5q28 0 54 -5t63 -18l37 24h59q-7 -22 -15 -58.5t-19 -93.5l-29 -162q-9 -48 -9 -70q0 -54 47 -54
q11 0 24.5 2.5t36.5 8.5v-37zM370 385l-40 60q-33 1 -57 -8t-46 -29q-38 -35 -59 -92t-21 -125q0 -117 75 -117q23 0 45 10t57 36z" />
    <glyph glyph-name="b" unicode="b" horiz-adv-x="558" 
d="M139 653l-83 11v33l171 39h44l-2 -11l-7 -44l-7 -36q-1 -8 -2 -15t-3 -15l-34 -191q26 19 48 32t41 21t37 11.5t36 3.5q29 0 54 -13.5t43 -36.5t28 -55.5t10 -69.5q0 -42 -10.5 -84t-30 -79.5t-46 -68t-59.5 -51.5q-70 -44 -164 -44q-48 0 -87.5 10.5t-84.5 34.5zM155 67
q35 -28 71 -28q57 0 105 69q54 76 54 194q0 114 -80 114q-21 0 -41 -7.5t-54 -27.5z" />
    <glyph glyph-name="c" unicode="c" horiz-adv-x="442" 
d="M399 85q-54 -47 -106.5 -71t-102.5 -24q-39 0 -70.5 13.5t-54 39t-34.5 61t-12 79.5q0 63 22.5 119.5t61.5 98.5t91 66.5t111 24.5q50 0 79 -21.5t29 -57.5q0 -66 -82 -74l-65 102q-27 -9 -48.5 -30t-37.5 -51.5t-24.5 -69.5t-8.5 -82q0 -67 25 -103.5t70 -36.5
q37 0 72.5 17t84.5 59v-59z" />
    <glyph glyph-name="d" unicode="d" horiz-adv-x="581" 
d="M558 29q-29 -10 -51 -17t-39.5 -11t-32.5 -5.5t-31 -1.5q-42 0 -60 19t-19 64q-86 -87 -162 -87q-65 0 -104 51.5t-39 136.5q0 65 22 122.5t60.5 100t89.5 67t109 24.5q23 0 44 -4t45 -13l29 178l-85 11v33l174 39h42l-92 -557q-5 -32 -7 -47t-2 -26q0 -23 12.5 -37
t34.5 -14q23 0 62 11v-37zM374 385l-42 60h-4l-3 1q-5 1 -8.5 1h-6.5q-32 0 -61 -21t-51.5 -56.5t-36 -81.5t-13.5 -96q0 -56 19 -87t54 -31q26 0 51 12.5t60 41.5z" />
    <glyph glyph-name="e" unicode="e" horiz-adv-x="461" 
d="M398 75q-60 -45 -108.5 -65t-98.5 -20q-82 0 -128.5 51t-46.5 140q0 63 23 119.5t62.5 99t92 67.5t110.5 25q57 0 90.5 -30t33.5 -81q0 -73 -68 -114t-192 -41h-14t-16 1q-1 -8 -1 -11.5v-11.5q0 -136 103 -136q36 0 72.5 15t87.5 53zM146 269q40 3 73.5 13t57.5 26
t37 37.5t13 45.5q0 23 -13.5 37.5t-35.5 14.5q-42 0 -75.5 -44t-56.5 -130z" />
    <glyph glyph-name="f" unicode="f" horiz-adv-x="324" 
d="M-8 -146q11 15 19.5 35.5t16 49.5t14.5 69t15 94l43 306l-67 -8v44l78 34q13 62 32.5 104t52.5 77q68 74 153 74q42 0 69 -20t27 -49q0 -48 -63 -66l-85 88q-23 -30 -40 -81.5t-33 -137.5h136v-58h-145l-37 -262q-11 -75 -29.5 -131t-49.5 -102q-40 -60 -89 -94t-97 -34
q-29 0 -48.5 18.5t-19.5 45.5q0 42 40 61z" />
    <glyph glyph-name="g" unicode="g" horiz-adv-x="516" 
d="M348 47q48 -23 69.5 -48t21.5 -58t-20.5 -62t-56.5 -50.5t-84.5 -34t-103.5 -12.5q-93 0 -148.5 36t-55.5 97q0 92 146 147q-1 5 -1 10q0 43 42 96q-114 33 -114 133q0 40 17 75t46.5 61t70 40.5t87.5 14.5q32 0 60.5 -6.5t64.5 -22.5h137v-52h-102q5 -20 7.5 -33.5
t2.5 -27.5q0 -41 -17 -75.5t-47 -59.5t-71.5 -39.5t-90.5 -14.5q-12 -23 -12 -35q0 -4 1 -7zM263 448q-20 0 -38 -13.5t-31.5 -36.5t-22 -52.5t-8.5 -60.5q0 -38 14 -58t40 -20q20 0 38 13.5t32 36t22.5 51.5t8.5 61q0 79 -55 79zM141 29q-35 -20 -49.5 -40t-14.5 -49
q0 -48 36.5 -78.5t92.5 -30.5q48 0 81 22.5t33 55.5q0 38 -59 65z" />
    <glyph glyph-name="h" unicode="h" horiz-adv-x="588" 
d="M148 653l-87 11v33l177 39h46q-9 -37 -17.5 -77.5t-19.5 -94.5l-34 -169q36 28 63.5 46.5t50.5 29.5t43 16t40 5q41 0 66.5 -26t25.5 -67q0 -15 -3 -37.5t-8 -44.5l-29 -138q-11 -50 -11 -73q0 -24 12.5 -37.5t33.5 -13.5q13 0 26 2.5t36 8.5v-37q-27 -10 -49 -16.5
t-40 -10.5t-33.5 -6t-31.5 -2q-37 0 -57.5 18.5t-20.5 51.5q0 11 1.5 21.5t6.5 32.5l35 166q4 17 6.5 36t2.5 31q0 26 -12.5 41.5t-33.5 15.5q-25 0 -55 -15.5t-74 -50.5l-61 -342h-124z" />
    <glyph glyph-name="i" unicode="i" horiz-adv-x="315" 
d="M293 73v-41q-32 -11 -55.5 -18.5t-42.5 -12t-35.5 -6t-33.5 -1.5q-78 0 -78 76q0 11 2.5 30.5t6.5 37.5l53 269l-82 12v35l171 39h44l-63 -338q-2 -11 -3.5 -22.5t-1.5 -19.5q0 -54 48 -54q13 0 24 2t39 10zM219 727q29 0 46.5 -18t17.5 -47q0 -32 -21.5 -54t-53.5 -22
q-29 0 -47.5 17.5t-18.5 46.5q0 33 22 55t55 22z" />
    <glyph glyph-name="j" unicode="j" horiz-adv-x="296" 
d="M4 -140q10 13 18.5 31.5t16 45.5t14.5 64t15 89l46 317l-90 12v35l179 39h44l-54 -338q-9 -54 -16.5 -91t-17 -65t-22.5 -49.5t-31 -44.5q-43 -54 -94.5 -86.5t-93.5 -32.5q-29 0 -47 17t-18 45q0 40 34 59zM215 727q29 0 46.5 -18t17.5 -47q0 -32 -21.5 -54t-53.5 -22
q-29 0 -47.5 18t-18.5 47q0 33 22 54.5t55 21.5z" />
    <glyph glyph-name="k" unicode="k" horiz-adv-x="557" 
d="M145 653l-88 10v34l180 39h43l-96 -478l130 137q26 28 46.5 47t37.5 30.5t31.5 16.5t28.5 5q26 0 43.5 -19.5t17.5 -48.5q0 -31 -19 -51t-62 -35l-36 58q-35 -28 -56 -45.5t-35 -31.5q24 -56 38 -89t23.5 -53.5t17 -34t17.5 -30.5q34 -61 82 -61q11 0 23 1.5t29 6.5v-39
q-57 -16 -89 -22t-56 -6q-19 0 -34 5t-28 17.5t-25 33t-25 51.5l-63 146l-46 -50l-35 -197h-119z" />
    <glyph glyph-name="l" unicode="l" horiz-adv-x="307" 
d="M283 31q-35 -11 -59.5 -18t-43 -11.5t-32.5 -6t-27 -1.5q-38 0 -61 18.5t-23 50.5q0 11 1 21.5t6 33.5l99 535l-83 11v33l171 39h44l-103 -557q-7 -32 -9 -47t-2 -28q0 -22 12.5 -35.5t33.5 -13.5q7 0 13.5 0.5t15 2t19.5 4.5t28 8v-39z" />
    <glyph glyph-name="m" unicode="m" horiz-adv-x="877" 
d="M109 407l-81 12v35l170 39h39l-19 -98q60 51 106.5 74t90.5 23q82 0 90 -94q112 94 190 94q43 0 69 -27t26 -72q0 -11 -2.5 -30.5t-4.5 -33.5l-32 -150q-6 -26 -8.5 -44t-2.5 -29q0 -24 12 -37.5t34 -13.5q13 0 26 2.5t36 8.5v-37q-55 -20 -88.5 -27.5t-64.5 -7.5
q-79 0 -79 70q0 10 1.5 22t6.5 32l37 177q8 35 8 59q0 25 -13 39.5t-35 14.5q-27 0 -56 -15t-64 -47l-58 -346h-123l57 301q7 35 7 50q0 26 -13 41.5t-35 15.5q-24 0 -52.5 -14.5t-70.5 -46.5l-60 -347h-122z" />
    <glyph glyph-name="n" unicode="n" horiz-adv-x="598" 
d="M109 407l-83 12v35l176 39h39l-20 -99q34 27 62 45.5t51.5 30.5t44.5 17t41 5q41 0 66.5 -27t25.5 -70q0 -14 -2.5 -35.5t-7.5 -43.5l-30 -137q-6 -26 -8.5 -43t-2.5 -30q0 -24 12 -37.5t34 -13.5q13 0 26.5 2.5t35.5 8.5v-38q-50 -18 -85.5 -26t-67.5 -8
q-38 0 -58.5 18.5t-20.5 51.5q0 9 1.5 21.5t6.5 32.5l35 166q4 17 6.5 36t2.5 30q0 27 -12.5 42.5t-34.5 15.5q-24 0 -53.5 -15.5t-73.5 -50.5l-58 -342h-127z" />
    <glyph glyph-name="o" unicode="o" horiz-adv-x="551" 
d="M300 492q45 0 82 -14.5t63.5 -41.5t40.5 -65t14 -85q0 -62 -22 -116t-59.5 -94t-88.5 -63t-109 -23q-47 0 -84.5 14.5t-63.5 41.5t-40.5 65t-14.5 85q0 62 22 116t60 94t89.5 63t110.5 23zM284 440q-29 0 -54.5 -20t-44 -54.5t-29 -81.5t-10.5 -101q0 -69 21.5 -105
t63.5 -36q30 0 56 19.5t44.5 53.5t29.5 80t11 100q0 145 -88 145z" />
    <glyph glyph-name="p" unicode="p" horiz-adv-x="571" 
d="M-61 -178l61 16l9 13l96 556l-77 12v35l167 39h44l-14 -68q47 35 85 51t76 16q63 0 99.5 -48t36.5 -130q0 -65 -22.5 -123t-61.5 -101t-91.5 -68t-111.5 -25q-21 0 -37.5 3.5t-42.5 12.5l-30 -175l93 -17v-39h-279v40zM164 70q37 -17 68 -17q34 0 63.5 19.5t51.5 53
t34.5 78.5t12.5 96q0 57 -20 88t-57 31q-22 0 -43.5 -9.5t-55.5 -33.5z" />
    <glyph glyph-name="q" unicode="q" horiz-adv-x="557" 
d="M204 -178l62 12l11 14l38 218q-49 -40 -84 -56t-72 -16q-66 0 -104 49.5t-38 134.5q0 65 21.5 122.5t59 100t88 67t107.5 24.5q27 0 54 -5.5t62 -17.5l46 27h53q-6 -29 -10 -51.5t-8 -44t-7.5 -44t-8.5 -50.5l-79 -468l90 -18v-38h-281v40zM369 382l-43 62q-5 1 -8.5 1
h-7.5q-36 0 -64 -18q-23 -15 -42.5 -40t-33.5 -56.5t-22 -68t-8 -73.5q0 -56 22 -86.5t63 -30.5q24 0 46 9.5t54 35.5z" />
    <glyph glyph-name="r" unicode="r" horiz-adv-x="449" 
d="M109 407l-83 12v35l172 39h35l-28 -134q51 69 93 101t81 32q30 0 50.5 -21t20.5 -52q0 -39 -26 -61t-73 -24l-27 76q-58 -24 -89.5 -66.5t-43.5 -111.5l-38 -232h-123z" />
    <glyph glyph-name="s" unicode="s" horiz-adv-x="403" 
d="M86 61q21 -13 35.5 -18t31.5 -5q33 0 54 20.5t21 52.5q0 13 -3 24t-11 21t-21 21t-34 25q-33 22 -54.5 39t-33.5 32t-17 29.5t-5 32.5q0 34 15 62.5t41.5 49.5t63 33t79.5 12q53 0 83 -19.5t30 -53.5q0 -28 -18.5 -44t-52.5 -18l-47 90q-8 2 -12 2h-9q-30 0 -50.5 -16.5
t-20.5 -39.5q0 -10 3 -19t12 -19t24.5 -22.5t40.5 -30.5q32 -23 52.5 -41t32.5 -34t16.5 -32.5t4.5 -37.5q0 -35 -15 -65.5t-42 -53t-63 -35.5t-78 -13q-33 0 -60.5 8t-47.5 22t-31.5 33t-11.5 42q0 27 17 44.5t43 17.5q30 0 56 -23z" />
    <glyph glyph-name="t" unicode="t" horiz-adv-x="365" 
d="M319 35q-35 -12 -61.5 -19.5t-47.5 -12.5t-37 -7t-31 -2q-45 0 -68.5 24.5t-23.5 69.5q0 13 2 30t5 33l49 264l-66 -3v36l86 43l66 110h65l-23 -128h137v-58h-148l-44 -245q-3 -14 -4.5 -28t-1.5 -23q0 -62 58 -62q18 0 37.5 4t50.5 14v-40z" />
    <glyph glyph-name="u" unicode="u" horiz-adv-x="599" 
d="M573 29q-61 -20 -96.5 -27.5t-62.5 -7.5q-38 0 -55 19.5t-18 63.5q-63 -47 -107 -67t-82 -20q-45 0 -71.5 27t-26.5 74q0 27 6 56l48 260l-80 12v35l173 33h38l-57 -299q-8 -40 -8 -60q0 -26 13.5 -40t36.5 -14q26 0 52.5 11t70.5 38l67 352l119 14l-58 -310
q-4 -18 -6 -30t-3 -20t-1.5 -13t-0.5 -11q0 -23 13 -36.5t35 -13.5q11 0 25.5 2.5t35.5 8.5v-37z" />
    <glyph glyph-name="v" unicode="v" horiz-adv-x="493" 
d="M109 0q6 20 8 32.5t2 32.5v8l-22 208q-5 57 -10.5 87t-13.5 44l-81 12v32l158 37q13 -4 22 -10.5t15 -18t9 -29t5 -43.5l26 -284q45 56 77.5 105t61.5 108l-23 148q18 14 32.5 19.5t30.5 5.5q29 0 47.5 -18.5t18.5 -47.5q0 -31 -19.5 -76.5t-55.5 -101t-87.5 -119.5
t-114.5 -131h-86z" />
    <glyph glyph-name="w" unicode="w" horiz-adv-x="768" 
d="M105 31l-23 380l-83 12v33l143 37h46l21 -364q30 56 54 102t44.5 86.5t38 77.5t35.5 76l94 8q3 -74 8.5 -166.5t14.5 -217.5q31 42 53 73.5t38 57t27.5 47t21.5 44.5l-24 150q26 27 61 27q29 0 47.5 -19t18.5 -50q0 -35 -21.5 -83t-66.5 -116q-13 -20 -24.5 -35.5
t-28.5 -38.5t-44.5 -58.5t-72.5 -93.5h-86l-21 345q-23 -45 -44 -85t-43 -80.5t-46 -84t-53 -95.5h-94z" />
    <glyph glyph-name="x" unicode="x" horiz-adv-x="510" 
d="M475 22q-51 -16 -80.5 -22t-53.5 -6q-26 0 -46 9.5t-36 31t-28 56.5t-23 87q-28 -50 -51 -84t-44 -55t-40 -30.5t-40 -9.5q-29 0 -50 19.5t-21 46.5q0 50 63 70l44 -53q35 26 62 60.5t54 87.5q-13 41 -23.5 71t-18.5 51t-15 34.5t-13 22.5l-91 7v34l137 44h5h2
q19 -1 32.5 -8.5t25 -27.5t22.5 -54.5t25 -88.5q51 91 91.5 131.5t82.5 40.5q28 0 45.5 -18t17.5 -46q0 -54 -64 -76l-39 53q-31 -15 -56.5 -46.5t-54.5 -88.5q10 -37 17 -60t12 -38t9 -26t9 -24q14 -33 32.5 -48t46.5 -15q11 0 24.5 2t28.5 5v-39z" />
    <glyph glyph-name="y" unicode="y" horiz-adv-x="495" 
d="M48 -135q68 6 149 161h-38l-61 317q-4 20 -10 39t-15 36l-87 8v33l154 35q15 -4 26.5 -13.5t20.5 -27.5t16 -46t13 -67l35 -218q24 61 44 110.5t38 93t35 84t35 83.5h31l79 -26v-27l-59 -33q-15 -21 -27 -39.5t-24 -41.5t-26.5 -54.5t-34.5 -78.5q-21 -48 -38.5 -84.5
t-33 -66.5t-30.5 -55t-32 -51q-104 -152 -201 -152q-35 0 -60 22.5t-25 54.5q0 50 59 67z" />
    <glyph glyph-name="z" unicode="z" horiz-adv-x="468" 
d="M-19 27l326 352l-87 -18q-29 20 -49.5 28.5t-39.5 8.5q-29 0 -52 -22l58 -67q-25 -42 -60 -42q-23 0 -36 17t-13 46q0 30 13.5 60t35 53t49 37.5t55.5 14.5q10 0 19.5 -1.5t19.5 -4.5t22 -8t28 -13q26 -13 44 -18.5t35 -5.5h6t9 1l23 57l74 -46l-330 -348l87 24
q32 -23 54 -32.5t42 -9.5q17 0 30 5.5t29 19.5l-64 72q23 44 58 44q24 0 41 -20t17 -49q0 -33 -18 -68.5t-47 -61.5q-40 -34 -94 -34q-11 0 -19 0.5t-19 3.5t-27 8.5t-42 14.5q-42 14 -59 14q-10 0 -25 -3l-24 -50z" />
    <glyph glyph-name="braceleft" unicode="{" horiz-adv-x="491" 
d="M339 -134q-11 -1 -20.5 -1h-14.5q-94 0 -136.5 27.5t-42.5 88.5q0 27 8 70l16 81q3 14 4.5 29t1.5 27q0 52 -42 67q-8 3 -13.5 4.5t-13.5 2t-20 1t-32 0.5l11 57h18q35 0 59.5 6.5t41.5 21.5t28 39.5t18 60.5l16 84q9 48 27.5 81t48.5 53.5t74 29.5t105 9h21l-10 -51
q-37 -2 -62.5 -8.5t-43 -20.5t-27.5 -37.5t-17 -58.5l-12 -62q-16 -80 -58.5 -121t-123.5 -54q62 -11 91 -40.5t29 -80.5q0 -11 -1.5 -26t-3.5 -26l-14 -73q-7 -35 -7 -59q0 -36 24 -51t83 -17z" />
    <glyph glyph-name="bar" unicode="|" 
d="M207 764h87v-1000h-87v1000z" />
    <glyph glyph-name="braceright" unicode="}" horiz-adv-x="485" 
d="M-22 -81q38 1 63.5 7t42.5 20t27 38.5t17 61.5l14 73q17 78 59 118.5t122 54.5q-29 6 -41 9.5t-25 11.5q-53 30 -53 96q0 26 6 58l12 62q5 22 6 32.5t1 21.5q0 35 -24.5 51.5t-84.5 19.5l10 51q31 0 53 -0.5t38 -2.5t29 -5t27 -8q68 -25 68 -97q0 -12 -2 -29t-4 -31
l-16 -84q-7 -34 -7 -57q0 -71 97 -71h24l-11 -57q-9 1 -14 1h-13q-62 0 -93 -29.5t-45 -102.5l-16 -81q-11 -52 -28.5 -87.5t-46 -57t-70.5 -31t-102 -9.5h-31z" />
    <glyph glyph-name="asciitilde" unicode="~" horiz-adv-x="833" 
d="M87 303q30 19 55 32.5t47.5 21.5t44 12t44.5 4q33 0 68 -7.5t83 -25.5q49 -17 78.5 -24.5t54.5 -7.5q21 0 41.5 4t42.5 13t47 23.5t54 34.5v-90q-56 -37 -99 -53t-86 -16q-15 0 -27 1t-26.5 4.5t-32.5 9.5l-45 15q-59 20 -92.5 28t-62.5 8q-41 0 -83.5 -17.5
t-105.5 -60.5v91z" />
    <glyph glyph-name="uni00A0" unicode="&#xa0;" horiz-adv-x="220" 
 />
    <glyph glyph-name="exclamdown" unicode="&#xa1;" horiz-adv-x="340" 
d="M134 288h52l-21 -355q-4 -69 -26 -100t-68 -31q-31 0 -48 15t-17 43q0 12 3.5 28.5t11.5 42.5zM191 492q28 0 47 -19t19 -48q0 -34 -25 -59t-59 -25q-29 0 -48 19t-19 48q0 17 7 32t18.5 26.5t27 18.5t32.5 7z" />
    <glyph glyph-name="cent" unicode="&#xa2;" horiz-adv-x="587" 
d="M245 2q-97 14 -147.5 68t-50.5 142q0 60 21 111.5t60 90.5t93.5 63.5t120.5 31.5l19 100h54l-19 -99q55 -5 85.5 -11.5t54.5 -17.5l-26 -130h-61l2 89q-17 9 -31.5 13t-33.5 5l-76 -404q18 1 36.5 5t38.5 12l29 90h64l-27 -136q-39 -12 -74.5 -18t-76.5 -7l-20 -103h-54z
M333 455q-35 -9 -58.5 -23.5t-45.5 -40.5q-30 -37 -45.5 -85t-15.5 -104q0 -62 21.5 -97t68.5 -49z" />
    <glyph glyph-name="sterling" unicode="&#xa3;" horiz-adv-x="587" 
d="M-1 75q33 6 57 21t40.5 41t26.5 66t16 96h-69l7 60h68q5 61 16 102.5t31 80.5q34 65 91 99.5t129 34.5q32 0 59.5 -8t48 -21.5t32 -32t11.5 -40.5q0 -30 -22 -48t-57 -18h-9.5t-12.5 1l-39 116h-7q-33 0 -57 -14.5t-42 -46t-30 -82.5t-19 -123h180l-8 -60h-181
q-11 -71 -43.5 -119t-92.5 -80l3 -6q29 3 52.5 4.5t47.5 1.5h265l-12 -100h-489z" />
    <glyph glyph-name="currency" unicode="&#xa4;" horiz-adv-x="587" 
d="M27 211l99 100q-20 29 -29.5 57.5t-9.5 63.5t9 63t30 58l-99 100l45 45l99 -99q31 22 59 31t63 9t63.5 -9t59.5 -31l99 99l46 -45l-100 -100q21 -31 30 -59t9 -62q0 -35 -9 -63t-30 -58l100 -100l-46 -45l-99 100q-32 -22 -59.5 -31t-62.5 -9t-63 9t-60 31l-99 -100z
M292 574q-29 0 -54 -11.5t-44.5 -31t-30.5 -45t-11 -54.5t11 -55t30.5 -45t45 -30t55.5 -11q29 0 55 11t45.5 30t30.5 44.5t11 54.5q0 30 -11.5 56t-31 45.5t-45.5 30.5t-56 11z" />
    <glyph glyph-name="yen" unicode="&#xa5;" horiz-adv-x="587" 
d="M97 49l69 5l21 15l28 165h-205v49h204l-31 95h-147v50h126l-59 181l-55 10v49h257v-49l-60 -6l-11 -11l83 -253l173 244l-4 16l-47 11v48h197v-49l-59 -11l-130 -180h124v-50h-164l-68 -95h204v-49h-210l-28 -165l13 -15l65 -5v-49h-286v49z" />
    <glyph glyph-name="brokenbar" unicode="&#xa6;" 
d="M207 699h87v-370h-87v370zM207 199h87v-370h-87v370z" />
    <glyph glyph-name="section" unicode="&#xa7;" 
d="M14 28h57l-3 -92q28 -14 46 -19.5t40 -5.5q24 0 44.5 7t36 19.5t24.5 29.5t9 36q0 20 -10 35t-33 31q-5 3 -9 6t-13 8t-25.5 13t-44.5 23q-51 26 -75 60t-24 80q0 62 36.5 106.5t113.5 77.5q-42 26 -59 50t-17 59q0 37 17 68t48 53t73.5 34.5t93.5 12.5q36 0 69.5 -5.5
t79.5 -19.5l-24 -136h-54l5 82q-27 16 -45.5 22t-39.5 6q-23 0 -43.5 -7t-35.5 -19.5t-24 -29t-9 -35.5q0 -23 14.5 -39t52.5 -35q28 -15 47.5 -25.5t33 -18.5t23 -15.5t18.5 -16.5q22 -22 32.5 -45t10.5 -52q0 -58 -40 -107t-113 -80q43 -26 61 -51.5t18 -57.5
q0 -38 -17.5 -70.5t-49 -56t-74 -36.5t-93.5 -13q-74 0 -153 32zM231 416q-104 -40 -104 -116q0 -50 58 -89q8 -6 21 -13t48 -26q54 29 78 57.5t24 62.5q0 35 -29 64t-96 60z" />
    <glyph glyph-name="dieresis" unicode="&#xa8;" 
d="M205 696q26 0 45 -19.5t19 -45.5t-19 -45t-46 -19q-26 0 -45 19t-19 45q0 28 18.5 46.5t46.5 18.5zM411 696q26 0 45 -19t19 -46q0 -26 -19 -45t-45 -19q-27 0 -46 19t-19 45q0 27 19 46t46 19z" />
    <glyph glyph-name="copyright" unicode="&#xa9;" horiz-adv-x="876" 
d="M443 729q77 0 145.5 -31t119.5 -84t81 -123.5t30 -150.5t-30.5 -151t-82.5 -124t-121.5 -84t-147.5 -31t-147 30.5t-121 83.5t-82 123t-30 150q0 82 30 153.5t82 124.5t122.5 83.5t151.5 30.5zM434 684q-67 0 -127 -27.5t-105 -74.5t-71 -109.5t-26 -133.5t26 -133.5
t71.5 -109t106 -73.5t129.5 -27q68 0 128.5 27t106 74t72 109.5t26.5 133.5q0 72 -26 134.5t-72 109t-107.5 73.5t-131.5 27zM543 253h52v-125q-39 -14 -72 -19.5t-71 -5.5q-55 0 -100 17t-77.5 48t-50 74t-17.5 96t18 96.5t51 74t79 47.5t102 17q36 0 67.5 -5.5t70.5 -19.5
v-121h-53l-15 80q-17 10 -30.5 14t-30.5 4q-33 0 -61 -13.5t-47.5 -38t-30.5 -59t-11 -75.5q0 -42 10.5 -76t30 -59t47 -38.5t60.5 -13.5q16 0 30 3.5t34 11.5z" />
    <glyph glyph-name="ordfeminine" unicode="&#xaa;" horiz-adv-x="391" 
d="M243 301q-29 -26 -52.5 -37t-49.5 -11q-42 0 -65.5 29t-23.5 80q0 40 13.5 75.5t37.5 61t56.5 40.5t69.5 15q18 0 35.5 -3.5t37.5 -11.5l23 15h38q-4 -11 -10 -38t-11 -53l-19 -98q-2 -12 -3.5 -23t-1.5 -19q0 -32 29 -32q15 0 39 7v-23q-35 -11 -57.5 -16.5t-39.5 -5.5
q-46 0 -46 45v3zM274 489l-25 36q-5 1 -8 1h-5q-21 0 -39.5 -12.5t-33 -33.5t-22.5 -49t-8 -59q0 -70 47 -70q16 0 30 6t34 22z" />
    <glyph glyph-name="guillemotleft" unicode="&#xab;" horiz-adv-x="448" 
d="M9 198l16 84l201 143l-15 -83l-129 -102l91 -102l-15 -83zM210 198l16 84l201 143l-15 -83l-129 -102l91 -102l-15 -83z" />
    <glyph glyph-name="logicalnot" unicode="&#xac;" horiz-adv-x="833" 
d="M628 340h-504v81h585v-245h-81v164z" />
    <glyph glyph-name="uni00AD" unicode="&#xad;" horiz-adv-x="322" 
d="M26 290h253l-17 -98h-254z" />
    <glyph glyph-name="registered" unicode="&#xae;" horiz-adv-x="441" 
d="M223 677q33 0 62.5 -13t51 -36t34.5 -53.5t13 -64.5t-13 -64.5t-35.5 -53t-52 -36t-63.5 -13.5q-33 0 -63 13t-52 35.5t-35 53t-13 64.5q0 35 13 66t35.5 53.5t52.5 35.5t65 13zM219 658q-29 0 -54.5 -11.5t-45 -32t-30.5 -47.5t-11 -57t11 -57t30.5 -47t45.5 -31.5
t56 -11.5q29 0 55 11.5t45.5 31.5t31 47t11.5 57q0 31 -11.5 58t-31 47t-46 31.5t-56.5 11.5zM137 432l21 5v147l-23 5v15h95q66 0 66 -46q0 -20 -12 -31.5t-39 -16.5q20 -5 28.5 -14.5t18.5 -36.5q5 -16 12.5 -21t24.5 -5v-16q-20 -3 -27 -3q-24 0 -37 12q-6 5 -9.5 11
t-7.5 20q-8 25 -16.5 33.5t-27.5 8.5h-6v-62l25 -5v-15h-86v15zM198 517q5 -1 9 -1q45 0 45 36q0 35 -44 35h-10v-70z" />
    <glyph glyph-name="macron" unicode="&#xaf;" 
d="M145 650h331l-12 -68h-331z" />
    <glyph glyph-name="degree" unicode="&#xb0;" horiz-adv-x="329" 
d="M212 713q29 0 55 -11.5t45.5 -31.5t31 -46t11.5 -56t-11.5 -56t-31 -45.5t-46 -31t-56.5 -11.5t-56 11t-45.5 30.5t-30.5 46t-11 56.5q0 31 11.5 57.5t31 46t46 30.5t56.5 11zM210 659q-37 0 -63 -26.5t-26 -63.5q0 -38 26 -64.5t64 -26.5q19 0 35.5 7t28.5 19.5t19 29
t7 35.5t-7 35.5t-19.5 28.5t-29 19t-35.5 7z" />
    <glyph glyph-name="plusminus" unicode="&#xb1;" horiz-adv-x="833" 
d="M375 345h-251v81h251v163h83v-163h251v-81h-251v-163h-83v163zM124 89h585v-82h-585v82z" />
    <glyph glyph-name="twosuperior" unicode="&#xb2;" horiz-adv-x="373" 
d="M24 309q43 28 70.5 46t47 32t33.5 26t31 27q68 62 68 122q0 27 -16.5 42.5t-45.5 15.5q-12 0 -29 -4l-16 -79q-15 -7 -23.5 -9t-19.5 -2q-20 0 -32 10.5t-12 28.5q0 20 13.5 38.5t35.5 33t51 23t59 8.5q58 0 93.5 -28.5t35.5 -75.5q0 -71 -95 -146q-12 -10 -24.5 -18.5
t-29 -19t-38 -23t-51.5 -29.5h153l20 52h54l-24 -122h-313z" />
    <glyph glyph-name="threesuperior" unicode="&#xb3;" horiz-adv-x="373" 
d="M123 304q16 -8 35 -8q42 0 68.5 24.5t26.5 62.5q0 29 -18 44t-51 15q-10 0 -20.5 -1.5t-25.5 -3.5l10 53h20q50 0 78 20.5t28 57.5q0 25 -16.5 39.5t-45.5 14.5q-15 0 -29 -5l-13 -70q-26 -10 -43 -10t-29 11t-12 28q0 18 13 35t35 29.5t51 20t61 7.5q57 0 92 -24.5
t35 -64.5q0 -37 -28.5 -65t-78.5 -41q42 -4 64 -25.5t22 -56.5q0 -29 -15.5 -54t-42.5 -44.5t-62.5 -30.5t-75.5 -11q-54 0 -90 21.5t-36 53.5q0 20 14.5 34t35.5 14q11 0 36 -7z" />
    <glyph glyph-name="acute" unicode="&#xb4;" 
d="M376 741h123l-190 -190h-67z" />
    <glyph glyph-name="mu" unicode="&#xb5;" horiz-adv-x="578" 
d="M355 432h102l-55 -260q-3 -14 -5 -23t-2.5 -15t-1 -11t-0.5 -11q0 -45 42 -45q25 0 42 16t32 52q8 17 12.5 23t12.5 6q11 0 11 -13q0 -17 -8.5 -44.5t-19.5 -48.5q-38 -70 -107 -70q-82 0 -86 103q-25 -55 -55.5 -79t-75.5 -24q-96 0 -109 110q-5 -27 -8 -45.5
t-5.5 -34.5t-4.5 -33t-5 -41q-6 -46 -11.5 -75t-12.5 -45.5t-17 -22.5t-25 -6q-22 0 -35 13t-13 35q0 9 1.5 18.5t5 24t9.5 35.5t15 52q19 61 31.5 110.5t23.5 98.5l53 250h101l-49 -228q-10 -44 -10 -70q0 -30 18.5 -47.5t50.5 -17.5q80 0 104 108z" />
    <glyph glyph-name="paragraph" unicode="&#xb6;" horiz-adv-x="503" 
d="M294 -16l12 -14l49 -4l-8 -45h-231l19 46l64 4l18 14l124 638h-60l-70 -361q-47 0 -87 5.5t-68.5 21t-44.5 44t-16 75.5q0 129 72.5 196t214.5 67h206l-8 -43l-63 -10z" />
    <glyph glyph-name="periodcentered" unicode="&#xb7;" horiz-adv-x="292" 
d="M148 412q31 0 53.5 -22.5t22.5 -54.5t-22.5 -54t-54.5 -22t-54 21.5t-22 53.5q0 33 22.5 55.5t54.5 22.5z" />
    <glyph glyph-name="cedilla" unicode="&#xb8;" 
d="M68 -167q24 -5 35 -6.5t26 -1.5q32 0 50 11.5t18 32.5q0 26 -37 26h-9.5t-14.5 -2l21 111h49l-11 -56q6 1 9.5 1h8.5q66 0 66 -59q0 -24 -11 -45t-29.5 -36.5t-44.5 -24.5t-56 -9q-19 0 -37.5 2.5t-41.5 8.5z" />
    <glyph glyph-name="onesuperior" unicode="&#xb9;" horiz-adv-x="373" 
d="M73 298l70 4l6 6l57 288l-2 1l-94 -11v37l154 44h46l-72 -360l4 -6l61 -3v-40h-230v40z" />
    <glyph glyph-name="ordmasculine" unicode="&#xba;" horiz-adv-x="391" 
d="M236 554q57 0 91.5 -33.5t34.5 -90.5q0 -37 -14 -69.5t-38 -57t-56 -38.5t-69 -14q-58 0 -92.5 34t-34.5 91q0 37 13.5 69.5t37.5 56.5t56.5 38t70.5 14zM226 523q-18 0 -34 -12t-28 -32.5t-18.5 -48.5t-6.5 -60q0 -87 53 -87q19 0 35.5 11.5t28.5 32t18.5 48.5t6.5 61
q0 87 -55 87z" />
    <glyph glyph-name="guillemotright" unicode="&#xbb;" horiz-adv-x="449" 
d="M3 138l129 102l-91 102l15 83l149 -143l-16 -84l-201 -143zM204 138l129 102l-91 102l15 83l149 -143l-15 -84l-202 -143z" />
    <glyph glyph-name="onequarter" unicode="&#xbc;" horiz-adv-x="932" 
d="M73 298l70 4l6 6l57 288l-2 1l-94 -11v37l154 44h46l-72 -360l4 -6l61 -3v-40h-230v40zM267 0h-70l472 671h69zM666 -19l24 124h-196l11 53l258 248h71l-48 -245h70l-11 -56h-70l-25 -124h-84zM702 161l29 145l-149 -145h120z" />
    <glyph glyph-name="onehalf" unicode="&#xbd;" horiz-adv-x="932" 
d="M73 298l70 4l6 6l57 288l-2 1l-94 -11v37l154 44h46l-72 -360l4 -6l61 -3v-40h-230v40zM738 671l-471 -671h-70l472 671h69zM528 0l4 51l76.5 51t46.5 31.5t30 23t29 25.5q68 62 68 122q0 27 -16 42.5t-45 15.5q-14 0 -30 -4l-16 -79q-23 -11 -43 -11t-32 10.5t-12 28.5
q0 20 13.5 38.5t35.5 33t51 23t59 8.5q58 0 93.5 -28.5t35.5 -75.5q0 -71 -95 -146q-12 -10 -25 -19t-29.5 -19t-37.5 -22.5t-51 -29.5h153l20 52h54l-24 -122h-313z" />
    <glyph glyph-name="threequarters" unicode="&#xbe;" horiz-adv-x="932" 
d="M123 304q16 -8 35 -8q42 0 68.5 24.5t26.5 62.5q0 29 -18 44t-51 15q-10 0 -20.5 -1.5t-25.5 -3.5l10 53h20q50 0 78 20.5t28 57.5q0 25 -16.5 39.5t-45.5 14.5q-15 0 -29 -5l-13 -70q-26 -10 -43 -10t-29 11t-12 28q0 18 13 35t35 29.5t51 20t61 7.5q57 0 92 -24.5
t35 -64.5q0 -37 -28.5 -65t-78.5 -41q42 -4 64 -25.5t22 -56.5q0 -29 -15.5 -54t-42.5 -44.5t-62.5 -30.5t-75.5 -11q-54 0 -90 21.5t-36 53.5q0 20 14.5 34t35.5 14q11 0 36 -7zM668 671h70l-472 -671h-69zM690 105h-196l11 53l258 248h71l-48 -245h70l-11 -56h-70
l-25 -124h-84zM702 161l29 145l-149 -145h120z" />
    <glyph glyph-name="questiondown" unicode="&#xbf;" horiz-adv-x="492" 
d="M277 -27q8 1 12.5 1h11.5q29 0 44.5 -13t15.5 -36q0 -26 -15.5 -48.5t-42.5 -39t-63.5 -26t-78.5 -9.5q-90 0 -140.5 41.5t-50.5 113.5q0 163 252 244l17 91h65l-25 -135q-88 -30 -134 -81t-46 -119q0 -49 27 -72t85 -25zM302 491q27 0 46 -19t19 -47q0 -17 -7 -32.5
t-18.5 -27t-27 -18.5t-32.5 -7q-28 0 -47 19t-19 48q0 17 7 32t19 26.5t27.5 18.5t32.5 7z" />
    <glyph glyph-name="Agrave" unicode="&#xc0;" horiz-adv-x="636" 
d="M-67 48l56 7l350 622h103l103 -608l10 -14l58 -7v-48h-263v48l61 7l11 14l-28 167h-223l-92 -167l10 -14l59 -7v-48h-215v48zM384 291l-42 260l-141 -260h183zM247 898h125l65 -155h-68z" />
    <glyph glyph-name="Aacute" unicode="&#xc1;" horiz-adv-x="636" 
d="M-67 48l56 7l350 622h103l103 -608l10 -14l58 -7v-48h-263v48l61 7l11 14l-28 167h-223l-92 -167l10 -14l59 -7v-48h-215v48zM384 291l-42 260l-141 -260h183zM465 898h131l-191 -155h-75z" />
    <glyph glyph-name="Acircumflex" unicode="&#xc2;" horiz-adv-x="636" 
d="M-67 48l56 7l350 622h103l103 -608l10 -14l58 -7v-48h-263v48l61 7l11 14l-28 167h-223l-92 -167l10 -14l59 -7v-48h-215v48zM384 291l-42 260l-141 -260h183zM380 898h82l78 -155h-77l-55 91l-97 -91h-78z" />
    <glyph glyph-name="Atilde" unicode="&#xc3;" horiz-adv-x="636" 
d="M-67 48l56 7l350 622h103l103 -608l10 -14l58 -7v-48h-263v48l61 7l11 14l-28 167h-223l-92 -167l10 -14l59 -7v-48h-215v48zM384 291l-42 260l-141 -260h183zM230 747q9 60 37.5 91.5t73.5 31.5q10 0 18 -1t18 -4t24.5 -9.5t37.5 -16.5t34 -10q17 0 27 12.5t16 41.5h57
q-8 -58 -37 -90.5t-73 -32.5q-22 0 -44 6.5t-50 20.5q-14 8 -21.5 10.5t-14.5 2.5q-34 0 -45 -53h-58z" />
    <glyph glyph-name="Adieresis" unicode="&#xc4;" horiz-adv-x="636" 
d="M-67 48l56 7l350 622h103l103 -608l10 -14l58 -7v-48h-263v48l61 7l11 14l-28 167h-223l-92 -167l10 -14l59 -7v-48h-215v48zM384 291l-42 260l-141 -260h183zM505 879q26 0 45 -20t19 -46q0 -27 -19 -45.5t-46 -18.5t-45.5 18.5t-18.5 45.5t19 46.5t46 19.5zM298 879
q13 0 24.5 -5.5t20.5 -14.5t14.5 -21t5.5 -25q0 -26 -19.5 -45t-46.5 -19q-26 0 -45 19t-19 45q0 28 19 47t46 19z" />
    <glyph glyph-name="Aring" unicode="&#xc5;" horiz-adv-x="636" 
d="M-67 48l56 7l350 622h103l103 -608l10 -14l58 -7v-48h-263v48l61 7l11 14l-28 167h-223l-92 -167l10 -14l59 -7v-48h-215v48zM384 291l-42 260l-141 -260h183zM408 952q23 0 43.5 -9t35.5 -24t24 -35.5t9 -44.5t-9 -45t-24 -36t-36 -24t-45 -9t-44.5 9t-36 24.5t-24.5 36
t-9 44.5t9 44.5t24.5 36t36.5 24t46 8.5zM404 902q-26 0 -43.5 -18.5t-17.5 -44.5t18 -45t44 -19t45 19t19 45t-19 44.5t-46 18.5z" />
    <glyph glyph-name="AE" unicode="&#xc6;" horiz-adv-x="893" 
d="M-101 48l66 13l418 541l-8 14l-61 7v48h580l-31 -157h-63l-3 85l-11 15h-183l-46 -239h119l16 15l23 72h57l-44 -231h-53v73l-11 14h-117l-48 -260h219l16 11l36 110h67l-36 -179h-500v48l62 7l16 14l35 183h-218l-138 -183l4 -14l62 -7v-48h-225v48zM426 309l58 322
l-245 -322h187z" />
    <glyph glyph-name="Ccedilla" unicode="&#xc7;" horiz-adv-x="624" 
d="M186 -172q20 -5 33 -6.5t27 -1.5q32 0 50.5 12t18.5 32q0 12 -9.5 19t-26.5 7q-15 0 -25 -2l19 102q-112 17 -174.5 91.5t-62.5 192.5q0 85 31.5 160t86 130.5t128.5 87.5t159 32q44 0 88.5 -7.5t104.5 -26.5l-30 -169h-66l-2 109l-10 18q-23 8 -38.5 11.5t-35.5 3.5
q-59 0 -110 -27t-88.5 -74.5t-58.5 -112.5t-21 -141q0 -105 51 -162.5t145 -57.5q14 0 26.5 1t29.5 5l19 18l46 124h67l-32 -173q-55 -18 -105 -27t-100 -9l-8 -44q5 1 8 1h8q68 0 68 -59q0 -24 -11 -45t-29.5 -36.5t-44.5 -24.5t-56 -9q-20 0 -38.5 2.5t-40.5 8.5z" />
    <glyph glyph-name="Egrave" unicode="&#xc8;" horiz-adv-x="578" 
d="M-24 48l65 7l14 14l100 534l-9 14l-64 6v48h495l-30 -156h-64v88l-12 12h-188l-44 -240h122l15 14l24 74h57l-43 -233h-54l2 75l-13 14h-121l-50 -261h226l14 14l38 107h66l-33 -179h-513v48zM218 898h125l65 -155h-68z" />
    <glyph glyph-name="Eacute" unicode="&#xc9;" horiz-adv-x="578" 
d="M-24 48l65 7l14 14l100 534l-9 14l-64 6v48h495l-30 -156h-64v88l-12 12h-188l-44 -240h122l15 14l24 74h57l-43 -233h-54l2 75l-13 14h-121l-50 -261h226l14 14l38 107h66l-33 -179h-513v48zM436 898h131l-191 -155h-75z" />
    <glyph glyph-name="Ecircumflex" unicode="&#xca;" horiz-adv-x="578" 
d="M-24 48l65 7l14 14l100 534l-9 14l-64 6v48h495l-30 -156h-64v88l-12 12h-188l-44 -240h122l15 14l24 74h57l-43 -233h-54l2 75l-13 14h-121l-50 -261h226l14 14l38 107h66l-33 -179h-513v48zM351 898h82l78 -155h-77l-55 91l-97 -91h-78z" />
    <glyph glyph-name="Edieresis" unicode="&#xcb;" horiz-adv-x="578" 
d="M-24 48l65 7l14 14l100 534l-9 14l-64 6v48h495l-30 -156h-64v88l-12 12h-188l-44 -240h122l15 14l24 74h57l-43 -233h-54l2 75l-13 14h-121l-50 -261h226l14 14l38 107h66l-33 -179h-513v48zM476 879q26 0 45 -20t19 -46q0 -27 -19 -45.5t-46 -18.5t-45.5 18.5
t-18.5 45.5t19 46.5t46 19.5zM269 879q13 0 24.5 -5.5t20.5 -14.5t14.5 -21t5.5 -25q0 -26 -19.5 -45t-46.5 -19q-26 0 -45 19t-19 45q0 28 19 47t46 19z" />
    <glyph glyph-name="Igrave" unicode="&#xcc;" horiz-adv-x="345" 
d="M-20 48l66 7l15 14l100 534l-10 14l-65 6v48h282v-48l-66 -6l-16 -14l-100 -534l12 -14l65 -7v-48h-283v48zM102 898h125l65 -155h-68z" />
    <glyph glyph-name="Iacute" unicode="&#xcd;" horiz-adv-x="345" 
d="M-20 48l66 7l15 14l100 534l-10 14l-65 6v48h282v-48l-66 -6l-16 -14l-100 -534l12 -14l65 -7v-48h-283v48zM320 898h131l-191 -155h-75z" />
    <glyph glyph-name="Icircumflex" unicode="&#xce;" horiz-adv-x="345" 
d="M-20 48l66 7l15 14l100 534l-10 14l-65 6v48h282v-48l-66 -6l-16 -14l-100 -534l12 -14l65 -7v-48h-283v48zM235 898h82l78 -155h-77l-55 91l-97 -91h-78z" />
    <glyph glyph-name="Idieresis" unicode="&#xcf;" horiz-adv-x="345" 
d="M344 878q26 0 45 -19.5t19 -45.5t-19 -45t-46 -19t-45.5 18.5t-18.5 45.5t19 46t46 19zM164 879q13 0 24.5 -5.5t20.5 -14.5t14.5 -21t5.5 -25q0 -26 -19.5 -45t-46.5 -19q-26 0 -45 19t-19 45q0 28 19 47t46 19zM-20 48l66 7l15 14l100 534l-10 14l-65 6v48h282v-48
l-66 -6l-16 -14l-100 -534l12 -14l65 -7v-48h-283v48z" />
    <glyph glyph-name="Eth" unicode="&#xd0;" horiz-adv-x="689" 
d="M-25 48l66 7l14 14l48 255h-82l11 60h82l41 219l-10 14l-64 6v48h270q66 0 112 -9.5t81 -29.5q56 -33 85 -89t29 -130q0 -57 -14.5 -111.5t-40.5 -102t-63 -86t-83 -63.5q-88 -50 -233 -50h-249v48zM221 57q65 0 112.5 17.5t84.5 53.5q22 22 41 54.5t32.5 71t21 80
t7.5 83.5q0 95 -47 146.5t-134 51.5h-54l-43 -231h128l-12 -60h-127l-50 -267h40z" />
    <glyph glyph-name="Ntilde" unicode="&#xd1;" horiz-adv-x="716" 
d="M-24 48l65 7l14 14l101 534l-11 14l-64 6v48h221v-24l206 -485l84 441l-12 14l-65 6v48h229v-48l-64 -6l-16 -14l-112 -603h-103l-231 542l-90 -473l10 -14l66 -7v-48h-228v48zM270 747q9 60 37.5 91.5t73.5 31.5q10 0 18 -1t18 -4t24.5 -9.5t37.5 -16.5t34 -10
q17 0 27 12.5t16 41.5h57q-8 -58 -37 -90.5t-73 -32.5q-22 0 -44 6.5t-50 20.5q-14 8 -21.5 10.5t-14.5 2.5q-34 0 -45 -53h-58z" />
    <glyph glyph-name="Ograve" unicode="&#xd2;" horiz-adv-x="728" 
d="M418 684q55 0 105 -18.5t88 -52.5q39 -37 60 -90.5t21 -119.5q0 -50 -11 -98t-31 -92.5t-49.5 -82.5t-65.5 -67q-47 -38 -102.5 -57t-116.5 -19q-63 0 -114 20t-87 57t-55.5 89.5t-19.5 116.5q0 51 11.5 100.5t32.5 94t51 83t67 66.5q94 70 216 70zM405 623
q-78 0 -142 -85q-39 -54 -62 -128.5t-23 -150.5q0 -48 10.5 -87t30 -66.5t47 -42.5t61.5 -15q46 0 87 29t72 79t49.5 115.5t18.5 139.5q0 100 -39 156t-110 56zM293 898h125l65 -155h-68z" />
    <glyph glyph-name="Oacute" unicode="&#xd3;" horiz-adv-x="728" 
d="M418 684q55 0 105 -18.5t88 -52.5q39 -37 60 -90.5t21 -119.5q0 -50 -11 -98t-31 -92.5t-49.5 -82.5t-65.5 -67q-47 -38 -102.5 -57t-116.5 -19q-63 0 -114 20t-87 57t-55.5 89.5t-19.5 116.5q0 51 11.5 100.5t32.5 94t51 83t67 66.5q94 70 216 70zM405 623
q-78 0 -142 -85q-39 -54 -62 -128.5t-23 -150.5q0 -48 10.5 -87t30 -66.5t47 -42.5t61.5 -15q46 0 87 29t72 79t49.5 115.5t18.5 139.5q0 100 -39 156t-110 56zM511 898h131l-191 -155h-75z" />
    <glyph glyph-name="Ocircumflex" unicode="&#xd4;" horiz-adv-x="728" 
d="M418 684q55 0 105 -18.5t88 -52.5q39 -37 60 -90.5t21 -119.5q0 -50 -11 -98t-31 -92.5t-49.5 -82.5t-65.5 -67q-47 -38 -102.5 -57t-116.5 -19q-63 0 -114 20t-87 57t-55.5 89.5t-19.5 116.5q0 51 11.5 100.5t32.5 94t51 83t67 66.5q94 70 216 70zM405 623
q-78 0 -142 -85q-39 -54 -62 -128.5t-23 -150.5q0 -48 10.5 -87t30 -66.5t47 -42.5t61.5 -15q46 0 87 29t72 79t49.5 115.5t18.5 139.5q0 100 -39 156t-110 56zM426 898h82l78 -155h-77l-55 91l-97 -91h-78z" />
    <glyph glyph-name="Otilde" unicode="&#xd5;" horiz-adv-x="728" 
d="M418 684q55 0 105 -18.5t88 -52.5q39 -37 60 -90.5t21 -119.5q0 -50 -11 -98t-31 -92.5t-49.5 -82.5t-65.5 -67q-47 -38 -102.5 -57t-116.5 -19q-63 0 -114 20t-87 57t-55.5 89.5t-19.5 116.5q0 51 11.5 100.5t32.5 94t51 83t67 66.5q94 70 216 70zM405 623
q-78 0 -142 -85q-39 -54 -62 -128.5t-23 -150.5q0 -48 10.5 -87t30 -66.5t47 -42.5t61.5 -15q46 0 87 29t72 79t49.5 115.5t18.5 139.5q0 100 -39 156t-110 56zM276 747q9 60 37.5 91.5t73.5 31.5q10 0 18 -1t18 -4t24.5 -9.5t37.5 -16.5t34 -10q17 0 27 12.5t16 41.5h57
q-8 -58 -37 -90.5t-73 -32.5q-22 0 -44 6.5t-50 20.5q-14 8 -21.5 10.5t-14.5 2.5q-34 0 -45 -53h-58z" />
    <glyph glyph-name="Odieresis" unicode="&#xd6;" horiz-adv-x="728" 
d="M418 684q55 0 105 -18.5t88 -52.5q39 -37 60 -90.5t21 -119.5q0 -50 -11 -98t-31 -92.5t-49.5 -82.5t-65.5 -67q-47 -38 -102.5 -57t-116.5 -19q-63 0 -114 20t-87 57t-55.5 89.5t-19.5 116.5q0 51 11.5 100.5t32.5 94t51 83t67 66.5q94 70 216 70zM405 623
q-78 0 -142 -85q-39 -54 -62 -128.5t-23 -150.5q0 -48 10.5 -87t30 -66.5t47 -42.5t61.5 -15q46 0 87 29t72 79t49.5 115.5t18.5 139.5q0 100 -39 156t-110 56zM551 879q26 0 45 -20t19 -46q0 -27 -19 -45.5t-46 -18.5t-45.5 18.5t-18.5 45.5t19 46.5t46 19.5zM344 879
q13 0 24.5 -5.5t20.5 -14.5t14.5 -21t5.5 -25q0 -26 -19.5 -45t-46.5 -19q-26 0 -45 19t-19 45q0 28 19 47t46 19z" />
    <glyph glyph-name="multiply" unicode="&#xd7;" horiz-adv-x="833" 
d="M140 74l224 224l-224 225l57 57l224 -224l225 224l57 -57l-224 -225l224 -224l-57 -58l-225 225l-224 -225z" />
    <glyph glyph-name="Oslash" unicode="&#xd8;" horiz-adv-x="726" 
d="M69 -50l63 97q-50 49 -71.5 101t-21.5 121q0 52 12 102t33.5 95t53 83.5t70.5 67.5q45 33 98.5 50t111.5 17q36 0 64.5 -6t58.5 -20l61 92l42 -28l-59 -89q56 -45 81.5 -99.5t25.5 -129.5q0 -52 -11.5 -102t-33.5 -95.5t-52.5 -84t-69.5 -67.5q-46 -33 -99.5 -50.5
t-112.5 -17.5q-40 0 -72.5 8t-67.5 25l-67 -101zM497 593q-21 18 -42 25.5t-49 7.5q-46 0 -83.5 -22t-70.5 -70q-38 -54 -59 -125.5t-21 -143.5q0 -35 5 -64t17 -64zM223 91q26 -26 49 -36t55 -10q48 0 90 28.5t73.5 78t49.5 116.5t18 143q0 46 -7 77.5t-24 61.5z" />
    <glyph glyph-name="Ugrave" unicode="&#xd9;" horiz-adv-x="703" 
d="M587 603l-11 14l-66 6v48h226v-48l-64 -6l-15 -14l-67 -352q-7 -37 -14 -63.5t-15.5 -47t-19 -37t-24.5 -31.5q-38 -42 -95.5 -63.5t-132.5 -21.5q-104 0 -159.5 45.5t-55.5 130.5q0 20 2.5 42t7.5 49l66 349l-12 14l-61 6v48h277v-48l-63 -6l-15 -14l-64 -345
q-5 -25 -7 -42t-2 -31q0 -57 34.5 -88t97.5 -31q40 0 70 10t52 32t36.5 56.5t24.5 84.5zM280 898h125l65 -155h-68z" />
    <glyph glyph-name="Uacute" unicode="&#xda;" horiz-adv-x="703" 
d="M587 603l-11 14l-66 6v48h226v-48l-64 -6l-15 -14l-67 -352q-7 -37 -14 -63.5t-15.5 -47t-19 -37t-24.5 -31.5q-38 -42 -95.5 -63.5t-132.5 -21.5q-104 0 -159.5 45.5t-55.5 130.5q0 20 2.5 42t7.5 49l66 349l-12 14l-61 6v48h277v-48l-63 -6l-15 -14l-64 -345
q-5 -25 -7 -42t-2 -31q0 -57 34.5 -88t97.5 -31q40 0 70 10t52 32t36.5 56.5t24.5 84.5zM498 898h131l-191 -155h-75z" />
    <glyph glyph-name="Ucircumflex" unicode="&#xdb;" horiz-adv-x="703" 
d="M587 603l-11 14l-66 6v48h226v-48l-64 -6l-15 -14l-67 -352q-7 -37 -14 -63.5t-15.5 -47t-19 -37t-24.5 -31.5q-38 -42 -95.5 -63.5t-132.5 -21.5q-104 0 -159.5 45.5t-55.5 130.5q0 20 2.5 42t7.5 49l66 349l-12 14l-61 6v48h277v-48l-63 -6l-15 -14l-64 -345
q-5 -25 -7 -42t-2 -31q0 -57 34.5 -88t97.5 -31q40 0 70 10t52 32t36.5 56.5t24.5 84.5zM413 898h82l78 -155h-77l-55 91l-97 -91h-78z" />
    <glyph glyph-name="Udieresis" unicode="&#xdc;" horiz-adv-x="703" 
d="M587 603l-11 14l-66 6v48h226v-48l-64 -6l-15 -14l-67 -352q-7 -37 -14 -63.5t-15.5 -47t-19 -37t-24.5 -31.5q-38 -42 -95.5 -63.5t-132.5 -21.5q-104 0 -159.5 45.5t-55.5 130.5q0 20 2.5 42t7.5 49l66 349l-12 14l-61 6v48h277v-48l-63 -6l-15 -14l-64 -345
q-5 -25 -7 -42t-2 -31q0 -57 34.5 -88t97.5 -31q40 0 70 10t52 32t36.5 56.5t24.5 84.5zM538 879q26 0 45 -20t19 -46q0 -27 -19 -45.5t-46 -18.5t-45.5 18.5t-18.5 45.5t19 46.5t46 19.5zM331 879q13 0 24.5 -5.5t20.5 -14.5t14.5 -21t5.5 -25q0 -26 -19.5 -45t-46.5 -19
q-26 0 -45 19t-19 45q0 28 19 47t46 19z" />
    <glyph glyph-name="Yacute" unicode="&#xdd;" horiz-adv-x="589" 
d="M95 48l67 7l16 14l36 193l-115 347l-9 8l-63 6v48h273v-48l-62 -6l-12 -14l86 -260l185 260l-10 14l-64 6v48h234v-48l-64 -6l-254 -341l-39 -207l11 -14l68 -7v-48h-284v48zM441 898h131l-191 -155h-75z" />
    <glyph glyph-name="Thorn" unicode="&#xde;" horiz-adv-x="579" 
d="M-24 48l63 7l15 14l100 534l-11 14l-61 6v48h276v-48l-65 -6l-13 -14l-12 -60h47q125 0 182.5 -40.5t57.5 -128.5q0 -65 -30 -118t-85 -87q-40 -24 -88 -35t-114 -11h-21t-28 2l-10 -56l9 -14l65 -7v-48h-277v48zM200 181q11 -1 17.5 -1h11.5q89 0 138.5 49.5t49.5 139.5
q0 118 -133 118h-9t-18 -1z" />
    <glyph glyph-name="germandbls" unicode="&#xdf;" horiz-adv-x="626" 
d="M-11 -143q12 17 21.5 38.5t17.5 52t15.5 73.5t16.5 103l39 283q23 163 98.5 246.5t200.5 83.5q78 0 123.5 -39t45.5 -107q0 -27 -5.5 -56.5t-20.5 -80.5h-9q-9 1 -15.5 1h-8.5q-50 0 -77 -18t-27 -51q0 -11 2.5 -19.5t9 -17.5t18.5 -19.5t31 -25.5q23 -18 36 -28.5
t21.5 -17t13.5 -12t11 -12.5q27 -33 27 -78q0 -36 -14.5 -66t-40.5 -52.5t-61.5 -35t-77.5 -12.5q-33 0 -61 8t-48.5 22t-32 33t-11.5 41q0 28 17.5 46t45.5 18q14 0 25.5 -5.5t26.5 -19.5l-16 -67q16 -14 30 -19t32 -5q35 0 56.5 19t21.5 50q0 13 -3 23.5t-11 21
t-23.5 22.5t-39.5 29q-30 21 -50 38t-31.5 32t-16 30t-4.5 33q0 57 39 94.5t109 49.5q14 45 18.5 70t4.5 49q0 78 -72 78q-66 0 -107 -64t-61 -198l-38 -260q-7 -48 -15 -86t-19.5 -69.5t-25.5 -57.5t-33 -50q-39 -51 -85.5 -80t-88.5 -29q-30 0 -50.5 19t-20.5 47
q0 39 40 60z" />
    <glyph glyph-name="agrave" unicode="&#xe0;" horiz-adv-x="573" 
d="M548 29q-30 -11 -52 -17.5t-39.5 -10.5t-32.5 -5.5t-30 -1.5q-72 0 -72 78q-85 -82 -162 -82q-66 0 -103.5 49t-37.5 134q0 67 21.5 125.5t59.5 101.5t89 67.5t110 24.5q28 0 54 -5t63 -18l37 24h59q-7 -22 -15 -58.5t-19 -93.5l-29 -162q-9 -48 -9 -70q0 -54 47 -54
q11 0 24.5 2.5t36.5 8.5v-37zM370 385l-40 60q-33 1 -57 -8t-46 -29q-38 -35 -59 -92t-21 -125q0 -117 75 -117q23 0 45 10t57 36zM194 741h124l60 -190h-67z" />
    <glyph glyph-name="aacute" unicode="&#xe1;" horiz-adv-x="573" 
d="M548 29q-30 -11 -52 -17.5t-39.5 -10.5t-32.5 -5.5t-30 -1.5q-72 0 -72 78q-85 -82 -162 -82q-66 0 -103.5 49t-37.5 134q0 67 21.5 125.5t59.5 101.5t89 67.5t110 24.5q28 0 54 -5t63 -18l37 24h59q-7 -22 -15 -58.5t-19 -93.5l-29 -162q-9 -48 -9 -70q0 -54 47 -54
q11 0 24.5 2.5t36.5 8.5v-37zM370 385l-40 60q-33 1 -57 -8t-46 -29q-38 -35 -59 -92t-21 -125q0 -117 75 -117q23 0 45 10t57 36zM412 741h123l-190 -190h-67z" />
    <glyph glyph-name="acircumflex" unicode="&#xe2;" horiz-adv-x="573" 
d="M548 29q-30 -11 -52 -17.5t-39.5 -10.5t-32.5 -5.5t-30 -1.5q-72 0 -72 78q-85 -82 -162 -82q-66 0 -103.5 49t-37.5 134q0 67 21.5 125.5t59.5 101.5t89 67.5t110 24.5q28 0 54 -5t63 -18l37 24h59q-7 -22 -15 -58.5t-19 -93.5l-29 -162q-9 -48 -9 -70q0 -54 47 -54
q11 0 24.5 2.5t36.5 8.5v-37zM370 385l-40 60q-33 1 -57 -8t-46 -29q-38 -35 -59 -92t-21 -125q0 -117 75 -117q23 0 45 10t57 36zM321 741h87l74 -190h-77l-53 125l-100 -125h-78z" />
    <glyph glyph-name="atilde" unicode="&#xe3;" horiz-adv-x="573" 
d="M548 29q-30 -11 -52 -17.5t-39.5 -10.5t-32.5 -5.5t-30 -1.5q-72 0 -72 78q-85 -82 -162 -82q-66 0 -103.5 49t-37.5 134q0 67 21.5 125.5t59.5 101.5t89 67.5t110 24.5q28 0 54 -5t63 -18l37 24h59q-7 -22 -15 -58.5t-19 -93.5l-29 -162q-9 -48 -9 -70q0 -54 47 -54
q11 0 24.5 2.5t36.5 8.5v-37zM370 385l-40 60q-33 1 -57 -8t-46 -29q-38 -35 -59 -92t-21 -125q0 -117 75 -117q23 0 45 10t57 36zM168 561q21 136 113 136q10 0 19 -1t19.5 -5t24.5 -10.5t35 -17.5q13 -8 22 -10.5t17 -2.5q40 0 50 63h53q-13 -69 -40 -102t-72 -33
q-21 0 -42.5 6.5t-50.5 22.5q-18 10 -27.5 13.5t-17.5 3.5q-40 0 -48 -63h-55z" />
    <glyph glyph-name="adieresis" unicode="&#xe4;" horiz-adv-x="573" 
d="M548 29q-30 -11 -52 -17.5t-39.5 -10.5t-32.5 -5.5t-30 -1.5q-72 0 -72 78q-85 -82 -162 -82q-66 0 -103.5 49t-37.5 134q0 67 21.5 125.5t59.5 101.5t89 67.5t110 24.5q28 0 54 -5t63 -18l37 24h59q-7 -22 -15 -58.5t-19 -93.5l-29 -162q-9 -48 -9 -70q0 -54 47 -54
q11 0 24.5 2.5t36.5 8.5v-37zM370 385l-40 60q-33 1 -57 -8t-46 -29q-38 -35 -59 -92t-21 -125q0 -117 75 -117q23 0 45 10t57 36zM241 696q26 0 45 -19.5t19 -45.5t-19 -45t-46 -19q-26 0 -45 19t-19 45q0 28 18.5 46.5t46.5 18.5zM447 696q26 0 45 -19t19 -46
q0 -26 -19 -45t-45 -19q-27 0 -46 19t-19 45q0 27 19 46t46 19z" />
    <glyph glyph-name="aring" unicode="&#xe5;" horiz-adv-x="573" 
d="M548 29q-30 -11 -52 -17.5t-39.5 -10.5t-32.5 -5.5t-30 -1.5q-72 0 -72 78q-85 -82 -162 -82q-66 0 -103.5 49t-37.5 134q0 67 21.5 125.5t59.5 101.5t89 67.5t110 24.5q28 0 54 -5t63 -18l37 24h59q-7 -22 -15 -58.5t-19 -93.5l-29 -162q-9 -48 -9 -70q0 -54 47 -54
q11 0 24.5 2.5t36.5 8.5v-37zM370 385l-40 60q-33 1 -57 -8t-46 -29q-38 -35 -59 -92t-21 -125q0 -117 75 -117q23 0 45 10t57 36zM349 770q24 0 44.5 -9t35.5 -24t24 -35.5t9 -44.5t-9 -44.5t-24 -36t-36 -24.5t-45 -9t-44.5 9t-35.5 24t-24 36t-9 45q0 49 32.5 81t81.5 32
zM348 720q-26 0 -44.5 -18.5t-18.5 -44.5t18.5 -45t44.5 -19t45 19t19 45t-18.5 44.5t-45.5 18.5z" />
    <glyph glyph-name="ae" unicode="&#xe6;" horiz-adv-x="721" 
d="M658 77q-31 -23 -58 -39.5t-52 -27t-49.5 -15.5t-50.5 -5q-48 0 -81.5 18.5t-59.5 59.5q-57 -42 -99 -60t-87 -18q-54 0 -85.5 30t-31.5 81q0 77 70.5 121t225.5 64l10 52q2 8 2.5 16.5t0.5 14.5q0 71 -72 71q-9 0 -19 -1.5t-24 -4.5l-18 -97h-96q-27 0 -27 19
q0 28 17.5 52.5t47 43t69 29.5t84.5 11q46 0 75 -13t51 -45q51 31 88 44.5t74 13.5q55 0 87 -29t32 -78q0 -78 -72 -119t-211 -42q-1 -8 -1 -12v-10q0 -65 27 -100t77 -35q36 0 72 16.5t84 55.5v-62zM292 106q-5 23 -6.5 38t-1.5 34q0 15 1 27.5t4 32.5q-85 -12 -123 -38
t-38 -71q0 -29 16.5 -44.5t45.5 -15.5q22 0 45.5 8.5t56.5 28.5zM403 267q81 10 127.5 43.5t46.5 82.5q0 23 -13 36.5t-33 13.5q-42 0 -75 -46t-53 -130z" />
    <glyph glyph-name="ccedilla" unicode="&#xe7;" horiz-adv-x="442" 
d="M67 -167q22 -5 34.5 -6.5t26.5 -1.5q32 0 50 11.5t18 32.5q0 26 -38 26h-9t-14 -2l19 100q-65 14 -100 63t-35 127q0 63 22.5 119.5t61.5 98.5t91 66.5t111 24.5q50 0 79 -21.5t29 -58.5q0 -67 -82 -73l-65 102q-27 -9 -48.5 -30t-37.5 -52t-24.5 -69.5t-8.5 -81.5
q0 -67 25 -103.5t70 -36.5q37 0 73 17t84 59v-59q-47 -42 -98.5 -67t-98.5 -28l-8 -42q7 1 10 1h8q66 0 66 -59q0 -24 -11 -45t-30 -36.5t-45 -24.5t-56 -9q-18 0 -36.5 2.5t-41.5 8.5z" />
    <glyph glyph-name="egrave" unicode="&#xe8;" horiz-adv-x="461" 
d="M398 75q-60 -45 -108.5 -65t-98.5 -20q-82 0 -128.5 51t-46.5 140q0 63 23 119.5t62.5 99t92 67.5t110.5 25q57 0 90.5 -30t33.5 -81q0 -73 -68 -114t-192 -41h-14t-16 1q-1 -8 -1 -11.5v-11.5q0 -136 103 -136q36 0 72.5 15t87.5 53zM146 269q40 3 73.5 13t57.5 26
t37 37.5t13 45.5q0 23 -13.5 37.5t-35.5 14.5q-42 0 -75.5 -44t-56.5 -130zM145 741h124l60 -190h-67z" />
    <glyph glyph-name="eacute" unicode="&#xe9;" horiz-adv-x="461" 
d="M398 75q-60 -45 -108.5 -65t-98.5 -20q-82 0 -128.5 51t-46.5 140q0 63 23 119.5t62.5 99t92 67.5t110.5 25q57 0 90.5 -30t33.5 -81q0 -73 -68 -114t-192 -41h-14t-16 1q-1 -8 -1 -11.5v-11.5q0 -136 103 -136q36 0 72.5 15t87.5 53zM146 269q40 3 73.5 13t57.5 26
t37 37.5t13 45.5q0 23 -13.5 37.5t-35.5 14.5q-42 0 -75.5 -44t-56.5 -130zM363 741h123l-190 -190h-67z" />
    <glyph glyph-name="ecircumflex" unicode="&#xea;" horiz-adv-x="461" 
d="M398 75q-60 -45 -108.5 -65t-98.5 -20q-82 0 -128.5 51t-46.5 140q0 63 23 119.5t62.5 99t92 67.5t110.5 25q57 0 90.5 -30t33.5 -81q0 -73 -68 -114t-192 -41h-14t-16 1q-1 -8 -1 -11.5v-11.5q0 -136 103 -136q36 0 72.5 15t87.5 53zM146 269q40 3 73.5 13t57.5 26
t37 37.5t13 45.5q0 23 -13.5 37.5t-35.5 14.5q-42 0 -75.5 -44t-56.5 -130zM272 741h87l74 -190h-77l-53 125l-100 -125h-78z" />
    <glyph glyph-name="edieresis" unicode="&#xeb;" horiz-adv-x="461" 
d="M398 75q-60 -45 -108.5 -65t-98.5 -20q-82 0 -128.5 51t-46.5 140q0 63 23 119.5t62.5 99t92 67.5t110.5 25q57 0 90.5 -30t33.5 -81q0 -73 -68 -114t-192 -41h-14t-16 1q-1 -8 -1 -11.5v-11.5q0 -136 103 -136q36 0 72.5 15t87.5 53zM146 269q40 3 73.5 13t57.5 26
t37 37.5t13 45.5q0 23 -13.5 37.5t-35.5 14.5q-42 0 -75.5 -44t-56.5 -130zM192 696q26 0 45 -19.5t19 -45.5t-19 -45t-46 -19q-26 0 -45 19t-19 45q0 28 18.5 46.5t46.5 18.5zM398 696q26 0 45 -19t19 -46q0 -26 -19 -45t-45 -19q-27 0 -46 19t-19 45q0 27 19 46t46 19z
" />
    <glyph glyph-name="igrave" unicode="&#xec;" horiz-adv-x="315" 
d="M293 73v-41q-32 -11 -55.5 -18.5t-42.5 -12t-35.5 -6t-33.5 -1.5q-78 0 -78 76q0 11 2.5 30.5t6.5 37.5l53 269l-82 12v35l171 39h44l-63 -338q-2 -11 -3.5 -22.5t-1.5 -19.5q0 -54 48 -54q13 0 24 2t39 10zM42 741h124l60 -190h-67z" />
    <glyph glyph-name="iacute" unicode="&#xed;" horiz-adv-x="315" 
d="M293 73v-41q-32 -11 -55.5 -18.5t-42.5 -12t-35.5 -6t-33.5 -1.5q-78 0 -78 76q0 11 2.5 30.5t6.5 37.5l53 269l-82 12v35l171 39h44l-63 -338q-2 -11 -3.5 -22.5t-1.5 -19.5q0 -54 48 -54q13 0 24 2t39 10zM260 741h123l-190 -190h-67z" />
    <glyph glyph-name="icircumflex" unicode="&#xee;" horiz-adv-x="315" 
d="M293 73v-41q-32 -11 -55.5 -18.5t-42.5 -12t-35.5 -6t-33.5 -1.5q-78 0 -78 76q0 11 2.5 30.5t6.5 37.5l53 269l-82 12v35l171 39h44l-63 -338q-2 -11 -3.5 -22.5t-1.5 -19.5q0 -54 48 -54q13 0 24 2t39 10zM169 741h87l74 -190h-77l-53 125l-100 -125h-78z" />
    <glyph glyph-name="idieresis" unicode="&#xef;" horiz-adv-x="315" 
d="M121 696q26 0 45 -19.5t19 -45.5t-19 -45t-46 -19q-26 0 -45 19t-19 45q0 28 18.5 46.5t46.5 18.5zM300 696q26 0 45 -19.5t19 -45.5t-19 -45t-46 -19q-26 0 -45 19t-19 45q0 27 19 46t46 19zM293 73v-41q-32 -11 -55.5 -18.5t-42.5 -12t-35.5 -6t-33.5 -1.5
q-78 0 -78 76q0 11 2.5 30.5t6.5 37.5l53 269l-82 12v35l171 39h44l-63 -338q-2 -11 -3.5 -22.5t-1.5 -19.5q0 -54 48 -54q13 0 24 2t39 10z" />
    <glyph glyph-name="eth" unicode="&#xf0;" horiz-adv-x="548" 
d="M155 565l123 47l-30 47l-81 16l3 34l157 31l54 -86l117 45l16 -42l-108 -43q48 -83 70 -156t22 -145q0 -71 -21 -130t-58.5 -102t-89.5 -67t-113 -24q-45 0 -82 14.5t-62.5 41t-39.5 64.5t-14 85q0 60 21 112t58 91t86.5 61.5t105.5 22.5q9 0 24.5 -1t32.5 -3
q-6 16 -11 28t-9.5 22.5t-10 21t-12.5 24.5l-132 -51zM357 428q-28 7 -47 7q-38 0 -68 -18t-51.5 -50.5t-33 -79t-11.5 -103.5q0 -142 87 -142q32 0 58 18.5t44.5 52t28.5 81t10 105.5q0 38 -4 69t-13 60z" />
    <glyph glyph-name="ntilde" unicode="&#xf1;" horiz-adv-x="598" 
d="M109 407l-83 12v35l176 39h39l-20 -99q34 27 62 45.5t51.5 30.5t44.5 17t41 5q41 0 66.5 -27t25.5 -70q0 -14 -2.5 -35.5t-7.5 -43.5l-30 -137q-6 -26 -8.5 -43t-2.5 -30q0 -24 12 -37.5t34 -13.5q13 0 26.5 2.5t35.5 8.5v-38q-50 -18 -85.5 -26t-67.5 -8
q-38 0 -58.5 18.5t-20.5 51.5q0 9 1.5 21.5t6.5 32.5l35 166q4 17 6.5 36t2.5 30q0 27 -12.5 42.5t-34.5 15.5q-24 0 -53.5 -15.5t-73.5 -50.5l-58 -342h-127zM181 561q21 136 113 136q10 0 19 -1t19.5 -5t24.5 -10.5t35 -17.5q13 -8 22 -10.5t17 -2.5q40 0 50 63h53
q-13 -69 -40 -102t-72 -33q-21 0 -42.5 6.5t-50.5 22.5q-18 10 -27.5 13.5t-17.5 3.5q-40 0 -48 -63h-55z" />
    <glyph glyph-name="ograve" unicode="&#xf2;" horiz-adv-x="551" 
d="M300 492q45 0 82 -14.5t63.5 -41.5t40.5 -65t14 -85q0 -62 -22 -116t-59.5 -94t-88.5 -63t-109 -23q-47 0 -84.5 14.5t-63.5 41.5t-40.5 65t-14.5 85q0 62 22 116t60 94t89.5 63t110.5 23zM284 440q-29 0 -54.5 -20t-44 -54.5t-29 -81.5t-10.5 -101q0 -69 21.5 -105
t63.5 -36q30 0 56 19.5t44.5 53.5t29.5 80t11 100q0 145 -88 145zM183 741h124l60 -190h-67z" />
    <glyph glyph-name="oacute" unicode="&#xf3;" horiz-adv-x="551" 
d="M300 492q45 0 82 -14.5t63.5 -41.5t40.5 -65t14 -85q0 -62 -22 -116t-59.5 -94t-88.5 -63t-109 -23q-47 0 -84.5 14.5t-63.5 41.5t-40.5 65t-14.5 85q0 62 22 116t60 94t89.5 63t110.5 23zM284 440q-29 0 -54.5 -20t-44 -54.5t-29 -81.5t-10.5 -101q0 -69 21.5 -105
t63.5 -36q30 0 56 19.5t44.5 53.5t29.5 80t11 100q0 145 -88 145zM401 741h123l-190 -190h-67z" />
    <glyph glyph-name="ocircumflex" unicode="&#xf4;" horiz-adv-x="551" 
d="M300 492q45 0 82 -14.5t63.5 -41.5t40.5 -65t14 -85q0 -62 -22 -116t-59.5 -94t-88.5 -63t-109 -23q-47 0 -84.5 14.5t-63.5 41.5t-40.5 65t-14.5 85q0 62 22 116t60 94t89.5 63t110.5 23zM284 440q-29 0 -54.5 -20t-44 -54.5t-29 -81.5t-10.5 -101q0 -69 21.5 -105
t63.5 -36q30 0 56 19.5t44.5 53.5t29.5 80t11 100q0 145 -88 145zM310 741h87l74 -190h-77l-53 125l-100 -125h-78z" />
    <glyph glyph-name="otilde" unicode="&#xf5;" horiz-adv-x="551" 
d="M300 492q45 0 82 -14.5t63.5 -41.5t40.5 -65t14 -85q0 -62 -22 -116t-59.5 -94t-88.5 -63t-109 -23q-47 0 -84.5 14.5t-63.5 41.5t-40.5 65t-14.5 85q0 62 22 116t60 94t89.5 63t110.5 23zM284 440q-29 0 -54.5 -20t-44 -54.5t-29 -81.5t-10.5 -101q0 -69 21.5 -105
t63.5 -36q30 0 56 19.5t44.5 53.5t29.5 80t11 100q0 145 -88 145zM157 561q21 136 113 136q10 0 19 -1t19.5 -5t24.5 -10.5t35 -17.5q13 -8 22 -10.5t17 -2.5q40 0 50 63h53q-13 -69 -40 -102t-72 -33q-21 0 -42.5 6.5t-50.5 22.5q-18 10 -27.5 13.5t-17.5 3.5
q-40 0 -48 -63h-55z" />
    <glyph glyph-name="odieresis" unicode="&#xf6;" horiz-adv-x="551" 
d="M300 492q45 0 82 -14.5t63.5 -41.5t40.5 -65t14 -85q0 -62 -22 -116t-59.5 -94t-88.5 -63t-109 -23q-47 0 -84.5 14.5t-63.5 41.5t-40.5 65t-14.5 85q0 62 22 116t60 94t89.5 63t110.5 23zM284 440q-29 0 -54.5 -20t-44 -54.5t-29 -81.5t-10.5 -101q0 -69 21.5 -105
t63.5 -36q30 0 56 19.5t44.5 53.5t29.5 80t11 100q0 145 -88 145zM230 696q26 0 45 -19.5t19 -45.5t-19 -45t-46 -19q-26 0 -45 19t-19 45q0 28 18.5 46.5t46.5 18.5zM436 696q26 0 45 -19t19 -46q0 -26 -19 -45t-45 -19q-27 0 -46 19t-19 45q0 27 19 46t46 19z" />
    <glyph glyph-name="divide" unicode="&#xf7;" horiz-adv-x="833" 
d="M418 551q27 0 46.5 -20t19.5 -48t-19.5 -47t-47.5 -19q-29 0 -48 19t-19 47t20 48t48 20zM124 339h585v-81h-585v81zM418 179q26 0 45.5 -19.5t19.5 -47.5t-19 -47t-48 -19q-28 0 -47 19t-19 46q0 29 19.5 48.5t48.5 19.5z" />
    <glyph glyph-name="oslash" unicode="&#xf8;" horiz-adv-x="553" 
d="M50 -62l50 83q-44 36 -63 77t-19 98q0 63 21.5 117t60 93.5t90 62.5t111.5 23q25 0 42 -2.5t36 -10.5l54 88l37 -25l-51 -83q42 -32 61.5 -73t19.5 -100q0 -62 -21.5 -116t-59 -94t-88.5 -63t-109 -23q-23 0 -41.5 2.5t-39.5 9.5l-54 -88zM346 418q-14 14 -27.5 19.5
t-31.5 5.5q-32 0 -58.5 -19t-46.5 -52t-31 -78.5t-11 -98.5q0 -28 2.5 -48t9.5 -44zM175 63q12 -13 25 -18.5t32 -5.5q31 0 58 19t46.5 53t30.5 80t11 100q0 29 -2.5 47t-8.5 36z" />
    <glyph glyph-name="ugrave" unicode="&#xf9;" horiz-adv-x="599" 
d="M573 29q-61 -20 -96.5 -27.5t-62.5 -7.5q-38 0 -55 19.5t-18 63.5q-63 -47 -107 -67t-82 -20q-45 0 -71.5 27t-26.5 74q0 27 6 56l48 260l-80 12v35l173 33h38l-57 -299q-8 -40 -8 -60q0 -26 13.5 -40t36.5 -14q26 0 52.5 11t70.5 38l67 352l119 14l-58 -310
q-4 -18 -6 -30t-3 -20t-1.5 -13t-0.5 -11q0 -23 13 -36.5t35 -13.5q11 0 25.5 2.5t35.5 8.5v-37zM207 741h124l60 -190h-67z" />
    <glyph glyph-name="uacute" unicode="&#xfa;" horiz-adv-x="599" 
d="M573 29q-61 -20 -96.5 -27.5t-62.5 -7.5q-38 0 -55 19.5t-18 63.5q-63 -47 -107 -67t-82 -20q-45 0 -71.5 27t-26.5 74q0 27 6 56l48 260l-80 12v35l173 33h38l-57 -299q-8 -40 -8 -60q0 -26 13.5 -40t36.5 -14q26 0 52.5 11t70.5 38l67 352l119 14l-58 -310
q-4 -18 -6 -30t-3 -20t-1.5 -13t-0.5 -11q0 -23 13 -36.5t35 -13.5q11 0 25.5 2.5t35.5 8.5v-37zM425 741h123l-190 -190h-67z" />
    <glyph glyph-name="ucircumflex" unicode="&#xfb;" horiz-adv-x="599" 
d="M573 29q-61 -20 -96.5 -27.5t-62.5 -7.5q-38 0 -55 19.5t-18 63.5q-63 -47 -107 -67t-82 -20q-45 0 -71.5 27t-26.5 74q0 27 6 56l48 260l-80 12v35l173 33h38l-57 -299q-8 -40 -8 -60q0 -26 13.5 -40t36.5 -14q26 0 52.5 11t70.5 38l67 352l119 14l-58 -310
q-4 -18 -6 -30t-3 -20t-1.5 -13t-0.5 -11q0 -23 13 -36.5t35 -13.5q11 0 25.5 2.5t35.5 8.5v-37zM334 741h87l74 -190h-77l-53 125l-100 -125h-78z" />
    <glyph glyph-name="udieresis" unicode="&#xfc;" horiz-adv-x="599" 
d="M573 29q-61 -20 -96.5 -27.5t-62.5 -7.5q-38 0 -55 19.5t-18 63.5q-63 -47 -107 -67t-82 -20q-45 0 -71.5 27t-26.5 74q0 27 6 56l48 260l-80 12v35l173 33h38l-57 -299q-8 -40 -8 -60q0 -26 13.5 -40t36.5 -14q26 0 52.5 11t70.5 38l67 352l119 14l-58 -310
q-4 -18 -6 -30t-3 -20t-1.5 -13t-0.5 -11q0 -23 13 -36.5t35 -13.5q11 0 25.5 2.5t35.5 8.5v-37zM254 696q26 0 45 -19.5t19 -45.5t-19 -45t-46 -19q-26 0 -45 19t-19 45q0 28 18.5 46.5t46.5 18.5zM460 696q26 0 45 -19t19 -46q0 -26 -19 -45t-45 -19q-27 0 -46 19t-19 45
q0 27 19 46t46 19z" />
    <glyph glyph-name="yacute" unicode="&#xfd;" horiz-adv-x="495" 
d="M48 -135q68 6 149 161h-38l-61 317q-4 20 -10 39t-15 36l-87 8v33l154 35q15 -4 26.5 -13.5t20.5 -27.5t16 -46t13 -67l35 -218q24 61 44 110.5t38 93t35 84t35 83.5h31l79 -26v-27l-59 -33q-15 -21 -27 -39.5t-24 -41.5t-26.5 -54.5t-34.5 -78.5q-21 -48 -38.5 -84.5
t-33 -66.5t-30.5 -55t-32 -51q-104 -152 -201 -152q-35 0 -60 22.5t-25 54.5q0 50 59 67zM374 741h123l-190 -190h-67z" />
    <glyph glyph-name="thorn" unicode="&#xfe;" horiz-adv-x="569" 
d="M-61 -178l61 16l9 13l139 802l-87 11v33l176 39h43q-2 -11 -4 -22.5t-4 -25.5q-4 -19 -6.5 -34.5t-4.5 -27.5l-36 -201q48 36 85 51.5t76 15.5q63 0 99.5 -48t36.5 -130q0 -65 -22.5 -123t-61.5 -101t-91.5 -68t-111.5 -25q-21 0 -38.5 3.5t-42.5 12.5l-29 -174l93 -18
v-39h-279v40zM163 70q22 -10 37 -13.5t31 -3.5q34 0 64 19.5t52 53t34.5 78.5t12.5 96q0 57 -20 88t-56 31q-11 0 -21.5 -2t-22 -7t-25 -13t-31.5 -21z" />
    <glyph glyph-name="ydieresis" unicode="&#xff;" horiz-adv-x="495" 
d="M48 -135q68 6 149 161h-38l-61 317q-4 20 -10 39t-15 36l-87 8v33l154 35q15 -4 26.5 -13.5t20.5 -27.5t16 -46t13 -67l35 -218q24 61 44 110.5t38 93t35 84t35 83.5h31l79 -26v-27l-59 -33q-15 -21 -27 -39.5t-24 -41.5t-26.5 -54.5t-34.5 -78.5q-21 -48 -38.5 -84.5
t-33 -66.5t-30.5 -55t-32 -51q-104 -152 -201 -152q-35 0 -60 22.5t-25 54.5q0 50 59 67zM203 696q26 0 45 -19.5t19 -45.5t-19 -45t-46 -19q-26 0 -45 19t-19 45q0 28 18.5 46.5t46.5 18.5zM409 696q26 0 45 -19t19 -46q0 -26 -19 -45t-45 -19q-27 0 -46 19t-19 45
q0 27 19 46t46 19z" />
    <glyph glyph-name="Amacron" unicode="&#x100;" horiz-adv-x="636" 
d="M-67 48l56 7l350 622h103l103 -608l10 -14l58 -7v-48h-263v48l61 7l11 14l-28 167h-223l-92 -167l10 -14l59 -7v-48h-215v48zM384 291l-42 260l-141 -260h183zM239 833h331l-12 -68h-331z" />
    <glyph glyph-name="amacron" unicode="&#x101;" horiz-adv-x="573" 
d="M548 29q-30 -11 -52 -17.5t-39.5 -10.5t-32.5 -5.5t-30 -1.5q-72 0 -72 78q-85 -82 -162 -82q-66 0 -103.5 49t-37.5 134q0 67 21.5 125.5t59.5 101.5t89 67.5t110 24.5q28 0 54 -5t63 -18l37 24h59q-7 -22 -15 -58.5t-19 -93.5l-29 -162q-9 -48 -9 -70q0 -54 47 -54
q11 0 24.5 2.5t36.5 8.5v-37zM370 385l-40 60q-33 1 -57 -8t-46 -29q-38 -35 -59 -92t-21 -125q0 -117 75 -117q23 0 45 10t57 36zM181 650h331l-12 -68h-331z" />
    <glyph glyph-name="Abreve" unicode="&#x102;" horiz-adv-x="636" 
d="M-67 48l56 7l350 622h103l103 -608l10 -14l58 -7v-48h-263v48l61 7l11 14l-28 167h-223l-92 -167l10 -14l59 -7v-48h-215v48zM384 291l-42 260l-141 -260h183zM315 895q-1 -14 -1 -17v-7q0 -32 19.5 -44t68.5 -12q56 0 81 17.5t35 62.5h51q-9 -42 -22.5 -71t-35 -46.5
t-52 -25.5t-72.5 -8q-128 0 -128 97q0 11 1.5 24.5t3.5 29.5h51z" />
    <glyph glyph-name="abreve" unicode="&#x103;" horiz-adv-x="573" 
d="M548 29q-30 -11 -52 -17.5t-39.5 -10.5t-32.5 -5.5t-30 -1.5q-72 0 -72 78q-85 -82 -162 -82q-66 0 -103.5 49t-37.5 134q0 67 21.5 125.5t59.5 101.5t89 67.5t110 24.5q28 0 54 -5t63 -18l37 24h59q-7 -22 -15 -58.5t-19 -93.5l-29 -162q-9 -48 -9 -70q0 -54 47 -54
q11 0 24.5 2.5t36.5 8.5v-37zM370 385l-40 60q-33 1 -57 -8t-46 -29q-38 -35 -59 -92t-21 -125q0 -117 75 -117q23 0 45 10t57 36zM257 712q-1 -14 -1 -17v-7q0 -32 19.5 -44t68.5 -12q56 0 81 17.5t35 62.5h51q-9 -42 -22.5 -71t-35 -46.5t-52 -25.5t-72.5 -8
q-128 0 -128 97q0 11 1.5 24.5t3.5 29.5h51z" />
    <glyph glyph-name="Aogonek" unicode="&#x104;" horiz-adv-x="636" 
d="M482 -216q-17 -5 -30.5 -6.5t-27.5 -1.5q-42 0 -64.5 17t-22.5 49q0 42 22.5 78.5t73.5 79.5h-83v48l61 7l11 14l-28 167h-223l-92 -167l10 -14l59 -7v-48h-215v48l56 7l350 622h103l103 -608l10 -14l58 -7v-48h-125q-38 -33 -54.5 -59t-16.5 -54q0 -39 44 -39
q5 0 11 0.5t23 2.5zM384 291l-42 260l-141 -260h183z" />
    <glyph glyph-name="aogonek" unicode="&#x105;" horiz-adv-x="573" 
d="M407 -216q-17 -5 -30.5 -6.5t-27.5 -1.5q-42 0 -64.5 17t-22.5 49q0 42 22.5 78.5t73.5 79.5h1q-37 15 -37 72q-85 -82 -162 -82q-66 0 -103.5 49t-37.5 134q0 67 21.5 125.5t59.5 101.5t89 67.5t110 24.5q28 0 54 -5t63 -18l37 24h59q-7 -22 -15 -58.5t-19 -93.5
l-29 -162q-9 -48 -9 -70q0 -54 47 -54q11 0 24.5 2.5t36.5 8.5v-37q-54 -19 -84.5 -26t-57.5 -9q-35 -31 -49.5 -56t-14.5 -51q0 -39 44 -39q5 0 11 0.5t23 2.5zM370 385l-40 60q-33 1 -57 -8t-46 -29q-38 -35 -59 -92t-21 -125q0 -117 75 -117q23 0 45 10t57 36z" />
    <glyph glyph-name="Cacute" unicode="&#x106;" horiz-adv-x="624" 
d="M445 72l46 124h67l-32 -173q-57 -19 -105.5 -27.5t-96.5 -8.5q-66 0 -119.5 20t-91 57.5t-57.5 90.5t-20 119q0 85 31.5 160t86 130.5t128.5 87.5t159 32q44 0 88.5 -7.5t104.5 -26.5l-30 -169h-66l-2 109l-10 18q-23 8 -38.5 11.5t-35.5 3.5q-59 0 -110 -27t-88.5 -74.5
t-58.5 -112.5t-21 -141q0 -105 51 -162.5t145 -57.5q14 0 26 1t30 5zM509 898h131l-191 -155h-75z" />
    <glyph glyph-name="cacute" unicode="&#x107;" horiz-adv-x="442" 
d="M399 85q-54 -47 -106.5 -71t-102.5 -24q-39 0 -70.5 13.5t-54 39t-34.5 61t-12 79.5q0 63 22.5 119.5t61.5 98.5t91 66.5t111 24.5q50 0 79 -21.5t29 -57.5q0 -66 -82 -74l-65 102q-27 -9 -48.5 -30t-37.5 -51.5t-24.5 -69.5t-8.5 -82q0 -67 25 -103.5t70 -36.5
q37 0 72.5 17t84.5 59v-59zM358 741h123l-190 -190h-67z" />
    <glyph glyph-name="Ccircumflex" unicode="&#x108;" horiz-adv-x="624" 
d="M445 72l46 124h67l-32 -173q-57 -19 -105.5 -27.5t-96.5 -8.5q-66 0 -119.5 20t-91 57.5t-57.5 90.5t-20 119q0 85 31.5 160t86 130.5t128.5 87.5t159 32q44 0 88.5 -7.5t104.5 -26.5l-30 -169h-66l-2 109l-10 18q-23 8 -38.5 11.5t-35.5 3.5q-59 0 -110 -27t-88.5 -74.5
t-58.5 -112.5t-21 -141q0 -105 51 -162.5t145 -57.5q14 0 26 1t30 5zM424 898h82l78 -155h-77l-55 91l-97 -91h-78z" />
    <glyph glyph-name="ccircumflex" unicode="&#x109;" horiz-adv-x="442" 
d="M399 85q-54 -47 -106.5 -71t-102.5 -24q-39 0 -70.5 13.5t-54 39t-34.5 61t-12 79.5q0 63 22.5 119.5t61.5 98.5t91 66.5t111 24.5q50 0 79 -21.5t29 -57.5q0 -66 -82 -74l-65 102q-27 -9 -48.5 -30t-37.5 -51.5t-24.5 -69.5t-8.5 -82q0 -67 25 -103.5t70 -36.5
q37 0 72.5 17t84.5 59v-59zM267 741h87l74 -190h-77l-53 125l-100 -125h-78z" />
    <glyph glyph-name="Cdotaccent" unicode="&#x10a;" horiz-adv-x="624" 
d="M445 72l46 124h67l-32 -173q-57 -19 -105.5 -27.5t-96.5 -8.5q-66 0 -119.5 20t-91 57.5t-57.5 90.5t-20 119q0 85 31.5 160t86 130.5t128.5 87.5t159 32q44 0 88.5 -7.5t104.5 -26.5l-30 -169h-66l-2 109l-10 18q-23 8 -38.5 11.5t-35.5 3.5q-59 0 -110 -27t-88.5 -74.5
t-58.5 -112.5t-21 -141q0 -105 51 -162.5t145 -57.5q14 0 26 1t30 5zM446 882q27 0 46.5 -20t19.5 -47q0 -28 -19.5 -47.5t-47.5 -19.5t-47.5 19.5t-19.5 46.5q0 29 19.5 48.5t48.5 19.5z" />
    <glyph glyph-name="cdotaccent" unicode="&#x10b;" horiz-adv-x="442" 
d="M399 85q-54 -47 -106.5 -71t-102.5 -24q-39 0 -70.5 13.5t-54 39t-34.5 61t-12 79.5q0 63 22.5 119.5t61.5 98.5t91 66.5t111 24.5q50 0 79 -21.5t29 -57.5q0 -66 -82 -74l-65 102q-27 -9 -48.5 -30t-37.5 -51.5t-24.5 -69.5t-8.5 -82q0 -67 25 -103.5t70 -36.5
q37 0 72.5 17t84.5 59v-59zM291 700q27 0 46.5 -20t19.5 -47q0 -28 -19.5 -47.5t-47.5 -19.5t-47.5 19.5t-19.5 46.5q0 29 19.5 48.5t48.5 19.5z" />
    <glyph glyph-name="Ccaron" unicode="&#x10c;" horiz-adv-x="624" 
d="M445 72l46 124h67l-32 -173q-57 -19 -105.5 -27.5t-96.5 -8.5q-66 0 -119.5 20t-91 57.5t-57.5 90.5t-20 119q0 85 31.5 160t86 130.5t128.5 87.5t159 32q44 0 88.5 -7.5t104.5 -26.5l-30 -169h-66l-2 109l-10 18q-23 8 -38.5 11.5t-35.5 3.5q-59 0 -110 -27t-88.5 -74.5
t-58.5 -112.5t-21 -141q0 -105 51 -162.5t145 -57.5q14 0 26 1t30 5zM308 898h76l55 -93l100 93h76l-147 -155h-81z" />
    <glyph glyph-name="ccaron" unicode="&#x10d;" horiz-adv-x="442" 
d="M399 85q-54 -47 -106.5 -71t-102.5 -24q-39 0 -70.5 13.5t-54 39t-34.5 61t-12 79.5q0 63 22.5 119.5t61.5 98.5t91 66.5t111 24.5q50 0 79 -21.5t29 -57.5q0 -66 -82 -74l-65 102q-27 -9 -48.5 -30t-37.5 -51.5t-24.5 -69.5t-8.5 -82q0 -67 25 -103.5t70 -36.5
q37 0 72.5 17t84.5 59v-59zM157 741h77l52 -125l101 125h77l-146 -190h-88z" />
    <glyph glyph-name="Dcaron" unicode="&#x10e;" horiz-adv-x="689" 
d="M-25 48l66 7l14 14l100 534l-10 14l-64 6v48h270q66 0 112 -9.5t81 -29.5q56 -33 85 -89t29 -130q0 -57 -14.5 -111.5t-40.5 -102t-63 -86t-83 -63.5q-88 -50 -233 -50h-249v48zM221 57q65 0 112.5 17.5t84.5 53.5q22 22 41 54.5t32.5 71t21 80t7.5 83.5q0 95 -47 146.5
t-134 51.5h-54l-104 -558h40zM290 898h76l55 -93l100 93h76l-147 -155h-81z" />
    <glyph glyph-name="dcaron" unicode="&#x10f;" horiz-adv-x="581" 
d="M558 29q-29 -10 -51 -17t-39.5 -11t-32.5 -5.5t-31 -1.5q-42 0 -60 19t-19 64q-86 -87 -162 -87q-65 0 -104 51.5t-39 136.5q0 65 22 122.5t60.5 100t89.5 67t109 24.5q23 0 44 -4t45 -13l29 178l-85 11v33l174 39h42l-92 -557q-5 -32 -7 -47t-2 -26q0 -23 12.5 -37
t34.5 -14q23 0 62 11v-37zM374 385l-42 60h-4l-3 1q-5 1 -8.5 1h-6.5q-32 0 -61 -21t-51.5 -56.5t-36 -81.5t-13.5 -96q0 -56 19 -87t54 -31q26 0 51 12.5t60 41.5zM620 697q8 18 21.5 28.5t33.5 10.5q17 0 27 -9t10 -25q0 -11 -4.5 -22t-12.5 -22l-89 -123h-59z" />
    <glyph glyph-name="Dcroat" unicode="&#x110;" horiz-adv-x="689" 
d="M-25 48l66 7l14 14l48 255h-82l11 60h82l41 219l-10 14l-64 6v48h270q66 0 112 -9.5t81 -29.5q56 -33 85 -89t29 -130q0 -57 -14.5 -111.5t-40.5 -102t-63 -86t-83 -63.5q-88 -50 -233 -50h-249v48zM221 57q65 0 112.5 17.5t84.5 53.5q22 22 41 54.5t32.5 71t21 80
t7.5 83.5q0 95 -47 146.5t-134 51.5h-54l-43 -231h128l-12 -60h-127l-50 -267h40z" />
    <glyph glyph-name="dcroat" unicode="&#x111;" horiz-adv-x="581" 
d="M558 29q-29 -10 -51 -17t-39.5 -11t-32.5 -5.5t-31 -1.5q-42 0 -60 19t-19 64q-86 -87 -162 -87q-65 0 -104 51.5t-39 136.5q0 65 22 122.5t60.5 100t89.5 67t109 24.5q23 0 44 -4t45 -13l11 68h-163l10 58h162l9 52l-85 11v33l174 39h42l-23 -135h71l-10 -58h-70
l-60 -364q-5 -32 -7 -47t-2 -26q0 -23 12.5 -37t34.5 -14q23 0 62 11v-37zM374 385l-42 60h-4l-3 1q-5 1 -8.5 1h-6.5q-32 0 -61 -21t-51.5 -56.5t-36 -81.5t-13.5 -96q0 -56 19 -87t54 -31q26 0 51 12.5t60 41.5z" />
    <glyph glyph-name="Emacron" unicode="&#x112;" horiz-adv-x="578" 
d="M-24 48l65 7l14 14l100 534l-9 14l-64 6v48h495l-30 -156h-64v88l-12 12h-188l-44 -240h122l15 14l24 74h57l-43 -233h-54l2 75l-13 14h-121l-50 -261h226l14 14l38 107h66l-33 -179h-513v48zM210 833h331l-12 -68h-331z" />
    <glyph glyph-name="emacron" unicode="&#x113;" horiz-adv-x="461" 
d="M398 75q-60 -45 -108.5 -65t-98.5 -20q-82 0 -128.5 51t-46.5 140q0 63 23 119.5t62.5 99t92 67.5t110.5 25q57 0 90.5 -30t33.5 -81q0 -73 -68 -114t-192 -41h-14t-16 1q-1 -8 -1 -11.5v-11.5q0 -136 103 -136q36 0 72.5 15t87.5 53zM146 269q40 3 73.5 13t57.5 26
t37 37.5t13 45.5q0 23 -13.5 37.5t-35.5 14.5q-42 0 -75.5 -44t-56.5 -130zM132 650h331l-12 -68h-331z" />
    <glyph glyph-name="Ebreve" unicode="&#x114;" horiz-adv-x="578" 
d="M-24 48l65 7l14 14l100 534l-9 14l-64 6v48h495l-30 -156h-64v88l-12 12h-188l-44 -240h122l15 14l24 74h57l-43 -233h-54l2 75l-13 14h-121l-50 -261h226l14 14l38 107h66l-33 -179h-513v48zM286 895q-1 -14 -1 -17v-7q0 -32 19.5 -44t68.5 -12q56 0 81 17.5t35 62.5h51
q-9 -42 -22.5 -71t-35 -46.5t-52 -25.5t-72.5 -8q-128 0 -128 97q0 11 1.5 24.5t3.5 29.5h51z" />
    <glyph glyph-name="ebreve" unicode="&#x115;" horiz-adv-x="461" 
d="M398 75q-60 -45 -108.5 -65t-98.5 -20q-82 0 -128.5 51t-46.5 140q0 63 23 119.5t62.5 99t92 67.5t110.5 25q57 0 90.5 -30t33.5 -81q0 -73 -68 -114t-192 -41h-14t-16 1q-1 -8 -1 -11.5v-11.5q0 -136 103 -136q36 0 72.5 15t87.5 53zM146 269q40 3 73.5 13t57.5 26
t37 37.5t13 45.5q0 23 -13.5 37.5t-35.5 14.5q-42 0 -75.5 -44t-56.5 -130zM208 712q-1 -14 -1 -17v-7q0 -32 19.5 -44t68.5 -12q56 0 81 17.5t35 62.5h51q-9 -42 -22.5 -71t-35 -46.5t-52 -25.5t-72.5 -8q-128 0 -128 97q0 11 1.5 24.5t3.5 29.5h51z" />
    <glyph glyph-name="Edotaccent" unicode="&#x116;" horiz-adv-x="578" 
d="M-24 48l65 7l14 14l100 534l-9 14l-64 6v48h495l-30 -156h-64v88l-12 12h-188l-44 -240h122l15 14l24 74h57l-43 -233h-54l2 75l-13 14h-121l-50 -261h226l14 14l38 107h66l-33 -179h-513v48zM373 882q27 0 46.5 -20t19.5 -47q0 -28 -19.5 -47.5t-47.5 -19.5t-47.5 19.5
t-19.5 46.5q0 29 19.5 48.5t48.5 19.5z" />
    <glyph glyph-name="edotaccent" unicode="&#x117;" horiz-adv-x="461" 
d="M398 75q-60 -45 -108.5 -65t-98.5 -20q-82 0 -128.5 51t-46.5 140q0 63 23 119.5t62.5 99t92 67.5t110.5 25q57 0 90.5 -30t33.5 -81q0 -73 -68 -114t-192 -41h-14t-16 1q-1 -8 -1 -11.5v-11.5q0 -136 103 -136q36 0 72.5 15t87.5 53zM146 269q40 3 73.5 13t57.5 26
t37 37.5t13 45.5q0 23 -13.5 37.5t-35.5 14.5q-42 0 -75.5 -44t-56.5 -130zM296 700q27 0 46.5 -20t19.5 -47q0 -28 -19.5 -47.5t-47.5 -19.5t-47.5 19.5t-19.5 46.5q0 29 19.5 48.5t48.5 19.5z" />
    <glyph glyph-name="Eogonek" unicode="&#x118;" horiz-adv-x="578" 
d="M450 -216q-17 -5 -30.5 -6.5t-27.5 -1.5q-42 0 -64.5 17t-22.5 49q0 42 22.5 78.5t73.5 79.5h-425v48l65 7l14 14l100 534l-9 14l-64 6v48h495l-30 -156h-64v88l-12 12h-188l-44 -240h122l15 14l24 74h57l-43 -233h-54l2 75l-13 14h-121l-50 -261h226l14 14l38 107h66
l-33 -179h-33q-38 -33 -54.5 -59t-16.5 -54q0 -39 44 -39q5 0 11 0.5t23 2.5z" />
    <glyph glyph-name="eogonek" unicode="&#x119;" horiz-adv-x="461" 
d="M255 -216q-17 -5 -30.5 -6.5t-27.5 -1.5q-42 0 -64.5 17t-22.5 49q0 39 19.5 74t64.5 74h-3q-82 0 -128.5 51t-46.5 140q0 63 23 119.5t62.5 99t92 67.5t110.5 25q57 0 90.5 -30t33.5 -81q0 -73 -68 -114t-192 -41h-14t-16 1q-1 -8 -1 -11.5v-11.5q0 -136 103 -136
q36 0 72.5 15t87.5 53l-2 -61q-75 -57 -137 -75q-38 -33 -54.5 -59t-16.5 -54q0 -39 44 -39q5 0 11 0.5t23 2.5zM146 269q40 3 73.5 13t57.5 26t37 37.5t13 45.5q0 23 -13.5 37.5t-35.5 14.5q-42 0 -75.5 -44t-56.5 -130z" />
    <glyph glyph-name="Ecaron" unicode="&#x11a;" horiz-adv-x="578" 
d="M-24 48l65 7l14 14l100 534l-9 14l-64 6v48h495l-30 -156h-64v88l-12 12h-188l-44 -240h122l15 14l24 74h57l-43 -233h-54l2 75l-13 14h-121l-50 -261h226l14 14l38 107h66l-33 -179h-513v48zM235 898h76l55 -93l100 93h76l-147 -155h-81z" />
    <glyph glyph-name="ecaron" unicode="&#x11b;" horiz-adv-x="461" 
d="M398 75q-60 -45 -108.5 -65t-98.5 -20q-82 0 -128.5 51t-46.5 140q0 63 23 119.5t62.5 99t92 67.5t110.5 25q57 0 90.5 -30t33.5 -81q0 -73 -68 -114t-192 -41h-14t-16 1q-1 -8 -1 -11.5v-11.5q0 -136 103 -136q36 0 72.5 15t87.5 53zM146 269q40 3 73.5 13t57.5 26
t37 37.5t13 45.5q0 23 -13.5 37.5t-35.5 14.5q-42 0 -75.5 -44t-56.5 -130zM162 741h77l52 -125l101 125h77l-146 -190h-88z" />
    <glyph glyph-name="Gcircumflex" unicode="&#x11c;" horiz-adv-x="692" 
d="M465 261l-11 14l-68 6v49h283v-48l-63 -6l-15 -14l-45 -232q-68 -23 -119 -33t-103 -10q-66 0 -119.5 20t-91 57t-57.5 90t-20 119q0 88 32.5 163t89.5 130t135 86.5t169 31.5q51 0 97 -7.5t95 -24.5l-30 -171h-72l1 111l-12 19q-24 7 -39.5 9.5t-35.5 2.5
q-62 0 -115.5 -27t-92.5 -74t-61.5 -111t-22.5 -139q0 -104 53 -162.5t147 -58.5q21 0 53 3zM428 898h82l78 -155h-77l-55 91l-97 -91h-78z" />
    <glyph glyph-name="gcircumflex" unicode="&#x11d;" horiz-adv-x="516" 
d="M348 47q48 -23 69.5 -48t21.5 -58t-20.5 -62t-56.5 -50.5t-84.5 -34t-103.5 -12.5q-93 0 -148.5 36t-55.5 97q0 92 146 147q-1 5 -1 10q0 43 42 96q-114 33 -114 133q0 40 17 75t46.5 61t70 40.5t87.5 14.5q32 0 60.5 -6.5t64.5 -22.5h137v-52h-102q5 -20 7.5 -33.5
t2.5 -27.5q0 -41 -17 -75.5t-47 -59.5t-71.5 -39.5t-90.5 -14.5q-12 -23 -12 -35q0 -4 1 -7zM263 448q-20 0 -38 -13.5t-31.5 -36.5t-22 -52.5t-8.5 -60.5q0 -38 14 -58t40 -20q20 0 38 13.5t32 36t22.5 51.5t8.5 61q0 79 -55 79zM141 29q-35 -20 -49.5 -40t-14.5 -49
q0 -48 36.5 -78.5t92.5 -30.5q48 0 81 22.5t33 55.5q0 38 -59 65zM293 741h87l74 -190h-77l-53 125l-100 -125h-78z" />
    <glyph glyph-name="Gbreve" unicode="&#x11e;" horiz-adv-x="692" 
d="M465 261l-11 14l-68 6v49h283v-48l-63 -6l-15 -14l-45 -232q-68 -23 -119 -33t-103 -10q-66 0 -119.5 20t-91 57t-57.5 90t-20 119q0 88 32.5 163t89.5 130t135 86.5t169 31.5q51 0 97 -7.5t95 -24.5l-30 -171h-72l1 111l-12 19q-24 7 -39.5 9.5t-35.5 2.5
q-62 0 -115.5 -27t-92.5 -74t-61.5 -111t-22.5 -139q0 -104 53 -162.5t147 -58.5q21 0 53 3zM363 895q-1 -14 -1 -17v-7q0 -32 19.5 -44t68.5 -12q56 0 81 17.5t35 62.5h51q-9 -42 -22.5 -71t-35 -46.5t-52 -25.5t-72.5 -8q-128 0 -128 97q0 11 1.5 24.5t3.5 29.5h51z" />
    <glyph glyph-name="gbreve" unicode="&#x11f;" horiz-adv-x="516" 
d="M348 47q48 -23 69.5 -48t21.5 -58t-20.5 -62t-56.5 -50.5t-84.5 -34t-103.5 -12.5q-93 0 -148.5 36t-55.5 97q0 92 146 147q-1 5 -1 10q0 43 42 96q-114 33 -114 133q0 40 17 75t46.5 61t70 40.5t87.5 14.5q32 0 60.5 -6.5t64.5 -22.5h137v-52h-102q5 -20 7.5 -33.5
t2.5 -27.5q0 -41 -17 -75.5t-47 -59.5t-71.5 -39.5t-90.5 -14.5q-12 -23 -12 -35q0 -4 1 -7zM263 448q-20 0 -38 -13.5t-31.5 -36.5t-22 -52.5t-8.5 -60.5q0 -38 14 -58t40 -20q20 0 38 13.5t32 36t22.5 51.5t8.5 61q0 79 -55 79zM141 29q-35 -20 -49.5 -40t-14.5 -49
q0 -48 36.5 -78.5t92.5 -30.5q48 0 81 22.5t33 55.5q0 38 -59 65zM229 712q-1 -14 -1 -17v-7q0 -32 19.5 -44t68.5 -12q56 0 81 17.5t35 62.5h51q-9 -42 -22.5 -71t-35 -46.5t-52 -25.5t-72.5 -8q-128 0 -128 97q0 11 1.5 24.5t3.5 29.5h51z" />
    <glyph glyph-name="Gdotaccent" unicode="&#x120;" horiz-adv-x="692" 
d="M465 261l-11 14l-68 6v49h283v-48l-63 -6l-15 -14l-45 -232q-68 -23 -119 -33t-103 -10q-66 0 -119.5 20t-91 57t-57.5 90t-20 119q0 88 32.5 163t89.5 130t135 86.5t169 31.5q51 0 97 -7.5t95 -24.5l-30 -171h-72l1 111l-12 19q-24 7 -39.5 9.5t-35.5 2.5
q-62 0 -115.5 -27t-92.5 -74t-61.5 -111t-22.5 -139q0 -104 53 -162.5t147 -58.5q21 0 53 3zM450 882q27 0 46.5 -20t19.5 -47q0 -28 -19.5 -47.5t-47.5 -19.5t-47.5 19.5t-19.5 46.5q0 29 19.5 48.5t48.5 19.5z" />
    <glyph glyph-name="gdotaccent" unicode="&#x121;" horiz-adv-x="516" 
d="M348 47q48 -23 69.5 -48t21.5 -58t-20.5 -62t-56.5 -50.5t-84.5 -34t-103.5 -12.5q-93 0 -148.5 36t-55.5 97q0 92 146 147q-1 5 -1 10q0 43 42 96q-114 33 -114 133q0 40 17 75t46.5 61t70 40.5t87.5 14.5q32 0 60.5 -6.5t64.5 -22.5h137v-52h-102q5 -20 7.5 -33.5
t2.5 -27.5q0 -41 -17 -75.5t-47 -59.5t-71.5 -39.5t-90.5 -14.5q-12 -23 -12 -35q0 -4 1 -7zM263 448q-20 0 -38 -13.5t-31.5 -36.5t-22 -52.5t-8.5 -60.5q0 -38 14 -58t40 -20q20 0 38 13.5t32 36t22.5 51.5t8.5 61q0 79 -55 79zM141 29q-35 -20 -49.5 -40t-14.5 -49
q0 -48 36.5 -78.5t92.5 -30.5q48 0 81 22.5t33 55.5q0 38 -59 65zM317 700q27 0 46.5 -20t19.5 -47q0 -28 -19.5 -47.5t-47.5 -19.5t-47.5 19.5t-19.5 46.5q0 29 19.5 48.5t48.5 19.5z" />
    <glyph glyph-name="Gcommaaccent" unicode="&#x122;" horiz-adv-x="692" 
d="M465 261l-11 14l-68 6v49h283v-48l-63 -6l-15 -14l-45 -232q-68 -23 -119 -33t-103 -10q-66 0 -119.5 20t-91 57t-57.5 90t-20 119q0 88 32.5 163t89.5 130t135 86.5t169 31.5q51 0 97 -7.5t95 -24.5l-30 -171h-72l1 111l-12 19q-24 7 -39.5 9.5t-35.5 2.5
q-62 0 -115.5 -27t-92.5 -74t-61.5 -111t-22.5 -139q0 -104 53 -162.5t147 -58.5q21 0 53 3zM253 -84q8 18 22.5 28.5t33.5 10.5q18 0 28 -10t10 -26q0 -10 -5.5 -20.5t-12.5 -20.5l-89 -124h-59z" />
    <glyph glyph-name="gcommaaccent" unicode="&#x123;" horiz-adv-x="516" 
d="M348 47q48 -23 69.5 -48t21.5 -58t-20.5 -62t-56.5 -50.5t-84.5 -34t-103.5 -12.5q-93 0 -148.5 36t-55.5 97q0 92 146 147q-1 5 -1 10q0 43 42 96q-114 33 -114 133q0 40 17 75t46.5 61t70 40.5t87.5 14.5q32 0 60.5 -6.5t64.5 -22.5h137v-52h-102q5 -20 7.5 -33.5
t2.5 -27.5q0 -41 -17 -75.5t-47 -59.5t-71.5 -39.5t-90.5 -14.5q-12 -23 -12 -35q0 -4 1 -7zM263 448q-20 0 -38 -13.5t-31.5 -36.5t-22 -52.5t-8.5 -60.5q0 -38 14 -58t40 -20q20 0 38 13.5t32 36t22.5 51.5t8.5 61q0 79 -55 79zM141 29q-35 -20 -49.5 -40t-14.5 -49
q0 -48 36.5 -78.5t92.5 -30.5q48 0 81 22.5t33 55.5q0 38 -59 65zM346 747h59l-72 -162q-8 -18 -22.5 -28.5t-33.5 -10.5q-17 0 -27.5 9.5t-10.5 23.5q1 8 5.5 20t12.5 24z" />
    <glyph glyph-name="Hcircumflex" unicode="&#x124;" horiz-adv-x="738" 
d="M-25 48l64 7l16 14l100 534l-10 14l-62 6v48h276v-48l-65 -6l-13 -14l-42 -222h280l42 222l-13 14l-60 6v48h278v-48l-66 -6l-13 -14l-100 -534l9 -14l64 -7v-48h-277v48l63 7l16 14l46 252h-280l-47 -252l11 -14l64 -7v-48h-281v48zM431 898h82l78 -155h-77l-55 91
l-97 -91h-78z" />
    <glyph glyph-name="hcircumflex" unicode="&#x125;" horiz-adv-x="588" 
d="M148 653l-87 11v33l177 39h46q-9 -37 -17.5 -77.5t-19.5 -94.5l-34 -169q36 28 63.5 46.5t50.5 29.5t43 16t40 5q41 0 66.5 -26t25.5 -67q0 -15 -3 -37.5t-8 -44.5l-29 -138q-11 -50 -11 -73q0 -24 12.5 -37.5t33.5 -13.5q13 0 26 2.5t36 8.5v-37q-27 -10 -49 -16.5
t-40 -10.5t-33.5 -6t-31.5 -2q-37 0 -57.5 18.5t-20.5 51.5q0 11 1.5 21.5t6.5 32.5l35 166q4 17 6.5 36t2.5 31q0 26 -12.5 41.5t-33.5 15.5q-25 0 -55 -15.5t-74 -50.5l-61 -342h-124zM356 898h82l78 -155h-77l-55 91l-97 -91h-78z" />
    <glyph glyph-name="Hbar" unicode="&#x126;" horiz-adv-x="738" 
d="M-25 48l64 7l16 14l75 400h-42l11 60h42l14 74l-10 14l-62 6v48h276v-48l-65 -6l-13 -14l-14 -74h280l14 74l-13 14l-60 6v48h278v-48l-66 -6l-13 -14l-14 -74h41l-12 -60h-40l-75 -400l9 -14l64 -7v-48h-277v48l63 7l16 14l46 252h-280l-47 -252l11 -14l64 -7v-48h-281
v48zM519 381l16 88h-280l-16 -88h280z" />
    <glyph glyph-name="hbar" unicode="&#x127;" horiz-adv-x="588" 
d="M126 543h-70l10 58h72l10 52l-87 11v33l177 39h46q-8 -30 -15 -62.5t-15 -72.5h162l-10 -58h-163l-30 -148q36 28 63.5 46.5t50.5 29.5t43 16t40 5q41 0 66.5 -26t25.5 -67q0 -15 -3 -37.5t-8 -44.5l-29 -138q-11 -50 -11 -73q0 -24 12.5 -37.5t33.5 -13.5q13 0 26 2.5
t36 8.5v-37q-27 -10 -49 -16.5t-40 -10.5t-33.5 -6t-31.5 -2q-37 0 -57.5 18.5t-20.5 51.5q0 11 1.5 21.5t6.5 32.5l35 166q4 17 6.5 36t2.5 31q0 26 -12.5 41.5t-33.5 15.5q-25 0 -55 -15.5t-74 -50.5l-61 -342h-124z" />
    <glyph glyph-name="Itilde" unicode="&#x128;" horiz-adv-x="345" 
d="M-20 48l66 7l15 14l100 534l-10 14l-65 6v48h282v-48l-66 -6l-16 -14l-100 -534l12 -14l65 -7v-48h-283v48zM85 747q9 60 37.5 91.5t73.5 31.5q10 0 18 -1t18 -4t24.5 -9.5t37.5 -16.5t34 -10q17 0 27 12.5t16 41.5h57q-8 -58 -37 -90.5t-73 -32.5q-22 0 -44 6.5
t-50 20.5q-14 8 -21.5 10.5t-14.5 2.5q-34 0 -45 -53h-58z" />
    <glyph glyph-name="itilde" unicode="&#x129;" horiz-adv-x="315" 
d="M293 73v-41q-32 -11 -55.5 -18.5t-42.5 -12t-35.5 -6t-33.5 -1.5q-78 0 -78 76q0 11 2.5 30.5t6.5 37.5l53 269l-82 12v35l171 39h44l-63 -338q-2 -11 -3.5 -22.5t-1.5 -19.5q0 -54 48 -54q13 0 24 2t39 10zM16 561q21 136 113 136q10 0 19 -1t19.5 -5t24.5 -10.5
t35 -17.5q13 -8 22 -10.5t17 -2.5q40 0 50 63h53q-13 -69 -40 -102t-72 -33q-21 0 -42.5 6.5t-50.5 22.5q-18 10 -27.5 13.5t-17.5 3.5q-40 0 -48 -63h-55z" />
    <glyph glyph-name="Imacron" unicode="&#x12a;" horiz-adv-x="345" 
d="M-20 48l66 7l15 14l100 534l-10 14l-65 6v48h282v-48l-66 -6l-16 -14l-100 -534l12 -14l65 -7v-48h-283v48zM94 833h331l-12 -68h-331z" />
    <glyph glyph-name="imacron" unicode="&#x12b;" horiz-adv-x="315" 
d="M45 650h298l-12 -68h-298zM293 73v-41q-32 -11 -55.5 -18.5t-42.5 -12t-35.5 -6t-33.5 -1.5q-78 0 -78 76q0 11 2.5 30.5t6.5 37.5l53 269l-82 12v35l171 39h44l-63 -338q-2 -11 -3.5 -22.5t-1.5 -19.5q0 -54 48 -54q13 0 24 2t39 10z" />
    <glyph glyph-name="Iogonek" unicode="&#x12e;" horiz-adv-x="345" 
d="M147 -216q-17 -5 -30.5 -6.5t-27.5 -1.5q-42 0 -64.5 17t-22.5 49q0 42 22.5 78.5t73.5 79.5h-118v48l66 7l15 14l100 534l-10 14l-65 6v48h282v-48l-66 -6l-16 -14l-100 -534l12 -14l65 -7v-48h-110q-38 -33 -54.5 -59t-16.5 -54q0 -39 44 -39q5 0 11 0.5t23 2.5z" />
    <glyph glyph-name="iogonek" unicode="&#x12f;" horiz-adv-x="315" 
d="M132 -216q-17 -5 -30.5 -6.5t-27.5 -1.5q-42 0 -64.5 17t-22.5 49q0 42 22.5 78.5t73.5 79.5q-35 16 -35 70q0 11 2.5 30.5t6.5 37.5l53 269l-82 12v35l171 39h44l-63 -338q-2 -11 -3.5 -22.5t-1.5 -19.5q0 -54 48 -54q13 0 24 2t39 10l7 2v-41q-31 -11 -54 -18
t-41.5 -11.5t-34.5 -6.5t-32 -2q-35 -31 -49.5 -56t-14.5 -51q0 -39 44 -39q5 0 11 0.5t23 2.5zM219 727q29 0 46.5 -18t17.5 -47q0 -32 -21.5 -54t-53.5 -22q-29 0 -47.5 17.5t-18.5 46.5q0 33 22 55t55 22z" />
    <glyph glyph-name="Idotaccent" unicode="&#x130;" horiz-adv-x="345" 
d="M-20 48l66 7l15 14l100 534l-10 14l-65 6v48h282v-48l-66 -6l-16 -14l-100 -534l12 -14l65 -7v-48h-283v48zM257 882q27 0 46.5 -20t19.5 -47q0 -28 -19.5 -47.5t-47.5 -19.5t-47.5 19.5t-19.5 46.5q0 29 19.5 48.5t48.5 19.5z" />
    <glyph glyph-name="dotlessi" unicode="&#x131;" horiz-adv-x="315" 
d="M293 73v-41q-32 -11 -55.5 -18.5t-42.5 -12t-35.5 -6t-33.5 -1.5q-78 0 -78 76q0 11 2.5 30.5t6.5 37.5l53 269l-82 12v35l171 39h44l-63 -338q-2 -11 -3.5 -22.5t-1.5 -19.5q0 -54 48 -54q13 0 24 2t39 10z" />
    <glyph glyph-name="Jcircumflex" unicode="&#x134;" horiz-adv-x="472" 
d="M-11 192h71l1 -136l13 -12q36 0 61 10t42.5 35t30 69t23.5 112l59 333l-10 14l-67 6v48h282v-48l-67 -6l-14 -14l-56 -335q-25 -145 -87 -213t-171 -68q-41 0 -75 6.5t-70 20.5zM299 898h82l78 -155h-77l-55 91l-97 -91h-78z" />
    <glyph glyph-name="jcircumflex" unicode="&#x135;" horiz-adv-x="296" 
d="M4 -140q10 13 18.5 31.5t16 45.5t14.5 64t15 89l46 317l-90 12v35l179 39h44l-54 -338q-9 -54 -16.5 -91t-17 -65t-22.5 -49.5t-31 -44.5q-43 -54 -94.5 -86.5t-93.5 -32.5q-29 0 -47 17t-18 45q0 40 34 59zM184 741h87l74 -190h-77l-53 125l-100 -125h-78z" />
    <glyph glyph-name="Kcommaaccent" unicode="&#x136;" horiz-adv-x="655" 
d="M-24 48l64 7l15 14l100 534l-10 14l-63 6v48h279v-48l-66 -6l-13 -14l-50 -260h30l251 260l-6 14l-62 6v48h250v-48l-79 -6l-234 -240l128 -256q11 -22 21.5 -36.5t23 -22.5t28 -11.5t37.5 -3.5h9t10 1v-47q-38 -4 -72 -6t-50 -2q-26 0 -45.5 5t-35 17t-29.5 33.5
t-30 54.5l-91 190h-63l-41 -224l11 -14l62 -7v-48h-279v48zM264 -84q8 18 22.5 28.5t33.5 10.5q18 0 28 -10t10 -26q0 -10 -5.5 -20.5t-12.5 -20.5l-89 -124h-59z" />
    <glyph glyph-name="kcommaaccent" unicode="&#x137;" horiz-adv-x="557" 
d="M145 653l-88 10v34l180 39h43l-96 -478l130 137q26 28 46.5 47t37.5 30.5t31.5 16.5t28.5 5q26 0 43.5 -19.5t17.5 -48.5q0 -31 -19 -51t-62 -35l-36 58q-35 -28 -56 -45.5t-35 -31.5q24 -56 38 -89t23.5 -53.5t17 -34t17.5 -30.5q34 -61 82 -61q11 0 23 1.5t29 6.5v-39
q-57 -16 -89 -22t-56 -6q-19 0 -34 5t-28 17.5t-25 33t-25 51.5l-63 146l-46 -50l-35 -197h-119zM185 -84q8 18 22.5 28.5t33.5 10.5q18 0 28 -10t10 -26q0 -10 -5.5 -20.5t-12.5 -20.5l-89 -124h-59z" />
    <glyph glyph-name="Lacute" unicode="&#x139;" horiz-adv-x="531" 
d="M-24 48l62 7l16 14l100 534l-10 14l-63 6v48h279v-48l-63 -6l-17 -14l-101 -545h181l18 11l39 128h72l-38 -197h-475v48zM412 898h131l-191 -155h-75z" />
    <glyph glyph-name="lacute" unicode="&#x13a;" horiz-adv-x="307" 
d="M283 31q-35 -11 -59.5 -18t-43 -11.5t-32.5 -6t-27 -1.5q-38 0 -61 18.5t-23 50.5q0 11 1 21.5t6 33.5l99 535l-83 11v33l171 39h44l-103 -557q-7 -32 -9 -47t-2 -28q0 -22 12.5 -35.5t33.5 -13.5q7 0 13.5 0.5t15 2t19.5 4.5t28 8v-39zM301 898h131l-191 -155h-75z" />
    <glyph glyph-name="Lcommaaccent" unicode="&#x13b;" horiz-adv-x="531" 
d="M-24 48l62 7l16 14l100 534l-10 14l-63 6v48h279v-48l-63 -6l-17 -14l-101 -545h181l18 11l39 128h72l-38 -197h-475v48zM202 -84q8 18 22.5 28.5t33.5 10.5q18 0 28 -10t10 -26q0 -10 -5.5 -20.5t-12.5 -20.5l-89 -124h-59z" />
    <glyph glyph-name="lcommaaccent" unicode="&#x13c;" horiz-adv-x="307" 
d="M283 31q-35 -11 -59.5 -18t-43 -11.5t-32.5 -6t-27 -1.5q-38 0 -61 18.5t-23 50.5q0 11 1 21.5t6 33.5l99 535l-83 11v33l171 39h44l-103 -557q-7 -32 -9 -47t-2 -28q0 -22 12.5 -35.5t33.5 -13.5q7 0 13.5 0.5t15 2t19.5 4.5t28 8v-39zM61 -84q8 18 22.5 28.5t33.5 10.5
q18 0 28 -10t10 -26q0 -10 -5.5 -20.5t-12.5 -20.5l-89 -124h-59z" />
    <glyph glyph-name="Lcaron" unicode="&#x13d;" horiz-adv-x="531" 
d="M-24 48l62 7l16 14l100 534l-10 14l-63 6v48h279v-48l-63 -6l-17 -14l-101 -545h181l18 11l39 128h72l-38 -197h-475v48zM437 697q8 18 21.5 28.5t33.5 10.5q17 0 27 -9t10 -25q0 -11 -4.5 -22t-12.5 -22l-89 -123h-59z" />
    <glyph glyph-name="lcaron" unicode="&#x13e;" horiz-adv-x="307" 
d="M283 31q-35 -11 -59.5 -18t-43 -11.5t-32.5 -6t-27 -1.5q-38 0 -61 18.5t-23 50.5q0 11 1 21.5t6 33.5l99 535l-83 11v33l171 39h44l-103 -557q-7 -32 -9 -47t-2 -28q0 -22 12.5 -35.5t33.5 -13.5q7 0 13.5 0.5t15 2t19.5 4.5t28 8v-39zM341 697q8 18 21.5 28.5
t33.5 10.5q17 0 27 -9t10 -25q0 -11 -4.5 -22t-12.5 -22l-89 -123h-59z" />
    <glyph glyph-name="Ldot" unicode="&#x13f;" horiz-adv-x="531" 
d="M324 361q27 0 46.5 -20t19.5 -47q0 -28 -19.5 -47.5t-47.5 -19.5t-47.5 19.5t-19.5 46.5q0 29 19.5 48.5t48.5 19.5zM-24 48l62 7l16 14l100 534l-10 14l-63 6v48h279v-48l-63 -6l-17 -14l-101 -545h181l18 11l39 128h72l-38 -197h-475v48z" />
    <glyph glyph-name="ldot" unicode="&#x140;" horiz-adv-x="309" 
d="M293 361q27 0 46.5 -20t19.5 -47q0 -28 -19.5 -47.5t-47.5 -19.5t-47.5 19.5t-19.5 46.5q0 29 19.5 48.5t48.5 19.5zM283 31q-35 -11 -59.5 -18t-43 -11.5t-32.5 -6t-27 -1.5q-38 0 -61 18.5t-23 50.5q0 11 1 21.5t6 33.5l99 535l-83 11v33l171 39h44l-103 -557
q-7 -32 -9 -47t-2 -28q0 -22 12.5 -35.5t33.5 -13.5q7 0 13.5 0.5t15 2t19.5 4.5t28 8v-39z" />
    <glyph glyph-name="Lslash" unicode="&#x141;" horiz-adv-x="531" 
d="M-24 48l62 7l16 14l41 219l-66 -38l-22 49l101 58l46 246l-10 14l-63 6v48h279v-48l-63 -6l-17 -14l-32 -172l97 54l26 -48l-136 -75l-56 -304h181l18 11l39 128h72l-38 -197h-475v48z" />
    <glyph glyph-name="lslash" unicode="&#x142;" horiz-adv-x="307" 
d="M283 31q-35 -11 -60 -18.5t-43 -11.5t-32 -5.5t-27 -1.5q-39 0 -61.5 19t-22.5 52q0 10 1 19t6 34l36 196l-77 -43l-20 45l108 58l52 279l-83 11v33l171 39h44l-55 -295l88 46l22 -44l-121 -63l-37 -201q-4 -19 -6 -30.5t-3 -19t-1.5 -13t-0.5 -11.5q0 -23 12.5 -36.5
t33.5 -13.5q15 0 30 3t46 12v-39z" />
    <glyph glyph-name="Nacute" unicode="&#x143;" horiz-adv-x="716" 
d="M-24 48l65 7l14 14l101 534l-11 14l-64 6v48h221v-24l206 -485l84 441l-12 14l-65 6v48h229v-48l-64 -6l-16 -14l-112 -603h-103l-231 542l-90 -473l10 -14l66 -7v-48h-228v48zM505 898h131l-191 -155h-75z" />
    <glyph glyph-name="nacute" unicode="&#x144;" horiz-adv-x="598" 
d="M109 407l-83 12v35l176 39h39l-20 -99q34 27 62 45.5t51.5 30.5t44.5 17t41 5q41 0 66.5 -27t25.5 -70q0 -14 -2.5 -35.5t-7.5 -43.5l-30 -137q-6 -26 -8.5 -43t-2.5 -30q0 -24 12 -37.5t34 -13.5q13 0 26.5 2.5t35.5 8.5v-38q-50 -18 -85.5 -26t-67.5 -8
q-38 0 -58.5 18.5t-20.5 51.5q0 9 1.5 21.5t6.5 32.5l35 166q4 17 6.5 36t2.5 30q0 27 -12.5 42.5t-34.5 15.5q-24 0 -53.5 -15.5t-73.5 -50.5l-58 -342h-127zM425 741h123l-190 -190h-67z" />
    <glyph glyph-name="Ncommaaccent" unicode="&#x145;" horiz-adv-x="716" 
d="M-24 48l65 7l14 14l101 534l-11 14l-64 6v48h221v-24l206 -485l84 441l-12 14l-65 6v48h229v-48l-64 -6l-16 -14l-112 -603h-103l-231 542l-90 -473l10 -14l66 -7v-48h-228v48zM265 -84q8 18 22.5 28.5t33.5 10.5q18 0 28 -10t10 -26q0 -10 -5.5 -20.5t-12.5 -20.5
l-89 -124h-59z" />
    <glyph glyph-name="ncommaaccent" unicode="&#x146;" horiz-adv-x="598" 
d="M109 407l-83 12v35l176 39h39l-20 -99q34 27 62 45.5t51.5 30.5t44.5 17t41 5q41 0 66.5 -27t25.5 -70q0 -14 -2.5 -35.5t-7.5 -43.5l-30 -137q-6 -26 -8.5 -43t-2.5 -30q0 -24 12 -37.5t34 -13.5q13 0 26.5 2.5t35.5 8.5v-38q-50 -18 -85.5 -26t-67.5 -8
q-38 0 -58.5 18.5t-20.5 51.5q0 9 1.5 21.5t6.5 32.5l35 166q4 17 6.5 36t2.5 30q0 27 -12.5 42.5t-34.5 15.5q-24 0 -53.5 -15.5t-73.5 -50.5l-58 -342h-127zM206 -84q8 18 22.5 28.5t33.5 10.5q18 0 28 -10t10 -26q0 -10 -5.5 -20.5t-12.5 -20.5l-89 -124h-59z" />
    <glyph glyph-name="Ncaron" unicode="&#x147;" horiz-adv-x="716" 
d="M-24 48l65 7l14 14l101 534l-11 14l-64 6v48h221v-24l206 -485l84 441l-12 14l-65 6v48h229v-48l-64 -6l-16 -14l-112 -603h-103l-231 542l-90 -473l10 -14l66 -7v-48h-228v48zM304 898h76l55 -93l100 93h76l-147 -155h-81z" />
    <glyph glyph-name="ncaron" unicode="&#x148;" horiz-adv-x="598" 
d="M109 407l-83 12v35l176 39h39l-20 -99q34 27 62 45.5t51.5 30.5t44.5 17t41 5q41 0 66.5 -27t25.5 -70q0 -14 -2.5 -35.5t-7.5 -43.5l-30 -137q-6 -26 -8.5 -43t-2.5 -30q0 -24 12 -37.5t34 -13.5q13 0 26.5 2.5t35.5 8.5v-38q-50 -18 -85.5 -26t-67.5 -8
q-38 0 -58.5 18.5t-20.5 51.5q0 9 1.5 21.5t6.5 32.5l35 166q4 17 6.5 36t2.5 30q0 27 -12.5 42.5t-34.5 15.5q-24 0 -53.5 -15.5t-73.5 -50.5l-58 -342h-127zM224 741h77l52 -125l101 125h77l-146 -190h-88z" />
    <glyph glyph-name="Omacron" unicode="&#x14c;" horiz-adv-x="728" 
d="M418 684q55 0 105 -18.5t88 -52.5q39 -37 60 -90.5t21 -119.5q0 -50 -11 -98t-31 -92.5t-49.5 -82.5t-65.5 -67q-47 -38 -102.5 -57t-116.5 -19q-63 0 -114 20t-87 57t-55.5 89.5t-19.5 116.5q0 51 11.5 100.5t32.5 94t51 83t67 66.5q94 70 216 70zM405 623
q-78 0 -142 -85q-39 -54 -62 -128.5t-23 -150.5q0 -48 10.5 -87t30 -66.5t47 -42.5t61.5 -15q46 0 87 29t72 79t49.5 115.5t18.5 139.5q0 100 -39 156t-110 56zM285 833h331l-12 -68h-331z" />
    <glyph glyph-name="omacron" unicode="&#x14d;" horiz-adv-x="551" 
d="M300 492q45 0 82 -14.5t63.5 -41.5t40.5 -65t14 -85q0 -62 -22 -116t-59.5 -94t-88.5 -63t-109 -23q-47 0 -84.5 14.5t-63.5 41.5t-40.5 65t-14.5 85q0 62 22 116t60 94t89.5 63t110.5 23zM284 440q-29 0 -54.5 -20t-44 -54.5t-29 -81.5t-10.5 -101q0 -69 21.5 -105
t63.5 -36q30 0 56 19.5t44.5 53.5t29.5 80t11 100q0 145 -88 145zM170 650h331l-12 -68h-331z" />
    <glyph glyph-name="Obreve" unicode="&#x14e;" horiz-adv-x="728" 
d="M418 684q55 0 105 -18.5t88 -52.5q39 -37 60 -90.5t21 -119.5q0 -50 -11 -98t-31 -92.5t-49.5 -82.5t-65.5 -67q-47 -38 -102.5 -57t-116.5 -19q-63 0 -114 20t-87 57t-55.5 89.5t-19.5 116.5q0 51 11.5 100.5t32.5 94t51 83t67 66.5q94 70 216 70zM405 623
q-78 0 -142 -85q-39 -54 -62 -128.5t-23 -150.5q0 -48 10.5 -87t30 -66.5t47 -42.5t61.5 -15q46 0 87 29t72 79t49.5 115.5t18.5 139.5q0 100 -39 156t-110 56zM361 895q-1 -14 -1 -17v-7q0 -32 19.5 -44t68.5 -12q56 0 81 17.5t35 62.5h51q-9 -42 -22.5 -71t-35 -46.5
t-52 -25.5t-72.5 -8q-128 0 -128 97q0 11 1.5 24.5t3.5 29.5h51z" />
    <glyph glyph-name="obreve" unicode="&#x14f;" horiz-adv-x="551" 
d="M300 492q45 0 82 -14.5t63.5 -41.5t40.5 -65t14 -85q0 -62 -22 -116t-59.5 -94t-88.5 -63t-109 -23q-47 0 -84.5 14.5t-63.5 41.5t-40.5 65t-14.5 85q0 62 22 116t60 94t89.5 63t110.5 23zM284 440q-29 0 -54.5 -20t-44 -54.5t-29 -81.5t-10.5 -101q0 -69 21.5 -105
t63.5 -36q30 0 56 19.5t44.5 53.5t29.5 80t11 100q0 145 -88 145zM246 712q-1 -14 -1 -17v-7q0 -32 19.5 -44t68.5 -12q56 0 81 17.5t35 62.5h51q-9 -42 -22.5 -71t-35 -46.5t-52 -25.5t-72.5 -8q-128 0 -128 97q0 11 1.5 24.5t3.5 29.5h51z" />
    <glyph glyph-name="Ohungarumlaut" unicode="&#x150;" horiz-adv-x="728" 
d="M418 684q55 0 105 -18.5t88 -52.5q39 -37 60 -90.5t21 -119.5q0 -50 -11 -98t-31 -92.5t-49.5 -82.5t-65.5 -67q-47 -38 -102.5 -57t-116.5 -19q-63 0 -114 20t-87 57t-55.5 89.5t-19.5 116.5q0 51 11.5 100.5t32.5 94t51 83t67 66.5q94 70 216 70zM405 623
q-78 0 -142 -85q-39 -54 -62 -128.5t-23 -150.5q0 -48 10.5 -87t30 -66.5t47 -42.5t61.5 -15q46 0 87 29t72 79t49.5 115.5t18.5 139.5q0 100 -39 156t-110 56zM603 898h112l-188 -155h-59zM437 898h112l-188 -155h-59z" />
    <glyph glyph-name="ohungarumlaut" unicode="&#x151;" horiz-adv-x="551" 
d="M300 492q45 0 82 -14.5t63.5 -41.5t40.5 -65t14 -85q0 -62 -22 -116t-59.5 -94t-88.5 -63t-109 -23q-47 0 -84.5 14.5t-63.5 41.5t-40.5 65t-14.5 85q0 62 22 116t60 94t89.5 63t110.5 23zM284 440q-29 0 -54.5 -20t-44 -54.5t-29 -81.5t-10.5 -101q0 -69 21.5 -105
t63.5 -36q30 0 56 19.5t44.5 53.5t29.5 80t11 100q0 145 -88 145zM490 741h112l-187 -190h-59zM324 741h112l-187 -190h-59z" />
    <glyph glyph-name="OE" unicode="&#x152;" horiz-adv-x="999" 
d="M486 73q-27 -24 -51 -40t-47.5 -26.5t-48 -15t-52.5 -4.5q-56 0 -101.5 19.5t-77.5 55t-49.5 86t-17.5 113.5q0 87 28 164t76 134.5t112 91t136 33.5q65 0 108.5 -25.5t77.5 -82.5l17 95h404l-31 -156h-64l-1 85l-12 13h-182l-46 -238h116l18 14l23 73h57l-43 -231h-54
v74l-13 13h-115l-48 -261h220l14 15l39 108h66l-35 -180h-436zM402 619q-44 0 -84.5 -29.5t-71.5 -79.5t-49 -115t-18 -137q0 -96 38 -150t106 -54q88 0 152 100q16 25 29.5 56t22.5 65t14 69t5 69q0 97 -38 151.5t-106 54.5z" />
    <glyph glyph-name="oe" unicode="&#x153;" horiz-adv-x="796" 
d="M733 78q-61 -47 -109 -67.5t-99 -20.5q-48 0 -81 18t-55 56q-43 -39 -85 -56.5t-93 -17.5q-89 0 -141 55t-52 149q0 63 21.5 117.5t58.5 94.5t87.5 63t109.5 23q52 0 89.5 -19t67.5 -61q88 80 183 80q57 0 89.5 -29t32.5 -78q0 -45 -27.5 -79.5t-78.5 -54.5
q-18 -7 -36.5 -11.5t-39.5 -7.5t-46 -4.5t-56 -1.5q-1 -14 -1 -18v-9q0 -61 27.5 -96t74.5 -35q37 0 73 16t86 56v-62zM281 440q-28 0 -52.5 -20t-43 -54.5t-29 -81t-10.5 -99.5q0 -69 21.5 -106t62.5 -37q28 0 52.5 20t42.5 55t28.5 82t10.5 100q0 69 -21 105t-62 36z
M477 268q81 8 128 41.5t47 84.5q0 23 -12.5 36t-33.5 13q-42 0 -76.5 -46.5t-52.5 -128.5z" />
    <glyph glyph-name="Racute" unicode="&#x154;" horiz-adv-x="643" 
d="M-24 48l63 7l15 14l101 534l-11 14l-65 6v48h290q110 0 162 -35t52 -109q0 -80 -53.5 -131t-157.5 -70q28 -6 48 -17t35.5 -30.5t27.5 -51t25 -77.5q9 -34 18 -54.5t22 -31.5t32.5 -14.5t49.5 -2.5v-46q-28 -4 -50 -5.5t-41 -1.5q-38 0 -65 8.5t-46.5 29t-33 54.5
t-24.5 85q-6 25 -10.5 41t-9.5 27t-12 18t-17 15q-15 11 -36 17.5t-44 6.5h-7.5t-9.5 -1l-43 -226l9 -14l67 -7v-48h-281v48zM234 352q8 -1 12.5 -1h11.5q90 0 138.5 41.5t48.5 116.5q0 107 -132 107h-10t-19 -1zM458 898h131l-191 -155h-75z" />
    <glyph glyph-name="racute" unicode="&#x155;" horiz-adv-x="449" 
d="M109 407l-83 12v35l172 39h35l-28 -134q51 69 93 101t81 32q30 0 50.5 -21t20.5 -52q0 -39 -26 -61t-73 -24l-27 76q-58 -24 -89.5 -66.5t-43.5 -111.5l-38 -232h-123zM351 741h123l-190 -190h-67z" />
    <glyph glyph-name="Rcommaaccent" unicode="&#x156;" horiz-adv-x="643" 
d="M-24 48l63 7l15 14l101 534l-11 14l-65 6v48h290q110 0 162 -35t52 -109q0 -80 -53.5 -131t-157.5 -70q28 -6 48 -17t35.5 -30.5t27.5 -51t25 -77.5q9 -34 18 -54.5t22 -31.5t32.5 -14.5t49.5 -2.5v-46q-28 -4 -50 -5.5t-41 -1.5q-38 0 -65 8.5t-46.5 29t-33 54.5
t-24.5 85q-6 25 -10.5 41t-9.5 27t-12 18t-17 15q-15 11 -36 17.5t-44 6.5h-7.5t-9.5 -1l-43 -226l9 -14l67 -7v-48h-281v48zM234 352q8 -1 12.5 -1h11.5q90 0 138.5 41.5t48.5 116.5q0 107 -132 107h-10t-19 -1zM258 -84q8 18 22.5 28.5t33.5 10.5q18 0 28 -10t10 -26
q0 -10 -5.5 -20.5t-12.5 -20.5l-89 -124h-59z" />
    <glyph glyph-name="rcommaaccent" unicode="&#x157;" horiz-adv-x="449" 
d="M109 407l-83 12v35l172 39h35l-28 -134q51 69 93 101t81 32q30 0 50.5 -21t20.5 -52q0 -39 -26 -61t-73 -24l-27 76q-58 -24 -89.5 -66.5t-43.5 -111.5l-38 -232h-123zM132 -84q8 18 22.5 28.5t33.5 10.5q18 0 28 -10t10 -26q0 -10 -5.5 -20.5t-12.5 -20.5l-89 -124h-59z
" />
    <glyph glyph-name="Rcaron" unicode="&#x158;" horiz-adv-x="643" 
d="M-24 48l63 7l15 14l101 534l-11 14l-65 6v48h290q110 0 162 -35t52 -109q0 -80 -53.5 -131t-157.5 -70q28 -6 48 -17t35.5 -30.5t27.5 -51t25 -77.5q9 -34 18 -54.5t22 -31.5t32.5 -14.5t49.5 -2.5v-46q-28 -4 -50 -5.5t-41 -1.5q-38 0 -65 8.5t-46.5 29t-33 54.5
t-24.5 85q-6 25 -10.5 41t-9.5 27t-12 18t-17 15q-15 11 -36 17.5t-44 6.5h-7.5t-9.5 -1l-43 -226l9 -14l67 -7v-48h-281v48zM234 352q8 -1 12.5 -1h11.5q90 0 138.5 41.5t48.5 116.5q0 107 -132 107h-10t-19 -1zM257 898h76l55 -93l100 93h76l-147 -155h-81z" />
    <glyph glyph-name="rcaron" unicode="&#x159;" horiz-adv-x="449" 
d="M109 407l-83 12v35l172 39h35l-28 -134q51 69 93 101t81 32q30 0 50.5 -21t20.5 -52q0 -39 -26 -61t-73 -24l-27 76q-58 -24 -89.5 -66.5t-43.5 -111.5l-38 -232h-123zM150 741h77l52 -125l101 125h77l-146 -190h-88z" />
    <glyph glyph-name="Sacute" unicode="&#x15a;" horiz-adv-x="552" 
d="M49 204h66v-119l6 -10q27 -11 47.5 -15.5t43.5 -4.5q62 0 101.5 32.5t39.5 83.5q0 19 -5 33.5t-18.5 28.5t-37.5 30t-62 37q-43 24 -70.5 43.5t-43.5 39t-22 40.5t-6 49q0 46 19 84.5t53 66.5t81.5 43t104.5 15q38 0 75.5 -6.5t85.5 -21.5l-26 -169h-60l2 110l-8 10
q-20 9 -35 12.5t-35 3.5q-30 0 -55 -8.5t-43.5 -23t-29 -34.5t-10.5 -44q0 -17 4.5 -30t18 -26.5t38 -29.5t65.5 -39q43 -25 71.5 -45t44.5 -39.5t22.5 -40.5t6.5 -48q0 -48 -20 -88.5t-56 -70t-84.5 -46.5t-105.5 -17q-52 0 -96 12t-93 40zM423 898h131l-191 -155h-75z" />
    <glyph glyph-name="sacute" unicode="&#x15b;" horiz-adv-x="403" 
d="M86 61q21 -13 35.5 -18t31.5 -5q33 0 54 20.5t21 52.5q0 13 -3 24t-11 21t-21 21t-34 25q-33 22 -54.5 39t-33.5 32t-17 29.5t-5 32.5q0 34 15 62.5t41.5 49.5t63 33t79.5 12q53 0 83 -19.5t30 -53.5q0 -28 -18.5 -44t-52.5 -18l-47 90q-8 2 -12 2h-9q-30 0 -50.5 -16.5
t-20.5 -39.5q0 -10 3 -19t12 -19t24.5 -22.5t40.5 -30.5q32 -23 52.5 -41t32.5 -34t16.5 -32.5t4.5 -37.5q0 -35 -15 -65.5t-42 -53t-63 -35.5t-78 -13q-33 0 -60.5 8t-47.5 22t-31.5 33t-11.5 42q0 27 17 44.5t43 17.5q30 0 56 -23zM328 741h123l-190 -190h-67z" />
    <glyph glyph-name="Scircumflex" unicode="&#x15c;" horiz-adv-x="552" 
d="M49 204h66v-119l6 -10q27 -11 47.5 -15.5t43.5 -4.5q62 0 101.5 32.5t39.5 83.5q0 19 -5 33.5t-18.5 28.5t-37.5 30t-62 37q-43 24 -70.5 43.5t-43.5 39t-22 40.5t-6 49q0 46 19 84.5t53 66.5t81.5 43t104.5 15q38 0 75.5 -6.5t85.5 -21.5l-26 -169h-60l2 110l-8 10
q-20 9 -35 12.5t-35 3.5q-30 0 -55 -8.5t-43.5 -23t-29 -34.5t-10.5 -44q0 -17 4.5 -30t18 -26.5t38 -29.5t65.5 -39q43 -25 71.5 -45t44.5 -39.5t22.5 -40.5t6.5 -48q0 -48 -20 -88.5t-56 -70t-84.5 -46.5t-105.5 -17q-52 0 -96 12t-93 40zM338 898h82l78 -155h-77l-55 91
l-97 -91h-78z" />
    <glyph glyph-name="scircumflex" unicode="&#x15d;" horiz-adv-x="403" 
d="M86 61q21 -13 35.5 -18t31.5 -5q33 0 54 20.5t21 52.5q0 13 -3 24t-11 21t-21 21t-34 25q-33 22 -54.5 39t-33.5 32t-17 29.5t-5 32.5q0 34 15 62.5t41.5 49.5t63 33t79.5 12q53 0 83 -19.5t30 -53.5q0 -28 -18.5 -44t-52.5 -18l-47 90q-8 2 -12 2h-9q-30 0 -50.5 -16.5
t-20.5 -39.5q0 -10 3 -19t12 -19t24.5 -22.5t40.5 -30.5q32 -23 52.5 -41t32.5 -34t16.5 -32.5t4.5 -37.5q0 -35 -15 -65.5t-42 -53t-63 -35.5t-78 -13q-33 0 -60.5 8t-47.5 22t-31.5 33t-11.5 42q0 27 17 44.5t43 17.5q30 0 56 -23zM237 741h87l74 -190h-77l-53 125
l-100 -125h-78z" />
    <glyph glyph-name="Scedilla" unicode="&#x15e;" horiz-adv-x="552" 
d="M94 -167q24 -5 35 -6.5t26 -1.5q32 0 50 11.5t18 32.5q0 26 -37 26h-9.5t-14.5 -2l18 98q-42 3 -78.5 15.5t-78.5 35.5l26 162h66v-119l6 -10q27 -11 47.5 -15.5t43.5 -4.5q62 0 101.5 32.5t39.5 83.5q0 19 -5 33.5t-18.5 28.5t-37.5 30t-62 37q-43 24 -70.5 43.5
t-43.5 39t-22 40.5t-6 49q0 46 19 84.5t53 66.5t81.5 43t104.5 15q38 0 75.5 -6.5t85.5 -21.5l-26 -169h-60l2 110l-8 10q-20 9 -35 12.5t-35 3.5q-30 0 -55 -8.5t-43.5 -23t-29 -34.5t-10.5 -44q0 -17 4.5 -30t18 -26.5t38 -29.5t65.5 -39q43 -25 71.5 -45t44.5 -39.5
t22.5 -40.5t6.5 -48q0 -46 -19 -85t-52 -68.5t-78.5 -47t-99.5 -20.5l-8 -43q6 1 9.5 1h8.5q66 0 66 -59q0 -24 -11 -45t-29.5 -36.5t-44.5 -24.5t-56 -9q-19 0 -37.5 2.5t-41.5 8.5z" />
    <glyph glyph-name="scedilla" unicode="&#x15f;" horiz-adv-x="403" 
d="M19 -167q24 -5 35 -6.5t26 -1.5q32 0 50 11.5t18 32.5q0 26 -37 26h-9.5t-14.5 -2l19 100q-53 7 -85.5 35t-32.5 67q0 27 17 44.5t43 17.5q30 0 56 -23l-18 -73q21 -13 35.5 -18t31.5 -5q33 0 54 20.5t21 52.5q0 13 -3 24t-11 21t-21 21t-34 25q-33 22 -54.5 39t-33.5 32
t-17 29.5t-5 32.5q0 34 15 62.5t41.5 49.5t63 33t79.5 12q53 0 83 -19.5t30 -53.5q0 -28 -18.5 -44t-52.5 -18l-47 90q-8 2 -12 2h-9q-30 0 -50.5 -16.5t-20.5 -39.5q0 -10 3 -19t12 -19t24.5 -22.5t40.5 -30.5q32 -23 52.5 -41t32.5 -34t16.5 -32.5t4.5 -37.5
q0 -34 -14 -63t-38.5 -51.5t-58 -36t-72.5 -15.5l-8 -43q6 1 9.5 1h8.5q66 0 66 -59q0 -24 -11 -45t-29.5 -36.5t-44.5 -24.5t-56 -9q-19 0 -37.5 2.5t-41.5 8.5z" />
    <glyph glyph-name="Scaron" unicode="&#x160;" horiz-adv-x="552" 
d="M49 204h66v-119l6 -10q27 -11 47.5 -15.5t43.5 -4.5q62 0 101.5 32.5t39.5 83.5q0 19 -5 33.5t-18.5 28.5t-37.5 30t-62 37q-43 24 -70.5 43.5t-43.5 39t-22 40.5t-6 49q0 46 19 84.5t53 66.5t81.5 43t104.5 15q38 0 75.5 -6.5t85.5 -21.5l-26 -169h-60l2 110l-8 10
q-20 9 -35 12.5t-35 3.5q-30 0 -55 -8.5t-43.5 -23t-29 -34.5t-10.5 -44q0 -17 4.5 -30t18 -26.5t38 -29.5t65.5 -39q43 -25 71.5 -45t44.5 -39.5t22.5 -40.5t6.5 -48q0 -48 -20 -88.5t-56 -70t-84.5 -46.5t-105.5 -17q-52 0 -96 12t-93 40zM222 898h76l55 -93l100 93h76
l-147 -155h-81z" />
    <glyph glyph-name="scaron" unicode="&#x161;" horiz-adv-x="403" 
d="M86 61q21 -13 35.5 -18t31.5 -5q33 0 54 20.5t21 52.5q0 13 -3 24t-11 21t-21 21t-34 25q-33 22 -54.5 39t-33.5 32t-17 29.5t-5 32.5q0 34 15 62.5t41.5 49.5t63 33t79.5 12q53 0 83 -19.5t30 -53.5q0 -28 -18.5 -44t-52.5 -18l-47 90q-8 2 -12 2h-9q-30 0 -50.5 -16.5
t-20.5 -39.5q0 -10 3 -19t12 -19t24.5 -22.5t40.5 -30.5q32 -23 52.5 -41t32.5 -34t16.5 -32.5t4.5 -37.5q0 -35 -15 -65.5t-42 -53t-63 -35.5t-78 -13q-33 0 -60.5 8t-47.5 22t-31.5 33t-11.5 42q0 27 17 44.5t43 17.5q30 0 56 -23zM127 741h77l52 -125l101 125h77
l-146 -190h-88z" />
    <glyph glyph-name="Tcommaaccent" unicode="&#x162;" horiz-adv-x="583" 
d="M91 48l69 7l14 14l100 547h-113l-18 -13l-36 -108h-70l34 176h556l-33 -176h-67l2 108l-14 13h-113l-102 -547l11 -14l68 -7v-48h-288v48zM198 -84q8 18 22.5 28.5t33.5 10.5q18 0 28 -10t10 -26q0 -10 -5.5 -20.5t-12.5 -20.5l-89 -124h-59z" />
    <glyph glyph-name="tcommaaccent" unicode="&#x163;" horiz-adv-x="365" 
d="M319 35q-35 -12 -61.5 -19.5t-47.5 -12.5t-37 -7t-31 -2q-45 0 -68.5 24.5t-23.5 69.5q0 13 2 30t5 33l49 264l-66 -3v36l86 43l66 110h65l-23 -128h137v-58h-148l-44 -245q-3 -14 -4.5 -28t-1.5 -23q0 -62 58 -62q18 0 37.5 4t50.5 14v-40zM90 -84q8 18 22.5 28.5
t33.5 10.5q18 0 28 -10t10 -26q0 -10 -5.5 -20.5t-12.5 -20.5l-89 -124h-59z" />
    <glyph glyph-name="Tcaron" unicode="&#x164;" horiz-adv-x="583" 
d="M91 48l69 7l14 14l100 547h-113l-18 -13l-36 -108h-70l34 176h556l-33 -176h-67l2 108l-14 13h-113l-102 -547l11 -14l68 -7v-48h-288v48zM237 898h76l55 -93l100 93h76l-147 -155h-81z" />
    <glyph glyph-name="tcaron" unicode="&#x165;" horiz-adv-x="365" 
d="M319 35q-35 -12 -61.5 -19.5t-47.5 -12.5t-37 -7t-31 -2q-45 0 -68.5 24.5t-23.5 69.5q0 13 2 30t5 33l49 264l-66 -3v36l86 43l66 110h65l-23 -128h137v-58h-148l-44 -245q-3 -14 -4.5 -28t-1.5 -23q0 -62 58 -62q18 0 37.5 4t50.5 14v-40zM347 697q8 18 21.5 28.5
t33.5 10.5q17 0 27 -9t10 -25q0 -11 -4.5 -22t-12.5 -22l-89 -123h-59z" />
    <glyph glyph-name="Tbar" unicode="&#x166;" horiz-adv-x="583" 
d="M91 48l69 7l14 14l55 298h-103l11 60h103l34 189h-113l-18 -13l-36 -108h-70l34 176h556l-33 -176h-67l2 108l-14 13h-113l-35 -189h108l-12 -60h-107l-56 -298l11 -14l68 -7v-48h-288v48z" />
    <glyph glyph-name="tbar" unicode="&#x167;" horiz-adv-x="365" 
d="M319 35q-35 -12 -61.5 -19.5t-47.5 -12.5t-37 -7t-31 -2q-45 0 -68.5 24.5t-23.5 69.5q0 13 2 30t5 33l21 116h-54l10 58h55l17 90l-66 -3v36l86 43l66 110h65l-23 -128h137v-58h-148l-16 -90h113l-10 -58h-114l-17 -97q-3 -14 -4.5 -28t-1.5 -23q0 -62 58 -62
q18 0 37.5 4t50.5 14v-40z" />
    <glyph glyph-name="Utilde" unicode="&#x168;" horiz-adv-x="703" 
d="M587 603l-11 14l-66 6v48h226v-48l-64 -6l-15 -14l-67 -352q-7 -37 -14 -63.5t-15.5 -47t-19 -37t-24.5 -31.5q-38 -42 -95.5 -63.5t-132.5 -21.5q-104 0 -159.5 45.5t-55.5 130.5q0 20 2.5 42t7.5 49l66 349l-12 14l-61 6v48h277v-48l-63 -6l-15 -14l-64 -345
q-5 -25 -7 -42t-2 -31q0 -57 34.5 -88t97.5 -31q40 0 70 10t52 32t36.5 56.5t24.5 84.5zM263 747q9 60 37.5 91.5t73.5 31.5q10 0 18 -1t18 -4t24.5 -9.5t37.5 -16.5t34 -10q17 0 27 12.5t16 41.5h57q-8 -58 -37 -90.5t-73 -32.5q-22 0 -44 6.5t-50 20.5q-14 8 -21.5 10.5
t-14.5 2.5q-34 0 -45 -53h-58z" />
    <glyph glyph-name="utilde" unicode="&#x169;" horiz-adv-x="599" 
d="M573 29q-61 -20 -96.5 -27.5t-62.5 -7.5q-38 0 -55 19.5t-18 63.5q-63 -47 -107 -67t-82 -20q-45 0 -71.5 27t-26.5 74q0 27 6 56l48 260l-80 12v35l173 33h38l-57 -299q-8 -40 -8 -60q0 -26 13.5 -40t36.5 -14q26 0 52.5 11t70.5 38l67 352l119 14l-58 -310
q-4 -18 -6 -30t-3 -20t-1.5 -13t-0.5 -11q0 -23 13 -36.5t35 -13.5q11 0 25.5 2.5t35.5 8.5v-37zM181 561q21 136 113 136q10 0 19 -1t19.5 -5t24.5 -10.5t35 -17.5q13 -8 22 -10.5t17 -2.5q40 0 50 63h53q-13 -69 -40 -102t-72 -33q-21 0 -42.5 6.5t-50.5 22.5
q-18 10 -27.5 13.5t-17.5 3.5q-40 0 -48 -63h-55z" />
    <glyph glyph-name="Umacron" unicode="&#x16a;" horiz-adv-x="703" 
d="M587 603l-11 14l-66 6v48h226v-48l-64 -6l-15 -14l-67 -352q-7 -37 -14 -63.5t-15.5 -47t-19 -37t-24.5 -31.5q-38 -42 -95.5 -63.5t-132.5 -21.5q-104 0 -159.5 45.5t-55.5 130.5q0 20 2.5 42t7.5 49l66 349l-12 14l-61 6v48h277v-48l-63 -6l-15 -14l-64 -345
q-5 -25 -7 -42t-2 -31q0 -57 34.5 -88t97.5 -31q40 0 70 10t52 32t36.5 56.5t24.5 84.5zM272 833h331l-12 -68h-331z" />
    <glyph glyph-name="umacron" unicode="&#x16b;" horiz-adv-x="599" 
d="M573 29q-61 -20 -96.5 -27.5t-62.5 -7.5q-38 0 -55 19.5t-18 63.5q-63 -47 -107 -67t-82 -20q-45 0 -71.5 27t-26.5 74q0 27 6 56l48 260l-80 12v35l173 33h38l-57 -299q-8 -40 -8 -60q0 -26 13.5 -40t36.5 -14q26 0 52.5 11t70.5 38l67 352l119 14l-58 -310
q-4 -18 -6 -30t-3 -20t-1.5 -13t-0.5 -11q0 -23 13 -36.5t35 -13.5q11 0 25.5 2.5t35.5 8.5v-37zM194 650h331l-12 -68h-331z" />
    <glyph glyph-name="Ubreve" unicode="&#x16c;" horiz-adv-x="703" 
d="M587 603l-11 14l-66 6v48h226v-48l-64 -6l-15 -14l-67 -352q-7 -37 -14 -63.5t-15.5 -47t-19 -37t-24.5 -31.5q-38 -42 -95.5 -63.5t-132.5 -21.5q-104 0 -159.5 45.5t-55.5 130.5q0 20 2.5 42t7.5 49l66 349l-12 14l-61 6v48h277v-48l-63 -6l-15 -14l-64 -345
q-5 -25 -7 -42t-2 -31q0 -57 34.5 -88t97.5 -31q40 0 70 10t52 32t36.5 56.5t24.5 84.5zM348 895q-1 -14 -1 -17v-7q0 -32 19.5 -44t68.5 -12q56 0 81 17.5t35 62.5h51q-9 -42 -22.5 -71t-35 -46.5t-52 -25.5t-72.5 -8q-128 0 -128 97q0 11 1.5 24.5t3.5 29.5h51z" />
    <glyph glyph-name="ubreve" unicode="&#x16d;" horiz-adv-x="599" 
d="M573 29q-61 -20 -96.5 -27.5t-62.5 -7.5q-38 0 -55 19.5t-18 63.5q-63 -47 -107 -67t-82 -20q-45 0 -71.5 27t-26.5 74q0 27 6 56l48 260l-80 12v35l173 33h38l-57 -299q-8 -40 -8 -60q0 -26 13.5 -40t36.5 -14q26 0 52.5 11t70.5 38l67 352l119 14l-58 -310
q-4 -18 -6 -30t-3 -20t-1.5 -13t-0.5 -11q0 -23 13 -36.5t35 -13.5q11 0 25.5 2.5t35.5 8.5v-37zM270 712q-1 -14 -1 -17v-7q0 -32 19.5 -44t68.5 -12q56 0 81 17.5t35 62.5h51q-9 -42 -22.5 -71t-35 -46.5t-52 -25.5t-72.5 -8q-128 0 -128 97q0 11 1.5 24.5t3.5 29.5h51z
" />
    <glyph glyph-name="Uring" unicode="&#x16e;" horiz-adv-x="703" 
d="M587 603l-11 14l-66 6v48h226v-48l-64 -6l-15 -14l-67 -352q-7 -37 -14 -63.5t-15.5 -47t-19 -37t-24.5 -31.5q-38 -42 -95.5 -63.5t-132.5 -21.5q-104 0 -159.5 45.5t-55.5 130.5q0 20 2.5 42t7.5 49l66 349l-12 14l-61 6v48h277v-48l-63 -6l-15 -14l-64 -345
q-5 -25 -7 -42t-2 -31q0 -57 34.5 -88t97.5 -31q40 0 70 10t52 32t36.5 56.5t24.5 84.5zM441 952q23 0 43.5 -9t35.5 -24t24 -35.5t9 -44.5t-9 -45t-24 -36t-36 -24t-45 -9t-44.5 9t-36 24.5t-24.5 36t-9 44.5t9 44.5t24.5 36t36.5 24t46 8.5zM437 902q-26 0 -43.5 -18.5
t-17.5 -44.5t18 -45t44 -19t45 19t19 45t-19 44.5t-46 18.5z" />
    <glyph glyph-name="uring" unicode="&#x16f;" horiz-adv-x="599" 
d="M573 29q-61 -20 -96.5 -27.5t-62.5 -7.5q-38 0 -55 19.5t-18 63.5q-63 -47 -107 -67t-82 -20q-45 0 -71.5 27t-26.5 74q0 27 6 56l48 260l-80 12v35l173 33h38l-57 -299q-8 -40 -8 -60q0 -26 13.5 -40t36.5 -14q26 0 52.5 11t70.5 38l67 352l119 14l-58 -310
q-4 -18 -6 -30t-3 -20t-1.5 -13t-0.5 -11q0 -23 13 -36.5t35 -13.5q11 0 25.5 2.5t35.5 8.5v-37zM362 770q24 0 44.5 -9t35.5 -24t24 -35.5t9 -44.5t-9 -44.5t-24 -36t-36 -24.5t-45 -9t-44.5 9t-35.5 24t-24 36t-9 45q0 49 32.5 81t81.5 32zM361 720q-26 0 -44.5 -18.5
t-18.5 -44.5t18.5 -45t44.5 -19t45 19t19 45t-18.5 44.5t-45.5 18.5z" />
    <glyph glyph-name="Uhungarumlaut" unicode="&#x170;" horiz-adv-x="703" 
d="M587 603l-11 14l-66 6v48h226v-48l-64 -6l-15 -14l-67 -352q-7 -37 -14 -63.5t-15.5 -47t-19 -37t-24.5 -31.5q-38 -42 -95.5 -63.5t-132.5 -21.5q-104 0 -159.5 45.5t-55.5 130.5q0 20 2.5 42t7.5 49l66 349l-12 14l-61 6v48h277v-48l-63 -6l-15 -14l-64 -345
q-5 -25 -7 -42t-2 -31q0 -57 34.5 -88t97.5 -31q40 0 70 10t52 32t36.5 56.5t24.5 84.5zM590 898h112l-188 -155h-59zM424 898h112l-188 -155h-59z" />
    <glyph glyph-name="uhungarumlaut" unicode="&#x171;" horiz-adv-x="599" 
d="M573 29q-61 -20 -96.5 -27.5t-62.5 -7.5q-38 0 -55 19.5t-18 63.5q-63 -47 -107 -67t-82 -20q-45 0 -71.5 27t-26.5 74q0 27 6 56l48 260l-80 12v35l173 33h38l-57 -299q-8 -40 -8 -60q0 -26 13.5 -40t36.5 -14q26 0 52.5 11t70.5 38l67 352l119 14l-58 -310
q-4 -18 -6 -30t-3 -20t-1.5 -13t-0.5 -11q0 -23 13 -36.5t35 -13.5q11 0 25.5 2.5t35.5 8.5v-37zM514 741h112l-187 -190h-59zM348 741h112l-187 -190h-59z" />
    <glyph glyph-name="Uogonek" unicode="&#x172;" horiz-adv-x="703" 
d="M389 -216q-17 -5 -30.5 -6.5t-27.5 -1.5q-42 0 -64.5 17t-22.5 49q0 39 19 73.5t64 73.5q-10 -1 -19 -1.5t-19 -0.5q-104 0 -159.5 45.5t-55.5 130.5q0 20 2.5 42t7.5 49l66 349l-12 14l-61 6v48h277v-48l-63 -6l-15 -14l-64 -345q-5 -25 -7 -42t-2 -31q0 -57 34.5 -88
t97.5 -31q40 0 70 10t52 32t36.5 56.5t24.5 84.5l69 354l-11 14l-66 6v48h226v-48l-64 -6l-15 -14l-67 -352q-7 -37 -14 -63.5t-15.5 -47t-19 -37t-24.5 -31.5q-48 -53 -122 -72q-38 -33 -54.5 -59t-16.5 -54q0 -39 44 -39q5 0 11 0.5t23 2.5z" />
    <glyph glyph-name="uogonek" unicode="&#x173;" horiz-adv-x="599" 
d="M427 -216q-17 -5 -30.5 -6.5t-27.5 -1.5q-42 0 -64.5 17t-22.5 49q0 42 22.5 78.5t73.5 79.5q-37 15 -37 77q-63 -47 -107 -67t-82 -20q-45 0 -71.5 27t-26.5 74q0 27 6 56l48 260l-80 12v35l173 33h38l-57 -299q-8 -40 -8 -60q0 -26 13.5 -40t36.5 -14q26 0 52.5 11
t70.5 38l67 352l119 14l-58 -310q-4 -18 -6 -30t-3 -20t-1.5 -13t-0.5 -11q0 -23 13 -36.5t35 -13.5q11 0 25.5 2.5t35.5 8.5v-37q-54 -17 -87.5 -24.5t-59.5 -9.5q-35 -31 -49.5 -56t-14.5 -52q0 -39 44 -39q5 0 11 0.5t23 2.5z" />
    <glyph glyph-name="Wcircumflex" unicode="&#x174;" horiz-adv-x="916" 
d="M105 603l-10 14l-55 6v48h256v-48l-61 -6l-11 -14l33 -419l223 487h96l52 -496l186 428l-8 14l-58 6v48h212v-48l-63 -6l-272 -617h-90l-54 515l-237 -515h-91zM520 898h82l78 -155h-77l-55 91l-97 -91h-78z" />
    <glyph glyph-name="wcircumflex" unicode="&#x175;" horiz-adv-x="768" 
d="M105 31l-23 380l-83 12v33l143 37h46l21 -364q30 56 54 102t44.5 86.5t38 77.5t35.5 76l94 8q3 -74 8.5 -166.5t14.5 -217.5q31 42 53 73.5t38 57t27.5 47t21.5 44.5l-24 150q26 27 61 27q29 0 47.5 -19t18.5 -50q0 -35 -21.5 -83t-66.5 -116q-13 -20 -24.5 -35.5
t-28.5 -38.5t-44.5 -58.5t-72.5 -93.5h-86l-21 345q-23 -45 -44 -85t-43 -80.5t-46 -84t-53 -95.5h-94zM419 741h87l74 -190h-77l-53 125l-100 -125h-78z" />
    <glyph glyph-name="Ycircumflex" unicode="&#x176;" horiz-adv-x="589" 
d="M95 48l67 7l16 14l36 193l-115 347l-9 8l-63 6v48h273v-48l-62 -6l-12 -14l86 -260l185 260l-10 14l-64 6v48h234v-48l-64 -6l-254 -341l-39 -207l11 -14l68 -7v-48h-284v48zM356 898h82l78 -155h-77l-55 91l-97 -91h-78z" />
    <glyph glyph-name="ycircumflex" unicode="&#x177;" horiz-adv-x="495" 
d="M48 -135q68 6 149 161h-38l-61 317q-4 20 -10 39t-15 36l-87 8v33l154 35q15 -4 26.5 -13.5t20.5 -27.5t16 -46t13 -67l35 -218q24 61 44 110.5t38 93t35 84t35 83.5h31l79 -26v-27l-59 -33q-15 -21 -27 -39.5t-24 -41.5t-26.5 -54.5t-34.5 -78.5q-21 -48 -38.5 -84.5
t-33 -66.5t-30.5 -55t-32 -51q-104 -152 -201 -152q-35 0 -60 22.5t-25 54.5q0 50 59 67zM283 741h87l74 -190h-77l-53 125l-100 -125h-78z" />
    <glyph glyph-name="Ydieresis" unicode="&#x178;" horiz-adv-x="589" 
d="M95 48l67 7l16 14l36 193l-115 347l-9 8l-63 6v48h273v-48l-62 -6l-12 -14l86 -260l185 260l-10 14l-64 6v48h234v-48l-64 -6l-254 -341l-39 -207l11 -14l68 -7v-48h-284v48zM481 879q26 0 45 -20t19 -46q0 -27 -19 -45.5t-46 -18.5t-45.5 18.5t-18.5 45.5t19 46.5
t46 19.5zM274 879q13 0 24.5 -5.5t20.5 -14.5t14.5 -21t5.5 -25q0 -26 -19.5 -45t-46.5 -19q-26 0 -45 19t-19 45q0 28 19 47t46 19z" />
    <glyph glyph-name="Zacute" unicode="&#x179;" horiz-adv-x="572" 
d="M-13 50l434 562h-213l-18 -10l-34 -109h-72l34 178h462l-3 -49l-435 -563h241l16 14l38 123h71l-37 -196h-487zM433 898h131l-191 -155h-75z" />
    <glyph glyph-name="zacute" unicode="&#x17a;" horiz-adv-x="468" 
d="M-19 27l326 352l-87 -18q-29 20 -49.5 28.5t-39.5 8.5q-29 0 -52 -22l58 -67q-25 -42 -60 -42q-23 0 -36 17t-13 46q0 30 13.5 60t35 53t49 37.5t55.5 14.5q10 0 19.5 -1.5t19.5 -4.5t22 -8t28 -13q26 -13 44 -18.5t35 -5.5h6t9 1l23 57l74 -46l-330 -348l87 24
q32 -23 54 -32.5t42 -9.5q17 0 30 5.5t29 19.5l-64 72q23 44 58 44q24 0 41 -20t17 -49q0 -33 -18 -68.5t-47 -61.5q-40 -34 -94 -34q-11 0 -19 0.5t-19 3.5t-27 8.5t-42 14.5q-42 14 -59 14q-10 0 -25 -3l-24 -50zM361 741h123l-190 -190h-67z" />
    <glyph glyph-name="Zdotaccent" unicode="&#x17b;" horiz-adv-x="572" 
d="M-13 50l434 562h-213l-18 -10l-34 -109h-72l34 178h462l-3 -49l-435 -563h241l16 14l38 123h71l-37 -196h-487zM370 882q27 0 46.5 -20t19.5 -47q0 -28 -19.5 -47.5t-47.5 -19.5t-47.5 19.5t-19.5 46.5q0 29 19.5 48.5t48.5 19.5z" />
    <glyph glyph-name="zdotaccent" unicode="&#x17c;" horiz-adv-x="468" 
d="M-19 27l326 352l-87 -18q-29 20 -49.5 28.5t-39.5 8.5q-29 0 -52 -22l58 -67q-25 -42 -60 -42q-23 0 -36 17t-13 46q0 30 13.5 60t35 53t49 37.5t55.5 14.5q10 0 19.5 -1.5t19.5 -4.5t22 -8t28 -13q26 -13 44 -18.5t35 -5.5h6t9 1l23 57l74 -46l-330 -348l87 24
q32 -23 54 -32.5t42 -9.5q17 0 30 5.5t29 19.5l-64 72q23 44 58 44q24 0 41 -20t17 -49q0 -33 -18 -68.5t-47 -61.5q-40 -34 -94 -34q-11 0 -19 0.5t-19 3.5t-27 8.5t-42 14.5q-42 14 -59 14q-10 0 -25 -3l-24 -50zM294 700q27 0 46.5 -20t19.5 -47q0 -28 -19.5 -47.5
t-47.5 -19.5t-47.5 19.5t-19.5 46.5q0 29 19.5 48.5t48.5 19.5z" />
    <glyph glyph-name="Zcaron" unicode="&#x17d;" horiz-adv-x="572" 
d="M-13 50l434 562h-213l-18 -10l-34 -109h-72l34 178h462l-3 -49l-435 -563h241l16 14l38 123h71l-37 -196h-487zM232 898h76l55 -93l100 93h76l-147 -155h-81z" />
    <glyph glyph-name="zcaron" unicode="&#x17e;" horiz-adv-x="468" 
d="M-19 27l326 352l-87 -18q-29 20 -49.5 28.5t-39.5 8.5q-29 0 -52 -22l58 -67q-25 -42 -60 -42q-23 0 -36 17t-13 46q0 30 13.5 60t35 53t49 37.5t55.5 14.5q10 0 19.5 -1.5t19.5 -4.5t22 -8t28 -13q26 -13 44 -18.5t35 -5.5h6t9 1l23 57l74 -46l-330 -348l87 24
q32 -23 54 -32.5t42 -9.5q17 0 30 5.5t29 19.5l-64 72q23 44 58 44q24 0 41 -20t17 -49q0 -33 -18 -68.5t-47 -61.5q-40 -34 -94 -34q-11 0 -19 0.5t-19 3.5t-27 8.5t-42 14.5q-42 14 -59 14q-10 0 -25 -3l-24 -50zM160 741h77l52 -125l101 125h77l-146 -190h-88z" />
    <glyph glyph-name="florin" unicode="&#x192;" horiz-adv-x="587" 
d="M92 -92q17 14 29 30.5t22 39t18 53.5t16 74l37 204h-110l6 60h112l14 72q25 126 121 192q34 23 73.5 36.5t72.5 13.5q37 0 60 -18.5t23 -47.5q0 -26 -17.5 -45t-58.5 -39l-75 95q-15 -13 -26.5 -27t-19.5 -32.5t-15 -44t-13 -61.5l-16 -94h153l-6 -60h-157
q-8 -59 -16.5 -104.5t-19 -81.5t-23 -65.5t-28.5 -56.5q-20 -33 -46 -60.5t-56 -47t-62 -30.5t-63 -11q-37 0 -60 16t-23 42q0 50 68 83z" />
    <glyph glyph-name="Scommaaccent" unicode="&#x218;" horiz-adv-x="552" 
d="M49 204h66v-119l6 -10q27 -11 47.5 -15.5t43.5 -4.5q62 0 101.5 32.5t39.5 83.5q0 19 -5 33.5t-18.5 28.5t-37.5 30t-62 37q-43 24 -70.5 43.5t-43.5 39t-22 40.5t-6 49q0 46 19 84.5t53 66.5t81.5 43t104.5 15q38 0 75.5 -6.5t85.5 -21.5l-26 -169h-60l2 110l-8 10
q-20 9 -35 12.5t-35 3.5q-30 0 -55 -8.5t-43.5 -23t-29 -34.5t-10.5 -44q0 -17 4.5 -30t18 -26.5t38 -29.5t65.5 -39q43 -25 71.5 -45t44.5 -39.5t22.5 -40.5t6.5 -48q0 -48 -20 -88.5t-56 -70t-84.5 -46.5t-105.5 -17q-52 0 -96 12t-93 40zM183 -84q8 18 22.5 28.5
t33.5 10.5q18 0 28 -10t10 -26q0 -10 -5.5 -20.5t-12.5 -20.5l-89 -124h-59z" />
    <glyph glyph-name="scommaaccent" unicode="&#x219;" horiz-adv-x="403" 
d="M86 61q21 -13 35.5 -18t31.5 -5q33 0 54 20.5t21 52.5q0 13 -3 24t-11 21t-21 21t-34 25q-33 22 -54.5 39t-33.5 32t-17 29.5t-5 32.5q0 34 15 62.5t41.5 49.5t63 33t79.5 12q53 0 83 -19.5t30 -53.5q0 -28 -18.5 -44t-52.5 -18l-47 90q-8 2 -12 2h-9q-30 0 -50.5 -16.5
t-20.5 -39.5q0 -10 3 -19t12 -19t24.5 -22.5t40.5 -30.5q32 -23 52.5 -41t32.5 -34t16.5 -32.5t4.5 -37.5q0 -35 -15 -65.5t-42 -53t-63 -35.5t-78 -13q-33 0 -60.5 8t-47.5 22t-31.5 33t-11.5 42q0 27 17 44.5t43 17.5q30 0 56 -23zM109 -84q8 18 22.5 28.5t33.5 10.5
q18 0 28 -10t10 -26q0 -10 -5.5 -20.5t-12.5 -20.5l-89 -124h-59z" />
    <glyph glyph-name="uni021A" unicode="&#x21a;" horiz-adv-x="583" 
d="M91 48l69 7l14 14l100 547h-113l-18 -13l-36 -108h-70l34 176h556l-33 -176h-67l2 108l-14 13h-113l-102 -547l11 -14l68 -7v-48h-288v48zM198 -84q8 18 22.5 28.5t33.5 10.5q18 0 28 -10t10 -26q0 -10 -5.5 -20.5t-12.5 -20.5l-89 -124h-59z" />
    <glyph glyph-name="uni021B" unicode="&#x21b;" horiz-adv-x="365" 
d="M319 35q-35 -12 -61.5 -19.5t-47.5 -12.5t-37 -7t-31 -2q-45 0 -68.5 24.5t-23.5 69.5q0 13 2 30t5 33l49 264l-66 -3v36l86 43l66 110h65l-23 -128h137v-58h-148l-44 -245q-3 -14 -4.5 -28t-1.5 -23q0 -62 58 -62q18 0 37.5 4t50.5 14v-40zM90 -84q8 18 22.5 28.5
t33.5 10.5q18 0 28 -10t10 -26q0 -10 -5.5 -20.5t-12.5 -20.5l-89 -124h-59z" />
    <glyph glyph-name="dotlessj" unicode="&#x237;" horiz-adv-x="296" 
d="M4 -140q10 13 18.5 31.5t16 45.5t14.5 64t15 89l46 317l-90 12v35l179 39h44l-54 -338q-9 -54 -16.5 -91t-17 -65t-22.5 -49.5t-31 -44.5q-43 -54 -94.5 -86.5t-93.5 -32.5q-29 0 -47 17t-18 45q0 40 34 59z" />
    <glyph glyph-name="circumflex" unicode="&#x2c6;" 
d="M285 741h87l74 -190h-77l-53 125l-100 -125h-78z" />
    <glyph glyph-name="caron" unicode="&#x2c7;" 
d="M175 741h77l52 -125l101 125h77l-146 -190h-88z" />
    <glyph glyph-name="uni02C9" unicode="&#x2c9;" 
d="M145 650h331l-12 -68h-331z" />
    <glyph glyph-name="breve" unicode="&#x2d8;" 
d="M221 712q-1 -14 -1 -17v-7q0 -32 19.5 -44t68.5 -12q56 0 81 17.5t35 62.5h51q-9 -42 -22.5 -71t-35 -46.5t-52 -25.5t-72.5 -8q-128 0 -128 97q0 11 1.5 24.5t3.5 29.5h51z" />
    <glyph glyph-name="dotaccent" unicode="&#x2d9;" 
d="M309 700q27 0 46.5 -20t19.5 -47q0 -28 -19.5 -47.5t-47.5 -19.5t-47.5 19.5t-19.5 46.5q0 29 19.5 48.5t48.5 19.5z" />
    <glyph glyph-name="ring" unicode="&#x2da;" 
d="M313 770q24 0 44.5 -9t35.5 -24t24 -35.5t9 -44.5t-9 -44.5t-24 -36t-36 -24.5t-45 -9t-44.5 9t-35.5 24t-24 36t-9 45q0 49 32.5 81t81.5 32zM312 720q-26 0 -44.5 -18.5t-18.5 -44.5t18.5 -45t44.5 -19t45 19t19 45t-18.5 44.5t-45.5 18.5z" />
    <glyph glyph-name="ogonek" unicode="&#x2db;" 
d="M225 -216q-17 -5 -30.5 -6.5t-27.5 -1.5q-42 0 -64.5 17t-22.5 49q0 42 22.5 78.5t73.5 79.5h55q-38 -33 -54.5 -59t-16.5 -54q0 -39 44 -39q5 0 11 0.5t23 2.5z" />
    <glyph glyph-name="tilde" unicode="&#x2dc;" 
d="M132 561q21 136 113 136q10 0 19 -1t19.5 -5t24.5 -10.5t35 -17.5q13 -8 22 -10.5t17 -2.5q40 0 50 63h53q-13 -69 -40 -102t-72 -33q-21 0 -42.5 6.5t-50.5 22.5q-18 10 -27.5 13.5t-17.5 3.5q-40 0 -48 -63h-55z" />
    <glyph glyph-name="hungarumlaut" unicode="&#x2dd;" 
d="M465 741h112l-187 -190h-59zM299 741h112l-187 -190h-59z" />
    <glyph glyph-name="uni0394" unicode="&#x394;" horiz-adv-x="666" 
d="M-37 0l7 33l401 637l59 14l136 -651l-7 -33h-596zM422 59l-92 469l-289 -469h381z" />
    <glyph glyph-name="uni03A9" unicode="&#x3a9;" horiz-adv-x="751" 
d="M-4 161h31q3 -23 8 -37t12.5 -21.5t18.5 -10.5t27 -3h96q-18 16 -38.5 37t-37.5 47.5t-29.5 59.5t-13.5 74q-1 18 1 36t6 37q15 71 50 127.5t84.5 96t110 60.5t126.5 21q113 0 179 -56t69 -158q0 -21 -1.5 -41.5t-6.5 -43.5q-11 -51 -37 -94.5t-60 -80t-72.5 -67
t-72.5 -55.5h105q16 0 27.5 2.5t22 10t20.5 22t23 37.5h33l-62 -161h-260l-3 23q21 30 50 68.5t57 84.5t51.5 96.5t35.5 104.5q8 36 11.5 66t1.5 61q-3 68 -33 106t-89 38q-36 0 -68.5 -14.5t-61 -47.5t-51.5 -85t-39 -127q-5 -23 -7 -44.5t-2 -44.5q0 -72 16.5 -141.5
t35.5 -120.5l-14 -23h-260z" />
    <glyph glyph-name="uni03BC" unicode="&#x3bc;" horiz-adv-x="578" 
d="M355 432h102l-55 -260q-3 -14 -5 -23t-2.5 -15t-1 -11t-0.5 -11q0 -45 42 -45q25 0 42 16t32 52q8 17 12.5 23t12.5 6q11 0 11 -13q0 -17 -8.5 -44.5t-19.5 -48.5q-38 -70 -107 -70q-82 0 -86 103q-25 -55 -55.5 -79t-75.5 -24q-96 0 -109 110q-5 -27 -8 -45.5
t-5.5 -34.5t-4.5 -33t-5 -41q-6 -46 -11.5 -75t-12.5 -45.5t-17 -22.5t-25 -6q-22 0 -35 13t-13 35q0 9 1.5 18.5t5 24t9.5 35.5t15 52q19 61 31.5 110.5t23.5 98.5l53 250h101l-49 -228q-10 -44 -10 -70q0 -30 18.5 -47.5t50.5 -17.5q80 0 104 108z" />
    <glyph glyph-name="pi" unicode="&#x3c0;" horiz-adv-x="599" 
d="M629 529q-6 -15 -14 -32t-16.5 -32.5t-17 -28t-15.5 -19.5q-13 -3 -31 -4t-38 -1q-8 -26 -16.5 -62t-17 -73.5t-16 -73.5t-12.5 -62q-2 -12 -3.5 -22t-1.5 -18q2 -35 23 -38q10 -3 24 2q9 2 17 7t17 11l8 -27q-27 -32 -64 -50t-71 -18q-29 0 -50 12t-27 44q-4 20 -1 53
t12 77t20.5 88t23 84.5t19.5 67.5q-46 1 -75 1.5t-58 0.5q-50 -186 -92 -287.5t-62 -123.5q-41 -14 -72 -17l-4 20q34 36 64.5 91t54 114t40 114t24.5 91q-23 0 -41.5 -2.5t-34.5 -8t-31 -13t-33 -17.5l-11 29q18 18 37 36t43 32.5t54 23t69 8.5q64 0 134.5 -1t145.5 -1
q23 0 38 7t32 28z" />
    <glyph glyph-name="endash" unicode="&#x2013;" 
d="M-9 286h507l-17 -90h-506z" />
    <glyph glyph-name="emdash" unicode="&#x2014;" horiz-adv-x="1000" 
d="M-5 286h1005l-14 -90h-1008z" />
    <glyph glyph-name="quoteleft" unicode="&#x2018;" horiz-adv-x="261" 
d="M221 515q11 -19 11 -38q0 -35 -24 -58.5t-59 -23.5q-34 0 -53.5 21t-19.5 57q0 48 27.5 95t76.5 83q18 14 37.5 24.5t47.5 22.5l16 -29q-59 -33 -87 -69.5t-33 -84.5h60z" />
    <glyph glyph-name="quoteright" unicode="&#x2019;" horiz-adv-x="261" 
d="M64 424q59 34 87 70t33 84h-60q-11 18 -11 38q0 35 24 58.5t59 23.5q34 0 53.5 -21t19.5 -57q0 -34 -13.5 -66.5t-38 -62t-59.5 -54t-78 -42.5z" />
    <glyph glyph-name="quotesinglbase" unicode="&#x201a;" horiz-adv-x="261" 
d="M-53 -145q59 33 87 69.5t33 84.5h-60q-11 19 -11 38q0 35 24 58.5t59 23.5q33 0 53 -21t20 -57q0 -69 -49.5 -128t-139.5 -97z" />
    <glyph glyph-name="quotedblleft" unicode="&#x201c;" horiz-adv-x="481" 
d="M223 515q11 -19 11 -38q0 -35 -24 -58.5t-59 -23.5q-34 0 -53.5 21t-19.5 57q0 48 27.5 95t76.5 83q18 14 37.5 24.5t47.5 22.5l16 -29q-59 -33 -87 -69.5t-33 -84.5h60zM443 515q11 -18 11 -39q0 -34 -24 -57.5t-59 -23.5q-34 0 -53.5 21t-19.5 57q0 48 27.5 95t76.5 83
q18 14 37.5 24.5t47.5 22.5l16 -29q-58 -32 -86.5 -69t-33.5 -85h60z" />
    <glyph glyph-name="quotedblright" unicode="&#x201d;" horiz-adv-x="481" 
d="M64 424q59 34 87 70t33 84h-60q-11 18 -11 38q0 35 24 58.5t59 23.5q34 0 53.5 -21t19.5 -57q0 -34 -13.5 -66.5t-38 -62t-59.5 -54t-78 -42.5zM285 424q59 34 87 70t33 84h-60q-11 18 -11 37q0 35 24 59t59 24q34 0 53.5 -21t19.5 -57q0 -34 -13.5 -66.5t-38 -62
t-59.5 -54t-78 -42.5z" />
    <glyph glyph-name="quotedblbase" unicode="&#x201e;" horiz-adv-x="481" 
d="M-51 -145q59 33 87 69.5t33 84.5h-60q-11 19 -11 38q0 35 24 58.5t59 23.5q33 0 53 -21t20 -57q0 -69 -49.5 -128t-139.5 -97zM170 -145q59 34 87 70t33 84h-60q-11 18 -11 37q0 35 24 59t59 24q33 0 53 -21t20 -57q0 -69 -49.5 -128t-139.5 -97z" />
    <glyph glyph-name="dagger" unicode="&#x2020;" 
d="M252 642l70 76l42 -76l-74 -140h-17zM45 483l80 55l136 -48l-4 -19l-151 -43zM294 471l3 19l150 48l63 -55l-82 -55zM181 294l84 165h17l21 -165l-133 -423h-18z" />
    <glyph glyph-name="daggerdbl" unicode="&#x2021;" 
d="M256 642l67 76l40 -76l-72 -140h-16zM45 483l80 54l136 -47l-4 -19l-151 -41zM294 471l3 19l150 47l63 -54l-82 -53zM178 294l89 166h15l23 -166l-86 -167h-15zM-25 106l80 53l136 -47l-3 -18l-152 -42zM224 94l4 18l149 47l64 -53l-83 -54zM124 -56l72 140h16l18 -140
l-68 -76z" />
    <glyph glyph-name="bullet" unicode="&#x2022;" horiz-adv-x="590" 
d="M296 516q29 0 55 -11.5t45.5 -31t31 -45.5t11.5 -56t-11.5 -56.5t-31 -46t-46 -31t-56.5 -11.5t-56.5 11t-46 30.5t-30.5 46t-11 56.5t11.5 56.5t31 46t46 31t57.5 11.5z" />
    <glyph glyph-name="ellipsis" unicode="&#x2026;" horiz-adv-x="1000" 
d="M114 151q16 0 30.5 -6.5t25 -17.5t17 -25.5t6.5 -30.5q0 -33 -23.5 -56t-56.5 -23t-56 23t-23 56q0 34 23 57t57 23zM780 151q16 0 30.5 -6.5t25 -18t17 -26t6.5 -30.5q0 -32 -23.5 -55t-56.5 -23q-32 0 -55 23t-23 55q0 34 23 57.5t56 23.5zM448 151q16 0 30 -6.5
t25 -17.5t17.5 -25.5t6.5 -30.5q0 -33 -23.5 -56t-56.5 -23t-56 23t-23 56q0 34 23 57t57 23z" />
    <glyph glyph-name="perthousand" unicode="&#x2030;" horiz-adv-x="1291" 
d="M267 683q63 0 98 -40.5t35 -113.5q0 -56 -16 -104.5t-44.5 -84.5t-67 -56.5t-82.5 -20.5q-65 0 -100 39.5t-35 111.5q0 57 16 106.5t44.5 85.5t67.5 56.5t84 20.5zM256 638q-41 0 -69 -63q-17 -39 -27 -88t-10 -94q0 -84 47 -84q39 0 70 61q17 36 27.5 86.5t10.5 98.5
q0 83 -49 83zM681 671h75l-538 -671h-76zM712 407q63 0 98.5 -40t35.5 -111q0 -57 -16 -106t-44.5 -85t-67 -56.5t-83.5 -20.5q-65 0 -100 39.5t-35 112.5q0 57 16 106t44.5 84.5t67.5 56t84 20.5zM700 363q-38 0 -66 -57q-19 -39 -29.5 -90t-10.5 -101q0 -82 47 -82
q39 0 68 57q9 18 16 41t12.5 48t8.5 50.5t3 48.5q0 85 -49 85zM1109 407q63 0 98.5 -39.5t35.5 -111.5q0 -57 -16 -106t-44.5 -85t-67 -56.5t-83.5 -20.5q-65 0 -100 39.5t-35 111.5q0 57 16 106t44.5 85t67.5 56.5t84 20.5zM1097 363q-38 0 -66 -57q-19 -39 -29.5 -90
t-10.5 -102q0 -81 47 -81q40 0 68 57q9 18 16 41t12.5 48t8.5 50.5t3 49.5q0 84 -49 84z" />
    <glyph glyph-name="guilsinglleft" unicode="&#x2039;" horiz-adv-x="247" 
d="M9 198l16 84l201 143l-15 -83l-129 -102l91 -102l-15 -83z" />
    <glyph glyph-name="guilsinglright" unicode="&#x203a;" horiz-adv-x="247" 
d="M3 138l129 102l-91 102l15 83l149 -143l-16 -84l-201 -143z" />
    <glyph glyph-name="fraction" unicode="&#x2044;" horiz-adv-x="185" 
d="M295 671h70l-472 -671h-70z" />
    <glyph glyph-name="Euro" unicode="&#x20ac;" horiz-adv-x="587" 
d="M527 178l-33 -167q-43 -15 -91.5 -23t-105.5 -8q-111 0 -167.5 57t-56.5 169v18t1 18h-89l27 49h67l8 42q2 8 5 19.5t7 27.5h-87l27 50h76q46 127 130 194t196 67q44 0 86.5 -8t86.5 -25l-33 -167h-84q4 20 6 36t2 30q0 37 -18 52.5t-63 15.5q-66 0 -106.5 -48
t-69.5 -147h275l-27 -50h-261q-4 -15 -6 -25.5t-4 -18.5l-8 -45h232l-27 -49h-213q-3 -29 -3 -54q0 -72 26.5 -106.5t86.5 -34.5q54 0 82 33t42 98h84z" />
    <glyph glyph-name="afii61289" unicode="&#x2113;" horiz-adv-x="471" 
d="M397 115q-47 -60 -99.5 -92.5t-115.5 -32.5q-40 0 -65.5 8.5t-40.5 29.5q-6 10 -12.5 26.5t-6.5 39.5q0 19 4.5 45t9.5 52l-66 -38l-8 31l84 53q15 74 28 131t25.5 100.5t27 76t34.5 56.5q35 46 75 67.5t73 21.5q46 0 64 -29.5t18 -69.5q0 -21 -4 -41q-19 -87 -77 -157
t-144 -134q-1 -6 -4.5 -25.5t-7 -42.5t-6 -45t-2.5 -34q0 -14 6 -23.5t14 -16.5q6 -5 19 -8.5t27 -3.5q37 0 69.5 23.5t61.5 53.5zM213 313q26 25 51.5 57t46 69.5t33 79t12.5 85.5q0 20 -5 34.5t-22 14.5q-14 0 -25 -12t-21.5 -38.5t-21 -68t-23.5 -101.5z" />
    <glyph glyph-name="trademark" unicode="&#x2122;" horiz-adv-x="806" 
d="M112 369l34 3l9 7l47 268h-56l-6 -7l-17 -53h-35l17 85h269l-15 -85h-33l1 53l-7 7h-56l-49 -268l6 -7l32 -3v-23h-141v23zM339 369l32 3l6 7l53 261l-7 7l-31 2v23h126v-14l36 -227l119 229v12h121v-23l-30 -2l-7 -7l-46 -261l4 -7l30 -3v-23h-131v23l32 3l6 7l46 261
l-152 -294h-36l-45 294l-52 -261l5 -7l32 -3v-23h-111v23z" />
    <glyph glyph-name="Omega" unicode="&#x2126;" horiz-adv-x="751" 
d="M-4 161h31q3 -23 8 -37t12.5 -21.5t18.5 -10.5t27 -3h96q-18 16 -38.5 37t-37.5 47.5t-29.5 59.5t-13.5 74q-1 18 1 36t6 37q15 71 50 127.5t84.5 96t110 60.5t126.5 21q113 0 179 -56t69 -158q0 -21 -1.5 -41.5t-6.5 -43.5q-11 -51 -37 -94.5t-60 -80t-72.5 -67
t-72.5 -55.5h105q16 0 27.5 2.5t22 10t20.5 22t23 37.5h33l-62 -161h-260l-3 23q21 30 50 68.5t57 84.5t51.5 96.5t35.5 104.5q8 36 11.5 66t1.5 61q-3 68 -33 106t-89 38q-36 0 -68.5 -14.5t-61 -47.5t-51.5 -85t-39 -127q-5 -23 -7 -44.5t-2 -44.5q0 -72 16.5 -141.5
t35.5 -120.5l-14 -23h-260z" />
    <glyph glyph-name="estimated" unicode="&#x212e;" horiz-adv-x="734" 
d="M185 109q74 -74 181 -74q78 0 136 35.5t106 114.5l43 -26q-29 -45 -58.5 -77t-63 -52.5t-74 -30t-89.5 -9.5q-74 0 -133.5 27t-101.5 74t-64.5 110.5t-22.5 135.5q0 73 22.5 136t64.5 109.5t101.5 73.5t133.5 27q72 0 131.5 -25.5t102.5 -71.5t66.5 -109.5t24.5 -139.5
h-506v-228zM549 382v181q-77 76 -184 76q-106 0 -180 -76v-181h364z" />
    <glyph glyph-name="partialdiff" unicode="&#x2202;" horiz-adv-x="557" 
d="M280 428q35 0 67 -15t46 -46q20 54 32.5 103.5t12.5 94.5q0 36 -8.5 61t-22.5 40.5t-32 22.5t-36 7q-24 0 -48 -7.5t-45.5 -18t-39 -22t-27.5 -19.5q-6 0 -11.5 6t-10 14.5t-7 19t-2.5 20.5q0 17 17.5 29t43 19.5t54 11t49.5 3.5q40 0 71.5 -11t55 -30.5t39.5 -46.5
t27 -60q7 -23 11 -47.5t5 -50.5q1 -7 1 -14v-14q0 -48 -12.5 -102.5t-36 -109t-56.5 -104.5t-74.5 -88t-89.5 -61t-101 -23q-45 0 -81 16t-55 58q-10 16 -14 37.5t-4 36.5q0 70 27 124t68.5 91t91 56t95.5 19zM302 380q-30 0 -57.5 -17t-50 -43t-39 -56.5t-25.5 -57.5
q-6 -19 -14 -49.5t-8 -59.5t13 -50t44 -21q32 0 62.5 27t57.5 69.5t49.5 94t39.5 101.5q-5 21 -23 41.5t-49 20.5z" />
    <glyph glyph-name="Delta" unicode="&#x2206;" horiz-adv-x="666" 
d="M-37 0l7 33l401 637l59 14l136 -651l-7 -33h-596zM422 59l-92 469l-289 -469h381z" />
    <glyph glyph-name="product" unicode="&#x220f;" horiz-adv-x="788" 
d="M30 -98q30 3 48 7t27 13t11.5 26t2.5 45v642q0 27 -2.5 42.5t-11.5 24t-27.5 12t-50.5 6.5v32h734v-32q-32 -3 -50 -6.5t-27 -12.5t-11 -24.5t-2 -41.5v-642q0 -28 2.5 -45t11.5 -26t27 -13t49 -7v-32h-293v32q24 2 39.5 5t24 9.5t11.5 19.5t4 34v707q0 12 -2 18.5
t-11 9.5t-27 4t-49 1h-180q-23 0 -28.5 -4.5t-5.5 -26.5v-686q0 -29 1.5 -45.5t8 -26t21 -13t41.5 -6.5v-32h-286v32z" />
    <glyph glyph-name="summation" unicode="&#x2211;" horiz-adv-x="670" 
d="M27 -97l218 375l-212 441v33h570q0 -6 1 -23.5t2.5 -41.5t3.5 -52t5 -56l-33 -8q-8 32 -17.5 59t-20.5 46q-6 10 -13 17.5t-20.5 11.5t-35.5 6t-59 2h-234l168 -359l-221 -383h343q33 0 53.5 2.5t35 14t27 35t29.5 66.5l34 -9l-48 -210h-576v33z" />
    <glyph glyph-name="minus" unicode="&#x2212;" horiz-adv-x="833" 
d="M124 340h585v-83h-585v83z" />
    <glyph glyph-name="uni2215" unicode="&#x2215;" horiz-adv-x="185" 
d="M295 671h70l-472 -671h-70z" />
    <glyph glyph-name="uni2219" unicode="&#x2219;" horiz-adv-x="292" 
d="M148 412q31 0 53.5 -22.5t22.5 -54.5t-22.5 -54t-54.5 -22t-54 21.5t-22 53.5q0 33 22.5 55.5t54.5 22.5z" />
    <glyph glyph-name="radical" unicode="&#x221a;" horiz-adv-x="580" 
d="M352 84l139 715l48 -10l-176 -909l-30 -13l-215 532l-87 -39l-12 39l180 82l151 -397h2z" />
    <glyph glyph-name="infinity" unicode="&#x221e;" horiz-adv-x="752" 
d="M554 112q-28 0 -52.5 9.5t-46 24.5t-41.5 33t-38 36q-19 -18 -39 -36.5t-42.5 -33.5t-48 -24t-56.5 -9q-32 0 -59 11.5t-46.5 31.5t-30.5 48t-11 61q0 31 11.5 58.5t32 48.5t49 33t62.5 12q28 0 52.5 -9.5t46.5 -24.5t42 -33t38 -36q19 18 39 36.5t42.5 33.5t48.5 24
t56 9q32 0 59 -11.5t46.5 -31.5t30 -48t10.5 -61q0 -31 -11.5 -58.5t-32 -48.5t-49 -33t-62.5 -12zM554 178q18 0 33.5 7t27 19t18 27.5t6.5 32.5q0 38 -23.5 62t-58.5 24q-21 0 -39.5 -8t-35.5 -20.5t-32.5 -27.5t-29.5 -29q14 -13 28.5 -28.5t31 -28.5t35 -21.5t39.5 -8.5
zM196 178q20 0 39 8t36 20.5t32 28t29 29.5q-14 13 -28.5 28t-31 28t-34.5 21.5t-39 8.5q-37 0 -61 -25.5t-24 -60.5q0 -37 23.5 -61.5t58.5 -24.5z" />
    <glyph glyph-name="integral" unicode="&#x222b;" horiz-adv-x="403" 
d="M88 -139q-31 0 -52 15t-21 41q0 13 6 24t15.5 18.5t21 12t22.5 4.5q12 0 19 -10t11.5 -22t9.5 -22t13 -10q15 0 23.5 26.5t8.5 72.5q0 16 -2 46t-4.5 69t-6 82.5t-6 85t-4.5 78t-2 60.5q0 115 17 186t43.5 110t57.5 52.5t58 13.5q12 0 25 -3.5t23.5 -10t17.5 -16.5t7 -23
q0 -29 -17.5 -42.5t-37.5 -13.5q-14 0 -21.5 9t-13 20.5t-10.5 20.5t-13 9q-14 0 -23.5 -20.5t-9.5 -61.5q0 -10 2 -39.5t4.5 -69t5.5 -86.5t5.5 -92t4.5 -85t2 -66q0 -83 -11 -150t-33.5 -114t-56 -73t-78.5 -26z" />
    <glyph glyph-name="approxequal" unicode="&#x2248;" horiz-adv-x="833" 
d="M87 403q30 19 55 32.5t47.5 21.5t44 12t44.5 4q33 0 68 -7.5t83 -25.5q49 -17 78.5 -24.5t54.5 -7.5q21 0 41.5 4t42.5 13t47 23.5t54 34.5v-90q-56 -37 -99 -53t-86 -16q-15 0 -27 1t-26.5 4.5t-32.5 9.5l-45 15q-59 20 -92.5 28t-62.5 8q-41 0 -83.5 -17.5
t-105.5 -60.5v91zM87 203q30 19 55 32.5t47.5 21.5t44 12t44.5 4q33 0 68 -7.5t83 -25.5q49 -17 78.5 -24.5t54.5 -7.5q21 0 41.5 4t42.5 13t47 23.5t54 34.5v-90q-56 -37 -99 -53t-86 -16q-15 0 -27 1t-26.5 4.5t-32.5 9.5l-45 15q-59 20 -92.5 28t-62.5 8
q-41 0 -83.5 -17.5t-105.5 -60.5v91z" />
    <glyph glyph-name="notequal" unicode="&#x2260;" horiz-adv-x="833" 
d="M124 440h320l52 97h94l-52 -97h171v-82h-215l-64 -120h279v-81h-322l-51 -97h-94l51 97h-169v81h212l64 120h-276v82z" />
    <glyph glyph-name="lessequal" unicode="&#x2264;" horiz-adv-x="833" 
d="M129 352v62l575 194v-73l-456 -152l456 -152v-72zM129 89h575v-82h-575v82z" />
    <glyph glyph-name="greaterequal" unicode="&#x2265;" horiz-adv-x="833" 
d="M129 231l456 152l-456 152v73l575 -194v-62l-575 -193v72zM129 89h575v-82h-575v82z" />
    <glyph glyph-name="lozenge" unicode="&#x25ca;" horiz-adv-x="556" 
d="M239 -32l-192 361l192 365h78l191 -365l-191 -361h-78zM281 44l142 282l-146 292h-2l-143 -288l146 -286h3z" />
    <glyph glyph-name="grave.cap" unicode="&#xe300;" 
d="M179 898h125l65 -155h-68z" />
    <glyph glyph-name="acute.cap" unicode="&#xe301;" 
d="M397 898h131l-191 -155h-75z" />
    <glyph glyph-name="circumflex.cap" unicode="&#xe302;" 
d="M312 898h82l78 -155h-77l-55 91l-97 -91h-78z" />
    <glyph glyph-name="caron.cap" unicode="&#xe303;" 
d="M196 898h76l55 -93l100 93h76l-147 -155h-81z" />
    <glyph glyph-name="tilde.cap" unicode="&#xe304;" 
d="M162 747q9 60 37.5 91.5t73.5 31.5q10 0 18 -1t18 -4t24.5 -9.5t37.5 -16.5t34 -10q17 0 27 12.5t16 41.5h57q-8 -58 -37 -90.5t-73 -32.5q-22 0 -44 6.5t-50 20.5q-14 8 -21.5 10.5t-14.5 2.5q-34 0 -45 -53h-58z" />
    <glyph glyph-name="dieresis.cap" unicode="&#xe305;" 
d="M437 879q26 0 45 -20t19 -46q0 -27 -19 -45.5t-46 -18.5t-45.5 18.5t-18.5 45.5t19 46.5t46 19.5zM230 879q13 0 24.5 -5.5t20.5 -14.5t14.5 -21t5.5 -25q0 -26 -19.5 -45t-46.5 -19q-26 0 -45 19t-19 45q0 28 19 47t46 19z" />
    <glyph glyph-name="macron.cap" unicode="&#xe306;" 
d="M171 833h331l-12 -68h-331z" />
    <glyph glyph-name="breve.cap" unicode="&#xe307;" 
d="M247 895q-1 -14 -1 -17v-7q0 -32 19.5 -44t68.5 -12q56 0 81 17.5t35 62.5h51q-9 -42 -22.5 -71t-35 -46.5t-52 -25.5t-72.5 -8q-128 0 -128 97q0 11 1.5 24.5t3.5 29.5h51z" />
    <glyph glyph-name="ring.cap" unicode="&#xe308;" 
d="M340 952q23 0 43.5 -9t35.5 -24t24 -35.5t9 -44.5t-9 -45t-24 -36t-36 -24t-45 -9t-44.5 9t-36 24.5t-24.5 36t-9 44.5t9 44.5t24.5 36t36.5 24t46 8.5zM336 902q-26 0 -43.5 -18.5t-17.5 -44.5t18 -45t44 -19t45 19t19 45t-19 44.5t-46 18.5z" />
    <glyph glyph-name="hungarumlaut.cap" unicode="&#xe309;" 
d="M489 898h112l-188 -155h-59zM323 898h112l-188 -155h-59z" />
    <glyph glyph-name="dotaccent.cap" unicode="&#xe30a;" 
d="M334 882q27 0 46.5 -20t19.5 -47q0 -28 -19.5 -47.5t-47.5 -19.5t-47.5 19.5t-19.5 46.5q0 29 19.5 48.5t48.5 19.5z" />
    <glyph glyph-name="caron.alt" unicode="&#xe30b;" 
d="M310 697q8 18 21.5 28.5t33.5 10.5q17 0 27 -9t10 -25q0 -11 -4.5 -22t-12.5 -22l-89 -123h-59z" />
    <glyph glyph-name="commaaccent" unicode="&#xe30c;" 
d="M157 -84q8 18 22.5 28.5t33.5 10.5q18 0 28 -10t10 -26q0 -10 -5.5 -20.5t-12.5 -20.5l-89 -124h-59z" />
    <glyph glyph-name="commaaccent.alt" unicode="&#xe30d;" 
d="M338 747h59l-72 -162q-8 -18 -22.5 -28.5t-33.5 -10.5q-17 0 -27.5 9.5t-10.5 23.5q1 8 5.5 20t12.5 24z" />
    <glyph glyph-name="uniF8FF" unicode="&#xf8ff;" horiz-adv-x="485" 
d="M210 174h53v-63h-53v63zM211 238q0 25 2.5 43t9 32.5t17.5 27.5t28 28q30 29 38 46t8 34q0 34 -21.5 57t-50.5 23t-50.5 -20.5t-26.5 -69.5l-48 8q7 69 42 99.5t86 30.5q52 0 85 -33.5t33 -90.5q0 -31 -12 -55.5t-48 -57.5q-16 -14 -25 -24t-13.5 -19.5t-6 -20
t-1.5 -26.5v-28h-46v16zM438 47v585h-391v-585h391zM0 680h485v-680h-485v680z" />
    </font>
</defs>
</svg>
