<?xml version="1.0" standalone="no"?>
<!DOCTYPE svg PUBLIC "-//W3C//DTD SVG 1.1//EN" "http://www.w3.org/Graphics/SVG/1.1/DTD/svg11.dtd" >
<svg xmlns="http://www.w3.org/2000/svg" xmlns:xlink="http://www.w3.org/1999/xlink" version="1.1">
<metadata>
Created by FontForge 20170731 at Tue Sep 26 12:49:03 2006
 By Aleksey,,,
Part of this font software is copyrighted (c) 2006 Linotype GmbH, www.linotype.com. All rights reserved. This font software may not be reproduced, modified, disclosed or transferred without the express written approval of Linotype GmbH. (c) Copyright 1997 International Typeface Corporation. All rights reserved.
</metadata>
<defs>
<font id="ITCCharterCom-Italic" horiz-adv-x="500" >
  <font-face 
    font-family="ITC Charter Com"
    font-weight="400"
    font-style="italic"
    font-stretch="normal"
    units-per-em="1000"
    panose-1="2 4 5 3 5 9 6 13 11 4"
    ascent="800"
    descent="-200"
    x-height="483"
    cap-height="671"
    bbox="-207 -246 1174 940"
    underline-thickness="50"
    underline-position="-150"
    slope="-11"
    unicode-range="U+000D-FB02"
  />
<missing-glyph horiz-adv-x="485" 
d="M210 174h53v-63h-53v63zM211 238q0 25 2.5 43t9 32.5t17.5 27.5t28 28q30 29 38 46t8 34q0 34 -21.5 57t-50.5 23t-50.5 -20.5t-26.5 -69.5l-48 8q7 69 42 99.5t86 30.5q52 0 85 -33.5t33 -90.5q0 -31 -12 -55.5t-48 -57.5q-16 -14 -25 -24t-13.5 -19.5t-6 -20
t-1.5 -26.5v-28h-46v16zM438 47v585h-391v-585h391zM0 680h485v-680h-485v680z" />
    <glyph glyph-name="IJ" unicode="IJ" horiz-adv-x="754" 
d="M-20 38l64 5l16 15l107 555l-11 15l-64 5v38h244v-38l-66 -5l-16 -15l-107 -555l12 -15l65 -5v-38h-244v38zM303 180h50v-127l12 -13q11 -2 18 -3t17 -1q31 0 52.5 9.5t38 34t29.5 66.5t25 106l70 361l-11 15l-64 5v38h243v-38l-65 -5l-16 -15l-67 -357
q-14 -75 -33.5 -126.5t-48 -83t-67.5 -45t-92 -13.5q-38 0 -65 5t-59 19z" />
    <glyph glyph-name="ij" unicode="ij" horiz-adv-x="555" 
d="M200 704q22 0 38 -16.5t16 -38.5t-16 -37.5t-39 -15.5t-38 15t-15 38t15.5 39t38.5 16zM253 28q-45 -18 -78.5 -26.5t-62.5 -8.5q-64 0 -64 67q0 11 1.5 22.5t4.5 28.5l59 298l-81 15v25l148 33h26l-72 -374q-2 -6 -2.5 -13.5t-0.5 -11.5q0 -39 46 -39q16 0 32 3.5
t44 11.5v-31zM481 703q22 0 38 -16t16 -38q0 -23 -16 -38.5t-38 -15.5q-23 0 -38.5 15.5t-15.5 38.5t15.5 38.5t38.5 15.5zM283 -150q16 18 27.5 38.5t20.5 51t17.5 74.5t18.5 109l45 295l-101 12v23l152 29h36l-56 -356q-7 -44 -13.5 -76t-14 -57t-17 -45t-22.5 -40
q-36 -57 -81 -90.5t-85 -33.5q-23 0 -37.5 14.5t-14.5 37.5t22 41z" />
    <glyph glyph-name="napostrophe" unicode="&#x22;n" horiz-adv-x="555" 
d="M114 409l-82 15v25l148 33h25l-18 -96q35 27 62.5 46t50.5 30t43 16t41 5q36 0 58.5 -22t22.5 -57q0 -8 -0.5 -16t-2 -18.5t-4.5 -24t-7 -32.5l-34 -155q-6 -27 -8.5 -42.5t-2.5 -23.5q0 -23 13.5 -36t37.5 -13q20 0 56 9v-28q-24 -9 -41.5 -15t-32 -9.5t-26.5 -5
t-24 -1.5q-69 0 -69 61q0 11 1.5 23.5t6.5 30.5l43 185q5 19 7 36t2 30q0 62 -50 62q-31 0 -67.5 -19.5t-84.5 -63.5l-62 -338h-85zM99 701q5 15 17 25t29 10q14 0 23.5 -8t9.5 -22q0 -10 -6 -21t-16 -25l-90 -125h-41z" />
    <glyph glyph-name="fi" unicode="fi" horiz-adv-x="579" 
d="M493 705q22 0 38 -16.5t16 -38.5t-16 -37.5t-39 -15.5t-38 15t-15 38t15.5 39t38.5 16zM-25 -150q16 18 27.5 38.5t21 51.5t17.5 75t17 108l42 287l-66 -7v33l76 31q11 60 31.5 109t48 83.5t61 53.5t69.5 19q35 0 59 -17t24 -43q0 -39 -49 -51l-82 67q-57 -37 -90 -233
h166l125 27h26l-72 -374q-3 -15 -3 -25q0 -39 47 -39q15 0 33 3.5t42 11.5v-31q-44 -18 -78 -26.5t-64 -8.5q-63 0 -63 67q0 11 1.5 22.5t4.5 28.5l59 299h-232l-40 -284q-6 -41 -12.5 -73t-15 -58.5t-19 -49t-24.5 -43.5q-37 -56 -79.5 -87t-81.5 -31q-23 0 -38 14.5
t-15 37.5t22 41z" />
    <glyph glyph-name="fl" unicode="fl" horiz-adv-x="573" 
d="M-25 -150q16 17 27.5 38t20.5 51.5t17.5 75t17.5 108.5l42 287l-66 -7v33l76 31q26 126 81 195.5t130 69.5q39 0 62 -22l132 26h27q-4 -24 -6 -36.5t-6 -28.5l-101 -503q-6 -30 -8.5 -48t-2.5 -32q0 -48 54 -48q12 0 29 4t43 12v-31q-48 -19 -78.5 -26.5t-57.5 -7.5
q-33 0 -51 18t-18 51q0 18 4 45t13 75l96 490l-49 5l-49 -54l-82 67q-57 -39 -90 -233h140v-46h-148l-40 -283q-5 -39 -11.5 -70.5t-14.5 -57.5t-18.5 -48t-23.5 -42q-36 -57 -80 -90.5t-83 -33.5q-24 0 -39 14.5t-15 37.5t22 41z" />
    <glyph glyph-name=".notdef" horiz-adv-x="485" 
d="M210 174h53v-63h-53v63zM211 238q0 25 2.5 43t9 32.5t17.5 27.5t28 28q30 29 38 46t8 34q0 34 -21.5 57t-50.5 23t-50.5 -20.5t-26.5 -69.5l-48 8q7 69 42 99.5t86 30.5q52 0 85 -33.5t33 -90.5q0 -31 -12 -55.5t-48 -57.5q-16 -14 -25 -24t-13.5 -19.5t-6 -20
t-1.5 -26.5v-28h-46v16zM438 47v585h-391v-585h391zM0 680h485v-680h-485v680z" />
    <glyph glyph-name=".null" 
 />
    <glyph glyph-name="nonmarkingreturn" unicode="&#xd;" horiz-adv-x="0" 
 />
    <glyph glyph-name="space" unicode=" " horiz-adv-x="209" 
 />
    <glyph glyph-name="exclam" unicode="!" horiz-adv-x="338" 
d="M155 553q9 74 25.5 102t51.5 28q21 0 33 -11.5t12 -32.5q0 -11 -4 -32t-13 -54l-101 -382h-49zM118 105q23 0 40 -17t17 -40t-17 -40t-41 -17q-23 0 -39.5 17t-16.5 40q0 24 16.5 40.5t40.5 16.5z" />
    <glyph glyph-name="quotedbl" unicode="&#x22;" horiz-adv-x="329" 
d="M119 657q5 29 15 41t27 12q14 0 23 -8t9 -22q0 -16 -9 -37l-91 -209h-15zM267 657q5 29 15 41t27 12q14 0 23 -8t9 -22q0 -16 -9 -37l-91 -209h-15z" />
    <glyph glyph-name="numbersign" unicode="#" horiz-adv-x="746" 
d="M127 -7l82 237h-144v47h159l48 146h-158v47h174l83 240l47 -18l-79 -222h154l80 239l47 -17l-78 -222h139v-47h-155l-49 -146h163v-47h-179l-84 -253l-47 16l80 237h-153l-83 -253zM424 277l51 146h-151l-49 -146h149z" />
    <glyph glyph-name="dollar" unicode="$" horiz-adv-x="556" 
d="M195 0q-107 6 -174 44l32 153h52l-10 -112l9 -12q29 -14 52.5 -20t47.5 -7l50 260q-79 37 -112.5 75.5t-33.5 91.5q0 39 16 73t44.5 60t68.5 42.5t87 20.5l14 74h41l-13 -71q38 -2 70.5 -8.5t77.5 -21.5l-31 -146h-45l5 96l-12 17q-19 8 -36.5 12t-37.5 6l-48 -252
q86 -34 122.5 -73t36.5 -97q0 -84 -60.5 -137.5t-170.5 -67.5l-20 -102h-42zM315 626q-60 -13 -92 -46.5t-32 -82.5q0 -36 17.5 -59t61.5 -43zM248 47q132 29 132 134q0 38 -19 62t-67 44z" />
    <glyph glyph-name="percent" unicode="%" horiz-adv-x="852" 
d="M248 683q55 0 86 -37.5t31 -104.5q0 -32 -6 -63.5t-16.5 -61t-25 -55.5t-32.5 -45q-50 -52 -118 -52q-56 0 -86.5 37t-30.5 104q0 65 22 126.5t57 99.5q51 52 119 52zM239 647q-46 0 -78 -66q-19 -39 -30.5 -91.5t-11.5 -100.5q0 -89 54 -89q48 0 82 70q19 38 30 89.5
t11 98.5q0 89 -57 89zM673 671h61l-557 -671h-61zM685 407q55 0 86 -37.5t31 -104.5q0 -32 -6 -63.5t-16.5 -61t-25 -55.5t-32.5 -45q-50 -52 -118 -52q-56 0 -86.5 37t-30.5 104q0 65 22 126.5t57 99.5q52 52 119 52zM676 371q-46 0 -78 -66q-19 -38 -30.5 -91t-11.5 -101
q0 -89 54 -89q48 0 82 70q19 38 30 89.5t11 98.5q0 89 -57 89z" />
    <glyph glyph-name="ampersand" unicode="&#x26;" horiz-adv-x="704" 
d="M560 -3q-13 -1 -15.5 -1h-6.5q-19 0 -33 3t-27.5 11.5t-29 23.5t-37.5 40q-103 -85 -218 -85q-38 0 -70 12t-55 33.5t-35.5 51.5t-12.5 66q0 65 41 116t131 98q-29 42 -42 73.5t-13 62.5q0 38 16.5 71t45.5 58t67.5 39t82.5 14q68 0 108.5 -35t40.5 -95q0 -66 -49 -112.5
t-155 -81.5l149 -198q23 21 42.5 51t44.5 79l-12 16l-49 10v42h196v-42l-71 -9q-33 -62 -62.5 -104t-63.5 -77q32 -48 70.5 -68.5t92.5 -18.5v-40zM215 335q-57 -37 -81 -71.5t-24 -81.5q0 -59 37 -96.5t96 -37.5q36 0 70 13.5t74 43.5zM271 387q75 27 110 66t35 93
q0 43 -23 68t-63 25q-25 0 -46.5 -9t-37.5 -24t-25 -36t-9 -45q0 -32 13 -63t46 -75z" />
    <glyph glyph-name="quotesingle" unicode="'" horiz-adv-x="329" 
d="M194 657q10 53 42 53q31 0 31 -31q0 -6 -2.5 -16.5t-6.5 -19.5l-90 -209h-15z" />
    <glyph glyph-name="parenleft" unicode="(" horiz-adv-x="419" 
d="M294 -142q-49 5 -89 27t-68 58t-43 84.5t-15 106.5q0 38 5 80.5t14 86t22 85t29 77.5q30 69 75.5 123.5t105.5 89.5q34 20 62 29t67 13l-8 -42q-123 -20 -194 -152q-20 -36 -37 -87t-30.5 -107t-21 -112.5t-7.5 -103.5q0 -92 36 -147t105 -67z" />
    <glyph glyph-name="parenright" unicode=")" horiz-adv-x="419" 
d="M-47 -100q60 9 109.5 47.5t84.5 104.5q19 36 36.5 87t31 107t21 112.5t7.5 103.5q0 92 -36 147t-105 67l8 42q49 -5 89 -27t68 -58t43 -84.5t15 -106.5q0 -38 -5 -80.5t-14 -86t-22 -85.5t-29 -78q-61 -139 -181 -212q-34 -20 -62 -29t-67 -13z" />
    <glyph glyph-name="asterisk" unicode="*" 
d="M272 657l51 61l28 -61l-56 -125h-14zM304 520l122 69l66 -18l-56 -56l-130 -8zM307 364l-24 120l12 7l84 -81l-10 -72zM148 410l116 81l9 -7l-70 -121l-72 -25zM133 515l-34 56l73 18l95 -70l-6 -12z" />
    <glyph glyph-name="plus" unicode="+" horiz-adv-x="833" 
d="M382 269h-263v58h263v269h58v-269h264v-58h-264v-269h-58v269z" />
    <glyph glyph-name="comma" unicode="," horiz-adv-x="278" 
d="M-51 -136q59 11 94 47t43 96h-64q-5 8 -7 14.5t-2 14.5q0 31 20 50.5t52 19.5q29 0 46 -18t17 -50q0 -38 -15.5 -73t-43.5 -62.5t-65.5 -46.5t-80.5 -25z" />
    <glyph glyph-name="hyphen" unicode="-" horiz-adv-x="319" 
d="M36 274h224l-13 -67h-224z" />
    <glyph glyph-name="period" unicode="." horiz-adv-x="278" 
d="M87 114q25 0 42 -17.5t17 -42.5t-17.5 -42t-42.5 -17t-42 17t-17 42q0 26 17 43t43 17z" />
    <glyph glyph-name="slash" unicode="/" horiz-adv-x="481" 
d="M464 671h61l-575 -764h-61z" />
    <glyph glyph-name="zero" unicode="0" horiz-adv-x="556" 
d="M348 683q86 0 134 -60.5t48 -169.5q0 -50 -8.5 -100t-24 -97.5t-37.5 -89.5t-49 -75q-82 -103 -197 -103q-88 0 -136.5 60.5t-48.5 170.5q0 50 8.5 101t24.5 99t38.5 90.5t49.5 75.5q83 98 198 98zM334 636q-88 0 -149 -136q-14 -31 -25.5 -69.5t-20 -80t-13.5 -82.5
t-5 -76q0 -157 101 -157q48 0 85 34t69 106q13 31 24.5 69.5t20 79t13 81t4.5 75.5q0 156 -104 156z" />
    <glyph glyph-name="one" unicode="1" horiz-adv-x="556" 
d="M67 43l109 5l17 18l105 519l-12 10l-151 -19v40l244 67h25l-125 -622l10 -15l90 -5v-41h-312v43z" />
    <glyph glyph-name="two" unicode="2" horiz-adv-x="556" 
d="M-10 63l105 75t72 52t52 40t45 39q42 37 71.5 70t48 63.5t27 61t8.5 63.5q0 49 -28.5 77t-79.5 28q-23 0 -44.5 -5.5t-50.5 -18.5l-20 -107q-14 -8 -25 -11.5t-23 -3.5q-21 0 -34 11.5t-13 29.5q0 30 20.5 58.5t54.5 50t78 34.5t91 13q81 0 126.5 -39.5t45.5 -109.5
q0 -62 -37.5 -122.5t-119.5 -132.5q-21 -19 -40.5 -35t-47.5 -37t-70.5 -51t-109.5 -77h301l34 85h45l-31 -164h-463z" />
    <glyph glyph-name="three" unicode="3" horiz-adv-x="556" 
d="M106 60q25 -14 43 -19.5t43 -5.5q39 0 73 14t58.5 38t39 56.5t14.5 70.5q0 53 -31.5 81.5t-91.5 28.5q-12 0 -27 -1t-32 -3l8 56q12 -1 18.5 -1h11.5q39 0 72.5 11.5t58 32t38 49t13.5 61.5q0 49 -30 78t-81 29q-26 0 -47 -7.5t-49 -24.5l-14 -96q-20 -7 -30 -9.5
t-18 -2.5q-19 0 -31 13t-12 33q0 28 19.5 53.5t52 45t75.5 31t90 11.5q80 0 126 -36.5t46 -99.5q0 -67 -50.5 -117t-142.5 -73q75 -5 114 -37.5t39 -89.5q0 -50 -23 -94t-63 -77t-93.5 -52t-114.5 -19q-38 0 -70.5 8t-56 22.5t-37 34.5t-13.5 44q0 26 14.5 41t40.5 15
q8 0 15.5 -1.5t19.5 -5.5z" />
    <glyph glyph-name="four" unicode="4" horiz-adv-x="556" 
d="M322 194h-322l12 65l421 418h59l-80 -418h112l-13 -65h-112l-44 -231h-77zM335 259l59 309l-307 -309h248z" />
    <glyph glyph-name="five" unicode="5" horiz-adv-x="556" 
d="M119 49q34 -14 71 -14q40 0 75 15t61.5 40.5t42 59.5t15.5 73q0 63 -43.5 96t-126.5 33q-22 0 -104 -6l66 325h350l-14 -76h-291l-41 -204q62 17 114 17q84 0 132 -42.5t48 -115.5q0 -54 -24 -102t-65.5 -83.5t-97.5 -56t-119 -20.5q-73 0 -115 24.5t-42 66.5q0 26 16 42
t41 16q6 0 11 -0.5t14 -2.5z" />
    <glyph glyph-name="six" unicode="6" horiz-adv-x="556" 
d="M490 665q-64 -6 -118.5 -28.5t-98 -58t-74 -84t-45.5 -107.5q88 63 172 63q81 0 128 -49t47 -134q0 -58 -21.5 -108.5t-58 -88.5t-86 -60t-105.5 -22q-93 0 -145.5 61.5t-52.5 170.5q0 61 15.5 121.5t45 114.5t71 100t92.5 80q49 32 104 51t128 29zM141 336
q-11 -36 -15 -65t-4 -61q0 -85 30.5 -130t89.5 -45q36 0 67 16.5t53.5 45t35.5 67.5t13 84q0 142 -127 142q-38 0 -72 -12.5t-71 -41.5z" />
    <glyph glyph-name="seven" unicode="7" horiz-adv-x="556" 
d="M492 595h-309l-33 -91h-47l32 167h461l-8 -40l-456 -646l-4 -22h-83z" />
    <glyph glyph-name="eight" unicode="8" horiz-adv-x="556" 
d="M359 355q37 -18 61.5 -34.5t39 -33.5t20.5 -36.5t6 -44.5q0 -47 -21 -87.5t-58 -70t-87 -46.5t-108 -17q-45 0 -82 11.5t-63.5 32t-40.5 49.5t-14 65q0 129 170 209q-45 25 -64 53.5t-19 73.5q0 44 18.5 82t51 65.5t76.5 43.5t95 16q79 0 125.5 -39t46.5 -105
q0 -125 -153 -187zM319 371q56 28 84.5 70t28.5 95q0 49 -28 77.5t-77 28.5q-30 0 -56.5 -11t-46 -29.5t-30.5 -44t-11 -54.5q0 -21 6 -37.5t21.5 -31.5t41.5 -30t67 -33zM216 330q-66 -38 -93 -76.5t-27 -91.5q0 -59 37 -94t100 -35q34 0 64 11.5t52 31.5t34.5 47t12.5 58
q0 29 -13.5 50.5t-42.5 38.5q-11 6 -20.5 11t-22.5 11.5t-32 15.5t-49 22z" />
    <glyph glyph-name="nine" unicode="9" horiz-adv-x="556" 
d="M41 -14q65 24 119 53t98.5 65t80.5 79.5t65 96.5q-29 -15 -52.5 -25.5t-44 -17t-39.5 -9.5t-39 -3q-37 0 -68.5 13.5t-54 37.5t-35 57t-12.5 72q0 58 22 108.5t60 88t89 59.5t109 22q95 0 145.5 -54t50.5 -154q0 -101 -44 -194t-128 -168q-60 -55 -132 -95t-172 -74z
M426 344q11 47 15 77t4 59q0 75 -32.5 117t-89.5 42q-35 0 -66.5 -17t-55 -46t-37 -68t-13.5 -82q0 -68 34.5 -106.5t94.5 -38.5q38 0 72.5 15t73.5 48z" />
    <glyph glyph-name="colon" unicode=":" horiz-adv-x="278" 
d="M156 477q25 0 42 -17t17 -43q0 -25 -17 -42t-43 -17q-25 0 -42 17t-17 42q0 26 17 43t43 17zM87 114q25 0 42 -17.5t17 -42.5t-17.5 -42t-42.5 -17t-42 17t-17 42q0 26 17 43t43 17z" />
    <glyph glyph-name="semicolon" unicode=";" horiz-adv-x="319" 
d="M176 477q25 0 42 -17.5t17 -42.5t-17 -42t-43 -17q-25 0 -42 17t-17 42q0 26 17 43t43 17zM-26 -136q59 11 94 47t43 96h-64q-5 8 -7 14.5t-2 14.5q0 31 20 50.5t52 19.5q29 0 46 -18t17 -50q0 -38 -15.5 -73t-43.5 -62.5t-65.5 -46.5t-80.5 -25z" />
    <glyph glyph-name="less" unicode="&#x3c;" horiz-adv-x="833" 
d="M129 273v50l575 236v-62l-488 -199l488 -198v-63z" />
    <glyph glyph-name="equal" unicode="=" horiz-adv-x="833" 
d="M119 420h585v-58h-585v58zM119 234h585v-58h-585v58z" />
    <glyph glyph-name="greater" unicode="&#x3e;" horiz-adv-x="833" 
d="M129 100l488 198l-488 199v62l575 -236v-50l-575 -236v63z" />
    <glyph glyph-name="question" unicode="?" horiz-adv-x="486" 
d="M171 317q89 32 135.5 86.5t46.5 126.5q0 55 -28.5 80t-92.5 27l-60 -99q-8 -1 -12 -1h-8q-49 0 -49 40q0 22 13 41.5t35.5 34t53 22.5t66.5 8q82 0 128 -38t46 -107q0 -160 -227 -250l-23 -117h-52zM152 105q23 0 39.5 -17t16.5 -40t-17 -40t-40 -17t-40 17t-17 40
q0 24 17 40.5t41 16.5z" />
    <glyph glyph-name="at" unicode="@" horiz-adv-x="942" 
d="M781 -122q-83 -45 -157 -66.5t-147 -21.5q-85 0 -159 29t-130 84q-112 110 -112 284q0 96 34.5 178t95 142t143.5 94t181 34q78 0 141 -22.5t107.5 -64.5t68.5 -101t24 -132t-24.5 -136.5t-71.5 -109.5q-34 -34 -74 -52.5t-78 -18.5t-55 20.5t-17 65.5q-44 -45 -78 -64.5
t-69 -19.5q-27 0 -50 12t-39.5 33t-25.5 50.5t-9 65.5q0 55 20 104.5t54 87t79 60t95 22.5q25 0 47.5 -6.5t51.5 -20.5l18 23h54q-6 -14 -10 -30.5t-13 -55.5l-4 -21l-39 -172q-5 -19 -6.5 -31.5t-1.5 -23.5q0 -20 11 -31.5t29 -11.5q30 0 59 22t51.5 58.5t36 83.5t13.5 97
q0 63 -21 114t-59 87t-91.5 56t-119.5 20q-83 0 -154 -30t-122.5 -82.5t-81 -124t-29.5 -155.5q0 -81 25.5 -148t73 -114t113.5 -73t147 -26q68 0 129.5 17.5t131.5 55.5zM594 337l-41 56q-5 1 -14.5 1.5t-12.5 0.5q-33 0 -62.5 -17.5t-51 -48t-34.5 -71t-13 -86.5
q0 -54 21 -82.5t60 -28.5q29 0 53.5 15.5t53.5 50.5z" />
    <glyph glyph-name="A" unicode="A" horiz-adv-x="606" 
d="M-79 38l55 5l369 634h66l107 -616l17 -18l49 -5v-38h-219v38l59 5l7 15l-31 190h-243l-107 -190l8 -15l61 -5v-38h-198v38zM391 291l-46 288l-163 -288h209z" />
    <glyph glyph-name="B" unicode="B" horiz-adv-x="590" 
d="M-26 38l63 5l17 15l106 555l-10 15l-64 5v38h257q105 0 153 -30.5t48 -96.5q0 -51 -24.5 -91t-71.5 -66q-15 -8 -32.5 -15t-47.5 -16q158 -9 158 -137q0 -109 -76 -164t-226 -55h-250v38zM201 369q18 -2 30 -2.5t23 -0.5q88 0 140.5 45.5t52.5 122.5q0 98 -139 98h-10
t-9.5 -0.5t-14.5 -1t-25 -1.5zM139 44q34 -3 72 -3q105 0 161 44t56 127q0 60 -37 87.5t-115 27.5q-15 0 -32.5 -1t-50.5 -4z" />
    <glyph glyph-name="C" unicode="C" horiz-adv-x="602" 
d="M447 66l44 115h43l-27 -158q-60 -19 -106.5 -27t-91.5 -8q-62 0 -112.5 19.5t-85.5 55.5t-54 87t-19 115q0 87 31.5 163t85.5 133t127 89.5t157 32.5q43 0 84 -7.5t97 -26.5l-28 -154h-42v96l-8 19q-29 14 -52.5 19.5t-52.5 5.5q-64 0 -119.5 -29t-96 -79t-63.5 -119
t-23 -148q0 -109 52.5 -166.5t152.5 -57.5q23 0 41 2.5t47 10.5z" />
    <glyph glyph-name="D" unicode="D" horiz-adv-x="657" 
d="M-26 38l64 5l16 15l107 555l-10 15l-65 5v38h227q154 0 233 -65t79 -192q0 -57 -14 -110.5t-39.5 -100t-62.5 -85t-82 -64.5q-96 -54 -242 -54h-211v38zM197 46q66 0 124.5 20t96.5 57q24 23 44.5 57t35 74.5t22.5 85t8 88.5q0 197 -223 197h-54l-109 -579h55z" />
    <glyph glyph-name="E" unicode="E" horiz-adv-x="544" 
d="M-26 38l63 5l17 15l107 555l-11 15l-64 5v38h465l-28 -146h-48v85l-11 15h-215l-49 -254h152l18 14l22 73h43l-42 -219h-41l4 72l-12 14h-153l-54 -279h255l18 16l34 101h46l-32 -163h-484v38z" />
    <glyph glyph-name="F" unicode="F" horiz-adv-x="510" 
d="M-25 38l63 5l16 15l107 555l-10 15l-64 5v38h454l-31 -157h-48v95l-10 16h-202l-50 -264h141l18 15l23 72h44l-43 -220h-43l4 72l-12 15h-141l-49 -257l14 -15l70 -5v-38h-251v38z" />
    <glyph glyph-name="G" unicode="G" horiz-adv-x="663" 
d="M478 264l-10 14l-65 5v39h246v-39l-64 -5l-16 -14l-47 -241q-66 -18 -116.5 -26.5t-93.5 -8.5q-62 0 -112.5 20t-86.5 56.5t-55.5 88t-19.5 114.5q0 97 42 182.5t120 145.5q112 88 262 88q49 0 90.5 -7t85.5 -22l-29 -159h-53l3 94l-9 21q-28 14 -51.5 19.5t-50.5 5.5
q-65 0 -122 -29.5t-99.5 -80t-67 -118.5t-24.5 -146q0 -104 53.5 -164.5t145.5 -60.5q21 0 42.5 3t63.5 12z" />
    <glyph glyph-name="H" unicode="H" horiz-adv-x="712" 
d="M-26 38l64 5l16 15l107 555l-10 15l-65 5v38h244v-38l-66 -5l-15 -15l-47 -239h326l47 239l-12 15l-64 5v38h244v-38l-66 -5l-16 -15l-106 -555l10 -15l64 -5v-38h-242v38l65 5l15 15l51 270h-325l-52 -270l12 -15l64 -5v-38h-243v38z" />
    <glyph glyph-name="I" unicode="I" horiz-adv-x="312" 
d="M-20 38l64 5l16 15l107 555l-11 15l-64 5v38h244v-38l-66 -5l-16 -15l-107 -555l12 -15l65 -5v-38h-244v38z" />
    <glyph glyph-name="J" unicode="J" horiz-adv-x="442" 
d="M-9 180h50v-127l12 -13q11 -2 18 -3t17 -1q31 0 52.5 9.5t38 34t29.5 66.5t25 106l70 361l-11 15l-64 5v38h243v-38l-65 -5l-16 -15l-67 -357q-14 -75 -33.5 -126.5t-48 -83t-67.5 -45t-92 -13.5q-38 0 -65 5t-59 19z" />
    <glyph glyph-name="K" unicode="K" horiz-adv-x="629" 
d="M-26 38l64 5l16 15l107 555l-11 15l-64 5v38h243v-38l-65 -5l-16 -15l-54 -273h29l275 271l-6 17l-70 5v38h242v-40l-83 -6l-263 -257l142 -276q9 -18 18 -29t22 -17t31 -7.5t47 -0.5v-38q-36 -2 -59 -3t-33 -1q-25 0 -41.5 2.5t-28.5 10.5t-22 22.5t-22 37.5l-116 229
h-70l-46 -240l13 -15l65 -5v-38h-244v38z" />
    <glyph glyph-name="L" unicode="L" 
d="M-26 38l64 5l16 15l107 555l-10 15l-65 5v38h243v-38l-65 -5l-16 -15l-110 -567h212l18 16l39 120h48l-35 -182h-446v38z" />
    <glyph glyph-name="M" unicode="M" horiz-adv-x="841" 
d="M-25 38l63 5l16 15l106 555l-11 15l-63 5v38h204v-27l91 -509l280 505v31h208v-38l-63 -5l-16 -15l-106 -555l10 -15l64 -5v-38h-237v38l72 5l10 15l107 561l-345 -619h-44l-108 616l-104 -558l15 -15l59 -5v-38h-208v38z" />
    <glyph glyph-name="N" unicode="N" horiz-adv-x="685" 
d="M-32 38l64 5l16 15l107 555l-10 15l-65 5v38h172v-25l239 -507l92 474l-10 15l-64 5v38h210v-38l-64 -5l-16 -15l-117 -613h-58l-263 556l-97 -498l11 -15l64 -5v-38h-211v38z" />
    <glyph glyph-name="O" unicode="O" horiz-adv-x="707" 
d="M409 683q57 0 105 -20t82 -56.5t53 -87t19 -111.5q0 -87 -28.5 -163.5t-78 -133.5t-115.5 -90t-141 -33q-59 0 -108 20t-84 56.5t-54 87.5t-19 113q0 50 11.5 99t32.5 94t50.5 84t66.5 68q92 73 208 73zM396 635q-52 0 -99 -31t-82.5 -83.5t-56.5 -121t-21 -144.5
q0 -50 12 -90.5t34.5 -69t54 -44t70.5 -15.5q54 0 102.5 30.5t84.5 88.5q37 57 56.5 124t19.5 135q0 104 -46.5 162.5t-128.5 58.5z" />
    <glyph glyph-name="P" unicode="P" horiz-adv-x="544" 
d="M-26 38l64 5l16 15l107 555l-11 15l-64 5v38h213q64 0 101 -5.5t65 -19.5q80 -42 80 -140q0 -56 -22.5 -102.5t-62.5 -80t-96 -52.5t-122 -19h-11h-11.5t-16.5 0.5t-25 1.5l-38 -196l7 -15l64 -5v-38h-237v38zM187 301q14 -2 21.5 -2h16.5q109 0 168 52t59 147
q0 66 -38 98t-118 32q-8 0 -14.5 -0.5t-31.5 -1.5z" />
    <glyph glyph-name="Q" unicode="Q" horiz-adv-x="707" 
d="M699 -114q-30 -14 -52.5 -22.5t-41 -14t-35 -7.5t-34.5 -2q-84 0 -137 77q-9 13 -17.5 30t-22.5 46q-17 -3 -28 -4t-25 -1q-60 0 -109 20t-84 56t-54 87t-19 113q0 85 29 161.5t79 133.5t116.5 90.5t141.5 33.5q58 0 106.5 -20t83 -56t53.5 -86t19 -111q0 -63 -16 -122.5
t-45 -110.5t-70 -91t-91 -65q20 -39 36.5 -63.5t33 -38.5t34.5 -19.5t42 -5.5q21 0 46.5 6t60.5 20v-34zM396 635q-52 0 -99 -31t-82.5 -83.5t-56.5 -121t-21 -144.5q0 -50 12 -90.5t34.5 -69t54 -44t70.5 -15.5q54 0 102.5 30.5t84.5 88.5q37 57 56.5 124t19.5 135
q0 104 -46.5 162.5t-128.5 58.5z" />
    <glyph glyph-name="R" unicode="R" horiz-adv-x="605" 
d="M-26 38l64 5l16 14l107 556l-11 15l-71 5v38h253q109 0 160.5 -35t51.5 -109q0 -162 -200 -210q27 -7 44.5 -17t31 -29t24 -50.5t23.5 -81.5q9 -32 18.5 -51.5t23.5 -31t34 -15t50 -3.5v-37q-29 -4 -43.5 -5t-27.5 -1q-41 0 -67 11t-43 34q-6 9 -10.5 18t-9 23t-9.5 35
t-12 54q-6 25 -10 41.5t-8.5 27.5t-10 18.5t-13.5 15.5q-16 14 -34 19.5t-50 5.5h-23t-34 -1l-47 -239l12 -15l65 -5v-38h-244v38zM197 345q13 -2 20.5 -2h17.5q100 0 156 44t56 123q0 60 -36.5 87.5t-115.5 27.5h-21t-23 -1z" />
    <glyph glyph-name="S" unicode="S" horiz-adv-x="537" 
d="M42 193h52l-10 -115l10 -13q34 -16 59.5 -22.5t54.5 -6.5q37 0 67.5 10.5t53 29.5t35 45t12.5 57q0 48 -31 74q-6 5 -11 8t-13 8t-23.5 12.5t-42.5 21.5q-46 23 -76.5 43t-48.5 40t-25.5 41.5t-7.5 48.5q0 45 19 83t52 66t78.5 43.5t99.5 15.5q44 0 80.5 -7t84.5 -23
l-32 -152h-44l4 99l-12 18q-25 11 -45 15t-43 4q-34 0 -62.5 -10.5t-49.5 -28.5t-33 -42.5t-12 -53.5q0 -52 40 -82q7 -5 12.5 -8.5t14.5 -8.5t25.5 -12.5t45.5 -21.5q40 -18 67.5 -36t44.5 -38t24.5 -42.5t7.5 -49.5q0 -47 -20 -86.5t-56 -68t-86 -44.5t-109 -16
q-51 0 -93 10t-91 36z" />
    <glyph glyph-name="T" unicode="T" horiz-adv-x="565" 
d="M108 38l64 5l16 15l107 572h-141l-17 -15l-32 -93h-55l29 149h538l-30 -149h-54l4 93l-11 15h-142l-110 -572l13 -15l65 -5v-38h-244v38z" />
    <glyph glyph-name="U" unicode="U" horiz-adv-x="661" 
d="M149 613l-11 15l-64 5v38h243v-38l-65 -5l-16 -15l-71 -364q-5 -24 -7 -42t-2 -33q0 -125 142 -125q88 0 135.5 46.5t68.5 153.5l71 364l-12 15l-65 5v38h209v-38l-63 -5l-17 -15l-73 -373q-8 -39 -15.5 -67.5t-17 -50t-22 -37.5t-29.5 -31q-35 -32 -86 -49t-114 -17
q-98 0 -150.5 41.5t-52.5 119.5q0 17 2.5 36.5t9.5 54.5z" />
    <glyph glyph-name="V" unicode="V" horiz-adv-x="590" 
d="M94 610l-16 18l-47 5v38h209v-38l-56 -5l-7 -15l79 -521l271 521l-8 15l-58 5v38h188v-38l-53 -6l-343 -632h-62z" />
    <glyph glyph-name="W" unicode="W" horiz-adv-x="898" 
d="M116 610l-17 18l-48 5v38h214v-38l-57 -5l-7 -15l37 -471l248 529h65l56 -536l219 478l-8 15l-59 5v38h192v-38l-58 -6l-293 -627h-57l-59 549l-255 -549h-63z" />
    <glyph glyph-name="X" unicode="X" horiz-adv-x="569" 
d="M-83 38l65 5l17 15l249 282l-120 273l-10 15l-64 5v38h243v-38l-66 -5l-15 -15l89 -207l182 207l-6 15l-57 5v38h208v-38l-70 -5l-234 -268l132 -302l10 -15l64 -5v-38h-242v38l65 5l16 15l-98 230l-206 -230l10 -15l65 -5v-38h-227v38z" />
    <glyph glyph-name="Y" unicode="Y" horiz-adv-x="562" 
d="M97 38l63 5l16 15l42 214l-112 341l-10 15l-65 5v38h243v-38l-65 -5l-16 -15l90 -283l209 283l-10 15l-64 5v38h224v-38l-66 -5l-16 -15l-254 -332l-44 -223l13 -15l65 -5v-38h-243v38z" />
    <glyph glyph-name="Z" unicode="Z" horiz-adv-x="556" 
d="M-18 41l472 582h-248l-22 -13l-34 -94h-52l30 155h444l-9 -42l-473 -580h286l14 13l40 119h49l-34 -181h-470z" />
    <glyph glyph-name="bracketleft" unicode="[" horiz-adv-x="421" 
d="M210 708h237l-8 -43h-158l-145 -755h158l-8 -42h-237z" />
    <glyph glyph-name="backslash" unicode="\" horiz-adv-x="481" 
d="M35 671h56l397 -764h-56z" />
    <glyph glyph-name="bracketright" unicode="]" horiz-adv-x="421" 
d="M-33 -89h158l145 755h-158l8 42h237l-161 -840h-237z" />
    <glyph glyph-name="asciicircum" unicode="^" horiz-adv-x="833" 
d="M373 714h87l254 -276h-45l-253 213l-254 -213h-44z" />
    <glyph glyph-name="underscore" unicode="_" 
d="M0 -80h500v-58h-500v58z" />
    <glyph glyph-name="grave" unicode="`" 
d="M175 730h99l60 -190h-50z" />
    <glyph glyph-name="a" unicode="a" horiz-adv-x="529" 
d="M492 26q-50 -20 -77 -27.5t-49 -7.5q-31 0 -44.5 19.5t-13.5 64.5q-44 -45 -79 -64.5t-73 -19.5q-63 0 -99 47t-36 128q0 66 21.5 124t58.5 100.5t87.5 67.5t107.5 25q28 0 50 -5t48 -18l20 22h52q-17 -36 -38 -143l-36 -177q-6 -29 -8 -43.5t-2 -27.5q0 -45 51 -45
q9 0 21 2t38 8v-30zM361 382l-40 61q-5 1 -9 1h-7q-43 0 -80 -20.5t-64 -57t-42.5 -86t-15.5 -107.5q0 -121 86 -121q15 0 29 3.5t28 11t29.5 20t33.5 31.5z" />
    <glyph glyph-name="b" unicode="b" horiz-adv-x="502" 
d="M142 665l-87 15v26l152 30h33q-7 -22 -13 -46.5t-10 -45.5l-43 -235q49 40 83.5 57t65.5 17q29 0 52.5 -12.5t40.5 -35.5t26.5 -54.5t9.5 -70.5q0 -67 -21.5 -125.5t-59 -101.5t-88.5 -67.5t-109 -24.5q-40 0 -73.5 10t-75.5 34zM110 72q23 -22 43.5 -31t44.5 -9
q33 0 64 22.5t55 60t38.5 86t14.5 101.5q0 56 -22.5 88t-61.5 32q-23 0 -49 -11.5t-70 -40.5z" />
    <glyph glyph-name="c" unicode="c" horiz-adv-x="398" 
d="M354 87q-95 -96 -189 -96q-67 0 -106.5 49.5t-39.5 133.5q0 63 21 119t57 98t84 67t101 25q39 0 65.5 -19.5t26.5 -48.5q0 -23 -17 -38t-46 -17l-58 76q-34 0 -62.5 -18.5t-49 -51t-32 -77.5t-11.5 -99q0 -66 25.5 -102.5t72.5 -36.5q38 0 75.5 19.5t82.5 62.5v-46z" />
    <glyph glyph-name="d" unicode="d" horiz-adv-x="529" 
d="M496 22q-44 -15 -73 -22t-52 -7q-65 0 -65 73v8t1 10q-74 -93 -157 -93q-61 0 -95.5 47.5t-34.5 130.5q0 76 27.5 139t80.5 109q37 32 80 49t87 17q21 0 39 -3t40 -11l35 201l-88 8v28l153 30h26l-107 -599q-3 -19 -4.5 -31.5t-1.5 -23.5q0 -40 42 -40q14 0 28 2t39 8
v-30zM359 384l-48 57q-11 2 -16.5 2.5t-10.5 0.5q-36 0 -68.5 -22t-58 -59t-40.5 -85.5t-15 -101.5q0 -60 22 -94t60 -34q32 0 63.5 20t67.5 65z" />
    <glyph glyph-name="e" unicode="e" horiz-adv-x="423" 
d="M365 81q-51 -47 -97 -68.5t-97 -21.5q-72 0 -112 47.5t-40 132.5q0 78 32.5 146.5t90.5 113.5q32 25 66.5 38.5t66.5 13.5q46 0 74 -27t28 -72q0 -69 -70 -110t-203 -52q-3 -24 -3 -43q0 -62 27 -97.5t74 -35.5q38 0 76 19t87 63v-47zM109 256q48 4 79 12.5t57 25.5
q60 38 60 92q0 23 -15 39t-38 16q-46 0 -83.5 -48.5t-59.5 -136.5z" />
    <glyph glyph-name="f" unicode="f" horiz-adv-x="292" 
d="M-25 -150q16 17 27.5 38t21 51.5t17.5 75t17 108.5l42 287l-66 -7v33l76 31q11 60 31.5 109t48 83.5t61 53.5t69.5 19q35 0 59 -17t24 -43q0 -39 -49 -51l-82 67q-57 -38 -90 -233h141v-45h-149l-40 -284q-6 -41 -12.5 -73.5t-15 -59t-19.5 -49.5t-25 -44
q-36 -54 -78.5 -85t-80.5 -31q-24 0 -39 14.5t-15 37.5t22 41z" />
    <glyph glyph-name="g" unicode="g" horiz-adv-x="479" 
d="M319 30q78 -35 78 -97q0 -31 -19.5 -58.5t-52.5 -48t-77 -32.5t-93 -12q-86 0 -137 36t-51 97q0 47 31 79.5t102 59.5q-1 6 -1 9v8q0 25 9 47t31 50q-48 20 -70 50.5t-22 73.5q0 39 15.5 74t41.5 61t61.5 41t75.5 15q24 0 44.5 -5.5t49.5 -19.5h143v-43h-103
q7 -19 10 -34t3 -34q0 -59 -31.5 -105t-87.5 -67q-21 -8 -42.5 -11t-53.5 -3q-8 -14 -10.5 -27t-2.5 -32zM241 446q-23 0 -44 -13.5t-36.5 -36.5t-25 -53t-9.5 -63q0 -41 17 -63.5t49 -22.5q23 0 44.5 13t37.5 35t25.5 51t9.5 61q0 44 -18 68t-50 24zM137 34
q-91 -24 -91 -99q0 -50 37.5 -80.5t99.5 -30.5q29 0 54 6.5t44 18.5t29.5 28t10.5 34q0 38 -57 64z" />
    <glyph glyph-name="h" unicode="h" horiz-adv-x="547" 
d="M160 670l-94 10v26l157 30h31q-14 -53 -23 -94t-17 -83l-33 -171q34 27 61 45t50 29t43 16t41 5q36 0 58.5 -22t22.5 -58q0 -16 -3 -35t-11 -55l-35 -155q-10 -44 -10 -65q0 -50 51 -50q20 0 56 9v-27q-43 -17 -72 -24.5t-51 -7.5q-70 0 -70 62q0 25 7 53l43 185
q5 24 7.5 38.5t2.5 28.5q0 61 -50 61q-61 0 -152 -82l-62 -339h-85z" />
    <glyph glyph-name="i" unicode="i" horiz-adv-x="286" 
d="M200 704q22 0 38 -16.5t16 -38.5t-16 -37.5t-39 -15.5t-38 15t-15 38t15.5 39t38.5 16zM253 28q-45 -18 -78.5 -26.5t-62.5 -8.5q-64 0 -64 67q0 11 1.5 22.5t4.5 28.5l59 298l-81 15v25l148 33h26l-72 -374q-2 -6 -2.5 -13.5t-0.5 -11.5q0 -39 46 -39q16 0 32 3.5
t44 11.5v-31z" />
    <glyph glyph-name="j" unicode="j" horiz-adv-x="269" 
d="M195 703q22 0 38 -16t16 -38q0 -23 -16 -38.5t-38 -15.5q-23 0 -38.5 15.5t-15.5 38.5t15.5 38.5t38.5 15.5zM-3 -150q16 18 27.5 38.5t20.5 51t17.5 74.5t18.5 109l45 295l-101 12v23l152 29h36l-56 -356q-7 -44 -13.5 -76t-14 -57t-17 -45t-22.5 -40q-36 -57 -81 -90.5
t-85 -33.5q-23 0 -37.5 14.5t-14.5 37.5t22 41z" />
    <glyph glyph-name="k" unicode="k" horiz-adv-x="513" 
d="M159 674l-92 6v26l157 30h28l-107 -498l185 191q53 54 89 54q23 0 39.5 -15t16.5 -37q0 -20 -13 -34t-42 -28l-36 39q-16 -12 -29 -22t-27 -22l-31.5 -27t-41.5 -37q20 -45 33 -73.5t22.5 -48t17.5 -34.5t18 -31q42 -70 95 -70q23 0 51 7v-28q-47 -14 -74.5 -20.5
t-44.5 -6.5q-54 0 -92 77l-85 172l-57 -52l-32 -192h-83z" />
    <glyph glyph-name="l" unicode="l" horiz-adv-x="269" 
d="M240 25q-45 -18 -77 -26t-58 -8q-34 0 -52.5 18t-18.5 50q0 16 3.5 42t14.5 79l96 490l-89 10v26l152 30h27q-2 -8 -3 -14t-3 -17q-2 -9 -3 -18t-3 -17l-101 -502q-6 -32 -8.5 -48.5t-2.5 -29.5q0 -50 54 -50q12 0 27.5 3.5t44.5 12.5v-31z" />
    <glyph glyph-name="m" unicode="m" horiz-adv-x="814" 
d="M114 409l-82 15v25l148 33h25l-18 -95q64 51 109 73.5t83 22.5q72 0 78 -92q59 48 102.5 70t81.5 22q36 0 58.5 -24t22.5 -62q0 -15 -3 -35t-9 -49l-34 -155q-7 -32 -9 -44t-2 -22q0 -23 13.5 -36t36.5 -13q21 0 57 9v-27q-46 -18 -73.5 -25t-51.5 -7q-32 0 -50 15
t-18 44q0 10 2 25.5t6 30.5l43 185q5 21 7 36.5t2 29.5q0 62 -50 62q-61 0 -135 -81l-65 -340h-83l60 293q9 46 9 69q0 26 -14 42.5t-37 16.5q-26 0 -61.5 -20t-84.5 -62l-63 -339h-84z" />
    <glyph glyph-name="n" unicode="n" horiz-adv-x="555" 
d="M114 409l-82 15v25l148 33h25l-18 -96q35 27 62.5 46t50.5 30t43 16t41 5q36 0 58.5 -22t22.5 -57q0 -8 -0.5 -16t-2 -18.5t-4.5 -24t-7 -32.5l-34 -155q-6 -27 -8.5 -42.5t-2.5 -23.5q0 -23 13.5 -36t37.5 -13q20 0 56 9v-28q-24 -9 -41.5 -15t-32 -9.5t-26.5 -5
t-24 -1.5q-69 0 -69 61q0 11 1.5 23.5t6.5 30.5l43 185q5 19 7 36t2 30q0 62 -50 62q-31 0 -67.5 -19.5t-84.5 -63.5l-62 -338h-85z" />
    <glyph glyph-name="o" unicode="o" horiz-adv-x="502" 
d="M278 483q39 0 70 -14t53 -39.5t34 -61t12 -79.5q0 -61 -20.5 -115.5t-55 -95t-81.5 -64t-99 -23.5q-39 0 -70.5 13.5t-54 38t-34.5 59.5t-12 78q0 63 20 118.5t55 96.5t82 64.5t101 23.5zM262 443q-33 0 -61.5 -20.5t-49.5 -55.5t-33.5 -82t-12.5 -101q0 -73 25 -113
t71 -40q34 0 63 20t51 55.5t34.5 83t12.5 101.5q0 74 -25.5 113t-74.5 39z" />
    <glyph glyph-name="p" unicode="p" horiz-adv-x="519" 
d="M-63 -188l59 12l10 11l105 582l-78 10v25l142 30h26l-12 -61q50 34 84.5 48t68.5 14q59 0 92 -46t33 -127q0 -134 -85 -225q-40 -42 -89 -65.5t-99 -23.5q-21 0 -38 4t-41 15l-33 -186l95 -17v-30h-240v30zM125 67q25 -14 45 -20.5t41 -6.5q33 0 62.5 16t50.5 45
q29 42 45 96t16 111q0 54 -24.5 88t-63.5 34q-25 0 -49.5 -11.5t-65.5 -41.5z" />
    <glyph glyph-name="q" unicode="q" horiz-adv-x="508" 
d="M192 -186l61 12l11 12l40 231q-46 -41 -80 -58t-70 -17q-62 0 -98 48t-36 130q0 63 21.5 119.5t58 99t85 67.5t102.5 25q23 0 45.5 -5t50.5 -16l26 25h48q-6 -24 -8 -34l-4 -20l-103 -602l96 -17v-32h-246v32zM359 383l-50 59q-8 1 -11.5 1h-6.5q-39 0 -73 -21t-60 -57.5
t-41 -85t-15 -103.5q0 -60 23.5 -92t67.5 -32q29 0 56 13.5t62 46.5z" />
    <glyph glyph-name="r" unicode="r" horiz-adv-x="401" 
d="M114 409l-82 15v25l148 33h20l-32 -137q54 73 96.5 105.5t84.5 32.5q23 0 38 -15.5t15 -38.5q0 -29 -19 -46.5t-50 -17.5h-5l-26 54q-35 -14 -59.5 -30t-41.5 -37.5t-27.5 -50t-17.5 -66.5l-41 -235h-84z" />
    <glyph glyph-name="s" unicode="s" horiz-adv-x="370" 
d="M60 62q15 -19 32 -27t41 -8q41 0 65.5 22.5t24.5 59.5q0 25 -14.5 45t-54.5 51q-20 15 -31.5 24t-18.5 15t-11 10.5t-10 11.5q-24 27 -24 66q0 31 13.5 58.5t37 48t54.5 32.5t66 12q42 0 68 -17.5t26 -45.5q0 -45 -58 -51l-42 58q-9 6 -16 8.5t-16 2.5q-29 0 -49 -19.5
t-20 -47.5q0 -12 2.5 -21t11 -19t23 -23t38.5 -31q19 -15 30.5 -24t19 -15t12.5 -11l11 -11q28 -29 28 -72q0 -33 -13.5 -61.5t-38.5 -48.5t-59 -31.5t-74 -11.5q-60 0 -95.5 24t-35.5 63q0 23 14 38t37 15q11 0 19.5 -4t24.5 -15z" />
    <glyph glyph-name="t" unicode="t" horiz-adv-x="333" 
d="M282 37q-57 -24 -92.5 -34t-64.5 -10q-40 0 -60.5 23t-20.5 67q0 16 1.5 30.5t6.5 37.5l54 271l-62 -5v30l73 32l50 100h46l-21 -114h144v-43h-152l-52 -267q-6 -30 -6 -46q0 -59 61 -59q37 0 95 19v-32z" />
    <glyph glyph-name="u" unicode="u" horiz-adv-x="558" 
d="M516 23q-28 -10 -47.5 -16t-34 -9.5t-25.5 -5t-23 -1.5q-58 0 -58 65v7t1 12q-47 -41 -93.5 -62.5t-88.5 -21.5q-45 0 -70.5 25t-25.5 69q0 24 8 61l58 264l-83 15v25l157 34l16 -14l-63 -292q-11 -50 -11 -73q0 -26 15 -41.5t41 -15.5q32 0 65.5 15t78.5 49l75 362h81
l-71 -327q-5 -22 -7.5 -39t-2.5 -27q0 -18 14 -29.5t37 -11.5q10 0 22 2.5t35 8.5v-28z" />
    <glyph glyph-name="v" unicode="v" horiz-adv-x="454" 
d="M112 -2q8 19 11 33.5t3 34.5q0 8 -0.5 16.5t-1.5 18.5l-25 234q-6 68 -30 85l-77 6v25l101 32q20 0 33.5 -5t22.5 -18t14 -35t8 -56l26 -274q32 41 56 74.5t42 63t31 56t24 53.5l-19 122q15 11 26 15t25 4q23 0 37.5 -14.5t14.5 -39.5q0 -45 -44.5 -125.5t-129.5 -186.5
q-14 -17 -38.5 -46.5t-61.5 -72.5h-48z" />
    <glyph glyph-name="w" unicode="w" horiz-adv-x="713" 
d="M101 22l-27 396l-74 9v24l115 34l35 -2l22 -394q27 52 48 92t37.5 72t29.5 58t24 49.5t22 47.5t23 52l60 7q2 -47 4.5 -90.5t6 -89l7.5 -97.5t9 -115q17 23 27 36.5t22 30.5q44 63 71.5 112t41.5 90l-20 117q12 12 23.5 17t26.5 5q24 0 38.5 -14.5t14.5 -38.5
q0 -27 -11.5 -59.5t-41 -81.5t-79 -118.5t-125.5 -170.5h-58l-24 349q-17 -34 -33.5 -66.5t-38.5 -72t-50.5 -90t-68.5 -120.5h-65z" />
    <glyph glyph-name="x" unicode="x" horiz-adv-x="477" 
d="M434 22q-23 -9 -39.5 -14.5t-29.5 -8.5t-23.5 -4.5t-21.5 -1.5q-52 0 -77 64q-4 10 -7.5 21t-7.5 26t-9.5 36.5t-12.5 53.5q-53 -109 -97.5 -156t-93.5 -47q-28 0 -45 15t-17 39q0 42 49 51l46 -43q37 20 73.5 69t65.5 118q-11 38 -20.5 66.5t-18.5 49t-18 34.5t-19 24
l-83 11v24l101 35q4 1 7.5 1h5.5q38 0 58 -45q4 -10 7 -17t7.5 -22t11.5 -42t20 -76q98 200 191 200q24 0 40.5 -15.5t16.5 -38.5q0 -35 -49 -57l-43 39q-67 -18 -134 -171q12 -41 18.5 -63t10.5 -35t7 -21t8 -20q22 -58 67 -58q11 0 24.5 2.5t30.5 7.5v-31z" />
    <glyph glyph-name="y" unicode="y" horiz-adv-x="475" 
d="M0 -155q45 3 85.5 43.5t86.5 127.5l-62 304q-7 35 -16.5 59.5t-23.5 44.5l-85 7v22l98 32q5 1 13 1q39 0 58 -42q4 -10 7.5 -18t7.5 -25t10 -47t17 -83l33 -169q24 59 41.5 103t34.5 85t36 85.5t45 106.5h19l79 -26v-21l-51 -30q-15 -17 -26 -33t-23.5 -37.5t-27.5 -52.5
t-37 -79q-23 -51 -42.5 -91.5t-37.5 -73.5t-36 -61t-37 -55q-50 -69 -99 -104t-97 -35q-35 0 -59 19.5t-24 46.5q0 44 54 55z" />
    <glyph glyph-name="z" unicode="z" horiz-adv-x="440" 
d="M-14 19l344 386l-99 -22q-58 29 -89 29q-36 0 -62 -32l53 -64q-11 -18 -22 -25t-25 -7q-22 0 -34.5 15.5t-12.5 42.5t11.5 52.5t30 45t43 31.5t50.5 12q19 0 37 -6t54 -24q20 -11 33.5 -15.5t24.5 -4.5q8 0 14 1.5t17 6.5l19 49l61 -32l-345 -385l97 25
q42 -18 65.5 -25.5t38.5 -7.5q34 0 60 36l-55 61q12 20 23.5 28t25.5 8q20 0 34 -16.5t14 -42.5q0 -27 -11.5 -52.5t-31 -45t-44.5 -31.5t-52 -12q-16 0 -33.5 4.5t-48.5 17.5q-30 12 -46 16.5t-30 4.5q-7 0 -13 -2t-17 -7l-24 -43z" />
    <glyph glyph-name="braceleft" unicode="{" horiz-adv-x="486" 
d="M326 -134q-26 0 -42.5 0.5t-28.5 1t-21 2.5t-20 5q-69 18 -69 95q0 17 2 33t8 46l17 85q3 17 4.5 29t1.5 24q0 46 -23.5 63.5t-86.5 17.5h-16l8 44q10 -1 16 -1h12q64 0 96.5 29t46.5 100l20 102q16 85 69 123t156 38h13l-7 -37q-37 -1 -62.5 -7t-43 -20t-28.5 -37
t-17 -56l-16 -81q-8 -41 -20.5 -70.5t-31.5 -50t-46.5 -33.5t-65.5 -21q56 -14 80 -40t24 -73q0 -23 -6 -56l-16 -83q-6 -32 -8 -45.5t-2 -26.5q0 -31 26.5 -45.5t84.5 -15.5z" />
    <glyph glyph-name="bar" unicode="|" 
d="M219 764h62v-1000h-62v1000z" />
    <glyph glyph-name="braceright" unicode="}" horiz-adv-x="486" 
d="M-12 -95q40 1 66 6.5t43 20.5t26.5 40.5t17.5 65.5l16 83q7 37 20 65.5t32.5 48.5t47 33.5t64.5 21.5q-104 22 -104 108q0 15 1.5 29.5t6.5 37.5l16 81q2 13 4 27t2 22q0 35 -26.5 52t-84.5 19l7 37h12q90 0 130 -27t40 -87q0 -11 -1 -22t-4 -25l-20 -102
q-4 -20 -5.5 -32t-1.5 -22q0 -75 97 -75h8t22 1l-8 -44h-20q-36 0 -61.5 -7t-43 -22.5t-29 -41.5t-18.5 -63l-16 -85q-11 -53 -26.5 -88t-41 -56t-63 -30t-91.5 -9h-21z" />
    <glyph glyph-name="asciitilde" unicode="~" horiz-adv-x="833" 
d="M86 290q58 38 102 54.5t88 16.5q17 0 31.5 -1.5t33 -6t44.5 -13.5t66 -23q36 -14 59.5 -19t46.5 -5q21 0 41.5 4t43 13t47.5 23.5t57 36.5v-64q-55 -38 -99 -54t-90 -16q-15 0 -28 1.5t-29 5t-37.5 10.5t-53.5 19q-47 17 -77.5 24t-56.5 7q-21 0 -41 -4t-42.5 -13
t-48 -24t-57.5 -37v65z" />
    <glyph glyph-name="uni00A0" unicode="&#xa0;" horiz-adv-x="209" 
 />
    <glyph glyph-name="exclamdown" unicode="&#xa1;" horiz-adv-x="338" 
d="M186 483q23 0 39.5 -17t16.5 -40t-16.5 -40t-39.5 -17q-24 0 -41 17t-17 40t17 40t41 17zM145 303h48l-45 -382q-9 -74 -25.5 -102t-51.5 -28q-21 0 -33 11.5t-12 31.5q0 12 4 33t13 54z" />
    <glyph glyph-name="cent" unicode="&#xa2;" horiz-adv-x="556" 
d="M209 3q-81 14 -124 62t-43 127q0 58 18.5 109.5t53 92t83 68t108.5 38.5l19 101h45l-19 -99h14q21 0 37.5 -1t31 -3.5t28.5 -7t30 -10.5l-21 -113h-53l5 71q-20 11 -38.5 15.5t-41.5 4.5l-79 -412q47 0 88 19l22 74h53l-23 -117q-35 -12 -63 -17t-58 -5h-11t-17 1
l-19 -99h-45zM296 454q-38 -12 -69.5 -36.5t-53.5 -58.5t-34 -76t-12 -88q0 -119 91 -147z" />
    <glyph glyph-name="sterling" unicode="&#xa3;" horiz-adv-x="556" 
d="M-21 57q37 8 63.5 24t45 44.5t31.5 72t23 107.5h-70v46h78q18 165 87 248.5t185 83.5q55 0 90 -20.5t35 -52.5q0 -26 -18.5 -40.5t-61.5 -22.5l-45 87q-40 0 -69.5 -14.5t-52 -48t-38.5 -88t-28 -132.5h184v-46h-193q-26 -165 -144 -232l1 -2q21 2 41.5 3.5t27.5 1.5h297
v-76h-469v57z" />
    <glyph glyph-name="currency" unicode="&#xa4;" horiz-adv-x="607" 
d="M63 207l101 100q-23 32 -33 61t-10 64t10 64t33 61l-101 100l35 36l101 -101q34 24 62 34t63 10t64 -10t63 -34l100 101l35 -36l-100 -100q23 -32 32.5 -61t9.5 -64t-9.5 -64t-32.5 -61l100 -100l-35 -36l-100 101q-32 -23 -61 -33t-66 -10t-65 10t-60 33l-101 -101z
M323 586q-31 0 -58.5 -12t-48.5 -33t-33 -49t-12 -59q0 -32 12 -60t33 -49t49 -33t60 -12q31 0 59 12t49 33t33 49t12 60t-12 60t-33 48.5t-49 32.5t-61 12z" />
    <glyph glyph-name="yen" unicode="&#xa5;" horiz-adv-x="556" 
d="M86 40l73 5l21 14l33 177h-211v41h219l-34 103h-156v41h139l-62 193l-52 10v40h215v-40l-61 -6l-11 -11l87 -270l201 262l-6 14l-48 11v40h183v-40l-60 -12l-145 -191h137v-41h-173l-77 -103h222v-41h-227l-33 -177l14 -14l67 -5v-40h-255v40z" />
    <glyph glyph-name="brokenbar" unicode="&#xa6;" 
d="M219 699h62v-370h-62v370zM219 199h62v-370h-62v370z" />
    <glyph glyph-name="section" unicode="&#xa7;" 
d="M26 20h49l-3 -90q25 -14 45.5 -20t44.5 -6q25 0 46.5 7.5t38 21t26 31t9.5 37.5q0 15 -4.5 27t-16.5 24t-31.5 24t-49.5 27q-23 12 -37 19.5t-23.5 13.5t-15.5 11t-13 11q-41 43 -41 101q0 60 38.5 107.5t113.5 76.5q-45 26 -62 50t-17 59q0 37 16 67.5t45 52.5t70 34
t91 12q33 0 62 -5t68 -18l-25 -129h-44l4 80q-49 30 -91 30q-23 0 -44 -8t-37.5 -21t-26 -30.5t-9.5 -36.5q0 -22 11.5 -37.5t38.5 -30.5q6 -4 10.5 -6.5t11.5 -6t19.5 -10t34.5 -17.5q106 -55 106 -140q0 -58 -40 -106t-116 -82q43 -22 63 -48t20 -60q0 -37 -17 -69
t-47 -56t-70 -37.5t-86 -13.5q-34 0 -65 7t-72 24zM240 424q-111 -49 -111 -136q0 -20 5.5 -35.5t18.5 -29.5t35.5 -28.5t57.5 -32.5q58 35 83.5 68t25.5 74q0 38 -26.5 66t-88.5 54z" />
    <glyph glyph-name="dieresis" unicode="&#xa8;" 
d="M211 665q21 0 36 -15t15 -36t-15.5 -36t-36.5 -15q-20 0 -35 15t-15 36q0 22 14.5 36.5t36.5 14.5zM398 665q20 0 35 -15t15 -36t-15 -36t-36 -15q-20 0 -35.5 15.5t-15.5 35.5q0 21 15 36t37 15z" />
    <glyph glyph-name="copyright" unicode="&#xa9;" horiz-adv-x="900" 
d="M455 726q78 0 147 -31t120.5 -83.5t82 -123t30.5 -149.5t-30.5 -149t-83 -122.5t-123 -83t-149.5 -30.5q-80 0 -149.5 30t-122 82.5t-82.5 122t-30 149.5q0 81 30.5 151.5t83 123t124 83t152.5 30.5zM446 685q-69 0 -130.5 -27.5t-107 -75t-72.5 -110.5t-27 -134
t27 -133.5t73 -109t108 -73.5t133 -27q70 0 132 27.5t108.5 74.5t73.5 109.5t27 133.5q0 72 -27 135t-73.5 109.5t-109.5 73.5t-135 27zM564 252h43v-125q-41 -14 -75 -19.5t-70 -5.5q-54 0 -98.5 17t-77 48.5t-50 74.5t-17.5 96t18 96.5t50.5 74.5t78.5 48t102 17
q33 0 65 -5.5t74 -17.5v-120h-43l-15 75q-22 12 -39 17t-39 5q-36 0 -66.5 -14t-52 -39t-34 -60t-12.5 -76q0 -40 12 -75t33.5 -60.5t50.5 -40t63 -14.5q18 0 37.5 4t48.5 15z" />
    <glyph glyph-name="ordfeminine" unicode="&#xaa;" horiz-adv-x="367" 
d="M350 274q-31 -12 -47.5 -16.5t-31.5 -4.5q-20 0 -28 12t-8 38q-17 -15 -29 -24.5t-23 -15.5t-21.5 -8t-22.5 -2q-40 0 -62.5 28t-22.5 77q0 40 13.5 74.5t37 60t55 40t68.5 14.5q17 0 31 -3t30 -10l12 13h33q-4 -8 -10 -28t-14 -58l-23 -106q-6 -27 -6 -43q0 -26 32 -26
q7 0 17 2l20 4v-18zM268 487l-25 37q-62 1 -99 -43t-37 -119q0 -73 53 -73q20 0 35.5 8.5t39.5 31.5z" />
    <glyph glyph-name="guillemotleft" unicode="&#xab;" horiz-adv-x="442" 
d="M13 200l15 80l190 133l-13 -66l-138 -107l97 -108l-13 -65zM210 200l15 80l190 133l-13 -66l-138 -107l97 -108l-13 -65z" />
    <glyph glyph-name="logicalnot" unicode="&#xac;" horiz-adv-x="833" 
d="M653 362h-529v57h585v-245h-56v188z" />
    <glyph glyph-name="uni00AD" unicode="&#xad;" horiz-adv-x="319" 
d="M36 274h224l-13 -67h-224z" />
    <glyph glyph-name="registered" unicode="&#xae;" horiz-adv-x="463" 
d="M234 678q33 0 63 -13.5t52.5 -36t35.5 -53t13 -64.5q0 -35 -13 -65t-36 -53t-53.5 -36t-64.5 -13t-64.5 13t-53 35.5t-35.5 52.5t-13 65t13 66t36 53.5t54 35.5t66 13zM230 660q-30 0 -56.5 -12t-46.5 -32.5t-31.5 -47.5t-11.5 -58t11.5 -58t31.5 -47t47 -31.5t58 -11.5
q30 0 57 11.5t47 32t31.5 47.5t11.5 58t-11.5 58t-32 47.5t-47.5 32t-58 11.5zM148 432l23 3v152l-25 4v15h91q35 0 47 -8q23 -13 23 -39q0 -36 -52 -49q33 -4 44 -44q5 -20 14.5 -26.5t30.5 -6.5v-15q-19 -4 -27 -4q-21 0 -34 13q-6 5 -9.5 11.5t-8.5 21.5q-8 26 -17 33.5
t-31 7.5h-5t-8 -1v-65l27 -3v-16h-83v16zM214 517q55 0 55 36q0 37 -55 37h-10v-73h10z" />
    <glyph glyph-name="macron" unicode="&#xaf;" 
d="M156 626h301l-9 -51h-301z" />
    <glyph glyph-name="degree" unicode="&#xb0;" horiz-adv-x="330" 
d="M215 710q28 0 52.5 -11t43 -29.5t29.5 -44t11 -53.5q0 -29 -11 -54.5t-29.5 -44t-44 -29.5t-54.5 -11t-54 10.5t-43.5 29.5t-29 44t-10.5 54q0 30 11 55t29.5 44t44 29.5t55.5 10.5zM212 670q-20 0 -37.5 -7.5t-31 -21t-21 -31.5t-7.5 -38q0 -42 28.5 -70.5t69.5 -28.5
t69.5 28.5t28.5 70.5q0 21 -7.5 38.5t-21 31t-31.5 21t-39 7.5z" />
    <glyph glyph-name="plusminus" unicode="&#xb1;" horiz-adv-x="833" 
d="M102 77h585v-58h-585v58zM365 350h-263v58h263v168h58v-168h264v-58h-264v-168h-58v168z" />
    <glyph glyph-name="twosuperior" unicode="&#xb2;" horiz-adv-x="350" 
d="M15 302q36 23 62 41t46.5 32t37 26.5t32.5 25.5q47 38 69 72.5t22 68.5q0 29 -17 44.5t-47 15.5q-26 0 -53 -12l-12 -62q-23 -12 -37 -12q-35 0 -35 29q0 19 13.5 36.5t35.5 31t50.5 21.5t59.5 8q54 0 84.5 -25t30.5 -69q0 -66 -84 -138q-15 -14 -30.5 -26t-34.5 -25.5
t-44.5 -30.5t-61.5 -40h168l22 50h40l-22 -106h-304z" />
    <glyph glyph-name="threesuperior" unicode="&#xb3;" horiz-adv-x="350" 
d="M99 302q22 -14 48 -14q48 0 79 28t31 71q0 28 -18.5 44.5t-50.5 16.5l-24 -1q-6 -1 -9 -1t-13 -1l6 43q32 0 47.5 2t31.5 9q54 22 54 72q0 27 -17.5 43.5t-46.5 16.5q-14 0 -26.5 -4t-28.5 -13l-9 -57q-23 -9 -36 -9q-14 0 -23.5 9t-9.5 22q0 18 12.5 34t34 28t50 19.5
t59.5 7.5q53 0 83.5 -23t30.5 -62q0 -37 -28 -66t-76 -43q80 -11 80 -79q0 -29 -15.5 -55t-41.5 -46t-60.5 -31.5t-73.5 -11.5q-51 0 -84.5 19.5t-33.5 48.5q0 17 12 27.5t31 10.5q10 0 26 -4z" />
    <glyph glyph-name="acute" unicode="&#xb4;" 
d="M380 730h99l-183 -190h-49z" />
    <glyph glyph-name="mu" unicode="&#xb5;" horiz-adv-x="547" 
d="M97 432h72l-51 -240q-3 -12 -4.5 -27.5t-1.5 -26.5q0 -42 20 -64t58 -22q48 0 80 33.5t46 97.5l54 249h73l-56 -259q-6 -29 -8 -41.5t-2 -25.5q0 -23 12.5 -38t32.5 -15q28 0 46.5 20.5t32.5 66.5q7 22 17 22q13 0 13 -17q0 -16 -7.5 -41t-18.5 -45q-36 -68 -103 -68
q-78 0 -76 104q-25 -56 -57.5 -81t-79.5 -25q-48 0 -74 25t-35 80q-5 -29 -8.5 -47.5t-6 -35t-5 -35t-5.5 -47.5q-6 -42 -10.5 -68.5t-10.5 -40.5t-14 -19t-20 -5q-18 0 -28.5 11.5t-10.5 31.5q0 12 5 34.5t20 75.5q10 35 18 64t14.5 56.5t13 54.5t12.5 57z" />
    <glyph glyph-name="paragraph" unicode="&#xb6;" horiz-adv-x="505" 
d="M285 630l-67 -349q-110 0 -162 33t-52 107q0 124 72 187t208 63h196l-7 -36l-64 -10l-125 -647l13 -17l54 -4l-7 -36h-200l7 36l63 4l21 17l126 652h-76z" />
    <glyph glyph-name="periodcentered" unicode="&#xb7;" horiz-adv-x="278" 
d="M141 395q25 0 42 -17.5t17 -42.5t-17 -42t-43 -17q-25 0 -42 17t-17 42q0 26 17 43t43 17z" />
    <glyph glyph-name="cedilla" unicode="&#xb8;" 
d="M69 -173q14 -4 27 -5.5t30 -1.5q35 0 55.5 13.5t20.5 36.5q0 29 -41 29h-9.5t-13.5 -2l21 108h36l-12 -62q8 1 11.5 1h8.5q64 0 64 -55q0 -23 -10.5 -42.5t-28.5 -34t-43 -23t-54 -8.5q-17 0 -32 2.5t-37 8.5z" />
    <glyph glyph-name="onesuperior" unicode="&#xb9;" horiz-adv-x="350" 
d="M67 292l69 4l7 7l60 301l-2 2l-95 -11v33l153 40h22l-74 -367l4 -6l57 -3v-34h-201v34z" />
    <glyph glyph-name="ordmasculine" unicode="&#xba;" horiz-adv-x="367" 
d="M226 547q48 0 77 -31.5t29 -85.5q0 -36 -13 -68.5t-35 -56.5t-51.5 -38t-62.5 -14q-49 0 -78 30.5t-29 82.5q0 38 12.5 71t34.5 57.5t52 38.5t64 14zM216 523q-21 0 -39.5 -12t-32 -33t-21 -49.5t-7.5 -60.5q0 -44 16 -67.5t46 -23.5q21 0 39.5 12.5t32 33.5t21.5 49.5
t8 60.5q0 44 -16 67t-47 23z" />
    <glyph glyph-name="guillemotright" unicode="&#xbb;" horiz-adv-x="442" 
d="M6 132l138 108l-96 107l12 66l139 -133l-15 -80l-190 -133zM203 132l138 108l-96 107l12 66l139 -133l-15 -80l-190 -133z" />
    <glyph glyph-name="onequarter" unicode="&#xbc;" horiz-adv-x="885" 
d="M67 292l69 4l7 7l60 301l-2 2l-95 -11v33l153 40h22l-74 -367l4 -6l57 -3v-34h-201v34zM204 0h-61l556 671h61zM679 -22l28 136h-204l9 44l268 248h46l-49 -245h71l-10 -47h-70l-28 -136h-61zM715 161l33 160l-170 -160h137z" />
    <glyph glyph-name="onehalf" unicode="&#xbd;" horiz-adv-x="885" 
d="M67 292l69 4l7 7l60 301l-2 2l-95 -11v33l153 40h22l-74 -367l4 -6l57 -3v-34h-201v34zM760 671l-556 -671h-61l556 671h61zM491 0l9 44q41 27 68 45t46.5 31.5t33.5 24.5t30 24q91 75 91 141q0 29 -17 44.5t-49 15.5q-13 0 -24.5 -2.5t-26.5 -9.5l-12 -62
q-14 -7 -21.5 -9.5t-16.5 -2.5q-16 0 -25 8t-9 21q0 19 13.5 36.5t35.5 31t50.5 21.5t59.5 8q54 0 84.5 -25t30.5 -69q0 -66 -84 -138q-15 -14 -29 -24.5t-32 -23.5t-44 -30.5t-66 -43.5h168l22 50h40l-22 -106h-304z" />
    <glyph glyph-name="threequarters" unicode="&#xbe;" horiz-adv-x="885" 
d="M99 302q22 -14 48 -14q48 0 79 28t31 71q0 28 -18.5 44.5t-50.5 16.5l-24 -1q-6 -1 -9 -1t-13 -1l6 43q32 0 47.5 2t31.5 9q54 22 54 72q0 27 -17.5 43.5t-46.5 16.5q-14 0 -26.5 -4t-28.5 -13l-9 -57q-23 -9 -36 -9q-14 0 -23.5 9t-9.5 22q0 18 12.5 34t34 28t50 19.5
t59.5 7.5q53 0 83.5 -23t30.5 -62q0 -37 -28 -66t-76 -43q80 -11 80 -79q0 -29 -15.5 -55t-41.5 -46t-60.5 -31.5t-73.5 -11.5q-51 0 -84.5 19.5t-33.5 48.5q0 17 12 27.5t31 10.5q10 0 26 -4zM699 671h61l-556 -671h-61zM707 114h-204l9 44l268 248h46l-49 -245h71l-10 -47
h-70l-28 -136h-61zM716 161l32 160l-170 -160h138z" />
    <glyph glyph-name="questiondown" unicode="&#xbf;" horiz-adv-x="486" 
d="M284 483q23 0 40 -17t17 -40t-17 -40t-40 -17t-40 17t-17 40t17 40t40 17zM263 -64q8 1 11.5 1h7.5q50 0 50 -40q0 -23 -13 -42t-35.5 -33.5t-53 -22.5t-66.5 -8q-82 0 -128 38t-46 107q0 57 30.5 106.5t88.5 88.5q10 7 19.5 12.5t21.5 11.5t28 13.5t39 17.5l23 117h52
l-28 -146q-182 -68 -182 -213q0 -55 28.5 -80t92.5 -27z" />
    <glyph glyph-name="Agrave" unicode="&#xc0;" horiz-adv-x="606" 
d="M-79 38l55 5l369 634h66l107 -616l17 -18l49 -5v-38h-219v38l59 5l7 15l-31 190h-243l-107 -190l8 -15l61 -5v-38h-198v38zM391 291l-46 288l-163 -288h209zM249 893h105l62 -153h-57z" />
    <glyph glyph-name="Aacute" unicode="&#xc1;" horiz-adv-x="606" 
d="M-79 38l55 5l369 634h66l107 -616l17 -18l49 -5v-38h-219v38l59 5l7 15l-31 190h-243l-107 -190l8 -15l61 -5v-38h-198v38zM391 291l-46 288l-163 -288h209zM457 893h108l-188 -153h-59z" />
    <glyph glyph-name="Acircumflex" unicode="&#xc2;" horiz-adv-x="606" 
d="M-79 38l55 5l369 634h66l107 -616l17 -18l49 -5v-38h-219v38l59 5l7 15l-31 190h-243l-107 -190l8 -15l61 -5v-38h-198v38zM391 291l-46 288l-163 -288h209zM375 893h63l76 -153h-57l-59 95l-111 -95h-58z" />
    <glyph glyph-name="Atilde" unicode="&#xc3;" horiz-adv-x="606" 
d="M-79 38l55 5l369 634h66l107 -616l17 -18l49 -5v-38h-219v38l59 5l7 15l-31 190h-243l-107 -190l8 -15l61 -5v-38h-198v38zM391 291l-46 288l-163 -288h209zM220 749q19 107 108 107q18 0 35 -5.5t48 -20.5q21 -11 31.5 -14.5t18.5 -3.5q33 0 46 56h44
q-5 -49 -34.5 -78.5t-73.5 -29.5q-11 0 -19.5 1t-19 4.5t-25 9.5t-36.5 17t-35 11q-16 0 -27 -14t-16 -40h-45z" />
    <glyph glyph-name="Adieresis" unicode="&#xc4;" horiz-adv-x="606" 
d="M-79 38l55 5l369 634h66l107 -616l17 -18l49 -5v-38h-219v38l59 5l7 15l-31 190h-243l-107 -190l8 -15l61 -5v-38h-198v38zM391 291l-46 288l-163 -288h209zM291 855q21 0 36 -15t15 -36t-15.5 -36t-36.5 -15q-20 0 -35 15t-15 36q0 22 14.5 36.5t36.5 14.5zM477 855
q21 0 36 -15t15 -36t-15.5 -36t-36.5 -15q-20 0 -35 15t-15 36q0 22 14.5 36.5t36.5 14.5z" />
    <glyph glyph-name="Aring" unicode="&#xc5;" horiz-adv-x="606" 
d="M-79 38l55 5l369 634h66l107 -616l17 -18l49 -5v-38h-219v38l59 5l7 15l-31 190h-243l-107 -190l8 -15l61 -5v-38h-198v38zM391 291l-46 288l-163 -288h209zM391 940q22 0 41.5 -8.5t34 -23t23 -34t8.5 -41.5q0 -23 -8.5 -42.5t-23 -34t-34.5 -23t-42 -8.5
q-23 0 -42.5 8.5t-34 23t-23 34t-8.5 42.5q0 22 8.5 42t23 34t34.5 22.5t43 8.5zM388 900q-26 0 -45.5 -20t-19.5 -48t19 -47t47 -19t48 19.5t20 46.5q0 28 -20 48t-49 20z" />
    <glyph glyph-name="AE" unicode="&#xc6;" horiz-adv-x="872" 
d="M-115 38l61 13l456 559l-6 15l-58 6v40h541l-29 -146h-47v85l-11 15h-215l-49 -254h152l17 14l23 73h43l-43 -219h-41l4 72l-11 14h-153l-54 -279h255l17 16l35 101h46l-32 -163h-483v38l63 5l16 15l39 198h-241l-159 -195l2 -14l64 -9v-38h-202v38zM430 303l64 338
l-276 -338h212z" />
    <glyph glyph-name="Ccedilla" unicode="&#xc7;" horiz-adv-x="602" 
d="M188 -177q17 -5 29.5 -6.5t28.5 -1.5q34 0 54.5 13.5t20.5 36.5q0 30 -41 30q-5 0 -10 -0.5t-13 -1.5l19 97q-115 13 -176.5 84t-61.5 191q0 87 31.5 163t85.5 133t127 89.5t157 32.5q43 0 84 -7.5t97 -26.5l-28 -154h-42v96l-8 19q-29 14 -52.5 19.5t-52.5 5.5
q-64 0 -119.5 -29t-96 -79t-63.5 -119t-23 -148q0 -109 52.5 -166.5t152.5 -57.5q23 0 41 2.5t47 10.5l19 17l44 115h43l-27 -158q-55 -17 -102 -25.5t-93 -9.5l-10 -49q5 1 8.5 1h8.5q67 0 67 -56q0 -23 -10.5 -43t-28.5 -34t-43 -22t-55 -8q-17 0 -32.5 2.5t-35.5 7.5z
" />
    <glyph glyph-name="Egrave" unicode="&#xc8;" horiz-adv-x="544" 
d="M-26 38l63 5l17 15l107 555l-11 15l-64 5v38h465l-28 -146h-48v85l-11 15h-215l-49 -254h152l18 14l22 73h43l-42 -219h-41l4 72l-12 14h-153l-54 -279h255l18 16l34 101h46l-32 -163h-484v38zM218 893h105l62 -153h-57z" />
    <glyph glyph-name="Eacute" unicode="&#xc9;" horiz-adv-x="544" 
d="M-26 38l63 5l17 15l107 555l-11 15l-64 5v38h465l-28 -146h-48v85l-11 15h-215l-49 -254h152l18 14l22 73h43l-42 -219h-41l4 72l-12 14h-153l-54 -279h255l18 16l34 101h46l-32 -163h-484v38zM426 893h108l-188 -153h-59z" />
    <glyph glyph-name="Ecircumflex" unicode="&#xca;" horiz-adv-x="544" 
d="M-26 38l63 5l17 15l107 555l-11 15l-64 5v38h465l-28 -146h-48v85l-11 15h-215l-49 -254h152l18 14l22 73h43l-42 -219h-41l4 72l-12 14h-153l-54 -279h255l18 16l34 101h46l-32 -163h-484v38zM344 893h63l76 -153h-57l-59 95l-111 -95h-58z" />
    <glyph glyph-name="Edieresis" unicode="&#xcb;" horiz-adv-x="544" 
d="M-26 38l63 5l17 15l107 555l-11 15l-64 5v38h465l-28 -146h-48v85l-11 15h-215l-49 -254h152l18 14l22 73h43l-42 -219h-41l4 72l-12 14h-153l-54 -279h255l18 16l34 101h46l-32 -163h-484v38zM260 855q21 0 36 -15t15 -36t-15.5 -36t-36.5 -15q-20 0 -35 15t-15 36
q0 22 14.5 36.5t36.5 14.5zM446 855q21 0 36 -15t15 -36t-15.5 -36t-36.5 -15q-20 0 -35 15t-15 36q0 22 14.5 36.5t36.5 14.5z" />
    <glyph glyph-name="Igrave" unicode="&#xcc;" horiz-adv-x="312" 
d="M-20 38l64 5l16 15l107 555l-11 15l-64 5v38h244v-38l-66 -5l-16 -15l-107 -555l12 -15l65 -5v-38h-244v38zM103 893h105l62 -153h-57z" />
    <glyph glyph-name="Iacute" unicode="&#xcd;" horiz-adv-x="312" 
d="M-20 38l64 5l16 15l107 555l-11 15l-64 5v38h244v-38l-66 -5l-16 -15l-107 -555l12 -15l65 -5v-38h-244v38zM311 893h108l-188 -153h-59z" />
    <glyph glyph-name="Icircumflex" unicode="&#xce;" horiz-adv-x="312" 
d="M-20 38l64 5l16 15l107 555l-11 15l-64 5v38h244v-38l-66 -5l-16 -15l-107 -555l12 -15l65 -5v-38h-244v38zM229 893h63l76 -153h-57l-59 95l-111 -95h-58z" />
    <glyph glyph-name="Idieresis" unicode="&#xcf;" horiz-adv-x="312" 
d="M-20 38l64 5l16 15l107 555l-11 15l-64 5v38h244v-38l-66 -5l-16 -15l-107 -555l12 -15l65 -5v-38h-244v38zM145 855q21 0 36 -15t15 -36t-15.5 -36t-36.5 -15q-20 0 -35 15t-15 36q0 22 14.5 36.5t36.5 14.5zM331 855q21 0 36 -15t15 -36t-15.5 -36t-36.5 -15
q-20 0 -35 15t-15 36q0 22 14.5 36.5t36.5 14.5z" />
    <glyph glyph-name="Eth" unicode="&#xd0;" horiz-adv-x="657" 
d="M-26 38l64 5l16 15l53 273h-86l5 46h89l46 236l-10 15l-65 5v38h227q154 0 233 -65t79 -192q0 -57 -14 -110.5t-39.5 -100t-62.5 -85t-82 -64.5q-96 -54 -242 -54h-211v38zM197 46q68 0 125.5 20t95.5 57q24 24 44.5 58t35 74t22.5 84t8 88q0 101 -55 149.5t-168 48.5
h-54l-47 -248h150l-9 -46h-150l-53 -285h55z" />
    <glyph glyph-name="Ntilde" unicode="&#xd1;" horiz-adv-x="685" 
d="M-32 38l64 5l16 15l107 555l-10 15l-65 5v38h172v-25l239 -507l92 474l-10 15l-64 5v38h210v-38l-64 -5l-16 -15l-117 -613h-58l-263 556l-97 -498l11 -15l64 -5v-38h-211v38zM259 749q19 107 108 107q18 0 35 -5.5t48 -20.5q21 -11 31.5 -14.5t18.5 -3.5q33 0 46 56h44
q-5 -49 -34.5 -78.5t-73.5 -29.5q-11 0 -19.5 1t-19 4.5t-25 9.5t-36.5 17t-35 11q-16 0 -27 -14t-16 -40h-45z" />
    <glyph glyph-name="Ograve" unicode="&#xd2;" horiz-adv-x="707" 
d="M409 683q57 0 105 -20t82 -56.5t53 -87t19 -111.5q0 -87 -28.5 -163.5t-78 -133.5t-115.5 -90t-141 -33q-59 0 -108 20t-84 56.5t-54 87.5t-19 113q0 50 11.5 99t32.5 94t50.5 84t66.5 68q92 73 208 73zM396 635q-52 0 -99 -31t-82.5 -83.5t-56.5 -121t-21 -144.5
q0 -50 12 -90.5t34.5 -69t54 -44t70.5 -15.5q54 0 102.5 30.5t84.5 88.5q37 57 56.5 124t19.5 135q0 104 -46.5 162.5t-128.5 58.5zM299 893h105l62 -153h-57z" />
    <glyph glyph-name="Oacute" unicode="&#xd3;" horiz-adv-x="707" 
d="M409 683q57 0 105 -20t82 -56.5t53 -87t19 -111.5q0 -87 -28.5 -163.5t-78 -133.5t-115.5 -90t-141 -33q-59 0 -108 20t-84 56.5t-54 87.5t-19 113q0 50 11.5 99t32.5 94t50.5 84t66.5 68q92 73 208 73zM396 635q-52 0 -99 -31t-82.5 -83.5t-56.5 -121t-21 -144.5
q0 -50 12 -90.5t34.5 -69t54 -44t70.5 -15.5q54 0 102.5 30.5t84.5 88.5q37 57 56.5 124t19.5 135q0 104 -46.5 162.5t-128.5 58.5zM507 893h108l-188 -153h-59z" />
    <glyph glyph-name="Ocircumflex" unicode="&#xd4;" horiz-adv-x="707" 
d="M409 683q57 0 105 -20t82 -56.5t53 -87t19 -111.5q0 -87 -28.5 -163.5t-78 -133.5t-115.5 -90t-141 -33q-59 0 -108 20t-84 56.5t-54 87.5t-19 113q0 50 11.5 99t32.5 94t50.5 84t66.5 68q92 73 208 73zM396 635q-52 0 -99 -31t-82.5 -83.5t-56.5 -121t-21 -144.5
q0 -50 12 -90.5t34.5 -69t54 -44t70.5 -15.5q54 0 102.5 30.5t84.5 88.5q37 57 56.5 124t19.5 135q0 104 -46.5 162.5t-128.5 58.5zM425 893h63l76 -153h-57l-59 95l-111 -95h-58z" />
    <glyph glyph-name="Otilde" unicode="&#xd5;" horiz-adv-x="707" 
d="M409 683q57 0 105 -20t82 -56.5t53 -87t19 -111.5q0 -87 -28.5 -163.5t-78 -133.5t-115.5 -90t-141 -33q-59 0 -108 20t-84 56.5t-54 87.5t-19 113q0 50 11.5 99t32.5 94t50.5 84t66.5 68q92 73 208 73zM396 635q-52 0 -99 -31t-82.5 -83.5t-56.5 -121t-21 -144.5
q0 -50 12 -90.5t34.5 -69t54 -44t70.5 -15.5q54 0 102.5 30.5t84.5 88.5q37 57 56.5 124t19.5 135q0 104 -46.5 162.5t-128.5 58.5zM270 749q19 107 108 107q18 0 35 -5.5t48 -20.5q21 -11 31.5 -14.5t18.5 -3.5q33 0 46 56h44q-5 -49 -34.5 -78.5t-73.5 -29.5
q-11 0 -19.5 1t-19 4.5t-25 9.5t-36.5 17t-35 11q-16 0 -27 -14t-16 -40h-45z" />
    <glyph glyph-name="Odieresis" unicode="&#xd6;" horiz-adv-x="707" 
d="M409 683q57 0 105 -20t82 -56.5t53 -87t19 -111.5q0 -87 -28.5 -163.5t-78 -133.5t-115.5 -90t-141 -33q-59 0 -108 20t-84 56.5t-54 87.5t-19 113q0 50 11.5 99t32.5 94t50.5 84t66.5 68q92 73 208 73zM396 635q-52 0 -99 -31t-82.5 -83.5t-56.5 -121t-21 -144.5
q0 -50 12 -90.5t34.5 -69t54 -44t70.5 -15.5q54 0 102.5 30.5t84.5 88.5q37 57 56.5 124t19.5 135q0 104 -46.5 162.5t-128.5 58.5zM341 855q21 0 36 -15t15 -36t-15.5 -36t-36.5 -15q-20 0 -35 15t-15 36q0 22 14.5 36.5t36.5 14.5zM527 855q21 0 36 -15t15 -36t-15.5 -36
t-36.5 -15q-20 0 -35 15t-15 36q0 22 14.5 36.5t36.5 14.5z" />
    <glyph glyph-name="multiply" unicode="&#xd7;" horiz-adv-x="833" 
d="M139 66l232 232l-232 233l39 40l233 -233l232 233l40 -40l-232 -233l232 -232l-40 -40l-232 232l-233 -232z" />
    <glyph glyph-name="Oslash" unicode="&#xd8;" horiz-adv-x="707" 
d="M67 -50l64 99q-47 41 -69 93.5t-22 122.5q0 85 29 161t79 133t116.5 90.5t141.5 33.5q34 0 62 -6t57 -19l55 85l37 -23l-55 -84q54 -42 80 -97.5t26 -130.5q0 -87 -29 -163.5t-78.5 -133.5t-115.5 -90t-141 -33q-76 0 -141 37l-64 -99zM198 79q25 -23 51.5 -33t58.5 -10
q54 0 102 30.5t85 88.5q37 57 56.5 124.5t19.5 136.5q0 102 -47 161zM492 607q-44 28 -93 28q-53 0 -100.5 -29t-82.5 -84q-38 -57 -58.5 -125.5t-20.5 -136.5q0 -89 34 -148z" />
    <glyph glyph-name="Ugrave" unicode="&#xd9;" horiz-adv-x="661" 
d="M149 613l-11 15l-64 5v38h243v-38l-65 -5l-16 -15l-71 -364q-5 -24 -7 -42t-2 -33q0 -125 142 -125q88 0 135.5 46.5t68.5 153.5l71 364l-12 15l-65 5v38h209v-38l-63 -5l-17 -15l-73 -373q-8 -39 -15.5 -67.5t-17 -50t-22 -37.5t-29.5 -31q-35 -32 -86 -49t-114 -17
q-98 0 -150.5 41.5t-52.5 119.5q0 17 2.5 36.5t9.5 54.5zM276 893h105l62 -153h-57z" />
    <glyph glyph-name="Uacute" unicode="&#xda;" horiz-adv-x="661" 
d="M149 613l-11 15l-64 5v38h243v-38l-65 -5l-16 -15l-71 -364q-5 -24 -7 -42t-2 -33q0 -125 142 -125q88 0 135.5 46.5t68.5 153.5l71 364l-12 15l-65 5v38h209v-38l-63 -5l-17 -15l-73 -373q-8 -39 -15.5 -67.5t-17 -50t-22 -37.5t-29.5 -31q-35 -32 -86 -49t-114 -17
q-98 0 -150.5 41.5t-52.5 119.5q0 17 2.5 36.5t9.5 54.5zM484 893h108l-188 -153h-59z" />
    <glyph glyph-name="Ucircumflex" unicode="&#xdb;" horiz-adv-x="661" 
d="M149 613l-11 15l-64 5v38h243v-38l-65 -5l-16 -15l-71 -364q-5 -24 -7 -42t-2 -33q0 -125 142 -125q88 0 135.5 46.5t68.5 153.5l71 364l-12 15l-65 5v38h209v-38l-63 -5l-17 -15l-73 -373q-8 -39 -15.5 -67.5t-17 -50t-22 -37.5t-29.5 -31q-35 -32 -86 -49t-114 -17
q-98 0 -150.5 41.5t-52.5 119.5q0 17 2.5 36.5t9.5 54.5zM402 893h63l76 -153h-57l-59 95l-111 -95h-58z" />
    <glyph glyph-name="Udieresis" unicode="&#xdc;" horiz-adv-x="661" 
d="M149 613l-11 15l-64 5v38h243v-38l-65 -5l-16 -15l-71 -364q-5 -24 -7 -42t-2 -33q0 -125 142 -125q88 0 135.5 46.5t68.5 153.5l71 364l-12 15l-65 5v38h209v-38l-63 -5l-17 -15l-73 -373q-8 -39 -15.5 -67.5t-17 -50t-22 -37.5t-29.5 -31q-35 -32 -86 -49t-114 -17
q-98 0 -150.5 41.5t-52.5 119.5q0 17 2.5 36.5t9.5 54.5zM318 855q21 0 36 -15t15 -36t-15.5 -36t-36.5 -15q-20 0 -35 15t-15 36q0 22 14.5 36.5t36.5 14.5zM504 855q21 0 36 -15t15 -36t-15.5 -36t-36.5 -15q-20 0 -35 15t-15 36q0 22 14.5 36.5t36.5 14.5z" />
    <glyph glyph-name="Yacute" unicode="&#xdd;" horiz-adv-x="562" 
d="M97 38l63 5l16 15l42 214l-112 341l-10 15l-65 5v38h243v-38l-65 -5l-16 -15l90 -283l209 283l-10 15l-64 5v38h224v-38l-66 -5l-16 -15l-254 -332l-44 -223l13 -15l65 -5v-38h-243v38zM435 893h108l-188 -153h-59z" />
    <glyph glyph-name="Thorn" unicode="&#xde;" horiz-adv-x="544" 
d="M-26 38l63 5l16 15l108 555l-12 15l-63 5v38h243v-38l-65 -5l-16 -15l-13 -68h39q56 0 89.5 -4t60.5 -14q45 -17 71 -56t26 -91q0 -56 -22.5 -102.5t-63 -80t-96.5 -52.5t-123 -19h-25.5t-37.5 2l-14 -70l7 -15l64 -5v-38h-236v38zM162 175q13 -1 20 -1h12
q112 0 171 50.5t59 145.5q0 68 -37 99.5t-117 31.5h-13t-31 -1z" />
    <glyph glyph-name="germandbls" unicode="&#xdf;" horiz-adv-x="570" 
d="M-29 -150q15 18 26.5 38.5t21 51t18 74.5t17.5 109l42 287q48 328 273 328q69 0 109 -34t40 -94q0 -30 -7.5 -69t-24.5 -104q-22 2 -29 2.5t-16 0.5q-51 0 -81 -19.5t-30 -51.5q0 -11 3 -20t11 -19t23 -22.5t38 -30.5q32 -24 52 -41t30.5 -31.5t14 -28.5t3.5 -32
q0 -33 -14 -61.5t-38.5 -48.5t-58.5 -31.5t-74 -11.5q-60 0 -95 23.5t-35 63.5q0 23 14 38t37 15q11 0 20 -4t24 -15l-18 -50q16 -20 32 -27.5t41 -7.5q41 0 65.5 22.5t24.5 59.5q0 20 -8.5 36t-30.5 36q-5 4 -8 6.5t-9 7t-16 12.5t-29 22q-34 26 -48.5 50t-14.5 53
q0 60 43.5 100.5t118.5 48.5q6 24 10.5 42.5t7.5 33.5t4 28t1 26q0 41 -22.5 62t-64.5 21q-150 0 -189 -263l-45 -305q-6 -44 -13 -76.5t-15.5 -59t-20 -49t-26.5 -44.5q-36 -53 -77.5 -83t-79.5 -30q-23 0 -38 14.5t-15 37.5q0 24 22 41z" />
    <glyph glyph-name="agrave" unicode="&#xe0;" horiz-adv-x="529" 
d="M492 26q-50 -20 -77 -27.5t-49 -7.5q-31 0 -44.5 19.5t-13.5 64.5q-44 -45 -79 -64.5t-73 -19.5q-63 0 -99 47t-36 128q0 66 21.5 124t58.5 100.5t87.5 67.5t107.5 25q28 0 50 -5t48 -18l20 22h52q-17 -36 -38 -143l-36 -177q-6 -29 -8 -43.5t-2 -27.5q0 -45 51 -45
q9 0 21 2t38 8v-30zM361 382l-40 61q-5 1 -9 1h-7q-43 0 -80 -20.5t-64 -57t-42.5 -86t-15.5 -107.5q0 -121 86 -121q15 0 29 3.5t28 11t29.5 20t33.5 31.5zM189 730h99l60 -190h-50z" />
    <glyph glyph-name="aacute" unicode="&#xe1;" horiz-adv-x="529" 
d="M492 26q-50 -20 -77 -27.5t-49 -7.5q-31 0 -44.5 19.5t-13.5 64.5q-44 -45 -79 -64.5t-73 -19.5q-63 0 -99 47t-36 128q0 66 21.5 124t58.5 100.5t87.5 67.5t107.5 25q28 0 50 -5t48 -18l20 22h52q-17 -36 -38 -143l-36 -177q-6 -29 -8 -43.5t-2 -27.5q0 -45 51 -45
q9 0 21 2t38 8v-30zM361 382l-40 61q-5 1 -9 1h-7q-43 0 -80 -20.5t-64 -57t-42.5 -86t-15.5 -107.5q0 -121 86 -121q15 0 29 3.5t28 11t29.5 20t33.5 31.5zM394 730h99l-183 -190h-49z" />
    <glyph glyph-name="acircumflex" unicode="&#xe2;" horiz-adv-x="529" 
d="M492 26q-50 -20 -77 -27.5t-49 -7.5q-31 0 -44.5 19.5t-13.5 64.5q-44 -45 -79 -64.5t-73 -19.5q-63 0 -99 47t-36 128q0 66 21.5 124t58.5 100.5t87.5 67.5t107.5 25q28 0 50 -5t48 -18l20 22h52q-17 -36 -38 -143l-36 -177q-6 -29 -8 -43.5t-2 -27.5q0 -45 51 -45
q9 0 21 2t38 8v-30zM361 382l-40 61q-5 1 -9 1h-7q-43 0 -80 -20.5t-64 -57t-42.5 -86t-15.5 -107.5q0 -121 86 -121q15 0 29 3.5t28 11t29.5 20t33.5 31.5zM307 730h65l74 -190h-55l-61 141l-114 -141h-55z" />
    <glyph glyph-name="atilde" unicode="&#xe3;" horiz-adv-x="529" 
d="M492 26q-50 -20 -77 -27.5t-49 -7.5q-31 0 -44.5 19.5t-13.5 64.5q-44 -45 -79 -64.5t-73 -19.5q-63 0 -99 47t-36 128q0 66 21.5 124t58.5 100.5t87.5 67.5t107.5 25q28 0 50 -5t48 -18l20 22h52q-17 -36 -38 -143l-36 -177q-6 -29 -8 -43.5t-2 -27.5q0 -45 51 -45
q9 0 21 2t38 8v-30zM361 382l-40 61q-5 1 -9 1h-7q-43 0 -80 -20.5t-64 -57t-42.5 -86t-15.5 -107.5q0 -121 86 -121q15 0 29 3.5t28 11t29.5 20t33.5 31.5zM154 554q21 120 106 120q19 0 36.5 -7t50.5 -27q17 -10 26.5 -14t20.5 -4q37 0 49 67h42q-8 -56 -36.5 -88
t-70.5 -32q-35 0 -90 32q-18 11 -27.5 14.5t-17.5 3.5q-18 0 -30 -17t-16 -48h-43z" />
    <glyph glyph-name="adieresis" unicode="&#xe4;" horiz-adv-x="529" 
d="M492 26q-50 -20 -77 -27.5t-49 -7.5q-31 0 -44.5 19.5t-13.5 64.5q-44 -45 -79 -64.5t-73 -19.5q-63 0 -99 47t-36 128q0 66 21.5 124t58.5 100.5t87.5 67.5t107.5 25q28 0 50 -5t48 -18l20 22h52q-17 -36 -38 -143l-36 -177q-6 -29 -8 -43.5t-2 -27.5q0 -45 51 -45
q9 0 21 2t38 8v-30zM361 382l-40 61q-5 1 -9 1h-7q-43 0 -80 -20.5t-64 -57t-42.5 -86t-15.5 -107.5q0 -121 86 -121q15 0 29 3.5t28 11t29.5 20t33.5 31.5zM225 665q21 0 36 -15t15 -36t-15.5 -36t-36.5 -15q-20 0 -35 15t-15 36q0 22 14.5 36.5t36.5 14.5zM412 665
q20 0 35 -15t15 -36t-15 -36t-36 -15q-20 0 -35.5 15.5t-15.5 35.5q0 21 15 36t37 15z" />
    <glyph glyph-name="aring" unicode="&#xe5;" horiz-adv-x="529" 
d="M492 26q-50 -20 -77 -27.5t-49 -7.5q-31 0 -44.5 19.5t-13.5 64.5q-44 -45 -79 -64.5t-73 -19.5q-63 0 -99 47t-36 128q0 66 21.5 124t58.5 100.5t87.5 67.5t107.5 25q28 0 50 -5t48 -18l20 22h52q-17 -36 -38 -143l-36 -177q-6 -29 -8 -43.5t-2 -27.5q0 -45 51 -45
q9 0 21 2t38 8v-30zM361 382l-40 61q-5 1 -9 1h-7q-43 0 -80 -20.5t-64 -57t-42.5 -86t-15.5 -107.5q0 -121 86 -121q15 0 29 3.5t28 11t29.5 20t33.5 31.5zM324 749q22 0 41.5 -8.5t34 -23t23 -34t8.5 -41.5q0 -46 -31 -77t-77 -31q-23 0 -42.5 8.5t-34 23t-23 34
t-8.5 41.5q0 46 31 77t78 31zM322 708q-26 0 -46 -20t-20 -47t20 -46.5t47 -19.5q28 0 47.5 19.5t19.5 46.5q0 29 -19.5 48t-48.5 19z" />
    <glyph glyph-name="ae" unicode="&#xe6;" horiz-adv-x="675" 
d="M617 81q-94 -90 -194 -90q-45 0 -76 18t-55 59q-51 -38 -99 -57.5t-90 -19.5q-46 0 -73 27.5t-27 74.5q0 147 286 175l12 61q2 13 4 26.5t2 21.5q0 30 -17 46.5t-49 16.5q-16 0 -30.5 -3.5t-37.5 -13.5l-16 -82h-98q1 31 17 57t43.5 45t65 29.5t82.5 10.5q48 0 73 -15.5
t37 -52.5q43 35 78.5 51.5t70.5 16.5q47 0 75 -27t28 -72q0 -69 -72.5 -111.5t-200.5 -50.5q-2 -11 -2.5 -20t-0.5 -22q0 -62 27 -98t74 -36q38 0 76 19t87 63v-47zM283 100q-4 20 -5.5 35.5t-1.5 31.5q0 36 5 64q-101 -14 -144.5 -41t-43.5 -75q0 -31 17 -48t47 -17
q31 0 59.5 11.5t66.5 38.5zM361 256q89 6 142.5 41.5t53.5 88.5q0 23 -15 39t-37 16q-47 0 -84 -47t-60 -138z" />
    <glyph glyph-name="ccedilla" unicode="&#xe7;" horiz-adv-x="398" 
d="M44 -173q14 -4 27 -5.5t30 -1.5q35 0 55.5 13.5t20.5 36.5q0 29 -40 29h-10t-14 -2l19 98q-113 34 -113 179q0 63 21 119t57 98t84 67t101 25q39 0 65.5 -19.5t26.5 -48.5q0 -23 -17 -38t-46 -17l-58 76q-34 0 -62.5 -18.5t-49 -51t-32 -77.5t-11.5 -99
q0 -66 25.5 -102.5t72.5 -36.5q38 0 75.5 19.5t82.5 62.5v-46q-93 -94 -186 -96l-10 -48q8 1 12 1h9q63 0 63 -55q0 -23 -10.5 -42.5t-28.5 -34t-43 -23t-54 -8.5q-17 0 -32 2.5t-37 8.5z" />
    <glyph glyph-name="egrave" unicode="&#xe8;" horiz-adv-x="423" 
d="M365 81q-51 -47 -97 -68.5t-97 -21.5q-72 0 -112 47.5t-40 132.5q0 78 32.5 146.5t90.5 113.5q32 25 66.5 38.5t66.5 13.5q46 0 74 -27t28 -72q0 -69 -70 -110t-203 -52q-3 -24 -3 -43q0 -62 27 -97.5t74 -35.5q38 0 76 19t87 63v-47zM109 256q48 4 79 12.5t57 25.5
q60 38 60 92q0 23 -15 39t-38 16q-46 0 -83.5 -48.5t-59.5 -136.5zM143 730h99l60 -190h-50z" />
    <glyph glyph-name="eacute" unicode="&#xe9;" horiz-adv-x="423" 
d="M365 81q-51 -47 -97 -68.5t-97 -21.5q-72 0 -112 47.5t-40 132.5q0 78 32.5 146.5t90.5 113.5q32 25 66.5 38.5t66.5 13.5q46 0 74 -27t28 -72q0 -69 -70 -110t-203 -52q-3 -24 -3 -43q0 -62 27 -97.5t74 -35.5q38 0 76 19t87 63v-47zM109 256q48 4 79 12.5t57 25.5
q60 38 60 92q0 23 -15 39t-38 16q-46 0 -83.5 -48.5t-59.5 -136.5zM348 730h99l-183 -190h-49z" />
    <glyph glyph-name="ecircumflex" unicode="&#xea;" horiz-adv-x="423" 
d="M365 81q-51 -47 -97 -68.5t-97 -21.5q-72 0 -112 47.5t-40 132.5q0 78 32.5 146.5t90.5 113.5q32 25 66.5 38.5t66.5 13.5q46 0 74 -27t28 -72q0 -69 -70 -110t-203 -52q-3 -24 -3 -43q0 -62 27 -97.5t74 -35.5q38 0 76 19t87 63v-47zM109 256q48 4 79 12.5t57 25.5
q60 38 60 92q0 23 -15 39t-38 16q-46 0 -83.5 -48.5t-59.5 -136.5zM261 730h65l74 -190h-55l-61 141l-114 -141h-55z" />
    <glyph glyph-name="edieresis" unicode="&#xeb;" horiz-adv-x="423" 
d="M365 81q-51 -47 -97 -68.5t-97 -21.5q-72 0 -112 47.5t-40 132.5q0 78 32.5 146.5t90.5 113.5q32 25 66.5 38.5t66.5 13.5q46 0 74 -27t28 -72q0 -69 -70 -110t-203 -52q-3 -24 -3 -43q0 -62 27 -97.5t74 -35.5q38 0 76 19t87 63v-47zM109 256q48 4 79 12.5t57 25.5
q60 38 60 92q0 23 -15 39t-38 16q-46 0 -83.5 -48.5t-59.5 -136.5zM179 665q21 0 36 -15t15 -36t-15.5 -36t-36.5 -15q-20 0 -35 15t-15 36q0 22 14.5 36.5t36.5 14.5zM366 665q20 0 35 -15t15 -36t-15 -36t-36 -15q-20 0 -35.5 15.5t-15.5 35.5q0 21 15 36t37 15z" />
    <glyph glyph-name="igrave" unicode="&#xec;" horiz-adv-x="286" 
d="M253 28q-45 -18 -78.5 -26.5t-62.5 -8.5q-64 0 -64 67q0 11 1.5 22.5t4.5 28.5l59 298l-81 15v25l148 33h26l-72 -374q-2 -6 -2.5 -13.5t-0.5 -11.5q0 -39 46 -39q16 0 32 3.5t44 11.5v-31zM45 730h99l60 -190h-50z" />
    <glyph glyph-name="iacute" unicode="&#xed;" horiz-adv-x="286" 
d="M253 28q-45 -18 -78.5 -26.5t-62.5 -8.5q-64 0 -64 67q0 11 1.5 22.5t4.5 28.5l59 298l-81 15v25l148 33h26l-72 -374q-2 -6 -2.5 -13.5t-0.5 -11.5q0 -39 46 -39q16 0 32 3.5t44 11.5v-31zM250 730h99l-183 -190h-49z" />
    <glyph glyph-name="icircumflex" unicode="&#xee;" horiz-adv-x="286" 
d="M253 28q-45 -18 -78.5 -26.5t-62.5 -8.5q-64 0 -64 67q0 11 1.5 22.5t4.5 28.5l59 298l-81 15v25l148 33h26l-72 -374q-2 -6 -2.5 -13.5t-0.5 -11.5q0 -39 46 -39q16 0 32 3.5t44 11.5v-31zM163 730h65l74 -190h-55l-61 141l-114 -141h-55z" />
    <glyph glyph-name="idieresis" unicode="&#xef;" horiz-adv-x="286" 
d="M253 28q-45 -18 -78.5 -26.5t-62.5 -8.5q-64 0 -64 67q0 11 1.5 22.5t4.5 28.5l59 298l-81 15v25l148 33h26l-72 -374q-2 -6 -2.5 -13.5t-0.5 -11.5q0 -39 46 -39q16 0 32 3.5t44 11.5v-31zM81 665q21 0 36 -15t15 -36t-15.5 -36t-36.5 -15q-20 0 -35 15t-15 36
q0 22 14.5 36.5t36.5 14.5zM268 665q20 0 35 -15t15 -36t-15 -36t-36 -15q-20 0 -35.5 15.5t-15.5 35.5q0 21 15 36t37 15z" />
    <glyph glyph-name="eth" unicode="&#xf0;" horiz-adv-x="490" 
d="M129 559l131 51l-35 51l-78 20l4 28l117 16l61 -87l118 46l15 -35l-112 -45q48 -91 69.5 -163.5t21.5 -142.5q0 -66 -19 -122.5t-52 -97.5t-79 -64t-100 -23q-79 0 -125 50.5t-46 138.5q0 63 19.5 118t53 96t79 65t97.5 24q14 0 26.5 -1.5t32.5 -5.5q-8 18 -12.5 28.5
t-9 20.5t-10 21.5t-14.5 31.5l-139 -56zM338 437q-23 6 -34 7.5t-25 1.5q-88 0 -136 -94q-18 -36 -28 -81t-10 -90q0 -72 25 -111t72 -39q34 0 62.5 19.5t49.5 54.5t33 82.5t12 103.5q0 38 -5 71t-16 75z" />
    <glyph glyph-name="ntilde" unicode="&#xf1;" horiz-adv-x="555" 
d="M114 409l-82 15v25l148 33h25l-18 -96q35 27 62.5 46t50.5 30t43 16t41 5q36 0 58.5 -22t22.5 -57q0 -8 -0.5 -16t-2 -18.5t-4.5 -24t-7 -32.5l-34 -155q-6 -27 -8.5 -42.5t-2.5 -23.5q0 -23 13.5 -36t37.5 -13q20 0 56 9v-28q-24 -9 -41.5 -15t-32 -9.5t-26.5 -5
t-24 -1.5q-69 0 -69 61q0 11 1.5 23.5t6.5 30.5l43 185q5 19 7 36t2 30q0 62 -50 62q-31 0 -67.5 -19.5t-84.5 -63.5l-62 -338h-85zM167 554q21 120 106 120q19 0 36.5 -7t50.5 -27q17 -10 26.5 -14t20.5 -4q37 0 49 67h42q-8 -56 -36.5 -88t-70.5 -32q-35 0 -90 32
q-18 11 -27.5 14.5t-17.5 3.5q-18 0 -30 -17t-16 -48h-43z" />
    <glyph glyph-name="ograve" unicode="&#xf2;" horiz-adv-x="502" 
d="M278 483q39 0 70 -14t53 -39.5t34 -61t12 -79.5q0 -61 -20.5 -115.5t-55 -95t-81.5 -64t-99 -23.5q-39 0 -70.5 13.5t-54 38t-34.5 59.5t-12 78q0 63 20 118.5t55 96.5t82 64.5t101 23.5zM262 443q-33 0 -61.5 -20.5t-49.5 -55.5t-33.5 -82t-12.5 -101q0 -73 25 -113
t71 -40q34 0 63 20t51 55.5t34.5 83t12.5 101.5q0 74 -25.5 113t-74.5 39zM176 730h99l60 -190h-50z" />
    <glyph glyph-name="oacute" unicode="&#xf3;" horiz-adv-x="502" 
d="M278 483q39 0 70 -14t53 -39.5t34 -61t12 -79.5q0 -61 -20.5 -115.5t-55 -95t-81.5 -64t-99 -23.5q-39 0 -70.5 13.5t-54 38t-34.5 59.5t-12 78q0 63 20 118.5t55 96.5t82 64.5t101 23.5zM262 443q-33 0 -61.5 -20.5t-49.5 -55.5t-33.5 -82t-12.5 -101q0 -73 25 -113
t71 -40q34 0 63 20t51 55.5t34.5 83t12.5 101.5q0 74 -25.5 113t-74.5 39zM381 730h99l-183 -190h-49z" />
    <glyph glyph-name="ocircumflex" unicode="&#xf4;" horiz-adv-x="502" 
d="M278 483q39 0 70 -14t53 -39.5t34 -61t12 -79.5q0 -61 -20.5 -115.5t-55 -95t-81.5 -64t-99 -23.5q-39 0 -70.5 13.5t-54 38t-34.5 59.5t-12 78q0 63 20 118.5t55 96.5t82 64.5t101 23.5zM262 443q-33 0 -61.5 -20.5t-49.5 -55.5t-33.5 -82t-12.5 -101q0 -73 25 -113
t71 -40q34 0 63 20t51 55.5t34.5 83t12.5 101.5q0 74 -25.5 113t-74.5 39zM294 730h65l74 -190h-55l-61 141l-114 -141h-55z" />
    <glyph glyph-name="otilde" unicode="&#xf5;" horiz-adv-x="502" 
d="M278 483q39 0 70 -14t53 -39.5t34 -61t12 -79.5q0 -61 -20.5 -115.5t-55 -95t-81.5 -64t-99 -23.5q-39 0 -70.5 13.5t-54 38t-34.5 59.5t-12 78q0 63 20 118.5t55 96.5t82 64.5t101 23.5zM262 443q-33 0 -61.5 -20.5t-49.5 -55.5t-33.5 -82t-12.5 -101q0 -73 25 -113
t71 -40q34 0 63 20t51 55.5t34.5 83t12.5 101.5q0 74 -25.5 113t-74.5 39zM141 554q21 120 106 120q19 0 36.5 -7t50.5 -27q17 -10 26.5 -14t20.5 -4q37 0 49 67h42q-8 -56 -36.5 -88t-70.5 -32q-35 0 -90 32q-18 11 -27.5 14.5t-17.5 3.5q-18 0 -30 -17t-16 -48h-43z" />
    <glyph glyph-name="odieresis" unicode="&#xf6;" horiz-adv-x="502" 
d="M278 483q39 0 70 -14t53 -39.5t34 -61t12 -79.5q0 -61 -20.5 -115.5t-55 -95t-81.5 -64t-99 -23.5q-39 0 -70.5 13.5t-54 38t-34.5 59.5t-12 78q0 63 20 118.5t55 96.5t82 64.5t101 23.5zM262 443q-33 0 -61.5 -20.5t-49.5 -55.5t-33.5 -82t-12.5 -101q0 -73 25 -113
t71 -40q34 0 63 20t51 55.5t34.5 83t12.5 101.5q0 74 -25.5 113t-74.5 39zM212 665q21 0 36 -15t15 -36t-15.5 -36t-36.5 -15q-20 0 -35 15t-15 36q0 22 14.5 36.5t36.5 14.5zM399 665q20 0 35 -15t15 -36t-15 -36t-36 -15q-20 0 -35.5 15.5t-15.5 35.5q0 21 15 36t37 15z
" />
    <glyph glyph-name="divide" unicode="&#xf7;" horiz-adv-x="833" 
d="M413 530q23 0 39 -16.5t16 -39.5t-16.5 -39.5t-39.5 -16.5t-39.5 16.5t-16.5 39.5t16.5 39.5t40.5 16.5zM413 178q23 0 39 -16.5t16 -39.5t-16.5 -39.5t-39.5 -16.5t-39.5 16.5t-16.5 39.5t16.5 39.5t40.5 16.5zM119 327h585v-58h-585v58z" />
    <glyph glyph-name="oslash" unicode="&#xf8;" horiz-adv-x="502" 
d="M33 -63l53 87q-35 32 -50.5 69t-15.5 88q0 63 20 118t55 96t82 64.5t100 23.5q26 0 44.5 -4.5t38.5 -15.5l52 84l28 -18l-54 -84q32 -30 46.5 -68t14.5 -89q0 -61 -20 -115t-55 -94.5t-81.5 -64t-98.5 -23.5q-20 0 -37.5 3.5t-40.5 12.5l-56 -87zM332 416q-28 27 -66 27
q-35 0 -65 -20.5t-53 -55.5t-36 -82t-13 -100q0 -32 4.5 -54t16.5 -50zM141 55q24 -24 60 -24q35 0 65.5 20t53 55t35.5 82.5t13 102.5q0 32 -4 53t-13 42z" />
    <glyph glyph-name="ugrave" unicode="&#xf9;" horiz-adv-x="558" 
d="M516 23q-28 -10 -47.5 -16t-34 -9.5t-25.5 -5t-23 -1.5q-58 0 -58 65v7t1 12q-47 -41 -93.5 -62.5t-88.5 -21.5q-45 0 -70.5 25t-25.5 69q0 24 8 61l58 264l-83 15v25l157 34l16 -14l-63 -292q-11 -50 -11 -73q0 -26 15 -41.5t41 -15.5q32 0 65.5 15t78.5 49l75 362h81
l-71 -327q-5 -22 -7.5 -39t-2.5 -27q0 -18 14 -29.5t37 -11.5q10 0 22 2.5t35 8.5v-28zM204 730h99l60 -190h-50z" />
    <glyph glyph-name="uacute" unicode="&#xfa;" horiz-adv-x="558" 
d="M516 23q-28 -10 -47.5 -16t-34 -9.5t-25.5 -5t-23 -1.5q-58 0 -58 65v7t1 12q-47 -41 -93.5 -62.5t-88.5 -21.5q-45 0 -70.5 25t-25.5 69q0 24 8 61l58 264l-83 15v25l157 34l16 -14l-63 -292q-11 -50 -11 -73q0 -26 15 -41.5t41 -15.5q32 0 65.5 15t78.5 49l75 362h81
l-71 -327q-5 -22 -7.5 -39t-2.5 -27q0 -18 14 -29.5t37 -11.5q10 0 22 2.5t35 8.5v-28zM409 730h99l-183 -190h-49z" />
    <glyph glyph-name="ucircumflex" unicode="&#xfb;" horiz-adv-x="558" 
d="M516 23q-28 -10 -47.5 -16t-34 -9.5t-25.5 -5t-23 -1.5q-58 0 -58 65v7t1 12q-47 -41 -93.5 -62.5t-88.5 -21.5q-45 0 -70.5 25t-25.5 69q0 24 8 61l58 264l-83 15v25l157 34l16 -14l-63 -292q-11 -50 -11 -73q0 -26 15 -41.5t41 -15.5q32 0 65.5 15t78.5 49l75 362h81
l-71 -327q-5 -22 -7.5 -39t-2.5 -27q0 -18 14 -29.5t37 -11.5q10 0 22 2.5t35 8.5v-28zM322 730h65l74 -190h-55l-61 141l-114 -141h-55z" />
    <glyph glyph-name="udieresis" unicode="&#xfc;" horiz-adv-x="558" 
d="M516 23q-28 -10 -47.5 -16t-34 -9.5t-25.5 -5t-23 -1.5q-58 0 -58 65v7t1 12q-47 -41 -93.5 -62.5t-88.5 -21.5q-45 0 -70.5 25t-25.5 69q0 24 8 61l58 264l-83 15v25l157 34l16 -14l-63 -292q-11 -50 -11 -73q0 -26 15 -41.5t41 -15.5q32 0 65.5 15t78.5 49l75 362h81
l-71 -327q-5 -22 -7.5 -39t-2.5 -27q0 -18 14 -29.5t37 -11.5q10 0 22 2.5t35 8.5v-28zM240 665q21 0 36 -15t15 -36t-15.5 -36t-36.5 -15q-20 0 -35 15t-15 36q0 22 14.5 36.5t36.5 14.5zM427 665q20 0 35 -15t15 -36t-15 -36t-36 -15q-20 0 -35.5 15.5t-15.5 35.5
q0 21 15 36t37 15z" />
    <glyph glyph-name="yacute" unicode="&#xfd;" horiz-adv-x="475" 
d="M0 -155q45 3 85.5 43.5t86.5 127.5l-62 304q-7 35 -16.5 59.5t-23.5 44.5l-85 7v22l98 32q5 1 13 1q39 0 58 -42q4 -10 7.5 -18t7.5 -25t10 -47t17 -83l33 -169q24 59 41.5 103t34.5 85t36 85.5t45 106.5h19l79 -26v-21l-51 -30q-15 -17 -26 -33t-23.5 -37.5t-27.5 -52.5
t-37 -79q-23 -51 -42.5 -91.5t-37.5 -73.5t-36 -61t-37 -55q-50 -69 -99 -104t-97 -35q-35 0 -59 19.5t-24 46.5q0 44 54 55zM368 730h99l-183 -190h-49z" />
    <glyph glyph-name="thorn" unicode="&#xfe;" horiz-adv-x="513" 
d="M-69 -188l59 12l10 11l149 835l-89 10v26l152 30h27q-2 -9 -4.5 -24.5t-7.5 -40.5l-44 -250q25 17 46 29t39 19.5t35 10.5t34 3q58 0 91 -46t33 -127q0 -134 -85 -225q-39 -42 -88.5 -65.5t-99.5 -23.5q-21 0 -38 4t-41 15l-33 -186l95 -17v-30h-240v30zM119 67
q25 -14 45 -20.5t41 -6.5q33 0 62.5 16t49.5 45q29 41 45 95t16 111q0 56 -24 89.5t-63 33.5q-25 0 -49.5 -11.5t-65.5 -41.5z" />
    <glyph glyph-name="ydieresis" unicode="&#xff;" horiz-adv-x="475" 
d="M0 -155q45 3 85.5 43.5t86.5 127.5l-62 304q-7 35 -16.5 59.5t-23.5 44.5l-85 7v22l98 32q5 1 13 1q39 0 58 -42q4 -10 7.5 -18t7.5 -25t10 -47t17 -83l33 -169q24 59 41.5 103t34.5 85t36 85.5t45 106.5h19l79 -26v-21l-51 -30q-15 -17 -26 -33t-23.5 -37.5t-27.5 -52.5
t-37 -79q-23 -51 -42.5 -91.5t-37.5 -73.5t-36 -61t-37 -55q-50 -69 -99 -104t-97 -35q-35 0 -59 19.5t-24 46.5q0 44 54 55zM199 665q21 0 36 -15t15 -36t-15.5 -36t-36.5 -15q-20 0 -35 15t-15 36q0 22 14.5 36.5t36.5 14.5zM386 665q20 0 35 -15t15 -36t-15 -36t-36 -15
q-20 0 -35.5 15.5t-15.5 35.5q0 21 15 36t37 15z" />
    <glyph glyph-name="Amacron" unicode="&#x100;" horiz-adv-x="606" 
d="M-79 38l55 5l369 634h66l107 -616l17 -18l49 -5v-38h-219v38l59 5l7 15l-31 190h-243l-107 -190l8 -15l61 -5v-38h-198v38zM391 291l-46 288l-163 -288h209zM236 817h301l-9 -51h-301z" />
    <glyph glyph-name="amacron" unicode="&#x101;" horiz-adv-x="529" 
d="M492 26q-50 -20 -77 -27.5t-49 -7.5q-31 0 -44.5 19.5t-13.5 64.5q-44 -45 -79 -64.5t-73 -19.5q-63 0 -99 47t-36 128q0 66 21.5 124t58.5 100.5t87.5 67.5t107.5 25q28 0 50 -5t48 -18l20 22h52q-17 -36 -38 -143l-36 -177q-6 -29 -8 -43.5t-2 -27.5q0 -45 51 -45
q9 0 21 2t38 8v-30zM361 382l-40 61q-5 1 -9 1h-7q-43 0 -80 -20.5t-64 -57t-42.5 -86t-15.5 -107.5q0 -121 86 -121q15 0 29 3.5t28 11t29.5 20t33.5 31.5zM170 626h301l-9 -51h-301z" />
    <glyph glyph-name="Abreve" unicode="&#x102;" horiz-adv-x="606" 
d="M-79 38l55 5l369 634h66l107 -616l17 -18l49 -5v-38h-219v38l59 5l7 15l-31 190h-243l-107 -190l8 -15l61 -5v-38h-198v38zM391 291l-46 288l-163 -288h209zM298 885q-1 -5 -1 -10v-9q0 -31 20 -45.5t65 -14.5q29 0 49 4t34 13t22.5 24t14.5 38h39q-15 -75 -54.5 -108.5
t-111.5 -33.5q-120 0 -120 100q0 8 0.5 16.5t2.5 25.5h40z" />
    <glyph glyph-name="abreve" unicode="&#x103;" horiz-adv-x="529" 
d="M492 26q-50 -20 -77 -27.5t-49 -7.5q-31 0 -44.5 19.5t-13.5 64.5q-44 -45 -79 -64.5t-73 -19.5q-63 0 -99 47t-36 128q0 66 21.5 124t58.5 100.5t87.5 67.5t107.5 25q28 0 50 -5t48 -18l20 22h52q-17 -36 -38 -143l-36 -177q-6 -29 -8 -43.5t-2 -27.5q0 -45 51 -45
q9 0 21 2t38 8v-30zM361 382l-40 61q-5 1 -9 1h-7q-43 0 -80 -20.5t-64 -57t-42.5 -86t-15.5 -107.5q0 -121 86 -121q15 0 29 3.5t28 11t29.5 20t33.5 31.5zM232 694q-1 -5 -1 -10v-9q0 -31 20 -45.5t65 -14.5q29 0 49 4t34 13t22.5 24t14.5 38h39q-15 -75 -54.5 -108.5
t-111.5 -33.5q-120 0 -120 100q0 8 0.5 16.5t2.5 25.5h40z" />
    <glyph glyph-name="Aogonek" unicode="&#x104;" horiz-adv-x="606" 
d="M483 -160l5 1l-10 -50q-15 -5 -27.5 -6.5t-25.5 -1.5q-39 0 -60 16.5t-21 46.5q0 42 22.5 79t72.5 75h-74v38l59 5l7 15l-31 190h-243l-107 -190l8 -15l61 -5v-38h-198v38l55 5l369 634h66l107 -616l17 -18l49 -5v-38h-102q-75 -62 -75 -122q0 -18 12 -29.5t32 -11.5h8.5
t9.5 1zM391 291l-46 288l-163 -288h209z" />
    <glyph glyph-name="aogonek" unicode="&#x105;" horiz-adv-x="529" 
d="M376 -160l5 1l-10 -50q-15 -5 -27.5 -6.5t-25.5 -1.5q-39 0 -60 16.5t-21 46.5q0 42 22.5 79t72.5 75q-24 17 -24 75q-44 -45 -79 -64.5t-73 -19.5q-63 0 -99 47t-36 128q0 66 21.5 124t58.5 100.5t87.5 67.5t107.5 25q28 0 50 -5t48 -18l20 22h52q-17 -36 -38 -143
l-36 -177q-6 -29 -8 -43.5t-2 -27.5q0 -45 51 -45q9 0 21 2t38 8v-30q-50 -20 -77 -27.5t-49 -7.5h-2q-64 -57 -64 -113q0 -18 12 -29.5t32 -11.5h8.5t9.5 1zM361 382l-40 61q-5 1 -9 1h-7q-43 0 -80 -20.5t-64 -57t-42.5 -86t-15.5 -107.5q0 -121 86 -121q15 0 29 3.5
t28 11t29.5 20t33.5 31.5z" />
    <glyph glyph-name="Cacute" unicode="&#x106;" horiz-adv-x="602" 
d="M447 66l44 115h43l-27 -158q-60 -19 -106.5 -27t-91.5 -8q-62 0 -112.5 19.5t-85.5 55.5t-54 87t-19 115q0 87 31.5 163t85.5 133t127 89.5t157 32.5q43 0 84 -7.5t97 -26.5l-28 -154h-42v96l-8 19q-29 14 -52.5 19.5t-52.5 5.5q-64 0 -119.5 -29t-96 -79t-63.5 -119
t-23 -148q0 -109 52.5 -166.5t152.5 -57.5q23 0 41 2.5t47 10.5zM505 893h108l-188 -153h-59z" />
    <glyph glyph-name="cacute" unicode="&#x107;" horiz-adv-x="398" 
d="M354 87q-95 -96 -189 -96q-67 0 -106.5 49.5t-39.5 133.5q0 63 21 119t57 98t84 67t101 25q39 0 65.5 -19.5t26.5 -48.5q0 -23 -17 -38t-46 -17l-58 76q-34 0 -62.5 -18.5t-49 -51t-32 -77.5t-11.5 -99q0 -66 25.5 -102.5t72.5 -36.5q38 0 75.5 19.5t82.5 62.5v-46z
M340 730h99l-183 -190h-49z" />
    <glyph glyph-name="Ccircumflex" unicode="&#x108;" horiz-adv-x="602" 
d="M447 66l44 115h43l-27 -158q-60 -19 -106.5 -27t-91.5 -8q-62 0 -112.5 19.5t-85.5 55.5t-54 87t-19 115q0 87 31.5 163t85.5 133t127 89.5t157 32.5q43 0 84 -7.5t97 -26.5l-28 -154h-42v96l-8 19q-29 14 -52.5 19.5t-52.5 5.5q-64 0 -119.5 -29t-96 -79t-63.5 -119
t-23 -148q0 -109 52.5 -166.5t152.5 -57.5q23 0 41 2.5t47 10.5zM423 893h63l76 -153h-57l-59 95l-111 -95h-58z" />
    <glyph glyph-name="ccircumflex" unicode="&#x109;" horiz-adv-x="398" 
d="M354 87q-95 -96 -189 -96q-67 0 -106.5 49.5t-39.5 133.5q0 63 21 119t57 98t84 67t101 25q39 0 65.5 -19.5t26.5 -48.5q0 -23 -17 -38t-46 -17l-58 76q-34 0 -62.5 -18.5t-49 -51t-32 -77.5t-11.5 -99q0 -66 25.5 -102.5t72.5 -36.5q38 0 75.5 19.5t82.5 62.5v-46z
M253 730h65l74 -190h-55l-61 141l-114 -141h-55z" />
    <glyph glyph-name="Cdotaccent" unicode="&#x10a;" horiz-adv-x="602" 
d="M447 66l44 115h43l-27 -158q-60 -19 -106.5 -27t-91.5 -8q-62 0 -112.5 19.5t-85.5 55.5t-54 87t-19 115q0 87 31.5 163t85.5 133t127 89.5t157 32.5q43 0 84 -7.5t97 -26.5l-28 -154h-42v96l-8 19q-29 14 -52.5 19.5t-52.5 5.5q-64 0 -119.5 -29t-96 -79t-63.5 -119
t-23 -148q0 -109 52.5 -166.5t152.5 -57.5q23 0 41 2.5t47 10.5zM433 864q23 0 40 -17t17 -40t-17 -40t-41 -17q-23 0 -39.5 17t-16.5 40q0 24 16.5 40.5t40.5 16.5z" />
    <glyph glyph-name="cdotaccent" unicode="&#x10b;" horiz-adv-x="398" 
d="M354 87q-95 -96 -189 -96q-67 0 -106.5 49.5t-39.5 133.5q0 63 21 119t57 98t84 67t101 25q39 0 65.5 -19.5t26.5 -48.5q0 -23 -17 -38t-46 -17l-58 76q-34 0 -62.5 -18.5t-49 -51t-32 -77.5t-11.5 -99q0 -66 25.5 -102.5t72.5 -36.5q38 0 75.5 19.5t82.5 62.5v-46z
M265 674q23 0 40 -17t17 -40t-17 -40t-41 -17q-23 0 -39.5 17t-16.5 40q0 24 16.5 40.5t40.5 16.5z" />
    <glyph glyph-name="Ccaron" unicode="&#x10c;" horiz-adv-x="602" 
d="M447 66l44 115h43l-27 -158q-60 -19 -106.5 -27t-91.5 -8q-62 0 -112.5 19.5t-85.5 55.5t-54 87t-19 115q0 87 31.5 163t85.5 133t127 89.5t157 32.5q43 0 84 -7.5t97 -26.5l-28 -154h-42v96l-8 19q-29 14 -52.5 19.5t-52.5 5.5q-64 0 -119.5 -29t-96 -79t-63.5 -119
t-23 -148q0 -109 52.5 -166.5t152.5 -57.5q23 0 41 2.5t47 10.5zM305 893h57l62 -98l113 98h58l-149 -153h-65z" />
    <glyph glyph-name="ccaron" unicode="&#x10d;" horiz-adv-x="398" 
d="M354 87q-95 -96 -189 -96q-67 0 -106.5 49.5t-39.5 133.5q0 63 21 119t57 98t84 67t101 25q39 0 65.5 -19.5t26.5 -48.5q0 -23 -17 -38t-46 -17l-58 76q-34 0 -62.5 -18.5t-49 -51t-32 -77.5t-11.5 -99q0 -66 25.5 -102.5t72.5 -36.5q38 0 75.5 19.5t82.5 62.5v-46z
M144 730h56l60 -141l115 141h54l-146 -190h-65z" />
    <glyph glyph-name="Dcaron" unicode="&#x10e;" horiz-adv-x="657" 
d="M-26 38l64 5l16 15l107 555l-10 15l-65 5v38h227q154 0 233 -65t79 -192q0 -57 -14 -110.5t-39.5 -100t-62.5 -85t-82 -64.5q-96 -54 -242 -54h-211v38zM197 46q66 0 124.5 20t96.5 57q24 23 44.5 57t35 74.5t22.5 85t8 88.5q0 197 -223 197h-54l-109 -579h55zM282 893
h57l62 -98l113 98h58l-149 -153h-65z" />
    <glyph glyph-name="dcaron" unicode="&#x10f;" horiz-adv-x="529" 
d="M496 22q-44 -15 -73 -22t-52 -7q-65 0 -65 73v8t1 10q-74 -93 -157 -93q-61 0 -95.5 47.5t-34.5 130.5q0 76 27.5 139t80.5 109q37 32 80 49t87 17q21 0 39 -3t40 -11l35 201l-88 8v28l153 30h26l-107 -599q-3 -19 -4.5 -31.5t-1.5 -23.5q0 -40 42 -40q14 0 28 2t39 8
v-30zM359 384l-48 57q-11 2 -16.5 2.5t-10.5 0.5q-36 0 -68.5 -22t-58 -59t-40.5 -85.5t-15 -101.5q0 -60 22 -94t60 -34q32 0 63.5 20t67.5 65zM580 701q5 15 17 25t29 10q14 0 23.5 -8t9.5 -22q0 -10 -6 -21t-16 -25l-90 -125h-41z" />
    <glyph glyph-name="Dcroat" unicode="&#x110;" horiz-adv-x="657" 
d="M-26 38l64 5l16 15l53 273h-86l5 46h89l46 236l-10 15l-65 5v38h227q154 0 233 -65t79 -192q0 -57 -14 -110.5t-39.5 -100t-62.5 -85t-82 -64.5q-96 -54 -242 -54h-211v38zM197 46q68 0 125.5 20t95.5 57q24 24 44.5 58t35 74t22.5 84t8 88q0 101 -55 149.5t-168 48.5
h-54l-47 -248h150l-9 -46h-150l-53 -285h55z" />
    <glyph glyph-name="dcroat" unicode="&#x111;" horiz-adv-x="529" 
d="M496 22q-44 -15 -73 -22t-52 -7q-65 0 -65 73l1 18q-74 -93 -157 -93q-61 0 -95.5 47.5t-34.5 130.5q0 76 27.5 139t80.5 109q37 32 80 49t87 17q21 0 39 -3t40 -11l15 88h-152l8 43h152l12 70l-88 8v28l153 30h26l-25 -136h64l-8 -43h-63l-75 -420q-3 -19 -4.5 -31.5
t-1.5 -23.5q0 -40 42 -40q14 0 28 2t39 8v-30zM359 384l-48 57q-11 2 -16.5 2.5t-10.5 0.5q-36 0 -68.5 -22t-58 -59t-40.5 -85.5t-15 -101.5q0 -60 22 -94t60 -34q32 0 63.5 20t67.5 65z" />
    <glyph glyph-name="Emacron" unicode="&#x112;" horiz-adv-x="544" 
d="M-26 38l63 5l17 15l107 555l-11 15l-64 5v38h465l-28 -146h-48v85l-11 15h-215l-49 -254h152l18 14l22 73h43l-42 -219h-41l4 72l-12 14h-153l-54 -279h255l18 16l34 101h46l-32 -163h-484v38zM205 817h301l-9 -51h-301z" />
    <glyph glyph-name="emacron" unicode="&#x113;" horiz-adv-x="423" 
d="M365 81q-51 -47 -97 -68.5t-97 -21.5q-72 0 -112 47.5t-40 132.5q0 78 32.5 146.5t90.5 113.5q32 25 66.5 38.5t66.5 13.5q46 0 74 -27t28 -72q0 -69 -70 -110t-203 -52q-3 -24 -3 -43q0 -62 27 -97.5t74 -35.5q38 0 76 19t87 63v-47zM109 256q48 4 79 12.5t57 25.5
q60 38 60 92q0 23 -15 39t-38 16q-46 0 -83.5 -48.5t-59.5 -136.5zM124 626h301l-9 -51h-301z" />
    <glyph glyph-name="Ebreve" unicode="&#x114;" horiz-adv-x="544" 
d="M-26 38l63 5l17 15l107 555l-11 15l-64 5v38h465l-28 -146h-48v85l-11 15h-215l-49 -254h152l18 14l22 73h43l-42 -219h-41l4 72l-12 14h-153l-54 -279h255l18 16l34 101h46l-32 -163h-484v38zM267 885q-1 -5 -1 -10v-9q0 -31 20 -45.5t65 -14.5q29 0 49 4t34 13t22.5 24
t14.5 38h39q-15 -75 -54.5 -108.5t-111.5 -33.5q-120 0 -120 100q0 8 0.5 16.5t2.5 25.5h40z" />
    <glyph glyph-name="ebreve" unicode="&#x115;" horiz-adv-x="423" 
d="M365 81q-51 -47 -97 -68.5t-97 -21.5q-72 0 -112 47.5t-40 132.5q0 78 32.5 146.5t90.5 113.5q32 25 66.5 38.5t66.5 13.5q46 0 74 -27t28 -72q0 -69 -70 -110t-203 -52q-3 -24 -3 -43q0 -62 27 -97.5t74 -35.5q38 0 76 19t87 63v-47zM109 256q48 4 79 12.5t57 25.5
q60 38 60 92q0 23 -15 39t-38 16q-46 0 -83.5 -48.5t-59.5 -136.5zM186 694q-1 -5 -1 -10v-9q0 -31 20 -45.5t65 -14.5q29 0 49 4t34 13t22.5 24t14.5 38h39q-15 -75 -54.5 -108.5t-111.5 -33.5q-120 0 -120 100q0 8 0.5 16.5t2.5 25.5h40z" />
    <glyph glyph-name="Edotaccent" unicode="&#x116;" horiz-adv-x="544" 
d="M-26 38l63 5l17 15l107 555l-11 15l-64 5v38h465l-28 -146h-48v85l-11 15h-215l-49 -254h152l18 14l22 73h43l-42 -219h-41l4 72l-12 14h-153l-54 -279h255l18 16l34 101h46l-32 -163h-484v38zM354 864q23 0 40 -17t17 -40t-17 -40t-41 -17q-23 0 -39.5 17t-16.5 40
q0 24 16.5 40.5t40.5 16.5z" />
    <glyph glyph-name="edotaccent" unicode="&#x117;" horiz-adv-x="423" 
d="M365 81q-51 -47 -97 -68.5t-97 -21.5q-72 0 -112 47.5t-40 132.5q0 78 32.5 146.5t90.5 113.5q32 25 66.5 38.5t66.5 13.5q46 0 74 -27t28 -72q0 -69 -70 -110t-203 -52q-3 -24 -3 -43q0 -62 27 -97.5t74 -35.5q38 0 76 19t87 63v-47zM109 256q48 4 79 12.5t57 25.5
q60 38 60 92q0 23 -15 39t-38 16q-46 0 -83.5 -48.5t-59.5 -136.5zM273 674q23 0 40 -17t17 -40t-17 -40t-41 -17q-23 0 -39.5 17t-16.5 40q0 24 16.5 40.5t40.5 16.5z" />
    <glyph glyph-name="Eogonek" unicode="&#x118;" horiz-adv-x="544" 
d="M422 -160l5 1l-10 -50q-15 -5 -27.5 -6.5t-25.5 -1.5q-39 0 -60 16.5t-21 46.5q0 42 22.5 79t72.5 75h-404v38l63 5l17 15l107 555l-11 15l-64 5v38h465l-28 -146h-48v85l-11 15h-215l-49 -254h152l18 14l22 73h43l-42 -219h-41l4 72l-12 14h-153l-54 -279h255l18 16
l34 101h46l-32 -163h-37q-75 -62 -75 -122q0 -18 12 -29.5t32 -11.5h8.5t9.5 1z" />
    <glyph glyph-name="eogonek" unicode="&#x119;" horiz-adv-x="423" 
d="M235 -160l5 1l-10 -50q-15 -5 -27.5 -6.5t-25.5 -1.5q-39 0 -60 16.5t-21 46.5q0 40 19.5 75t63.5 70h-8q-72 0 -112 47.5t-40 132.5q0 78 32.5 146.5t90.5 113.5q32 25 66.5 38.5t66.5 13.5q46 0 74 -27t28 -72q0 -69 -70 -110t-203 -52q-3 -24 -3 -43q0 -62 27 -97.5
t74 -35.5q38 0 76 19t87 63v-47q-68 -64 -132 -81q-74 -62 -74 -122q0 -18 12 -29.5t32 -11.5h8.5t9.5 1zM109 256q48 4 79 12.5t57 25.5q60 38 60 92q0 23 -15 39t-38 16q-46 0 -83.5 -48.5t-59.5 -136.5z" />
    <glyph glyph-name="Ecaron" unicode="&#x11a;" horiz-adv-x="544" 
d="M-26 38l63 5l17 15l107 555l-11 15l-64 5v38h465l-28 -146h-48v85l-11 15h-215l-49 -254h152l18 14l22 73h43l-42 -219h-41l4 72l-12 14h-153l-54 -279h255l18 16l34 101h46l-32 -163h-484v38zM226 893h57l62 -98l113 98h58l-149 -153h-65z" />
    <glyph glyph-name="ecaron" unicode="&#x11b;" horiz-adv-x="423" 
d="M365 81q-51 -47 -97 -68.5t-97 -21.5q-72 0 -112 47.5t-40 132.5q0 78 32.5 146.5t90.5 113.5q32 25 66.5 38.5t66.5 13.5q46 0 74 -27t28 -72q0 -69 -70 -110t-203 -52q-3 -24 -3 -43q0 -62 27 -97.5t74 -35.5q38 0 76 19t87 63v-47zM109 256q48 4 79 12.5t57 25.5
q60 38 60 92q0 23 -15 39t-38 16q-46 0 -83.5 -48.5t-59.5 -136.5zM152 730h56l60 -141l115 141h54l-146 -190h-65z" />
    <glyph glyph-name="Gcircumflex" unicode="&#x11c;" horiz-adv-x="663" 
d="M478 264l-10 14l-65 5v39h246v-39l-64 -5l-16 -14l-47 -241q-66 -18 -116.5 -26.5t-93.5 -8.5q-62 0 -112.5 20t-86.5 56.5t-55.5 88t-19.5 114.5q0 97 42 182.5t120 145.5q112 88 262 88q49 0 90.5 -7t85.5 -22l-29 -159h-53l3 94l-9 21q-28 14 -51.5 19.5t-50.5 5.5
q-65 0 -122 -29.5t-99.5 -80t-67 -118.5t-24.5 -146q0 -104 53.5 -164.5t145.5 -60.5q21 0 42.5 3t63.5 12zM423 893h63l76 -153h-57l-59 95l-111 -95h-58z" />
    <glyph glyph-name="gcircumflex" unicode="&#x11d;" horiz-adv-x="479" 
d="M319 30q78 -35 78 -97q0 -31 -19.5 -58.5t-52.5 -48t-77 -32.5t-93 -12q-86 0 -137 36t-51 97q0 47 31 79.5t102 59.5q-1 6 -1 9v8q0 25 9 47t31 50q-48 20 -70 50.5t-22 73.5q0 39 15.5 74t41.5 61t61.5 41t75.5 15q24 0 44.5 -5.5t49.5 -19.5h143v-43h-103
q7 -19 10 -34t3 -34q0 -59 -31.5 -105t-87.5 -67q-21 -8 -42.5 -11t-53.5 -3q-8 -14 -10.5 -27t-2.5 -32zM241 446q-23 0 -44 -13.5t-36.5 -36.5t-25 -53t-9.5 -63q0 -41 17 -63.5t49 -22.5q23 0 44.5 13t37.5 35t25.5 51t9.5 61q0 44 -18 68t-50 24zM137 34
q-91 -24 -91 -99q0 -50 37.5 -80.5t99.5 -30.5q29 0 54 6.5t44 18.5t29.5 28t10.5 34q0 38 -57 64zM283 730h65l74 -190h-55l-61 141l-114 -141h-55z" />
    <glyph glyph-name="Gbreve" unicode="&#x11e;" horiz-adv-x="663" 
d="M478 264l-10 14l-65 5v39h246v-39l-64 -5l-16 -14l-47 -241q-66 -18 -116.5 -26.5t-93.5 -8.5q-62 0 -112.5 20t-86.5 56.5t-55.5 88t-19.5 114.5q0 97 42 182.5t120 145.5q112 88 262 88q49 0 90.5 -7t85.5 -22l-29 -159h-53l3 94l-9 21q-28 14 -51.5 19.5t-50.5 5.5
q-65 0 -122 -29.5t-99.5 -80t-67 -118.5t-24.5 -146q0 -104 53.5 -164.5t145.5 -60.5q21 0 42.5 3t63.5 12zM346 885q-1 -5 -1 -10v-9q0 -31 20 -45.5t65 -14.5q29 0 49 4t34 13t22.5 24t14.5 38h39q-15 -75 -54.5 -108.5t-111.5 -33.5q-120 0 -120 100q0 8 0.5 16.5
t2.5 25.5h40z" />
    <glyph glyph-name="gbreve" unicode="&#x11f;" horiz-adv-x="479" 
d="M319 30q78 -35 78 -97q0 -31 -19.5 -58.5t-52.5 -48t-77 -32.5t-93 -12q-86 0 -137 36t-51 97q0 47 31 79.5t102 59.5q-1 6 -1 9v8q0 25 9 47t31 50q-48 20 -70 50.5t-22 73.5q0 39 15.5 74t41.5 61t61.5 41t75.5 15q24 0 44.5 -5.5t49.5 -19.5h143v-43h-103
q7 -19 10 -34t3 -34q0 -59 -31.5 -105t-87.5 -67q-21 -8 -42.5 -11t-53.5 -3q-8 -14 -10.5 -27t-2.5 -32zM241 446q-23 0 -44 -13.5t-36.5 -36.5t-25 -53t-9.5 -63q0 -41 17 -63.5t49 -22.5q23 0 44.5 13t37.5 35t25.5 51t9.5 61q0 44 -18 68t-50 24zM137 34
q-91 -24 -91 -99q0 -50 37.5 -80.5t99.5 -30.5q29 0 54 6.5t44 18.5t29.5 28t10.5 34q0 38 -57 64zM208 694q-1 -5 -1 -10v-9q0 -31 20 -45.5t65 -14.5q29 0 49 4t34 13t22.5 24t14.5 38h39q-15 -75 -54.5 -108.5t-111.5 -33.5q-120 0 -120 100q0 8 0.5 16.5t2.5 25.5h40z
" />
    <glyph glyph-name="Gdotaccent" unicode="&#x120;" horiz-adv-x="663" 
d="M478 264l-10 14l-65 5v39h246v-39l-64 -5l-16 -14l-47 -241q-66 -18 -116.5 -26.5t-93.5 -8.5q-62 0 -112.5 20t-86.5 56.5t-55.5 88t-19.5 114.5q0 97 42 182.5t120 145.5q112 88 262 88q49 0 90.5 -7t85.5 -22l-29 -159h-53l3 94l-9 21q-28 14 -51.5 19.5t-50.5 5.5
q-65 0 -122 -29.5t-99.5 -80t-67 -118.5t-24.5 -146q0 -104 53.5 -164.5t145.5 -60.5q21 0 42.5 3t63.5 12zM433 864q23 0 40 -17t17 -40t-17 -40t-41 -17q-23 0 -39.5 17t-16.5 40q0 24 16.5 40.5t40.5 16.5z" />
    <glyph glyph-name="gdotaccent" unicode="&#x121;" horiz-adv-x="479" 
d="M319 30q78 -35 78 -97q0 -31 -19.5 -58.5t-52.5 -48t-77 -32.5t-93 -12q-86 0 -137 36t-51 97q0 47 31 79.5t102 59.5q-1 6 -1 9v8q0 25 9 47t31 50q-48 20 -70 50.5t-22 73.5q0 39 15.5 74t41.5 61t61.5 41t75.5 15q24 0 44.5 -5.5t49.5 -19.5h143v-43h-103
q7 -19 10 -34t3 -34q0 -59 -31.5 -105t-87.5 -67q-21 -8 -42.5 -11t-53.5 -3q-8 -14 -10.5 -27t-2.5 -32zM241 446q-23 0 -44 -13.5t-36.5 -36.5t-25 -53t-9.5 -63q0 -41 17 -63.5t49 -22.5q23 0 44.5 13t37.5 35t25.5 51t9.5 61q0 44 -18 68t-50 24zM137 34
q-91 -24 -91 -99q0 -50 37.5 -80.5t99.5 -30.5q29 0 54 6.5t44 18.5t29.5 28t10.5 34q0 38 -57 64zM295 674q23 0 40 -17t17 -40t-17 -40t-41 -17q-23 0 -39.5 17t-16.5 40q0 24 16.5 40.5t40.5 16.5z" />
    <glyph glyph-name="Gcommaaccent" unicode="&#x122;" horiz-adv-x="663" 
d="M478 264l-10 14l-65 5v39h246v-39l-64 -5l-16 -14l-47 -241q-66 -18 -116.5 -26.5t-93.5 -8.5q-62 0 -112.5 20t-86.5 56.5t-55.5 88t-19.5 114.5q0 97 42 182.5t120 145.5q112 88 262 88q49 0 90.5 -7t85.5 -22l-29 -159h-53l3 94l-9 21q-28 14 -51.5 19.5t-50.5 5.5
q-65 0 -122 -29.5t-99.5 -80t-67 -118.5t-24.5 -146q0 -104 53.5 -164.5t145.5 -60.5q21 0 42.5 3t63.5 12zM247 -80q7 15 18.5 25t28.5 10q14 0 23.5 -8t9.5 -22q0 -11 -6.5 -21.5t-16.5 -24.5l-89 -125h-41z" />
    <glyph glyph-name="gcommaaccent" unicode="&#x123;" horiz-adv-x="479" 
d="M319 30q78 -35 78 -97q0 -31 -19.5 -58.5t-52.5 -48t-77 -32.5t-93 -12q-86 0 -137 36t-51 97q0 47 31 79.5t102 59.5q-1 6 -1 9v8q0 25 9 47t31 50q-48 20 -70 50.5t-22 73.5q0 39 15.5 74t41.5 61t61.5 41t75.5 15q24 0 44.5 -5.5t49.5 -19.5h143v-43h-103
q7 -19 10 -34t3 -34q0 -59 -31.5 -105t-87.5 -67q-21 -8 -42.5 -11t-53.5 -3q-8 -14 -10.5 -27t-2.5 -32zM241 446q-23 0 -44 -13.5t-36.5 -36.5t-25 -53t-9.5 -63q0 -41 17 -63.5t49 -22.5q23 0 44.5 13t37.5 35t25.5 51t9.5 61q0 44 -18 68t-50 24zM137 34
q-91 -24 -91 -99q0 -50 37.5 -80.5t99.5 -30.5q29 0 54 6.5t44 18.5t29.5 28t10.5 34q0 38 -57 64zM339 747h41l-73 -166q-7 -15 -18.5 -25t-28.5 -10q-15 0 -24 8t-9 22q0 11 6 21.5t17 24.5z" />
    <glyph glyph-name="Hcircumflex" unicode="&#x124;" horiz-adv-x="712" 
d="M-26 38l64 5l16 15l107 555l-10 15l-65 5v38h244v-38l-66 -5l-15 -15l-47 -239h326l47 239l-12 15l-64 5v38h244v-38l-66 -5l-16 -15l-106 -555l10 -15l64 -5v-38h-242v38l65 5l15 15l51 270h-325l-52 -270l12 -15l64 -5v-38h-243v38zM428 893h63l76 -153h-57l-59 95
l-111 -95h-58z" />
    <glyph glyph-name="hcircumflex" unicode="&#x125;" horiz-adv-x="547" 
d="M160 670l-94 10v26l157 30h31q-14 -53 -23 -94t-17 -83l-33 -171q34 27 61 45t50 29t43 16t41 5q36 0 58.5 -22t22.5 -58q0 -16 -3 -35t-11 -55l-35 -155q-10 -44 -10 -65q0 -50 51 -50q20 0 56 9v-27q-43 -17 -72 -24.5t-51 -7.5q-70 0 -70 62q0 25 7 53l43 185
q5 24 7.5 38.5t2.5 28.5q0 61 -50 61q-61 0 -152 -82l-62 -339h-85zM345 893h63l76 -153h-57l-59 95l-111 -95h-58z" />
    <glyph glyph-name="Hbar" unicode="&#x126;" horiz-adv-x="712" 
d="M-26 38l64 5l16 15l81 420h-43l9 46h43l17 89l-10 15l-65 5v38h244v-38l-66 -5l-15 -15l-18 -89h326l18 89l-12 15l-64 5v38h244v-38l-66 -5l-16 -15l-17 -89h42l-9 -46h-42l-80 -420l10 -15l64 -5v-38h-242v38l65 5l15 15l51 270h-325l-52 -270l12 -15l64 -5v-38h-243
v38zM528 374l20 104h-326l-20 -104h326z" />
    <glyph glyph-name="hbar" unicode="&#x127;" horiz-adv-x="547" 
d="M137 557h-62l8 43h63l14 70l-94 10v26l157 30h31q-11 -41 -18.5 -73t-13.5 -63h155l-8 -43h-156l-32 -169q34 27 61 45t50 29t43 16t41 5q36 0 58.5 -22t22.5 -58q0 -16 -3 -35t-11 -55l-35 -155q-10 -44 -10 -65q0 -50 51 -50q20 0 56 9v-27q-43 -17 -72 -24.5t-51 -7.5
q-70 0 -70 62q0 25 7 53l43 185q5 24 7.5 38.5t2.5 28.5q0 61 -50 61q-61 0 -152 -82l-62 -339h-85z" />
    <glyph glyph-name="Itilde" unicode="&#x128;" horiz-adv-x="312" 
d="M-20 38l64 5l16 15l107 555l-11 15l-64 5v38h244v-38l-66 -5l-16 -15l-107 -555l12 -15l65 -5v-38h-244v38zM74 749q19 107 108 107q18 0 35 -5.5t48 -20.5q21 -11 31.5 -14.5t18.5 -3.5q33 0 46 56h44q-5 -49 -34.5 -78.5t-73.5 -29.5q-11 0 -19.5 1t-19 4.5t-25 9.5
t-36.5 17t-35 11q-16 0 -27 -14t-16 -40h-45z" />
    <glyph glyph-name="itilde" unicode="&#x129;" horiz-adv-x="286" 
d="M253 28q-45 -18 -78.5 -26.5t-62.5 -8.5q-64 0 -64 67q0 11 1.5 22.5t4.5 28.5l59 298l-81 15v25l148 33h26l-72 -374q-2 -6 -2.5 -13.5t-0.5 -11.5q0 -39 46 -39q16 0 32 3.5t44 11.5v-31zM10 554q21 120 106 120q19 0 36.5 -7t50.5 -27q17 -10 26.5 -14t20.5 -4
q37 0 49 67h42q-8 -56 -36.5 -88t-70.5 -32q-35 0 -90 32q-18 11 -27.5 14.5t-17.5 3.5q-18 0 -30 -17t-16 -48h-43z" />
    <glyph glyph-name="Imacron" unicode="&#x12a;" horiz-adv-x="312" 
d="M-20 38l64 5l16 15l107 555l-11 15l-64 5v38h244v-38l-66 -5l-16 -15l-107 -555l12 -15l65 -5v-38h-244v38zM90 817h301l-9 -51h-301z" />
    <glyph glyph-name="imacron" unicode="&#x12b;" horiz-adv-x="286" 
d="M41 626h270l-9 -51h-271zM253 28q-45 -18 -78.5 -26.5t-62.5 -8.5q-64 0 -64 67q0 11 1.5 22.5t4.5 28.5l59 298l-81 15v25l148 33h26l-72 -374q-2 -6 -2.5 -13.5t-0.5 -11.5q0 -39 46 -39q16 0 32 3.5t44 11.5v-31z" />
    <glyph glyph-name="Iogonek" unicode="&#x12e;" horiz-adv-x="312" 
d="M129 -160l5 1l-10 -50q-15 -5 -27.5 -6.5t-25.5 -1.5q-39 0 -60 16.5t-21 46.5q0 42 22.5 79t72.5 75h-105v38l64 5l16 15l107 555l-11 15l-64 5v38h244v-38l-66 -5l-16 -15l-107 -555l12 -15l65 -5v-38h-96q-75 -62 -75 -122q0 -18 12 -29.5t32 -11.5h8.5t9.5 1z" />
    <glyph glyph-name="iogonek" unicode="&#x12f;" horiz-adv-x="286" 
d="M116 -160l5 1l-10 -50q-15 -5 -27.5 -6.5t-25.5 -1.5q-39 0 -60 16.5t-21 46.5q0 42 23 79t74 76q-26 17 -26 59q0 11 1.5 22.5t4.5 28.5l59 298l-81 15v25l148 33h26l-72 -374q-2 -6 -2.5 -13.5t-0.5 -11.5q0 -39 46 -39q16 0 32 3.5t44 11.5v-31q-45 -18 -78.5 -26.5
t-62.5 -8.5h-6q-66 -57 -66 -115q0 -18 12 -29.5t32 -11.5h8.5t9.5 1zM200 704q22 0 38 -16.5t16 -38.5t-16 -37.5t-39 -15.5t-38 15t-15 38t15.5 39t38.5 16z" />
    <glyph glyph-name="Idotaccent" unicode="&#x130;" horiz-adv-x="312" 
d="M-20 38l64 5l16 15l107 555l-11 15l-64 5v38h244v-38l-66 -5l-16 -15l-107 -555l12 -15l65 -5v-38h-244v38zM239 864q23 0 40 -17t17 -40t-17 -40t-41 -17q-23 0 -39.5 17t-16.5 40q0 24 16.5 40.5t40.5 16.5z" />
    <glyph glyph-name="dotlessi" unicode="&#x131;" horiz-adv-x="286" 
d="M253 28q-45 -18 -78.5 -26.5t-62.5 -8.5q-64 0 -64 67q0 11 1.5 22.5t4.5 28.5l59 298l-81 15v25l148 33h26l-72 -374q-2 -6 -2.5 -13.5t-0.5 -11.5q0 -39 46 -39q16 0 32 3.5t44 11.5v-31z" />
    <glyph glyph-name="Jcircumflex" unicode="&#x134;" horiz-adv-x="442" 
d="M-9 180h50v-127l12 -13q11 -2 18 -3t17 -1q31 0 52.5 9.5t38 34t29.5 66.5t25 106l70 361l-11 15l-64 5v38h243v-38l-65 -5l-16 -15l-67 -357q-14 -75 -33.5 -126.5t-48 -83t-67.5 -45t-92 -13.5q-38 0 -65 5t-59 19zM294 893h63l76 -153h-57l-59 95l-111 -95h-58z" />
    <glyph glyph-name="jcircumflex" unicode="&#x135;" horiz-adv-x="269" 
d="M-3 -150q16 18 27.5 38.5t20.5 51t17.5 74.5t18.5 109l45 295l-101 12v23l152 29h36l-56 -356q-7 -44 -13.5 -76t-14 -57t-17 -45t-22.5 -40q-36 -57 -81 -90.5t-85 -33.5q-23 0 -37.5 14.5t-14.5 37.5t22 41zM178 730h65l74 -190h-55l-61 141l-114 -141h-55z" />
    <glyph glyph-name="Kcommaaccent" unicode="&#x136;" horiz-adv-x="629" 
d="M-26 38l64 5l16 15l107 555l-11 15l-64 5v38h243v-38l-65 -5l-16 -15l-54 -273h29l275 271l-6 17l-70 5v38h242v-40l-83 -6l-263 -257l142 -276q9 -18 18 -29t22 -17t31 -7.5t47 -0.5v-38q-36 -2 -59 -3t-33 -1q-25 0 -41.5 2.5t-28.5 10.5t-22 22.5t-22 37.5l-116 229
h-70l-46 -240l13 -15l65 -5v-38h-244v38zM260 -80q7 15 18.5 25t28.5 10q14 0 23.5 -8t9.5 -22q0 -11 -6.5 -21.5t-16.5 -24.5l-89 -125h-41z" />
    <glyph glyph-name="kcommaaccent" unicode="&#x137;" horiz-adv-x="513" 
d="M159 674l-92 6v26l157 30h28l-107 -498l185 191q53 54 89 54q23 0 39.5 -15t16.5 -37q0 -20 -13 -34t-42 -28l-36 39q-16 -12 -29 -22t-27 -22l-31.5 -27t-41.5 -37q20 -45 33 -73.5t22.5 -48t17.5 -34.5t18 -31q42 -70 95 -70q23 0 51 7v-28q-47 -14 -74.5 -20.5
t-44.5 -6.5q-54 0 -92 77l-85 172l-57 -52l-32 -192h-83zM172 -80q7 15 18.5 25t28.5 10q14 0 23.5 -8t9.5 -22q0 -11 -6.5 -21.5t-16.5 -24.5l-89 -125h-41z" />
    <glyph glyph-name="Lacute" unicode="&#x139;" 
d="M-26 38l64 5l16 15l107 555l-10 15l-65 5v38h243v-38l-65 -5l-16 -15l-110 -567h212l18 16l39 120h48l-35 -182h-446v38zM404 893h108l-188 -153h-59z" />
    <glyph glyph-name="lacute" unicode="&#x13a;" horiz-adv-x="269" 
d="M240 25q-45 -18 -77 -26t-58 -8q-34 0 -52.5 18t-18.5 50q0 16 3.5 42t14.5 79l96 490l-89 10v26l152 30h27q-2 -8 -3 -14t-3 -17q-2 -9 -3 -18t-3 -17l-101 -502q-6 -32 -8.5 -48.5t-2.5 -29.5q0 -50 54 -50q12 0 27.5 3.5t44.5 12.5v-31zM289 893h108l-188 -153h-59z
" />
    <glyph glyph-name="Lcommaaccent" unicode="&#x13b;" 
d="M-26 38l64 5l16 15l107 555l-10 15l-65 5v38h243v-38l-65 -5l-16 -15l-110 -567h212l18 16l39 120h48l-35 -182h-446v38zM196 -80q7 15 18.5 25t28.5 10q14 0 23.5 -8t9.5 -22q0 -11 -6.5 -21.5t-16.5 -24.5l-89 -125h-41z" />
    <glyph glyph-name="lcommaaccent" unicode="&#x13c;" horiz-adv-x="269" 
d="M240 25q-45 -18 -77 -26t-58 -8q-34 0 -52.5 18t-18.5 50q0 16 3.5 42t14.5 79l96 490l-89 10v26l152 30h27q-2 -8 -3 -14t-3 -17q-2 -9 -3 -18t-3 -17l-101 -502q-6 -32 -8.5 -48.5t-2.5 -29.5q0 -50 54 -50q12 0 27.5 3.5t44.5 12.5v-31zM51 -80q7 15 18.5 25t28.5 10
q14 0 23.5 -8t9.5 -22q0 -11 -6.5 -21.5t-16.5 -24.5l-89 -125h-41z" />
    <glyph glyph-name="Lcaron" unicode="&#x13d;" 
d="M-26 38l64 5l16 15l107 555l-10 15l-65 5v38h243v-38l-65 -5l-16 -15l-110 -567h212l18 16l39 120h48l-35 -182h-446v38zM412 701q5 15 17 25t29 10q14 0 23.5 -8t9.5 -22q0 -10 -6 -21t-16 -25l-90 -125h-41z" />
    <glyph glyph-name="lcaron" unicode="&#x13e;" horiz-adv-x="269" 
d="M240 25q-45 -18 -77 -26t-58 -8q-34 0 -52.5 18t-18.5 50q0 16 3.5 42t14.5 79l96 490l-89 10v26l152 30h27q-2 -8 -3 -14t-3 -17q-2 -9 -3 -18t-3 -17l-101 -502q-6 -32 -8.5 -48.5t-2.5 -29.5q0 -50 54 -50q12 0 27.5 3.5t44.5 12.5v-31zM315 701q5 15 17 25t29 10
q14 0 23.5 -8t9.5 -22q0 -10 -6 -21t-16 -25l-90 -125h-41z" />
    <glyph glyph-name="Ldot" unicode="&#x13f;" 
d="M290 355q23 0 40 -17t17 -40t-17 -40t-41 -17q-23 0 -39.5 17t-16.5 40q0 24 16.5 40.5t40.5 16.5zM-26 38l64 5l16 15l107 555l-10 15l-65 5v38h243v-38l-65 -5l-16 -15l-110 -567h212l18 16l39 120h48l-35 -182h-446v38z" />
    <glyph glyph-name="ldot" unicode="&#x140;" horiz-adv-x="269" 
d="M250 355q23 0 40 -17t17 -40t-17 -40t-41 -17q-23 0 -39.5 17t-16.5 40q0 24 16.5 40.5t40.5 16.5zM240 25q-45 -18 -77 -26t-58 -8q-34 0 -52.5 18t-18.5 50q0 16 3.5 42t14.5 79l96 490l-89 10v26l152 30h27q-2 -8 -3 -14t-3 -17q-2 -9 -3 -18t-3 -17l-101 -502
q-6 -32 -8.5 -48.5t-2.5 -29.5q0 -50 54 -50q12 0 27.5 3.5t44.5 12.5v-31z" />
    <glyph glyph-name="Lslash" unicode="&#x141;" 
d="M-26 38l64 5l16 15l46 237l-71 -39l-21 42l103 57l50 258l-10 15l-65 5v38h243v-38l-65 -5l-16 -15l-40 -204l101 55l23 -41l-135 -71l-59 -306h212l18 16l39 120h48l-35 -182h-446v38z" />
    <glyph glyph-name="lslash" unicode="&#x142;" horiz-adv-x="269" 
d="M240 25q-47 -19 -77.5 -26.5t-57.5 -7.5q-34 0 -52.5 18t-18.5 50q0 16 3.5 41.5t14.5 79.5l29 149l-79 -43l-17 37l103 53l60 294l-89 10v26l152 30h27q-9 -53 -12 -65l-49 -249l95 49l19 -35l-125 -65l-41 -203q-5 -28 -8 -47.5t-3 -32.5q0 -48 53 -48q13 0 27 3t46 13
v-31z" />
    <glyph glyph-name="Nacute" unicode="&#x143;" horiz-adv-x="685" 
d="M-32 38l64 5l16 15l107 555l-10 15l-65 5v38h172v-25l239 -507l92 474l-10 15l-64 5v38h210v-38l-64 -5l-16 -15l-117 -613h-58l-263 556l-97 -498l11 -15l64 -5v-38h-211v38zM496 893h108l-188 -153h-59z" />
    <glyph glyph-name="nacute" unicode="&#x144;" horiz-adv-x="555" 
d="M114 409l-82 15v25l148 33h25l-18 -96q35 27 62.5 46t50.5 30t43 16t41 5q36 0 58.5 -22t22.5 -57q0 -8 -0.5 -16t-2 -18.5t-4.5 -24t-7 -32.5l-34 -155q-6 -27 -8.5 -42.5t-2.5 -23.5q0 -23 13.5 -36t37.5 -13q20 0 56 9v-28q-24 -9 -41.5 -15t-32 -9.5t-26.5 -5
t-24 -1.5q-69 0 -69 61q0 11 1.5 23.5t6.5 30.5l43 185q5 19 7 36t2 30q0 62 -50 62q-31 0 -67.5 -19.5t-84.5 -63.5l-62 -338h-85zM407 730h99l-183 -190h-49z" />
    <glyph glyph-name="Ncommaaccent" unicode="&#x145;" horiz-adv-x="685" 
d="M-32 38l64 5l16 15l107 555l-10 15l-65 5v38h172v-25l239 -507l92 474l-10 15l-64 5v38h210v-38l-64 -5l-16 -15l-117 -613h-58l-263 556l-97 -498l11 -15l64 -5v-38h-211v38zM258 -80q7 15 18.5 25t28.5 10q14 0 23.5 -8t9.5 -22q0 -11 -6.5 -21.5t-16.5 -24.5l-89 -125
h-41z" />
    <glyph glyph-name="ncommaaccent" unicode="&#x146;" horiz-adv-x="555" 
d="M114 409l-82 15v25l148 33h25l-18 -96q35 27 62.5 46t50.5 30t43 16t41 5q36 0 58.5 -22t22.5 -57q0 -8 -0.5 -16t-2 -18.5t-4.5 -24t-7 -32.5l-34 -155q-6 -27 -8.5 -42.5t-2.5 -23.5q0 -23 13.5 -36t37.5 -13q20 0 56 9v-28q-24 -9 -41.5 -15t-32 -9.5t-26.5 -5
t-24 -1.5q-69 0 -69 61q0 11 1.5 23.5t6.5 30.5l43 185q5 19 7 36t2 30q0 62 -50 62q-31 0 -67.5 -19.5t-84.5 -63.5l-62 -338h-85zM193 -80q7 15 18.5 25t28.5 10q14 0 23.5 -8t9.5 -22q0 -11 -6.5 -21.5t-16.5 -24.5l-89 -125h-41z" />
    <glyph glyph-name="Ncaron" unicode="&#x147;" horiz-adv-x="685" 
d="M-32 38l64 5l16 15l107 555l-10 15l-65 5v38h172v-25l239 -507l92 474l-10 15l-64 5v38h210v-38l-64 -5l-16 -15l-117 -613h-58l-263 556l-97 -498l11 -15l64 -5v-38h-211v38zM296 893h57l62 -98l113 98h58l-149 -153h-65z" />
    <glyph glyph-name="ncaron" unicode="&#x148;" horiz-adv-x="555" 
d="M114 409l-82 15v25l148 33h25l-18 -96q35 27 62.5 46t50.5 30t43 16t41 5q36 0 58.5 -22t22.5 -57q0 -8 -0.5 -16t-2 -18.5t-4.5 -24t-7 -32.5l-34 -155q-6 -27 -8.5 -42.5t-2.5 -23.5q0 -23 13.5 -36t37.5 -13q20 0 56 9v-28q-24 -9 -41.5 -15t-32 -9.5t-26.5 -5
t-24 -1.5q-69 0 -69 61q0 11 1.5 23.5t6.5 30.5l43 185q5 19 7 36t2 30q0 62 -50 62q-31 0 -67.5 -19.5t-84.5 -63.5l-62 -338h-85zM211 730h56l60 -141l115 141h54l-146 -190h-65z" />
    <glyph glyph-name="Omacron" unicode="&#x14c;" horiz-adv-x="707" 
d="M409 683q57 0 105 -20t82 -56.5t53 -87t19 -111.5q0 -87 -28.5 -163.5t-78 -133.5t-115.5 -90t-141 -33q-59 0 -108 20t-84 56.5t-54 87.5t-19 113q0 50 11.5 99t32.5 94t50.5 84t66.5 68q92 73 208 73zM396 635q-52 0 -99 -31t-82.5 -83.5t-56.5 -121t-21 -144.5
q0 -50 12 -90.5t34.5 -69t54 -44t70.5 -15.5q54 0 102.5 30.5t84.5 88.5q37 57 56.5 124t19.5 135q0 104 -46.5 162.5t-128.5 58.5zM286 817h301l-9 -51h-301z" />
    <glyph glyph-name="omacron" unicode="&#x14d;" horiz-adv-x="502" 
d="M278 483q39 0 70 -14t53 -39.5t34 -61t12 -79.5q0 -61 -20.5 -115.5t-55 -95t-81.5 -64t-99 -23.5q-39 0 -70.5 13.5t-54 38t-34.5 59.5t-12 78q0 63 20 118.5t55 96.5t82 64.5t101 23.5zM262 443q-33 0 -61.5 -20.5t-49.5 -55.5t-33.5 -82t-12.5 -101q0 -73 25 -113
t71 -40q34 0 63 20t51 55.5t34.5 83t12.5 101.5q0 74 -25.5 113t-74.5 39zM157 626h301l-9 -51h-301z" />
    <glyph glyph-name="Obreve" unicode="&#x14e;" horiz-adv-x="707" 
d="M409 683q57 0 105 -20t82 -56.5t53 -87t19 -111.5q0 -87 -28.5 -163.5t-78 -133.5t-115.5 -90t-141 -33q-59 0 -108 20t-84 56.5t-54 87.5t-19 113q0 50 11.5 99t32.5 94t50.5 84t66.5 68q92 73 208 73zM396 635q-52 0 -99 -31t-82.5 -83.5t-56.5 -121t-21 -144.5
q0 -50 12 -90.5t34.5 -69t54 -44t70.5 -15.5q54 0 102.5 30.5t84.5 88.5q37 57 56.5 124t19.5 135q0 104 -46.5 162.5t-128.5 58.5zM348 885q-1 -5 -1 -10v-9q0 -31 20 -45.5t65 -14.5q29 0 49 4t34 13t22.5 24t14.5 38h39q-15 -75 -54.5 -108.5t-111.5 -33.5
q-120 0 -120 100q0 8 0.5 16.5t2.5 25.5h40z" />
    <glyph glyph-name="obreve" unicode="&#x14f;" horiz-adv-x="502" 
d="M278 483q39 0 70 -14t53 -39.5t34 -61t12 -79.5q0 -61 -20.5 -115.5t-55 -95t-81.5 -64t-99 -23.5q-39 0 -70.5 13.5t-54 38t-34.5 59.5t-12 78q0 63 20 118.5t55 96.5t82 64.5t101 23.5zM262 443q-33 0 -61.5 -20.5t-49.5 -55.5t-33.5 -82t-12.5 -101q0 -73 25 -113
t71 -40q34 0 63 20t51 55.5t34.5 83t12.5 101.5q0 74 -25.5 113t-74.5 39zM219 694q-1 -5 -1 -10v-9q0 -31 20 -45.5t65 -14.5q29 0 49 4t34 13t22.5 24t14.5 38h39q-15 -75 -54.5 -108.5t-111.5 -33.5q-120 0 -120 100q0 8 0.5 16.5t2.5 25.5h40z" />
    <glyph glyph-name="Ohungarumlaut" unicode="&#x150;" horiz-adv-x="707" 
d="M409 683q57 0 105 -20t82 -56.5t53 -87t19 -111.5q0 -87 -28.5 -163.5t-78 -133.5t-115.5 -90t-141 -33q-59 0 -108 20t-84 56.5t-54 87.5t-19 113q0 50 11.5 99t32.5 94t50.5 84t66.5 68q92 73 208 73zM396 635q-52 0 -99 -31t-82.5 -83.5t-56.5 -121t-21 -144.5
q0 -50 12 -90.5t34.5 -69t54 -44t70.5 -15.5q54 0 102.5 30.5t84.5 88.5q37 57 56.5 124t19.5 135q0 104 -46.5 162.5t-128.5 58.5zM592 893h92l-191 -153h-43zM441 893h92l-191 -153h-43z" />
    <glyph glyph-name="ohungarumlaut" unicode="&#x151;" horiz-adv-x="502" 
d="M278 483q39 0 70 -14t53 -39.5t34 -61t12 -79.5q0 -61 -20.5 -115.5t-55 -95t-81.5 -64t-99 -23.5q-39 0 -70.5 13.5t-54 38t-34.5 59.5t-12 78q0 63 20 118.5t55 96.5t82 64.5t101 23.5zM262 443q-33 0 -61.5 -20.5t-49.5 -55.5t-33.5 -82t-12.5 -101q0 -73 25 -113
t71 -40q34 0 63 20t51 55.5t34.5 83t12.5 101.5q0 74 -25.5 113t-74.5 39zM461 730h92l-185 -190h-43zM310 730h92l-185 -190h-43z" />
    <glyph glyph-name="OE" unicode="&#x152;" horiz-adv-x="996" 
d="M513 85q-26 -26 -50.5 -44.5t-50 -30t-52.5 -17t-58 -5.5q-59 0 -107 20t-82.5 56.5t-53.5 88t-19 113.5q0 86 29 162t79.5 132.5t117.5 89.5t144 33q72 0 119 -30.5t76 -96.5l20 115h378l-29 -146h-48v85l-10 15h-215l-49 -254h152l17 14l23 73h43l-43 -219h-41l4 72
l-11 14h-153l-54 -279h255l17 16l35 101h46l-32 -163h-412zM396 635q-52 0 -99 -31t-82.5 -83.5t-56.5 -121.5t-21 -145q0 -50 12 -90t34.5 -68.5t54 -44t70.5 -15.5q116 0 195 131q32 53 49.5 118.5t17.5 129.5q0 103 -46.5 161.5t-127.5 58.5z" />
    <glyph glyph-name="oe" unicode="&#x153;" horiz-adv-x="748" 
d="M690 81q-51 -48 -97 -69t-97 -21q-48 0 -79.5 19t-52.5 61q-41 -42 -82 -61t-91 -19q-79 0 -125 51t-46 139q0 63 20 118t55 96t82 64.5t100 23.5q54 0 89 -22t61 -71q89 93 174 93q45 0 73 -27t28 -72q0 -69 -69.5 -110t-203.5 -52q-3 -21 -3 -43q0 -61 27.5 -97
t74.5 -36q38 0 75 18.5t87 63.5v-47zM260 443q-32 0 -60 -20.5t-49 -56t-33 -83t-12 -102.5q0 -72 24.5 -111t69.5 -39q33 0 61.5 20t50 55t33.5 82t12 101q0 75 -25 114.5t-72 39.5zM435 256q41 4 65 9.5t48 16.5q38 18 60 45.5t22 58.5q0 23 -14.5 39t-36.5 16
q-48 0 -84.5 -47t-59.5 -138z" />
    <glyph glyph-name="Racute" unicode="&#x154;" horiz-adv-x="605" 
d="M-26 38l64 5l16 14l107 556l-11 15l-71 5v38h253q109 0 160.5 -35t51.5 -109q0 -162 -200 -210q27 -7 44.5 -17t31 -29t24 -50.5t23.5 -81.5q9 -32 18.5 -51.5t23.5 -31t34 -15t50 -3.5v-37q-29 -4 -43.5 -5t-27.5 -1q-41 0 -67 11t-43 34q-6 9 -10.5 18t-9 23t-9.5 35
t-12 54q-6 25 -10 41.5t-8.5 27.5t-10 18.5t-13.5 15.5q-16 14 -34 19.5t-50 5.5h-23t-34 -1l-47 -239l12 -15l65 -5v-38h-244v38zM197 345q13 -2 20.5 -2h17.5q100 0 156 44t56 123q0 60 -36.5 87.5t-115.5 27.5h-21t-23 -1zM446 893h108l-188 -153h-59z" />
    <glyph glyph-name="racute" unicode="&#x155;" horiz-adv-x="401" 
d="M114 409l-82 15v25l148 33h20l-32 -137q54 73 96.5 105.5t84.5 32.5q23 0 38 -15.5t15 -38.5q0 -29 -19 -46.5t-50 -17.5h-5l-26 54q-35 -14 -59.5 -30t-41.5 -37.5t-27.5 -50t-17.5 -66.5l-41 -235h-84zM331 730h99l-183 -190h-49z" />
    <glyph glyph-name="Rcommaaccent" unicode="&#x156;" horiz-adv-x="605" 
d="M-26 38l64 5l16 14l107 556l-11 15l-71 5v38h253q109 0 160.5 -35t51.5 -109q0 -162 -200 -210q27 -7 44.5 -17t31 -29t24 -50.5t23.5 -81.5q9 -32 18.5 -51.5t23.5 -31t34 -15t50 -3.5v-37q-29 -4 -43.5 -5t-27.5 -1q-41 0 -67 11t-43 34q-6 9 -10.5 18t-9 23t-9.5 35
t-12 54q-6 25 -10 41.5t-8.5 27.5t-10 18.5t-13.5 15.5q-16 14 -34 19.5t-50 5.5h-23t-34 -1l-47 -239l12 -15l65 -5v-38h-244v38zM197 345q13 -2 20.5 -2h17.5q100 0 156 44t56 123q0 60 -36.5 87.5t-115.5 27.5h-21t-23 -1zM248 -80q7 15 18.5 25t28.5 10q14 0 23.5 -8
t9.5 -22q0 -11 -6.5 -21.5t-16.5 -24.5l-89 -125h-41z" />
    <glyph glyph-name="rcommaaccent" unicode="&#x157;" horiz-adv-x="401" 
d="M114 409l-82 15v25l148 33h20l-32 -137q54 73 96.5 105.5t84.5 32.5q23 0 38 -15.5t15 -38.5q0 -29 -19 -46.5t-50 -17.5h-5l-26 54q-35 -14 -59.5 -30t-41.5 -37.5t-27.5 -50t-17.5 -66.5l-41 -235h-84zM117 -80q7 15 18.5 25t28.5 10q14 0 23.5 -8t9.5 -22
q0 -11 -6.5 -21.5t-16.5 -24.5l-89 -125h-41z" />
    <glyph glyph-name="Rcaron" unicode="&#x158;" horiz-adv-x="605" 
d="M-26 38l64 5l16 14l107 556l-11 15l-71 5v38h253q109 0 160.5 -35t51.5 -109q0 -162 -200 -210q27 -7 44.5 -17t31 -29t24 -50.5t23.5 -81.5q9 -32 18.5 -51.5t23.5 -31t34 -15t50 -3.5v-37q-29 -4 -43.5 -5t-27.5 -1q-41 0 -67 11t-43 34q-6 9 -10.5 18t-9 23t-9.5 35
t-12 54q-6 25 -10 41.5t-8.5 27.5t-10 18.5t-13.5 15.5q-16 14 -34 19.5t-50 5.5h-23t-34 -1l-47 -239l12 -15l65 -5v-38h-244v38zM197 345q13 -2 20.5 -2h17.5q100 0 156 44t56 123q0 60 -36.5 87.5t-115.5 27.5h-21t-23 -1zM246 893h57l62 -98l113 98h58l-149 -153h-65z
" />
    <glyph glyph-name="rcaron" unicode="&#x159;" horiz-adv-x="401" 
d="M114 409l-82 15v25l148 33h20l-32 -137q54 73 96.5 105.5t84.5 32.5q23 0 38 -15.5t15 -38.5q0 -29 -19 -46.5t-50 -17.5h-5l-26 54q-35 -14 -59.5 -30t-41.5 -37.5t-27.5 -50t-17.5 -66.5l-41 -235h-84zM135 730h56l60 -141l115 141h54l-146 -190h-65z" />
    <glyph glyph-name="Sacute" unicode="&#x15a;" horiz-adv-x="537" 
d="M42 193h52l-10 -115l10 -13q34 -16 59.5 -22.5t54.5 -6.5q37 0 67.5 10.5t53 29.5t35 45t12.5 57q0 48 -31 74q-6 5 -11 8t-13 8t-23.5 12.5t-42.5 21.5q-46 23 -76.5 43t-48.5 40t-25.5 41.5t-7.5 48.5q0 45 19 83t52 66t78.5 43.5t99.5 15.5q44 0 80.5 -7t84.5 -23
l-32 -152h-44l4 99l-12 18q-25 11 -45 15t-43 4q-34 0 -62.5 -10.5t-49.5 -28.5t-33 -42.5t-12 -53.5q0 -52 40 -82q7 -5 12.5 -8.5t14.5 -8.5t25.5 -12.5t45.5 -21.5q40 -18 67.5 -36t44.5 -38t24.5 -42.5t7.5 -49.5q0 -47 -20 -86.5t-56 -68t-86 -44.5t-109 -16
q-51 0 -93 10t-91 36zM422 893h108l-188 -153h-59z" />
    <glyph glyph-name="sacute" unicode="&#x15b;" horiz-adv-x="370" 
d="M60 62q15 -19 32 -27t41 -8q41 0 65.5 22.5t24.5 59.5q0 25 -14.5 45t-54.5 51q-20 15 -31.5 24t-18.5 15t-11 10.5t-10 11.5q-24 27 -24 66q0 31 13.5 58.5t37 48t54.5 32.5t66 12q42 0 68 -17.5t26 -45.5q0 -45 -58 -51l-42 58q-9 6 -16 8.5t-16 2.5q-29 0 -49 -19.5
t-20 -47.5q0 -12 2.5 -21t11 -19t23 -23t38.5 -31q19 -15 30.5 -24t19 -15t12.5 -11l11 -11q28 -29 28 -72q0 -33 -13.5 -61.5t-38.5 -48.5t-59 -31.5t-74 -11.5q-60 0 -95.5 24t-35.5 63q0 23 14 38t37 15q11 0 19.5 -4t24.5 -15zM316 730h99l-183 -190h-49z" />
    <glyph glyph-name="Scircumflex" unicode="&#x15c;" horiz-adv-x="537" 
d="M42 193h52l-10 -115l10 -13q34 -16 59.5 -22.5t54.5 -6.5q37 0 67.5 10.5t53 29.5t35 45t12.5 57q0 48 -31 74q-6 5 -11 8t-13 8t-23.5 12.5t-42.5 21.5q-46 23 -76.5 43t-48.5 40t-25.5 41.5t-7.5 48.5q0 45 19 83t52 66t78.5 43.5t99.5 15.5q44 0 80.5 -7t84.5 -23
l-32 -152h-44l4 99l-12 18q-25 11 -45 15t-43 4q-34 0 -62.5 -10.5t-49.5 -28.5t-33 -42.5t-12 -53.5q0 -52 40 -82q7 -5 12.5 -8.5t14.5 -8.5t25.5 -12.5t45.5 -21.5q40 -18 67.5 -36t44.5 -38t24.5 -42.5t7.5 -49.5q0 -47 -20 -86.5t-56 -68t-86 -44.5t-109 -16
q-51 0 -93 10t-91 36zM340 893h63l76 -153h-57l-59 95l-111 -95h-58z" />
    <glyph glyph-name="scircumflex" unicode="&#x15d;" horiz-adv-x="370" 
d="M60 62q15 -19 32 -27t41 -8q41 0 65.5 22.5t24.5 59.5q0 25 -14.5 45t-54.5 51q-20 15 -31.5 24t-18.5 15t-11 10.5t-10 11.5q-24 27 -24 66q0 31 13.5 58.5t37 48t54.5 32.5t66 12q42 0 68 -17.5t26 -45.5q0 -45 -58 -51l-42 58q-9 6 -16 8.5t-16 2.5q-29 0 -49 -19.5
t-20 -47.5q0 -12 2.5 -21t11 -19t23 -23t38.5 -31q19 -15 30.5 -24t19 -15t12.5 -11l11 -11q28 -29 28 -72q0 -33 -13.5 -61.5t-38.5 -48.5t-59 -31.5t-74 -11.5q-60 0 -95.5 24t-35.5 63q0 23 14 38t37 15q11 0 19.5 -4t24.5 -15zM229 730h65l74 -190h-55l-61 141
l-114 -141h-55z" />
    <glyph glyph-name="Scedilla" unicode="&#x15e;" horiz-adv-x="537" 
d="M87 -173q14 -4 27 -5.5t30 -1.5q35 0 55.5 13.5t20.5 36.5q0 29 -41 29h-9.5t-13.5 -2l17 91q-44 2 -81.5 12.5t-82.5 33.5l33 159h52l-10 -115l10 -13q34 -16 59.5 -22.5t54.5 -6.5q37 0 67.5 10.5t53 29.5t35 45t12.5 57q0 48 -31 74q-6 5 -11 8t-13 8t-23.5 12.5
t-42.5 21.5q-46 23 -76.5 43t-48.5 40t-25.5 41.5t-7.5 48.5q0 45 19 83t52 66t78.5 43.5t99.5 15.5q44 0 80.5 -7t84.5 -23l-32 -152h-44l4 99l-12 18q-25 11 -45 15t-43 4q-34 0 -62.5 -10.5t-49.5 -28.5t-33 -42.5t-12 -53.5q0 -52 40 -82q7 -5 12.5 -8.5t14.5 -8.5
t25.5 -12.5t45.5 -21.5q40 -18 67.5 -36t44.5 -38t24.5 -42.5t7.5 -49.5q0 -46 -19 -84.5t-52.5 -66.5t-80.5 -45t-103 -19l-8 -45l20 1q64 0 64 -55q0 -23 -10.5 -42.5t-28.5 -34t-43 -23t-54 -8.5q-17 0 -32 2.5t-37 8.5z" />
    <glyph glyph-name="scedilla" unicode="&#x15f;" horiz-adv-x="370" 
d="M4 -173q14 -4 27 -5.5t30 -1.5q35 0 55.5 13.5t20.5 36.5q0 29 -41 29h-9.5t-13.5 -2l18 95q-50 5 -79 28t-29 58q0 23 14 38t37 15q11 0 19.5 -4t24.5 -15l-18 -50q15 -19 32 -27t41 -8q41 0 65.5 22.5t24.5 59.5q0 25 -14.5 45t-54.5 51q-20 15 -31.5 24t-18.5 15
t-11 10.5t-10 11.5q-24 27 -24 66q0 31 13.5 58.5t37 48t54.5 32.5t66 12q42 0 68 -17.5t26 -45.5q0 -45 -58 -51l-42 58q-9 6 -16 8.5t-16 2.5q-29 0 -49 -19.5t-20 -47.5q0 -12 2.5 -21t11 -19t23 -23t38.5 -31q19 -15 30.5 -24t19 -15t12.5 -11l11 -11q28 -29 28 -72
q0 -32 -12.5 -59t-35.5 -47t-54.5 -32t-69.5 -14l-9 -49l20 1q64 0 64 -55q0 -23 -10.5 -42.5t-28.5 -34t-43 -23t-54 -8.5q-17 0 -32 2.5t-37 8.5z" />
    <glyph glyph-name="Scaron" unicode="&#x160;" horiz-adv-x="537" 
d="M42 193h52l-10 -115l10 -13q34 -16 59.5 -22.5t54.5 -6.5q37 0 67.5 10.5t53 29.5t35 45t12.5 57q0 48 -31 74q-6 5 -11 8t-13 8t-23.5 12.5t-42.5 21.5q-46 23 -76.5 43t-48.5 40t-25.5 41.5t-7.5 48.5q0 45 19 83t52 66t78.5 43.5t99.5 15.5q44 0 80.5 -7t84.5 -23
l-32 -152h-44l4 99l-12 18q-25 11 -45 15t-43 4q-34 0 -62.5 -10.5t-49.5 -28.5t-33 -42.5t-12 -53.5q0 -52 40 -82q7 -5 12.5 -8.5t14.5 -8.5t25.5 -12.5t45.5 -21.5q40 -18 67.5 -36t44.5 -38t24.5 -42.5t7.5 -49.5q0 -47 -20 -86.5t-56 -68t-86 -44.5t-109 -16
q-51 0 -93 10t-91 36zM222 893h57l62 -98l113 98h58l-149 -153h-65z" />
    <glyph glyph-name="scaron" unicode="&#x161;" horiz-adv-x="370" 
d="M60 62q15 -19 32 -27t41 -8q41 0 65.5 22.5t24.5 59.5q0 25 -14.5 45t-54.5 51q-20 15 -31.5 24t-18.5 15t-11 10.5t-10 11.5q-24 27 -24 66q0 31 13.5 58.5t37 48t54.5 32.5t66 12q42 0 68 -17.5t26 -45.5q0 -45 -58 -51l-42 58q-9 6 -16 8.5t-16 2.5q-29 0 -49 -19.5
t-20 -47.5q0 -12 2.5 -21t11 -19t23 -23t38.5 -31q19 -15 30.5 -24t19 -15t12.5 -11l11 -11q28 -29 28 -72q0 -33 -13.5 -61.5t-38.5 -48.5t-59 -31.5t-74 -11.5q-60 0 -95.5 24t-35.5 63q0 23 14 38t37 15q11 0 19.5 -4t24.5 -15zM120 730h56l60 -141l115 141h54l-146 -190
h-65z" />
    <glyph glyph-name="Tcommaaccent" unicode="&#x162;" horiz-adv-x="565" 
d="M108 38l64 5l16 15l107 572h-141l-17 -15l-32 -93h-55l29 149h538l-30 -149h-54l4 93l-11 15h-142l-110 -572l13 -15l65 -5v-38h-244v38zM198 -80q7 15 18.5 25t28.5 10q14 0 23.5 -8t9.5 -22q0 -11 -6.5 -21.5t-16.5 -24.5l-89 -125h-41z" />
    <glyph glyph-name="tcommaaccent" unicode="&#x163;" horiz-adv-x="333" 
d="M282 37q-57 -24 -92.5 -34t-64.5 -10q-40 0 -60.5 23t-20.5 67q0 16 1.5 30.5t6.5 37.5l54 271l-62 -5v30l73 32l50 100h46l-21 -114h144v-43h-152l-52 -267q-6 -30 -6 -46q0 -59 61 -59q37 0 95 19v-32zM83 -80q7 15 18.5 25t28.5 10q14 0 23.5 -8t9.5 -22
q0 -11 -6.5 -21.5t-16.5 -24.5l-89 -125h-41z" />
    <glyph glyph-name="Tcaron" unicode="&#x164;" horiz-adv-x="565" 
d="M108 38l64 5l16 15l107 572h-141l-17 -15l-32 -93h-55l29 149h538l-30 -149h-54l4 93l-11 15h-142l-110 -572l13 -15l65 -5v-38h-244v38zM236 893h57l62 -98l113 98h58l-149 -153h-65z" />
    <glyph glyph-name="tcaron" unicode="&#x165;" horiz-adv-x="333" 
d="M282 37q-57 -24 -92.5 -34t-64.5 -10q-40 0 -60.5 23t-20.5 67q0 16 1.5 30.5t6.5 37.5l54 271l-62 -5v30l73 32l50 100h46l-21 -114h144v-43h-152l-52 -267q-6 -30 -6 -46q0 -59 61 -59q37 0 95 19v-32zM319 701q5 15 17 25t29 10q14 0 23.5 -8t9.5 -22q0 -10 -6 -21
t-16 -25l-90 -125h-41z" />
    <glyph glyph-name="Tbar" unicode="&#x166;" horiz-adv-x="565" 
d="M108 38l64 5l16 15l60 322h-118l9 46h117l39 204h-141l-17 -15l-32 -93h-55l29 149h538l-30 -149h-54l4 93l-11 15h-142l-40 -204h121l-9 -46h-121l-61 -322l13 -15l65 -5v-38h-244v38z" />
    <glyph glyph-name="tbar" unicode="&#x167;" horiz-adv-x="333" 
d="M282 37q-57 -24 -92.5 -34t-64.5 -10q-40 0 -60.5 23t-20.5 67q0 16 1.5 30.5t6.5 37.5l25 126h-48l8 43h48l21 102l-62 -5v30l73 32l50 100h46l-21 -114h144v-43h-152l-20 -102h118l-8 -43h-118l-24 -122q-6 -30 -6 -46q0 -59 61 -59q37 0 95 19v-32z" />
    <glyph glyph-name="Utilde" unicode="&#x168;" horiz-adv-x="661" 
d="M149 613l-11 15l-64 5v38h243v-38l-65 -5l-16 -15l-71 -364q-5 -24 -7 -42t-2 -33q0 -125 142 -125q88 0 135.5 46.5t68.5 153.5l71 364l-12 15l-65 5v38h209v-38l-63 -5l-17 -15l-73 -373q-8 -39 -15.5 -67.5t-17 -50t-22 -37.5t-29.5 -31q-35 -32 -86 -49t-114 -17
q-98 0 -150.5 41.5t-52.5 119.5q0 17 2.5 36.5t9.5 54.5zM247 749q19 107 108 107q18 0 35 -5.5t48 -20.5q21 -11 31.5 -14.5t18.5 -3.5q33 0 46 56h44q-5 -49 -34.5 -78.5t-73.5 -29.5q-11 0 -19.5 1t-19 4.5t-25 9.5t-36.5 17t-35 11q-16 0 -27 -14t-16 -40h-45z" />
    <glyph glyph-name="utilde" unicode="&#x169;" horiz-adv-x="558" 
d="M516 23q-28 -10 -47.5 -16t-34 -9.5t-25.5 -5t-23 -1.5q-58 0 -58 65v7t1 12q-47 -41 -93.5 -62.5t-88.5 -21.5q-45 0 -70.5 25t-25.5 69q0 24 8 61l58 264l-83 15v25l157 34l16 -14l-63 -292q-11 -50 -11 -73q0 -26 15 -41.5t41 -15.5q32 0 65.5 15t78.5 49l75 362h81
l-71 -327q-5 -22 -7.5 -39t-2.5 -27q0 -18 14 -29.5t37 -11.5q10 0 22 2.5t35 8.5v-28zM169 554q21 120 106 120q19 0 36.5 -7t50.5 -27q17 -10 26.5 -14t20.5 -4q37 0 49 67h42q-8 -56 -36.5 -88t-70.5 -32q-35 0 -90 32q-18 11 -27.5 14.5t-17.5 3.5q-18 0 -30 -17
t-16 -48h-43z" />
    <glyph glyph-name="Umacron" unicode="&#x16a;" horiz-adv-x="661" 
d="M149 613l-11 15l-64 5v38h243v-38l-65 -5l-16 -15l-71 -364q-5 -24 -7 -42t-2 -33q0 -125 142 -125q88 0 135.5 46.5t68.5 153.5l71 364l-12 15l-65 5v38h209v-38l-63 -5l-17 -15l-73 -373q-8 -39 -15.5 -67.5t-17 -50t-22 -37.5t-29.5 -31q-35 -32 -86 -49t-114 -17
q-98 0 -150.5 41.5t-52.5 119.5q0 17 2.5 36.5t9.5 54.5zM263 817h301l-9 -51h-301z" />
    <glyph glyph-name="umacron" unicode="&#x16b;" horiz-adv-x="558" 
d="M516 23q-28 -10 -47.5 -16t-34 -9.5t-25.5 -5t-23 -1.5q-58 0 -58 65v7t1 12q-47 -41 -93.5 -62.5t-88.5 -21.5q-45 0 -70.5 25t-25.5 69q0 24 8 61l58 264l-83 15v25l157 34l16 -14l-63 -292q-11 -50 -11 -73q0 -26 15 -41.5t41 -15.5q32 0 65.5 15t78.5 49l75 362h81
l-71 -327q-5 -22 -7.5 -39t-2.5 -27q0 -18 14 -29.5t37 -11.5q10 0 22 2.5t35 8.5v-28zM185 626h301l-9 -51h-301z" />
    <glyph glyph-name="Ubreve" unicode="&#x16c;" horiz-adv-x="661" 
d="M149 613l-11 15l-64 5v38h243v-38l-65 -5l-16 -15l-71 -364q-5 -24 -7 -42t-2 -33q0 -125 142 -125q88 0 135.5 46.5t68.5 153.5l71 364l-12 15l-65 5v38h209v-38l-63 -5l-17 -15l-73 -373q-8 -39 -15.5 -67.5t-17 -50t-22 -37.5t-29.5 -31q-35 -32 -86 -49t-114 -17
q-98 0 -150.5 41.5t-52.5 119.5q0 17 2.5 36.5t9.5 54.5zM325 885q-1 -5 -1 -10v-9q0 -31 20 -45.5t65 -14.5q29 0 49 4t34 13t22.5 24t14.5 38h39q-15 -75 -54.5 -108.5t-111.5 -33.5q-120 0 -120 100q0 8 0.5 16.5t2.5 25.5h40z" />
    <glyph glyph-name="ubreve" unicode="&#x16d;" horiz-adv-x="558" 
d="M516 23q-28 -10 -47.5 -16t-34 -9.5t-25.5 -5t-23 -1.5q-58 0 -58 65v7t1 12q-47 -41 -93.5 -62.5t-88.5 -21.5q-45 0 -70.5 25t-25.5 69q0 24 8 61l58 264l-83 15v25l157 34l16 -14l-63 -292q-11 -50 -11 -73q0 -26 15 -41.5t41 -15.5q32 0 65.5 15t78.5 49l75 362h81
l-71 -327q-5 -22 -7.5 -39t-2.5 -27q0 -18 14 -29.5t37 -11.5q10 0 22 2.5t35 8.5v-28zM247 694q-1 -5 -1 -10v-9q0 -31 20 -45.5t65 -14.5q29 0 49 4t34 13t22.5 24t14.5 38h39q-15 -75 -54.5 -108.5t-111.5 -33.5q-120 0 -120 100q0 8 0.5 16.5t2.5 25.5h40z" />
    <glyph glyph-name="Uring" unicode="&#x16e;" horiz-adv-x="661" 
d="M149 613l-11 15l-64 5v38h243v-38l-65 -5l-16 -15l-71 -364q-5 -24 -7 -42t-2 -33q0 -125 142 -125q88 0 135.5 46.5t68.5 153.5l71 364l-12 15l-65 5v38h209v-38l-63 -5l-17 -15l-73 -373q-8 -39 -15.5 -67.5t-17 -50t-22 -37.5t-29.5 -31q-35 -32 -86 -49t-114 -17
q-98 0 -150.5 41.5t-52.5 119.5q0 17 2.5 36.5t9.5 54.5zM418 940q22 0 41.5 -8.5t34 -23t23 -34t8.5 -41.5q0 -23 -8.5 -42.5t-23 -34t-34.5 -23t-42 -8.5q-23 0 -42.5 8.5t-34 23t-23 34t-8.5 42.5q0 22 8.5 42t23 34t34.5 22.5t43 8.5zM415 900q-26 0 -45.5 -20
t-19.5 -48t19 -47t47 -19t48 19.5t20 46.5q0 28 -20 48t-49 20z" />
    <glyph glyph-name="uring" unicode="&#x16f;" horiz-adv-x="558" 
d="M516 23q-28 -10 -47.5 -16t-34 -9.5t-25.5 -5t-23 -1.5q-58 0 -58 65v7t1 12q-47 -41 -93.5 -62.5t-88.5 -21.5q-45 0 -70.5 25t-25.5 69q0 24 8 61l58 264l-83 15v25l157 34l16 -14l-63 -292q-11 -50 -11 -73q0 -26 15 -41.5t41 -15.5q32 0 65.5 15t78.5 49l75 362h81
l-71 -327q-5 -22 -7.5 -39t-2.5 -27q0 -18 14 -29.5t37 -11.5q10 0 22 2.5t35 8.5v-28zM339 749q22 0 41.5 -8.5t34 -23t23 -34t8.5 -41.5q0 -46 -31 -77t-77 -31q-23 0 -42.5 8.5t-34 23t-23 34t-8.5 41.5q0 46 31 77t78 31zM337 708q-26 0 -46 -20t-20 -47t20 -46.5
t47 -19.5q28 0 47.5 19.5t19.5 46.5q0 29 -19.5 48t-48.5 19z" />
    <glyph glyph-name="Uhungarumlaut" unicode="&#x170;" horiz-adv-x="661" 
d="M149 613l-11 15l-64 5v38h243v-38l-65 -5l-16 -15l-71 -364q-5 -24 -7 -42t-2 -33q0 -125 142 -125q88 0 135.5 46.5t68.5 153.5l71 364l-12 15l-65 5v38h209v-38l-63 -5l-17 -15l-73 -373q-8 -39 -15.5 -67.5t-17 -50t-22 -37.5t-29.5 -31q-35 -32 -86 -49t-114 -17
q-98 0 -150.5 41.5t-52.5 119.5q0 17 2.5 36.5t9.5 54.5zM569 893h92l-191 -153h-43zM418 893h92l-191 -153h-43z" />
    <glyph glyph-name="uhungarumlaut" unicode="&#x171;" horiz-adv-x="558" 
d="M516 23q-28 -10 -47.5 -16t-34 -9.5t-25.5 -5t-23 -1.5q-58 0 -58 65v7t1 12q-47 -41 -93.5 -62.5t-88.5 -21.5q-45 0 -70.5 25t-25.5 69q0 24 8 61l58 264l-83 15v25l157 34l16 -14l-63 -292q-11 -50 -11 -73q0 -26 15 -41.5t41 -15.5q32 0 65.5 15t78.5 49l75 362h81
l-71 -327q-5 -22 -7.5 -39t-2.5 -27q0 -18 14 -29.5t37 -11.5q10 0 22 2.5t35 8.5v-28zM489 730h92l-185 -190h-43zM338 730h92l-185 -190h-43z" />
    <glyph glyph-name="Uogonek" unicode="&#x172;" horiz-adv-x="661" 
d="M367 -160l5 1l-10 -50q-15 -5 -27.5 -6.5t-25.5 -1.5q-39 0 -60 16.5t-21 46.5q0 40 19.5 74.5t62.5 69.5q-10 -1 -20.5 -1.5t-21.5 -0.5q-98 0 -150.5 41.5t-52.5 119.5q0 17 2.5 36.5t9.5 54.5l72 373l-11 15l-64 5v38h243v-38l-65 -5l-16 -15l-71 -364q-5 -24 -7 -42
t-2 -33q0 -125 142 -125q88 0 135.5 46.5t68.5 153.5l71 364l-12 15l-65 5v38h209v-38l-63 -5l-17 -15l-73 -373q-8 -39 -15.5 -67.5t-17 -50t-22 -37.5t-29.5 -31q-40 -37 -102 -54q-75 -62 -75 -122q0 -18 12 -29.5t32 -11.5h8.5t9.5 1z" />
    <glyph glyph-name="uogonek" unicode="&#x173;" horiz-adv-x="558" 
d="M395 -160l5 1l-10 -50q-15 -5 -27.5 -6.5t-25.5 -1.5q-39 0 -60 16.5t-21 46.5q0 42 22.5 79t72.5 75q-23 15 -23 56l1 19q-47 -41 -93.5 -62.5t-88.5 -21.5q-45 0 -70.5 25t-25.5 69q0 24 8 61l58 264l-83 15v25l157 34l16 -14l-63 -292q-11 -50 -11 -73q0 -26 15 -41.5
t41 -15.5q32 0 65.5 15t78.5 49l75 362h81l-71 -327q-5 -22 -7.5 -39t-2.5 -27q0 -18 14 -29.5t37 -11.5q10 0 22 2.5t35 8.5v-28q-28 -10 -47.5 -16t-34 -9.5t-25.5 -5t-23 -1.5h-3q-64 -57 -64 -113q0 -18 12 -29.5t32 -11.5h8.5t9.5 1z" />
    <glyph glyph-name="Wcircumflex" unicode="&#x174;" horiz-adv-x="898" 
d="M116 610l-17 18l-48 5v38h214v-38l-57 -5l-7 -15l37 -471l248 529h65l56 -536l219 478l-8 15l-59 5v38h192v-38l-58 -6l-293 -627h-57l-59 549l-255 -549h-63zM521 893h63l76 -153h-57l-59 95l-111 -95h-58z" />
    <glyph glyph-name="wcircumflex" unicode="&#x175;" horiz-adv-x="713" 
d="M101 22l-27 396l-74 9v24l115 34l35 -2l22 -394q27 52 48 92t37.5 72t29.5 58t24 49.5t22 47.5t23 52l60 7q2 -47 4.5 -90.5t6 -89l7.5 -97.5t9 -115q17 23 27 36.5t22 30.5q44 63 71.5 112t41.5 90l-20 117q12 12 23.5 17t26.5 5q24 0 38.5 -14.5t14.5 -38.5
q0 -27 -11.5 -59.5t-41 -81.5t-79 -118.5t-125.5 -170.5h-58l-24 349q-17 -34 -33.5 -66.5t-38.5 -72t-50.5 -90t-68.5 -120.5h-65zM399 730h65l74 -190h-55l-61 141l-114 -141h-55z" />
    <glyph glyph-name="Ycircumflex" unicode="&#x176;" horiz-adv-x="562" 
d="M97 38l63 5l16 15l42 214l-112 341l-10 15l-65 5v38h243v-38l-65 -5l-16 -15l90 -283l209 283l-10 15l-64 5v38h224v-38l-66 -5l-16 -15l-254 -332l-44 -223l13 -15l65 -5v-38h-243v38zM353 893h63l76 -153h-57l-59 95l-111 -95h-58z" />
    <glyph glyph-name="ycircumflex" unicode="&#x177;" horiz-adv-x="475" 
d="M0 -155q45 3 85.5 43.5t86.5 127.5l-62 304q-7 35 -16.5 59.5t-23.5 44.5l-85 7v22l98 32q5 1 13 1q39 0 58 -42q4 -10 7.5 -18t7.5 -25t10 -47t17 -83l33 -169q24 59 41.5 103t34.5 85t36 85.5t45 106.5h19l79 -26v-21l-51 -30q-15 -17 -26 -33t-23.5 -37.5t-27.5 -52.5
t-37 -79q-23 -51 -42.5 -91.5t-37.5 -73.5t-36 -61t-37 -55q-50 -69 -99 -104t-97 -35q-35 0 -59 19.5t-24 46.5q0 44 54 55zM281 730h65l74 -190h-55l-61 141l-114 -141h-55z" />
    <glyph glyph-name="Ydieresis" unicode="&#x178;" horiz-adv-x="562" 
d="M97 38l63 5l16 15l42 214l-112 341l-10 15l-65 5v38h243v-38l-65 -5l-16 -15l90 -283l209 283l-10 15l-64 5v38h224v-38l-66 -5l-16 -15l-254 -332l-44 -223l13 -15l65 -5v-38h-243v38zM269 855q21 0 36 -15t15 -36t-15.5 -36t-36.5 -15q-20 0 -35 15t-15 36
q0 22 14.5 36.5t36.5 14.5zM455 855q21 0 36 -15t15 -36t-15.5 -36t-36.5 -15q-20 0 -35 15t-15 36q0 22 14.5 36.5t36.5 14.5z" />
    <glyph glyph-name="Zacute" unicode="&#x179;" horiz-adv-x="556" 
d="M-18 41l472 582h-248l-22 -13l-34 -94h-52l30 155h444l-9 -42l-473 -580h286l14 13l40 119h49l-34 -181h-470zM432 893h108l-188 -153h-59z" />
    <glyph glyph-name="zacute" unicode="&#x17a;" horiz-adv-x="440" 
d="M-14 19l344 386l-99 -22q-58 29 -89 29q-36 0 -62 -32l53 -64q-11 -18 -22 -25t-25 -7q-22 0 -34.5 15.5t-12.5 42.5t11.5 52.5t30 45t43 31.5t50.5 12q19 0 37 -6t54 -24q20 -11 33.5 -15.5t24.5 -4.5q8 0 14 1.5t17 6.5l19 49l61 -32l-345 -385l97 25
q42 -18 65.5 -25.5t38.5 -7.5q34 0 60 36l-55 61q12 20 23.5 28t25.5 8q20 0 34 -16.5t14 -42.5q0 -27 -11.5 -52.5t-31 -45t-44.5 -31.5t-52 -12q-16 0 -33.5 4.5t-48.5 17.5q-30 12 -46 16.5t-30 4.5q-7 0 -13 -2t-17 -7l-24 -43zM351 730h99l-183 -190h-49z" />
    <glyph glyph-name="Zdotaccent" unicode="&#x17b;" horiz-adv-x="556" 
d="M-18 41l472 582h-248l-22 -13l-34 -94h-52l30 155h444l-9 -42l-473 -580h286l14 13l40 119h49l-34 -181h-470zM360 864q23 0 40 -17t17 -40t-17 -40t-41 -17q-23 0 -39.5 17t-16.5 40q0 24 16.5 40.5t40.5 16.5z" />
    <glyph glyph-name="zdotaccent" unicode="&#x17c;" horiz-adv-x="440" 
d="M-14 19l344 386l-99 -22q-58 29 -89 29q-36 0 -62 -32l53 -64q-11 -18 -22 -25t-25 -7q-22 0 -34.5 15.5t-12.5 42.5t11.5 52.5t30 45t43 31.5t50.5 12q19 0 37 -6t54 -24q20 -11 33.5 -15.5t24.5 -4.5q8 0 14 1.5t17 6.5l19 49l61 -32l-345 -385l97 25
q42 -18 65.5 -25.5t38.5 -7.5q34 0 60 36l-55 61q12 20 23.5 28t25.5 8q20 0 34 -16.5t14 -42.5q0 -27 -11.5 -52.5t-31 -45t-44.5 -31.5t-52 -12q-16 0 -33.5 4.5t-48.5 17.5q-30 12 -46 16.5t-30 4.5q-7 0 -13 -2t-17 -7l-24 -43zM276 674q23 0 40 -17t17 -40t-17 -40
t-41 -17q-23 0 -39.5 17t-16.5 40q0 24 16.5 40.5t40.5 16.5z" />
    <glyph glyph-name="Zcaron" unicode="&#x17d;" horiz-adv-x="556" 
d="M-18 41l472 582h-248l-22 -13l-34 -94h-52l30 155h444l-9 -42l-473 -580h286l14 13l40 119h49l-34 -181h-470zM232 893h57l62 -98l113 98h58l-149 -153h-65z" />
    <glyph glyph-name="zcaron" unicode="&#x17e;" horiz-adv-x="440" 
d="M-14 19l344 386l-99 -22q-58 29 -89 29q-36 0 -62 -32l53 -64q-11 -18 -22 -25t-25 -7q-22 0 -34.5 15.5t-12.5 42.5t11.5 52.5t30 45t43 31.5t50.5 12q19 0 37 -6t54 -24q20 -11 33.5 -15.5t24.5 -4.5q8 0 14 1.5t17 6.5l19 49l61 -32l-345 -385l97 25
q42 -18 65.5 -25.5t38.5 -7.5q34 0 60 36l-55 61q12 20 23.5 28t25.5 8q20 0 34 -16.5t14 -42.5q0 -27 -11.5 -52.5t-31 -45t-44.5 -31.5t-52 -12q-16 0 -33.5 4.5t-48.5 17.5q-30 12 -46 16.5t-30 4.5q-7 0 -13 -2t-17 -7l-24 -43zM155 730h56l60 -141l115 141h54
l-146 -190h-65z" />
    <glyph glyph-name="florin" unicode="&#x192;" horiz-adv-x="556" 
d="M59 -109q23 12 40 28.5t30.5 41.5t24 58.5t19.5 80.5l43 219h-110v49h119l14 75q12 63 36.5 106.5t67.5 77.5q34 26 73 41t74 15q33 0 53 -14t20 -37q0 -22 -13.5 -38.5t-44.5 -32.5l-71 72q-24 -8 -41.5 -21.5t-30.5 -35.5t-23 -53t-18 -75l-15 -80h158v-49h-167
q-11 -65 -20 -111.5t-18.5 -82t-19.5 -63t-22 -54.5q-18 -39 -45 -71.5t-59.5 -56t-67.5 -36.5t-70 -13q-26 0 -41 12.5t-15 35.5q0 39 49 69z" />
    <glyph glyph-name="Scommaaccent" unicode="&#x218;" horiz-adv-x="537" 
d="M42 193h52l-10 -115l10 -13q34 -16 59.5 -22.5t54.5 -6.5q37 0 67.5 10.5t53 29.5t35 45t12.5 57q0 48 -31 74q-6 5 -11 8t-13 8t-23.5 12.5t-42.5 21.5q-46 23 -76.5 43t-48.5 40t-25.5 41.5t-7.5 48.5q0 45 19 83t52 66t78.5 43.5t99.5 15.5q44 0 80.5 -7t84.5 -23
l-32 -152h-44l4 99l-12 18q-25 11 -45 15t-43 4q-34 0 -62.5 -10.5t-49.5 -28.5t-33 -42.5t-12 -53.5q0 -52 40 -82q7 -5 12.5 -8.5t14.5 -8.5t25.5 -12.5t45.5 -21.5q40 -18 67.5 -36t44.5 -38t24.5 -42.5t7.5 -49.5q0 -47 -20 -86.5t-56 -68t-86 -44.5t-109 -16
q-51 0 -93 10t-91 36zM184 -80q7 15 18.5 25t28.5 10q14 0 23.5 -8t9.5 -22q0 -11 -6.5 -21.5t-16.5 -24.5l-89 -125h-41z" />
    <glyph glyph-name="scommaaccent" unicode="&#x219;" horiz-adv-x="370" 
d="M60 62q15 -19 32 -27t41 -8q41 0 65.5 22.5t24.5 59.5q0 25 -14.5 45t-54.5 51q-20 15 -31.5 24t-18.5 15t-11 10.5t-10 11.5q-24 27 -24 66q0 31 13.5 58.5t37 48t54.5 32.5t66 12q42 0 68 -17.5t26 -45.5q0 -45 -58 -51l-42 58q-9 6 -16 8.5t-16 2.5q-29 0 -49 -19.5
t-20 -47.5q0 -12 2.5 -21t11 -19t23 -23t38.5 -31q19 -15 30.5 -24t19 -15t12.5 -11l11 -11q28 -29 28 -72q0 -33 -13.5 -61.5t-38.5 -48.5t-59 -31.5t-74 -11.5q-60 0 -95.5 24t-35.5 63q0 23 14 38t37 15q11 0 19.5 -4t24.5 -15zM102 -80q7 15 18.5 25t28.5 10
q14 0 23.5 -8t9.5 -22q0 -11 -6.5 -21.5t-16.5 -24.5l-89 -125h-41z" />
    <glyph glyph-name="uni021A" unicode="&#x21a;" horiz-adv-x="565" 
d="M108 38l64 5l16 15l107 572h-141l-17 -15l-32 -93h-55l29 149h538l-30 -149h-54l4 93l-11 15h-142l-110 -572l13 -15l65 -5v-38h-244v38zM198 -80q7 15 18.5 25t28.5 10q14 0 23.5 -8t9.5 -22q0 -11 -6.5 -21.5t-16.5 -24.5l-89 -125h-41z" />
    <glyph glyph-name="uni021B" unicode="&#x21b;" horiz-adv-x="333" 
d="M282 37q-57 -24 -92.5 -34t-64.5 -10q-40 0 -60.5 23t-20.5 67q0 16 1.5 30.5t6.5 37.5l54 271l-62 -5v30l73 32l50 100h46l-21 -114h144v-43h-152l-52 -267q-6 -30 -6 -46q0 -59 61 -59q37 0 95 19v-32zM83 -80q7 15 18.5 25t28.5 10q14 0 23.5 -8t9.5 -22
q0 -11 -6.5 -21.5t-16.5 -24.5l-89 -125h-41z" />
    <glyph glyph-name="dotlessj" unicode="&#x237;" horiz-adv-x="269" 
d="M-3 -150q16 18 27.5 38.5t20.5 51t17.5 74.5t18.5 109l45 295l-101 12v23l152 29h36l-56 -356q-7 -44 -13.5 -76t-14 -57t-17 -45t-22.5 -40q-36 -57 -81 -90.5t-85 -33.5q-23 0 -37.5 14.5t-14.5 37.5t22 41z" />
    <glyph glyph-name="circumflex" unicode="&#x2c6;" 
d="M293 730h65l74 -190h-55l-61 141l-114 -141h-55z" />
    <glyph glyph-name="caron" unicode="&#x2c7;" 
d="M184 730h56l60 -141l115 141h54l-146 -190h-65z" />
    <glyph glyph-name="uni02C9" unicode="&#x2c9;" 
d="M156 626h301l-9 -51h-301z" />
    <glyph glyph-name="breve" unicode="&#x2d8;" 
d="M218 694q-1 -5 -1 -10v-9q0 -31 20 -45.5t65 -14.5q29 0 49 4t34 13t22.5 24t14.5 38h39q-15 -75 -54.5 -108.5t-111.5 -33.5q-120 0 -120 100q0 8 0.5 16.5t2.5 25.5h40z" />
    <glyph glyph-name="dotaccent" unicode="&#x2d9;" 
d="M305 674q23 0 40 -17t17 -40t-17 -40t-41 -17q-23 0 -39.5 17t-16.5 40q0 24 16.5 40.5t40.5 16.5z" />
    <glyph glyph-name="ring" unicode="&#x2da;" 
d="M310 749q22 0 41.5 -8.5t34 -23t23 -34t8.5 -41.5q0 -46 -31 -77t-77 -31q-23 0 -42.5 8.5t-34 23t-23 34t-8.5 41.5q0 46 31 77t78 31zM308 708q-26 0 -46 -20t-20 -47t20 -46.5t47 -19.5q28 0 47.5 19.5t19.5 46.5q0 29 -19.5 48t-48.5 19z" />
    <glyph glyph-name="ogonek" unicode="&#x2db;" 
d="M223 -160l5 1l-10 -50q-15 -5 -27.5 -6.5t-25.5 -1.5q-39 0 -60 16.5t-21 46.5q0 42 22.5 79t72.5 75h43q-75 -62 -75 -122q0 -18 12 -29.5t32 -11.5h8.5t9.5 1z" />
    <glyph glyph-name="tilde" unicode="&#x2dc;" 
d="M140 554q21 120 106 120q19 0 36.5 -7t50.5 -27q17 -10 26.5 -14t20.5 -4q37 0 49 67h42q-8 -56 -36.5 -88t-70.5 -32q-35 0 -90 32q-18 11 -27.5 14.5t-17.5 3.5q-18 0 -30 -17t-16 -48h-43z" />
    <glyph glyph-name="hungarumlaut" unicode="&#x2dd;" 
d="M460 730h92l-185 -190h-43zM309 730h92l-185 -190h-43z" />
    <glyph glyph-name="uni0394" unicode="&#x394;" horiz-adv-x="625" 
d="M-38 0l5 26l393 645l42 12l123 -657l-5 -26h-558zM420 48l-91 505l-304 -505h395z" />
    <glyph glyph-name="uni03A9" unicode="&#x3a9;" horiz-adv-x="701" 
d="M-9 142h23q3 -23 7.5 -37.5t11.5 -22.5t17 -10.5t24 -2.5h98q-15 16 -33.5 38t-34 50.5t-26.5 63.5t-12 77q0 35 9 76q15 71 48.5 128.5t80.5 97.5t103 61.5t116 21.5q103 0 163 -56.5t62 -159.5q0 -41 -9 -87q-11 -53 -37 -98.5t-59 -84t-69 -71t-67 -57.5h103
q15 0 26 2.5t20.5 10t19 22t22.5 38.5h26l-53 -142h-232l-2 19q22 30 51 69t57.5 84t52.5 95.5t36 104.5q6 29 10 53.5t4 48.5q0 38 -8 70.5t-24.5 56.5t-42 37.5t-59.5 13.5q-37 0 -72.5 -15.5t-67 -49t-57 -87.5t-41.5 -132q-5 -23 -6.5 -44.5t-1.5 -43.5
q0 -72 18.5 -140.5t37.5 -120.5l-12 -19h-230z" />
    <glyph glyph-name="uni03BC" unicode="&#x3bc;" horiz-adv-x="547" 
d="M97 432h72l-51 -240q-3 -12 -4.5 -27.5t-1.5 -26.5q0 -42 20 -64t58 -22q48 0 80 33.5t46 97.5l54 249h73l-56 -259q-6 -29 -8 -41.5t-2 -25.5q0 -23 12.5 -38t32.5 -15q28 0 46.5 20.5t32.5 66.5q7 22 17 22q13 0 13 -17q0 -16 -7.5 -41t-18.5 -45q-36 -68 -103 -68
q-78 0 -76 104q-25 -56 -57.5 -81t-79.5 -25q-48 0 -74 25t-35 80q-5 -29 -8.5 -47.5t-6 -35t-5 -35t-5.5 -47.5q-6 -42 -10.5 -68.5t-10.5 -40.5t-14 -19t-20 -5q-18 0 -28.5 11.5t-10.5 31.5q0 12 5 34.5t20 75.5q10 35 18 64t14.5 56.5t13 54.5t12.5 57z" />
    <glyph glyph-name="pi" unicode="&#x3c0;" horiz-adv-x="552" 
d="M581 526q-12 -29 -27 -53.5t-27 -36.5q-12 -3 -30 -4t-38 -1q-7 -25 -16 -63.5t-18 -80.5t-18 -83t-16 -70q-2 -14 -4 -25t-2 -21q0 -39 28 -40q7 -1 12.5 1t12.5 5q14 6 31 21l9 -22q-27 -32 -58 -48.5t-60 -16.5q-27 0 -45.5 12.5t-20.5 47.5q-2 26 4 58q4 34 14 78.5
t22 90t23.5 87.5t19.5 71q-44 1 -80 1.5t-65 0.5q-26 -90 -49.5 -164.5t-44 -129.5t-36 -89.5t-25.5 -46.5q-16 -6 -33.5 -10.5t-30.5 -6.5l-3 17q34 34 64 91.5t54 120.5t40.5 122.5t24.5 97.5q-23 0 -41 -3t-33.5 -9t-29.5 -14t-30 -18l-10 23q16 15 33.5 31t39.5 29
t49.5 21t62.5 8q57 0 122.5 -2t137.5 -2q22 0 35 6.5t30 27.5z" />
    <glyph glyph-name="endash" unicode="&#x2013;" 
d="M-12 271h499l-11 -61h-500z" />
    <glyph glyph-name="emdash" unicode="&#x2014;" horiz-adv-x="1000" 
d="M-7 271h998l-12 -61h-998z" />
    <glyph glyph-name="quoteleft" unicode="&#x2018;" horiz-adv-x="203" 
d="M197 536q4 -8 5.5 -13.5t1.5 -13.5q0 -28 -21 -47.5t-51 -19.5q-29 0 -46 18t-17 47q0 97 133 206h43q-60 -55 -86.5 -97.5t-25.5 -79.5h64z" />
    <glyph glyph-name="quoteright" unicode="&#x2019;" horiz-adv-x="201" 
d="M51 442q60 55 86.5 97t25.5 80h-64q-5 8 -6 13t-1 13q0 29 21 48.5t51 19.5q29 0 46 -18t17 -47q0 -48 -34 -101t-99 -105h-43z" />
    <glyph glyph-name="quotesinglbase" unicode="&#x201a;" horiz-adv-x="201" 
d="M-65 -164q59 54 86 96.5t26 80.5h-64q-7 14 -7 26q0 29 21 48.5t51 19.5q29 0 46 -18t17 -47q0 -49 -33.5 -100.5t-99.5 -105.5h-43z" />
    <glyph glyph-name="quotedblleft" unicode="&#x201c;" horiz-adv-x="405" 
d="M197 536q4 -8 5.5 -13.5t1.5 -13.5q0 -28 -21 -47.5t-51 -19.5q-29 0 -46 18t-17 47q0 97 133 206h43q-60 -55 -86.5 -97.5t-25.5 -79.5h64zM399 536q7 -14 7 -26q0 -28 -21 -48t-51 -20q-29 0 -46 18t-17 47q0 97 133 206h43q-60 -55 -87 -97.5t-25 -79.5h64z" />
    <glyph glyph-name="quotedblright" unicode="&#x201d;" horiz-adv-x="404" 
d="M56 442q60 55 86.5 97t25.5 80h-64q-5 8 -6 13t-1 13q0 29 21 48.5t51 19.5q29 0 46 -18t17 -47q0 -48 -34 -101t-99 -105h-43zM257 442q60 55 86.5 97t25.5 80h-64q-4 8 -5.5 13.5t-1.5 13.5q0 27 21.5 47t50.5 20t46 -18t17 -47q0 -49 -34 -101.5t-99 -104.5h-43z" />
    <glyph glyph-name="quotedblbase" unicode="&#x201e;" horiz-adv-x="404" 
d="M-62 -164q59 54 86 96.5t26 80.5h-64q-7 14 -7 26q0 29 21 48.5t51 19.5q29 0 46 -18t17 -47q0 -49 -33.5 -100.5t-99.5 -105.5h-43zM139 -164q59 54 86 96.5t26 80.5h-64q-7 14 -7 27q0 28 21 47.5t51 19.5q29 0 46 -18t17 -47q0 -99 -133 -206h-43z" />
    <glyph glyph-name="dagger" unicode="&#x2020;" 
d="M263 642l60 76l30 -76l-64 -140h-14zM46 483l79 45l136 -40l-3 -16l-151 -35zM295 472l3 16l149 40l64 -45l-82 -46zM194 294l73 166h14l10 -166l-123 -423h-14z" />
    <glyph glyph-name="daggerdbl" unicode="&#x2021;" 
d="M263 642l60 76l30 -76l-64 -140h-14zM46 483l79 45l136 -40l-3 -16l-151 -35zM295 472l3 16l149 40l64 -45l-82 -46zM184 294l83 166h14l16 -166l-80 -167h-14zM-27 106l80 45l136 -40l-3 -16l-151 -35zM222 95l3 16l149 40l65 -45l-82 -46zM129 -56l66 140h14l10 -140
l-60 -76z" />
    <glyph glyph-name="bullet" unicode="&#x2022;" horiz-adv-x="590" 
d="M296 516q29 0 55 -11.5t45.5 -31t31 -45.5t11.5 -56t-11.5 -56.5t-31 -46t-46 -31t-56.5 -11.5t-56.5 11t-46 30.5t-30.5 46t-11 56.5t11.5 56.5t31 46t46 31t57.5 11.5z" />
    <glyph glyph-name="ellipsis" unicode="&#x2026;" horiz-adv-x="1000" 
d="M781 118q26 0 44.5 -19t18.5 -45t-19 -44.5t-45 -18.5t-44.5 18.5t-18.5 44.5q0 27 18.5 45.5t45.5 18.5zM114 118q26 0 44.5 -18.5t18.5 -44.5t-19 -45t-45 -19t-44.5 19t-18.5 45q0 27 18 45t46 18zM448 118q26 0 44 -19t18 -45t-18.5 -44.5t-44.5 -18.5t-45 18.5
t-19 44.5q0 27 19 45.5t46 18.5z" />
    <glyph glyph-name="perthousand" unicode="&#x2030;" horiz-adv-x="1224" 
d="M248 683q55 0 86 -37.5t31 -104.5q0 -32 -6 -63.5t-16.5 -61t-25 -55.5t-32.5 -45q-50 -52 -118 -52q-56 0 -86.5 37t-30.5 104q0 65 22 126.5t57 99.5q51 52 119 52zM239 647q-46 0 -78 -66q-19 -39 -30.5 -91.5t-11.5 -100.5q0 -89 54 -89q48 0 82 70q19 38 30 89.5
t11 98.5q0 89 -57 89zM673 671h61l-557 -671h-61zM685 407q55 0 86 -37.5t31 -104.5q0 -32 -6 -63.5t-16.5 -61t-25 -55.5t-32.5 -45q-50 -52 -118 -52q-56 0 -86.5 37t-30.5 104q0 65 22 126.5t57 99.5q52 52 119 52zM676 371q-46 0 -78 -66q-19 -38 -30.5 -91t-11.5 -101
q0 -89 54 -89q48 0 82 70q19 38 30 89.5t11 98.5q0 89 -57 89zM1057 407q55 0 86 -37.5t31 -104.5q0 -32 -6 -64t-16.5 -61.5t-25 -55t-32.5 -44.5q-52 -52 -118 -52q-56 0 -86.5 37t-30.5 104q0 65 22 126.5t57 99.5q52 52 119 52zM1048 371q-46 0 -78 -66
q-19 -39 -30.5 -91.5t-11.5 -101.5q0 -88 53 -88q49 0 83 70q19 38 30 89.5t11 98.5q0 89 -57 89z" />
    <glyph glyph-name="guilsinglleft" unicode="&#x2039;" horiz-adv-x="245" 
d="M13 200l15 80l190 133l-13 -66l-138 -107l97 -108l-13 -65z" />
    <glyph glyph-name="guilsinglright" unicode="&#x203a;" horiz-adv-x="245" 
d="M6 132l138 108l-96 107l12 66l139 -133l-15 -80l-190 -133z" />
    <glyph glyph-name="fraction" unicode="&#x2044;" horiz-adv-x="185" 
d="M349 671h61l-556 -671h-61z" />
    <glyph glyph-name="Euro" unicode="&#x20ac;" horiz-adv-x="555" 
d="M279 -17q-101 0 -146.5 46.5t-45.5 149.5q0 16 1 33.5t3 36.5h-82l17 39h71q8 52 20 103h-74l16 37h68q39 135 111 198t189 63q43 0 82 -9t78 -20q11 -6 11 -13q0 -2 -1 -7.5t-4 -20t-8.5 -41t-13.5 -70.5q-2 -10 -9 -12t-20 -2q-11 0 -14 6.5t-3 17.5q0 8 0.5 14t0.5 20
q0 57 -21.5 79.5t-78.5 22.5q-44 0 -75 -13t-54 -40.5t-39 -70.5t-29 -102h235l-15 -37h-229l-20 -103h216l-16 -39h-206q-5 -32 -7.5 -59.5t-2.5 -50.5q0 -62 23.5 -91.5t83.5 -29.5q39 0 63.5 6.5t40.5 21t27 37.5t24 55q7 19 10 31t5.5 19.5t7 10.5t13.5 3h13
q8 0 11 -1.5t3 -7.5q0 -3 -1 -9t-4 -22.5t-9 -46.5t-16 -81q-2 -8 -7.5 -12t-14.5 -7q-45 -15 -89 -23.5t-89 -8.5z" />
    <glyph glyph-name="afii61289" unicode="&#x2113;" horiz-adv-x="427" 
d="M353 101q-41 -54 -87.5 -82.5t-100.5 -28.5q-32 0 -55 7.5t-36 27.5q-15 21 -16 58q-1 10 0 20t3 23q0 4 1 9.5t3 14.5t4.5 22.5t7.5 33.5l-65 -42l-8 25l81 55q15 72 27 128t24 99.5t24.5 75t27.5 54.5q28 43 65 66t66 23q35 0 50.5 -23t17.5 -58q0 -14 -1 -25.5
t-4 -25.5q-9 -44 -29 -84.5t-47.5 -77.5t-61.5 -71t-71 -64q-3 -25 -7 -49q-3 -20 -5.5 -43t-4.5 -40q-2 -10 -2.5 -13t-0.5 -4.5t-0.5 -3.5t-0.5 -9q-1 -17 5.5 -26t14.5 -16q5 -5 18 -8t24 -3q35 0 65 21t58 51zM184 307q25 24 48 54.5t42.5 63.5t34 68.5t20.5 70.5
q3 20 4 29.5t1 17.5q-1 22 -7.5 34.5t-21.5 12.5q-27 0 -48.5 -52.5t-46.5 -173.5z" />
    <glyph glyph-name="trademark" unicode="&#x2122;" horiz-adv-x="727" 
d="M94 366l32 1l7 8l52 278h-68l-8 -7l-16 -45h-26l13 72h261l-14 -72h-26l2 45l-4 7h-70l-54 -278l7 -8l31 -1v-18h-119v18zM307 366l30 1l8 8l52 270l-5 7l-31 2v19h99v-13l45 -247l137 245v15h100v-19l-30 -2l-9 -7l-51 -270l5 -8l31 -1v-18h-115v18l34 1l5 8l52 274
l-167 -301h-22l-52 299l-51 -272l7 -8l30 -1v-18h-102v18z" />
    <glyph glyph-name="Omega" unicode="&#x2126;" horiz-adv-x="701" 
d="M-9 142h23q3 -23 7.5 -37.5t11.5 -22.5t17 -10.5t24 -2.5h98q-15 16 -33.5 38t-34 50.5t-26.5 63.5t-12 77q0 35 9 76q15 71 48.5 128.5t80.5 97.5t103 61.5t116 21.5q103 0 163 -56.5t62 -159.5q0 -41 -9 -87q-11 -53 -37 -98.5t-59 -84t-69 -71t-67 -57.5h103
q15 0 26 2.5t20.5 10t19 22t22.5 38.5h26l-53 -142h-232l-2 19q22 30 51 69t57.5 84t52.5 95.5t36 104.5q6 29 10 53.5t4 48.5q0 38 -8 70.5t-24.5 56.5t-42 37.5t-59.5 13.5q-37 0 -72.5 -15.5t-67 -49t-57 -87.5t-41.5 -132q-5 -23 -6.5 -44.5t-1.5 -43.5
q0 -72 18.5 -140.5t37.5 -120.5l-12 -19h-230z" />
    <glyph glyph-name="estimated" unicode="&#x212e;" horiz-adv-x="734" 
d="M185 109q74 -74 181 -74q78 0 136 35.5t106 114.5l43 -26q-29 -45 -58.5 -77t-63 -52.5t-74 -30t-89.5 -9.5q-74 0 -133.5 27t-101.5 74t-64.5 110.5t-22.5 135.5q0 73 22.5 136t64.5 109.5t101.5 73.5t133.5 27q72 0 131.5 -25.5t102.5 -71.5t66.5 -109.5t24.5 -139.5
h-506v-228zM549 382v181q-77 76 -184 76q-106 0 -180 -76v-181h364z" />
    <glyph glyph-name="partialdiff" unicode="&#x2202;" horiz-adv-x="513" 
d="M263 423q34 0 66 -16t48 -50q20 59 31 108.5t11 93.5q0 74 -29.5 110.5t-76.5 36.5q-22 0 -44 -6t-41 -15t-34.5 -19t-25.5 -17q-10 0 -16.5 14.5t-6.5 30.5t18 27.5t43 18.5t50 10t40 3q71 0 111 -38t59 -104q7 -23 10 -48.5t4 -52.5v-23q0 -45 -11.5 -99t-33 -109.5
t-52.5 -107.5t-69.5 -92t-83.5 -64.5t-96 -24.5q-80 0 -116 58q-12 17 -17 42t-5 40q0 69 25.5 123.5t64.5 92t86 57.5t91 20zM277 383q-32 0 -61 -17.5t-52.5 -43.5t-40 -55.5t-24.5 -52.5q-5 -17 -13 -48.5t-8 -61.5q0 -32 15.5 -57.5t50.5 -25.5q36 0 68 27t59.5 69.5
t49.5 94.5t39 101q-2 11 -9 23t-17.5 22.5t-24.5 17.5t-32 7z" />
    <glyph glyph-name="Delta" unicode="&#x2206;" horiz-adv-x="625" 
d="M-38 0l5 26l393 645l42 12l123 -657l-5 -26h-558zM420 48l-91 505l-304 -505h395z" />
    <glyph glyph-name="product" unicode="&#x220f;" horiz-adv-x="737" 
d="M29 -104q29 3 45.5 6.5t25 11.5t11 22.5t2.5 39.5v671q0 22 -2 35.5t-10.5 20.5t-26 10t-48.5 5v26h685v-26q-31 -2 -48 -5t-25.5 -10.5t-10.5 -20.5t-2 -35v-672q0 -24 2 -38.5t10.5 -22.5t25.5 -11.5t47 -6.5v-26h-253v26q26 2 41.5 5t24 10.5t11 20.5t2.5 36v712
q0 10 -2 16t-10 9t-23 4t-42 1h-224q-20 0 -26 -4t-6 -24v-706q0 -24 1.5 -39t8 -23t21 -11.5t41.5 -6.5v-26h-246v26z" />
    <glyph glyph-name="summation" unicode="&#x2211;" horiz-adv-x="645" 
d="M28 -104l213 388l-208 435v25h549q0 -6 1 -21.5t2.5 -37t3.5 -47t4 -52.5l-27 -6q-7 34 -15.5 58.5t-17.5 41.5q-5 9 -12 15.5t-20.5 10t-37.5 5t-63 1.5h-256l175 -371l-214 -394h356q31 0 50.5 2.5t33 14t25 34.5t26.5 65l28 -7l-42 -186h-554v26z" />
    <glyph glyph-name="minus" unicode="&#x2212;" horiz-adv-x="833" 
d="M119 327h585v-58h-585v58z" />
    <glyph glyph-name="uni2215" unicode="&#x2215;" horiz-adv-x="185" 
d="M349 671h61l-556 -671h-61z" />
    <glyph glyph-name="uni2219" unicode="&#x2219;" horiz-adv-x="278" 
d="M141 395q25 0 42 -17.5t17 -42.5t-17 -42t-43 -17q-25 0 -42 17t-17 42q0 26 17 43t43 17z" />
    <glyph glyph-name="radical" unicode="&#x221a;" horiz-adv-x="557" 
d="M335 46l147 753l38 -9l-175 -909l-22 -12l-207 536l-84 -38l-11 32l154 71l157 -424h3z" />
    <glyph glyph-name="infinity" unicode="&#x221e;" horiz-adv-x="728" 
d="M540 122q-28 0 -52 10t-45.5 26t-41 34.5t-37.5 36.5q-19 -19 -39.5 -38t-43 -34.5t-47.5 -25t-55 -9.5t-55.5 10.5t-43.5 29t-28.5 44.5t-10.5 58q0 29 11 54.5t30.5 45t46.5 31t58 11.5q28 0 52.5 -10t46 -26t41 -34.5t37.5 -36.5q19 19 39.5 38t43 34.5t48 25
t54.5 9.5q30 0 55.5 -10.5t44 -29t28.5 -45t10 -57.5q0 -29 -11.5 -54.5t-31 -45t-46.5 -31t-58 -11.5zM542 172q19 0 36 7.5t30 20t20 29.5t7 35q0 40 -25.5 66t-64.5 26q-23 0 -43.5 -9t-38.5 -22.5t-34.5 -29.5t-30.5 -31q15 -14 30.5 -30.5t33 -30t37.5 -22.5t43 -9z
M184 172q22 0 42.5 8.5t39 22t35 30t30.5 31.5q-15 14 -31 30.5t-33.5 30t-37.5 22.5t-43 9q-40 0 -66 -27.5t-26 -64.5q0 -40 25.5 -66t64.5 -26z" />
    <glyph glyph-name="integral" unicode="&#x222b;" horiz-adv-x="367" 
d="M79 -138q-27 0 -43.5 13t-16.5 34t15.5 34t35.5 13q10 0 16 -8t10.5 -17t9.5 -17t13 -8q17 0 27.5 32t10.5 88q0 10 -1.5 39.5t-4.5 69.5t-5.5 86.5t-5.5 89.5t-4.5 79t-1.5 56q0 108 13.5 175.5t35.5 105t50 51t56 13.5q9 0 19.5 -2.5t19.5 -8t15 -14t6 -19.5
q0 -23 -13.5 -33.5t-30.5 -10.5q-12 0 -18.5 7t-11 16t-9.5 16t-13 7q-17 0 -29 -25t-12 -78q0 -7 1.5 -36.5t4 -70.5t5.5 -90t5.5 -95.5t4 -85.5t1.5 -62q0 -171 -39 -257.5t-116 -86.5z" />
    <glyph glyph-name="approxequal" unicode="&#x2248;" horiz-adv-x="833" 
d="M86 380q58 38 102 54.5t88 16.5q17 0 31.5 -1.5t33 -6t44.5 -13.5t66 -23q36 -14 59.5 -19t46.5 -5q21 0 41.5 4t43 13t47.5 23.5t57 36.5v-64q-55 -38 -99 -54t-90 -16q-15 0 -28 1.5t-29 5t-37.5 10.5t-53.5 19q-47 17 -77.5 24t-56.5 7q-21 0 -41 -4t-42.5 -13
t-48 -24t-57.5 -37v65zM86 200q58 38 102 54.5t88 16.5q17 0 31.5 -1.5t33 -6t44.5 -13.5t66 -23q36 -14 59.5 -19t46.5 -5q21 0 41.5 4t43 13t47.5 23.5t57 36.5v-64q-55 -38 -99 -54t-90 -16q-15 0 -28 1.5t-29 5t-37.5 10.5t-53.5 19q-47 17 -77.5 24t-56.5 7
q-21 0 -41 -4t-42.5 -13t-48 -24t-57.5 -37v65z" />
    <glyph glyph-name="notequal" unicode="&#x2260;" horiz-adv-x="833" 
d="M119 420h324l66 123h65l-66 -123h196v-58h-226l-68 -128h294v-58h-325l-65 -122h-66l65 122h-194v58h225l68 128h-293v58z" />
    <glyph glyph-name="lessequal" unicode="&#x2264;" horiz-adv-x="833" 
d="M129 357v42l575 192v-51l-488 -162l488 -162v-51zM129 77h575v-58h-575v58z" />
    <glyph glyph-name="greaterequal" unicode="&#x2265;" horiz-adv-x="833" 
d="M129 216l488 162l-488 162v51l575 -192v-42l-575 -192v51zM129 77h575v-58h-575v58z" />
    <glyph glyph-name="lozenge" unicode="&#x25ca;" horiz-adv-x="515" 
d="M229 -29l-182 359l182 361h56l182 -361l-182 -359h-56zM260 26l146 303l-150 308h-2l-146 -306l149 -305h3z" />
    <glyph glyph-name="grave.cap" unicode="&#xe300;" 
d="M196 893h105l62 -153h-57z" />
    <glyph glyph-name="acute.cap" unicode="&#xe301;" 
d="M404 893h108l-188 -153h-59z" />
    <glyph glyph-name="circumflex.cap" unicode="&#xe302;" 
d="M322 893h63l76 -153h-57l-59 95l-111 -95h-58z" />
    <glyph glyph-name="caron.cap" unicode="&#xe303;" 
d="M204 893h57l62 -98l113 98h58l-149 -153h-65z" />
    <glyph glyph-name="tilde.cap" unicode="&#xe304;" 
d="M167 749q19 107 108 107q18 0 35 -5.5t48 -20.5q21 -11 31.5 -14.5t18.5 -3.5q33 0 46 56h44q-5 -49 -34.5 -78.5t-73.5 -29.5q-11 0 -19.5 1t-19 4.5t-25 9.5t-36.5 17t-35 11q-16 0 -27 -14t-16 -40h-45z" />
    <glyph glyph-name="dieresis.cap" unicode="&#xe305;" 
d="M238 855q21 0 36 -15t15 -36t-15.5 -36t-36.5 -15q-20 0 -35 15t-15 36q0 22 14.5 36.5t36.5 14.5zM424 855q21 0 36 -15t15 -36t-15.5 -36t-36.5 -15q-20 0 -35 15t-15 36q0 22 14.5 36.5t36.5 14.5z" />
    <glyph glyph-name="macron.cap" unicode="&#xe306;" 
d="M183 817h301l-9 -51h-301z" />
    <glyph glyph-name="breve.cap" unicode="&#xe307;" 
d="M245 885q-1 -5 -1 -10v-9q0 -31 20 -45.5t65 -14.5q29 0 49 4t34 13t22.5 24t14.5 38h39q-15 -75 -54.5 -108.5t-111.5 -33.5q-120 0 -120 100q0 8 0.5 16.5t2.5 25.5h40z" />
    <glyph glyph-name="ring.cap" unicode="&#xe308;" 
d="M338 940q22 0 41.5 -8.5t34 -23t23 -34t8.5 -41.5q0 -23 -8.5 -42.5t-23 -34t-34.5 -23t-42 -8.5q-23 0 -42.5 8.5t-34 23t-23 34t-8.5 42.5q0 22 8.5 42t23 34t34.5 22.5t43 8.5zM335 900q-26 0 -45.5 -20t-19.5 -48t19 -47t47 -19t48 19.5t20 46.5q0 28 -20 48t-49 20z
" />
    <glyph glyph-name="hungarumlaut.cap" unicode="&#xe309;" 
d="M489 893h92l-191 -153h-43zM338 893h92l-191 -153h-43z" />
    <glyph glyph-name="dotaccent.cap" unicode="&#xe30a;" 
d="M332 864q23 0 40 -17t17 -40t-17 -40t-41 -17q-23 0 -39.5 17t-16.5 40q0 24 16.5 40.5t40.5 16.5z" />
    <glyph glyph-name="caron.alt" unicode="&#xe30b;" 
d="M319 701q5 15 17 25t29 10q14 0 23.5 -8t9.5 -22q0 -10 -6 -21t-16 -25l-90 -125h-41z" />
    <glyph glyph-name="commaaccent" unicode="&#xe30c;" 
d="M166 -80q7 15 18.5 25t28.5 10q14 0 23.5 -8t9.5 -22q0 -11 -6.5 -21.5t-16.5 -24.5l-89 -125h-41z" />
    <glyph glyph-name="commaaccent.alt" unicode="&#xe30d;" 
d="M349 747h41l-73 -166q-7 -15 -18.5 -25t-28.5 -10q-15 0 -24 8t-9 22q0 11 6 21.5t17 24.5z" />
    <glyph glyph-name="uniF8FF" unicode="&#xf8ff;" horiz-adv-x="485" 
d="M210 174h53v-63h-53v63zM211 238q0 25 2.5 43t9 32.5t17.5 27.5t28 28q30 29 38 46t8 34q0 34 -21.5 57t-50.5 23t-50.5 -20.5t-26.5 -69.5l-48 8q7 69 42 99.5t86 30.5q52 0 85 -33.5t33 -90.5q0 -31 -12 -55.5t-48 -57.5q-16 -14 -25 -24t-13.5 -19.5t-6 -20
t-1.5 -26.5v-28h-46v16zM438 47v585h-391v-585h391zM0 680h485v-680h-485v680z" />
    </font>
</defs>
</svg>
