<svg xmlns="http://www.w3.org/2000/svg" width="24" height="24" viewBox="0 0 24 24">
  <g id="Outline-v2" transform="translate(0.001)">
    <g id="Download" transform="translate(0 0)">
      <path id="Combined-Shape" d="M623.384,791.635h0v-1.81l-3.922-3.923a.75.75,0,0,0-1.061,1.061l5.733,5.733,5.733-5.733a.75.75,0,0,0-1.06-1.061l-3.923,3.923v-8.689h-1.5v10.5Zm-9.75,6h21a1.5,1.5,0,0,0,1.5-1.5v-16.5h-11.25v1.5h9.75v15h-21v-15h9.75v-1.5h-11.25v16.5A1.5,1.5,0,0,0,613.634,797.636Zm9.75-18h1.5v-6h-1.5Zm0,1.5h1.5v-1.5h-1.5Z" transform="translate(-612.134 -773.636)"/>
    </g>
  </g>
</svg>
