<svg xmlns="http://www.w3.org/2000/svg" width="18" height="18" viewBox="0 0 18 18">
  <g id="PwC_Funct_Icons_OpenInNewWindow_Outline_Black_RGB" transform="translate(-16 -13.5)">
    <path id="Path_3641" data-name="Path 3641" d="M50.6,31.78l4.989-5.015v2.766a.569.569,0,1,0,1.137,0V24.8H52.023a.569.569,0,0,0,0,1.137h2.74L49.8,30.953Z" transform="translate(-25.521 -8.533)" fill="#2e2e2e"/>
    <g id="Group_6195" data-name="Group 6195" transform="translate(16 13.5)">
      <g id="Group_6194" data-name="Group 6194" transform="translate(0)">
        <path id="Path_3642" data-name="Path 3642" d="M20.5,13.5A1.5,1.5,0,0,0,19,15v1.5H17.5A1.5,1.5,0,0,0,16,18V30a1.5,1.5,0,0,0,1.5,1.5h12A1.5,1.5,0,0,0,31,30V28.5h1.5A1.5,1.5,0,0,0,34,27V13.5ZM29.875,30a.384.384,0,0,1-.375.375h-12A.384.384,0,0,1,17.125,30V18a.384.384,0,0,1,.375-.375H19V27a1.5,1.5,0,0,0,1.5,1.5h9.375Zm3-3a.384.384,0,0,1-.375.375h-12A.384.384,0,0,1,20.125,27V15a.384.384,0,0,1,.375-.375H32.875Z" transform="translate(-16 -13.5)" fill="#2e2e2e"/>
      </g>
    </g>
  </g>
</svg>
