<svg id="favorite" xmlns="http://www.w3.org/2000/svg" xmlns:xlink="http://www.w3.org/1999/xlink" width="28" height="26.67" viewBox="0 0 28 26.67">
  <defs>
    <clipPath id="clip-path">
      <path id="Clip_2" data-name="Clip 2" d="M0,0H28V26.67H0Z" fill="none"/>
    </clipPath>
  </defs>
  <g id="Group_3" data-name="Group 3" clip-path="url(#clip-path)">
    <path id="Fill_1" data-name="Fill 1" d="M5.946,26.669A.966.966,0,0,1,5,25.479l2.054-8.607L.338,11.113a.966.966,0,0,1,.55-1.7L9.71,8.711l3.4-8.172a1.006,1.006,0,0,1,1.782,0l3.4,8.172,8.822.706a.966.966,0,0,1,.551,1.7l-6.721,5.758L23,25.479a.966.966,0,0,1-1.444,1.049L14,21.913,6.448,26.527A.962.962,0,0,1,5.946,26.669ZM14,20.367a1.058,1.058,0,0,1,.549.154l6.607,4.036-1.8-7.531a1.045,1.045,0,0,1,.339-1.041l5.88-5.038-7.719-.617a1.047,1.047,0,0,1-.885-.644L14,2.535,11.027,9.686a1.049,1.049,0,0,1-.885.644l-7.719.617L8.3,15.985a1.045,1.045,0,0,1,.339,1.041l-1.8,7.531,6.607-4.036A1.051,1.051,0,0,1,14,20.367Z" transform="translate(0 0)"/>
  </g>
</svg>
