<svg xmlns="http://www.w3.org/2000/svg" xmlns:xlink="http://www.w3.org/1999/xlink" width="26.552" height="25.29" viewBox="0 0 26.552 25.29">
  <defs>
    <clipPath id="clip-path">
      <path id="Clip_2" data-name="Clip 2" d="M0,0H26.552V25.29H0Z" fill="none"/>
    </clipPath>
  </defs>
  <g id="Filled_star" data-name="Filled star" clip-path="url(#clip-path)">
    <path id="Fill_1" data-name="Fill 1" d="M20.915,25.29a.912.912,0,0,1-.478-.134L13.276,20.78,6.115,25.156a.916.916,0,0,1-1.369-.994L6.694,16,.32,10.539A.916.916,0,0,1,.843,8.93l8.366-.669L12.431.511a.954.954,0,0,1,1.69,0l3.223,7.75,8.366.669a.916.916,0,0,1,.523,1.608L19.859,16l1.948,8.163a.916.916,0,0,1-.892,1.128" transform="translate(0 0)" fill="#ffb600"/>
  </g>
</svg>
