<svg xmlns="http://www.w3.org/2000/svg" width="24.416" height="15.75" viewBox="0 0 24.416 15.75">
  <g id="Group_5531" data-name="Group 5531" transform="translate(-73.978 -252.063)">
    <path id="Path_3439" data-name="Path 3439" d="M306.366,256.6a8.727,8.727,0,0,0-2.624-1.824,3.04,3.04,0,0,0-.29-.1v0c.16-.654.435-1.812.627-2.609-1.46.594-4.069,1.65-5.448,2.213.851,1.009,2.657,3.145,3.8,4.493.181-.709.415-1.618.461-1.8.185.1.347.178.5.271a5.3,5.3,0,0,1,1.755,1.562,2.057,2.057,0,0,1,0,2.468,4.5,4.5,0,0,1-.674.78,8.61,8.61,0,0,1-3.122,1.724,17.542,17.542,0,0,1-5.247.813c-.127,0-.242.009-.347.015l-.2,2.309c.156.007.337.011.547.009a17.878,17.878,0,0,0,7.013-1.308,9.356,9.356,0,0,0,3.479-2.373,4.608,4.608,0,0,0-.229-6.643Z" transform="translate(-209.504)" fill="#a2a2a2"/>
    <path id="Path_3440" data-name="Path 3440" d="M75.51,278.67a8.726,8.726,0,0,0,2.624,1.824,3.055,3.055,0,0,0,.29.1v0c-.16.654-.435,1.812-.627,2.609,1.46-.594,4.069-1.65,5.447-2.213-.851-1.009-2.657-3.145-3.8-4.493-.181.709-.415,1.618-.461,1.8-.185-.1-.347-.178-.5-.271a5.3,5.3,0,0,1-1.755-1.562,2.057,2.057,0,0,1,0-2.468,4.5,4.5,0,0,1,.674-.78,8.611,8.611,0,0,1,3.121-1.724,17.542,17.542,0,0,1,5.247-.813c.127,0,.242-.009.347-.015l.2-2.309c-.156-.008-.337-.011-.547-.009a17.878,17.878,0,0,0-7.013,1.308,9.357,9.357,0,0,0-3.479,2.373,4.608,4.608,0,0,0,.229,6.643Z" transform="translate(0 -15.395)" fill="#a2a2a2"/>
  </g>
</svg>
