<svg xmlns="http://www.w3.org/2000/svg" width="24.053" height="23.979" viewBox="0 0 24.053 23.979">
  <g id="Group_4997" data-name="Group 4997" transform="translate(-311.004 -479)">
    <g id="Group_4996" data-name="Group 4996" transform="translate(311.004 479)">
      <path id="Path_3372" data-name="Path 3372" d="M-35.561,567.874a3.167,3.167,0,0,1-4.765.211,3.118,3.118,0,0,1-.939-2.206,4.129,4.129,0,0,1,1.643-2.957l1.694-1.694,1.569-1.57,2.32-2.32.363-.362c.677-.677,2.025-2.018,3.778-1.169a4.351,4.351,0,0,1,1.174.864,4.2,4.2,0,0,1,.762.995l1.081-1.081a5.71,5.71,0,0,0-.74-.923,6.983,6.983,0,0,0-1.176-.956,4.262,4.262,0,0,0-1.912-.7c-1.971-.181-3.458,1.3-4.047,1.887l-.6.6-2.867,2.867-2.715,2.716c-1.2,1.2-2.113,2.581-1.854,4.342a5.017,5.017,0,0,0,1.455,2.723c.939.939,3.709,2.957,6.878-.212l3.759-3.759a5.871,5.871,0,0,1-1.849-.31Z" transform="translate(42.834 -546.665)"/>
      <path id="Path_3373" data-name="Path 3373" d="M-13.815,546.5a4.994,4.994,0,0,0-1.479-2.746c-3.45-3.45-6.267-.634-7.135.235l-3.583,3.583a5.36,5.36,0,0,1,1.844.316l2.819-2.819c.821-.821,2.628-2.628,4.952-.305.892.892,1.949,2.418-.282,4.648l-2.079,2.079-1.505,1.506-2,2-.972.972a3.254,3.254,0,0,1-3.593.984A3.426,3.426,0,0,1-28,556.176a3.289,3.289,0,0,1-.733-1.118l-1.1,1.1a5.608,5.608,0,0,0,.826,1.071,5.706,5.706,0,0,0,1.065.831,4.48,4.48,0,0,0,1.953.656,4.853,4.853,0,0,0,3.858-1.7l.527-.527,3.2-3.2,2.38-2.38C-13.838,548.728-13.673,547.578-13.815,546.5Z" transform="translate(37.83 -542.079)"/>
    </g>
  </g>
</svg>
