<svg xmlns="http://www.w3.org/2000/svg" width="19.461" height="19.417" viewBox="0 0 19.461 19.417">
  <g id="Group_5262" data-name="Group 5262" transform="translate(-299.543 -298.375)">
    <path id="Path_3409" data-name="Path 3409" d="M299.863,304.823H303.9v12.969h-4.037V304.823Zm2.02-6.448a2.337,2.337,0,1,1-2.34,2.337,2.338,2.338,0,0,1,2.34-2.337Z" fill="#2d2d2d"/>
    <path id="Path_3410" data-name="Path 3410" d="M316.255,313.558h3.866v1.772h.055a4.236,4.236,0,0,1,3.817-2.095c4.081,0,4.836,2.684,4.836,6.178v7.114H324.8v-6.305c0-1.506-.03-3.44-2.1-3.44-2.1,0-2.419,1.638-2.419,3.329v6.417h-4.028V313.558Z" transform="translate(-9.824 -8.736)" fill="#2d2d2d"/>
  </g>
</svg>
