<svg xmlns="http://www.w3.org/2000/svg" width="18" height="18" viewBox="0 0 18 18">
  <path id="Go_to_content_DarkGrey_" data-name="Go_to_content(DarkGrey)" d="M612.361,1873.4a1.5,1.5,0,0,0-1.5,1.5v15a1.5,1.5,0,0,0,1.5,1.5h15a1.5,1.5,0,0,0,1.5-1.5v-16.5Zm15.375,16.5a.375.375,0,0,1-.375.375h-15a.375.375,0,0,1-.375-.375v-15a.375.375,0,0,1,.375-.375h15.375Zm-9.463-5.116,6.651-6.651v4.16a.562.562,0,1,0,1.125,0v-6.081h-6.081a.563.563,0,0,0,0,1.125h4.161l-6.652,6.651Z" transform="translate(-610.861 -1873.405)" fill="#2d2d2d"/>
</svg>
