<svg xmlns="http://www.w3.org/2000/svg" width="13.625" height="13.625" viewBox="0 0 13.625 13.625">
  <path id="Outline-v2" d="M612,1873.4a1.136,1.136,0,0,0-1.135,1.135v11.354A1.135,1.135,0,0,0,612,1887.03h11.354a1.135,1.135,0,0,0,1.135-1.135V1873.4Zm11.638,12.49a.284.284,0,0,1-.284.284H612a.284.284,0,0,1-.284-.284V1874.54a.284.284,0,0,1,.284-.284h11.638Zm-7.163-3.872,5.034-5.034v3.149a.426.426,0,0,0,.852,0v-4.6h-4.6a.426.426,0,1,0,0,.851h3.15l-5.035,5.035Z" transform="translate(-610.861 -1873.405)" fill="#fff"/>
</svg>
