<svg xmlns="http://www.w3.org/2000/svg" width="24" height="18.197" viewBox="0 0 24 18.197">
  <path id="Outline-v2" d="M799.87,1702.073h10v1.563h1.5v-1.562a1.533,1.533,0,0,0-1.5-1.562h-10a1.533,1.533,0,0,0-1.5,1.563v1.563h1.5Zm10,8.822h-10.5a1.022,1.022,0,0,0-1,1.042v5.729a1.021,1.021,0,0,0,1,1.042h11a1.021,1.021,0,0,0,1-1.042v-5.208A1.533,1.533,0,0,0,809.87,1710.9Zm0,4.72v1.53h-10v-4.687h10v3.157Zm5.5-10.417h-21a1.533,1.533,0,0,0-1.5,1.563v8.854h4v-1.562h-2.5v-7.292h21v7.292h-2.5v1.563h4v-8.854A1.533,1.533,0,0,0,815.37,1705.2Z" transform="translate(-792.87 -1700.511)" fill="#d14a02"/>
</svg>
