<?xml version="1.0" encoding="utf-8"?>
<!-- Generator: Adobe Illustrator 16.0.0, SVG Export Plug-In . SVG Version: 6.00 Build 0)  -->
<!DOCTYPE svg PUBLIC "-//W3C//DTD SVG 1.1//EN" "http://www.w3.org/Graphics/SVG/1.1/DTD/svg11.dtd">
<svg version="1.1" id="Layer_1" xmlns="http://www.w3.org/2000/svg" xmlns:xlink="http://www.w3.org/1999/xlink" x="0px" y="0px"
	 width="24px" height="24px" viewBox="0 0 24 24" enable-background="new 0 0 24 24" xml:space="preserve">
<path fill="#C8C8C8" d="M16.051,15.018c1.397-1.591,2.245-3.674,2.245-5.958c0-4.994-4.049-9.043-9.043-9.043S0.21,4.067,0.21,9.06
	c0,4.997,4.049,9.043,9.043,9.043c2.144,0,4.111-0.746,5.661-1.992l7.754,7.873l1.123-1.107L16.051,15.018z M9.252,17.023
	c-4.392,0-7.965-3.573-7.965-7.964c0-4.392,3.573-7.964,7.965-7.964c4.393,0,7.965,3.573,7.965,7.964
	C17.217,13.449,13.644,17.023,9.252,17.023z"/>
</svg>
