<svg xmlns="http://www.w3.org/2000/svg" width="26.544" height="23.521" viewBox="0 0 26.544 23.521">
  <g id="Group_6096" data-name="Group 6096" transform="translate(3.254 0.438)">
    <g id="Subtraction_4" data-name="Subtraction 4" transform="translate(9687.101 14003)" fill="none">
      <path d="M-9665.091-13988.544h-2.563a10.9,10.9,0,0,0,.786-2h1.777v2Zm-22.166,0h-3.1v-2h2.313a10.943,10.943,0,0,0,.784,2Zm22.166-4.994h-1.363a11.1,11.1,0,0,0-.182-2h1.545v2Zm-23.365,0h-1.9v-2h2.08a11.127,11.127,0,0,0-.182,2Zm23.365-5h-2.562a11.09,11.09,0,0,0-1.314-2h3.876v2Zm-22.166,0h-3.1v-2h4.412a11.1,11.1,0,0,0-1.314,2Z" stroke="none"/>
      <path d="M -9665.0908203125 -13988.5439453125 L -9667.654296875 -13988.5439453125 C -9667.328125 -13989.181640625 -9667.0625 -13989.8544921875 -9666.8681640625 -13990.5439453125 L -9665.0908203125 -13990.5439453125 L -9665.0908203125 -13988.5439453125 Z M -9687.2568359375 -13988.5439453125 L -9690.3544921875 -13988.5439453125 L -9690.3544921875 -13990.5439453125 L -9688.0419921875 -13990.5439453125 C -9687.8486328125 -13989.859375 -9687.5859375 -13989.1875 -9687.2578125 -13988.544921875 L -9687.2568359375 -13988.5439453125 Z M -9665.0908203125 -13993.5380859375 L -9666.4541015625 -13993.5380859375 C -9666.4541015625 -13994.2060546875 -9666.5146484375 -13994.87890625 -9666.6357421875 -13995.5380859375 L -9665.0908203125 -13995.5380859375 L -9665.0908203125 -13993.5380859375 Z M -9688.4560546875 -13993.5419921875 L -9690.3544921875 -13993.5419921875 L -9690.3544921875 -13995.5419921875 L -9688.2744140625 -13995.5419921875 C -9688.39453125 -13994.8857421875 -9688.4560546875 -13994.2138671875 -9688.4560546875 -13993.54296875 L -9688.4560546875 -13993.5419921875 Z M -9665.0908203125 -13998.5400390625 L -9667.65234375 -13998.5400390625 C -9668.015625 -13999.25 -9668.4580078125 -13999.921875 -9668.966796875 -14000.5390625 L -9665.0908203125 -14000.5390625 L -9665.0908203125 -13998.5400390625 Z M -9687.2568359375 -13998.54296875 L -9690.3544921875 -13998.54296875 L -9690.3544921875 -14000.54296875 L -9685.9423828125 -14000.54296875 C -9686.447265625 -13999.931640625 -9686.8896484375 -13999.259765625 -9687.2568359375 -13998.5439453125 L -9687.2568359375 -13998.54296875 Z" stroke="none" fill="#d04a02"/>
    </g>
    <path id="Union_5" data-name="Union 5" d="M-4576.089,7954.716l6.122,6.282Zm-15.875-6.869a8.923,8.923,0,0,1,9-8.843,8.923,8.923,0,0,1,9,8.843,8.922,8.922,0,0,1-9,8.843A8.922,8.922,0,0,1-4591.964,7947.847Z" transform="translate(4592.613 -7938.542)" fill="none" stroke="#d04a02" stroke-linecap="round" stroke-miterlimit="10" stroke-width="1.8"/>
    <g id="Subtraction_6" data-name="Subtraction 6" transform="translate(9690.599 14005.699)" fill="none">
      <path d="M-9672.907-13991.243h-1.621a8.1,8.1,0,0,0,1.226-2h.4v2Zm-2.268,0h-4.309v-2h5.655a7.689,7.689,0,0,1-1.346,2Zm-7.31,0h-4.23a7.669,7.669,0,0,1-1.347-2h5.577v2Zm-4.9,0h-1.855v-2h.628a8.141,8.141,0,0,0,1.227,2Zm15.37-4.994h-.645c0-.052,0-.1,0-.155a8.09,8.09,0,0,0-.214-1.845h.857v2Zm-1.123,0h-1.464v-2h1.236a7.54,7.54,0,0,1,.229,1.845c0,.051,0,.1,0,.153l0,0Zm-4.508,0h-11.107c0-.025,0-.05,0-.074v-.077a7.479,7.479,0,0,1,.23-1.849h10.879v2Zm-11.611,0h-1.1v-2h1.313a8.04,8.04,0,0,0-.216,1.849c0,.05,0,.1,0,.148h0Zm14.352-5h-7.176v-2h4.622a7.877,7.877,0,0,1,2.553,2Zm-10.174,0h-1.9a7.783,7.783,0,0,1,1.9-1.64v1.639Zm10.713-.1,0,0a8.271,8.271,0,0,0-2.09-1.9h2.092v1.9Zm-12.983-.245v-1.656h1.9a8.292,8.292,0,0,0-1.9,1.654Z" stroke="none"/>
      <path d="M -9672.9072265625 -13991.2431640625 L -9674.5283203125 -13991.2431640625 C -9674.0234375 -13991.849609375 -9673.611328125 -13992.521484375 -9673.302734375 -13993.2431640625 L -9672.9072265625 -13993.2431640625 L -9672.9072265625 -13991.2431640625 Z M -9675.173828125 -13991.2431640625 L -9679.4833984375 -13991.2431640625 L -9679.4833984375 -13993.2431640625 L -9673.828125 -13993.2431640625 C -9674.1669921875 -13992.51171875 -9674.6201171875 -13991.83984375 -9675.173828125 -13991.2431640625 Z M -9682.484375 -13991.2431640625 L -9686.71484375 -13991.2431640625 C -9687.2705078125 -13991.8408203125 -9687.7236328125 -13992.513671875 -9688.0615234375 -13993.2431640625 L -9682.484375 -13993.2431640625 L -9682.484375 -13991.2431640625 Z M -9687.384765625 -13991.2431640625 L -9689.240234375 -13991.2431640625 L -9689.240234375 -13993.2431640625 L -9688.6123046875 -13993.2431640625 C -9688.302734375 -13992.5234375 -9687.890625 -13991.8505859375 -9687.3857421875 -13991.2451171875 L -9687.384765625 -13991.2431640625 Z M -9672.0146484375 -13996.2373046875 L -9672.6591796875 -13996.2373046875 C -9672.658203125 -13996.2890625 -9672.658203125 -13996.3408203125 -9672.658203125 -13996.392578125 C -9672.658203125 -13997.0126953125 -9672.73046875 -13997.6337890625 -9672.8720703125 -13998.2373046875 L -9672.0146484375 -13998.2373046875 L -9672.0146484375 -13996.2373046875 Z M -9673.1357421875 -13996.2373046875 L -9674.6015625 -13996.2373046875 L -9674.6015625 -13998.2373046875 L -9673.365234375 -13998.2373046875 C -9673.212890625 -13997.6337890625 -9673.1357421875 -13997.013671875 -9673.1357421875 -13996.392578125 C -9673.1357421875 -13996.341796875 -9673.13671875 -13996.2900390625 -9673.1376953125 -13996.2392578125 L -9673.1357421875 -13996.2373046875 Z M -9677.6455078125 -13996.2412109375 L -9688.7529296875 -13996.2412109375 C -9688.75390625 -13996.2666015625 -9688.75390625 -13996.291015625 -9688.7548828125 -13996.3154296875 C -9688.7548828125 -13996.3408203125 -9688.7548828125 -13996.3671875 -9688.7548828125 -13996.392578125 C -9688.7548828125 -13997.0185546875 -9688.677734375 -13997.640625 -9688.5244140625 -13998.2412109375 L -9677.6455078125 -13998.2412109375 L -9677.6455078125 -13996.2412109375 Z M -9689.2568359375 -13996.2412109375 L -9690.3544921875 -13996.2412109375 L -9690.3544921875 -13998.2412109375 L -9689.0419921875 -13998.2412109375 C -9689.1845703125 -13997.638671875 -9689.2578125 -13997.0166015625 -9689.2578125 -13996.392578125 C -9689.2578125 -13996.3427734375 -9689.2568359375 -13996.29296875 -9689.255859375 -13996.244140625 L -9689.2568359375 -13996.2412109375 Z M -9674.9052734375 -14001.2392578125 L -9682.0810546875 -14001.2392578125 L -9682.0810546875 -14003.23828125 L -9677.458984375 -14003.23828125 C -9676.4853515625 -14002.76171875 -9675.6025390625 -14002.0712890625 -9674.90625 -14001.2412109375 L -9674.9052734375 -14001.2392578125 Z M -9685.0791015625 -14001.2421875 L -9686.9814453125 -14001.2421875 C -9686.4404296875 -14001.888671875 -9685.7998046875 -14002.439453125 -9685.0791015625 -14002.8818359375 L -9685.0791015625 -14001.2421875 Z M -9674.3662109375 -14001.3408203125 L -9674.3681640625 -14001.3427734375 C -9674.9501953125 -14002.0888671875 -9675.6533203125 -14002.7265625 -9676.4580078125 -14003.23828125 L -9674.3662109375 -14003.23828125 L -9674.3662109375 -14001.3408203125 Z M -9687.349609375 -14001.5859375 L -9687.349609375 -14003.2421875 L -9685.4501953125 -14003.2421875 C -9686.1630859375 -14002.7900390625 -9686.8017578125 -14002.234375 -9687.34765625 -14001.587890625 L -9687.349609375 -14001.5859375 Z" stroke="none" fill="#d04a02"/>
    </g>
  </g>
</svg>
