<svg id="Layer_1" data-name="Layer 1" xmlns="http://www.w3.org/2000/svg" viewBox="0 0 104 99"><defs><style>.cls-1{fill:#D04A02;}</style></defs><title>Share2</title><path class="cls-1" d="M77.41,62.83a10.58,10.58,0,0,0-8.6,4.44L37.11,50.65a9.48,9.48,0,0,0,0-2.3L68.8,31.73a10.57,10.57,0,1,0-2-6.15,10.19,10.19,0,0,0,.08,1.24L35.24,43.42a10.59,10.59,0,1,0,0,12.16L66.9,72.18a10.19,10.19,0,0,0-.08,1.24A10.59,10.59,0,1,0,77.41,62.83Zm0-42.6a5.36,5.36,0,1,1-5.35,5.35A5.36,5.36,0,0,1,77.41,20.23ZM26.59,54.86a5.36,5.36,0,1,1,5.35-5.36A5.37,5.37,0,0,1,26.59,54.86ZM77.41,78.77a5.36,5.36,0,1,1,5.36-5.35A5.36,5.36,0,0,1,77.41,78.77Z"/></svg>