<svg id="sme" xmlns="http://www.w3.org/2000/svg" width="25.17" height="25.17" viewBox="0 0 25.17 25.17">
  <path id="Path_3564" data-name="Path 3564" d="M17.146,17.408H14v1.573h3.146v6.757H14V27.33h3.146v6.838H14v1.573h3.146V39.17H37.6A1.577,1.577,0,0,0,39.17,37.6V15.573A1.577,1.577,0,0,0,37.6,14H17.146ZM37.6,15.573V37.6H18.719V15.573Z" transform="translate(-14 -14)"/>
  <path id="Path_3565" data-name="Path 3565" d="M46.252,27.421a3.2,3.2,0,1,1-3.2,3.193,3.2,3.2,0,0,1,3.2-3.193m0-1.221a4.418,4.418,0,1,0,4.415,4.415A4.418,4.418,0,0,0,46.252,26.2Z" transform="translate(-32.092 -21.931)"/>
  <path id="Path_3566" data-name="Path 3566" d="M41.642,56.269a15.858,15.858,0,0,1,5.667.995V60.37H35.971V57.264a15.875,15.875,0,0,1,5.671-.995m0-1.221a16.7,16.7,0,0,0-6.6,1.277.5.5,0,0,0-.3.454V61.1a.5.5,0,0,0,.5.5h12.79a.5.5,0,0,0,.5-.5v-4.32a.5.5,0,0,0-.3-.454A16.7,16.7,0,0,0,41.642,55.048Z" transform="translate(-27.481 -40.688)"/>
</svg>
