<svg xmlns="http://www.w3.org/2000/svg" width="25" height="29" viewBox="0 0 25 29">
  <g id="Group_6005" data-name="Group 6005" transform="translate(-7 -2)">
    <g id="Rectangle_8171" data-name="Rectangle 8171" transform="translate(7 5)" fill="none" stroke="#ae6800" stroke-width="1">
      <rect width="25" height="26" rx="4" stroke="none"/>
      <rect x="0.5" y="0.5" width="24" height="25" rx="3.5" fill="none"/>
    </g>
    <rect id="Rectangle_8170" data-name="Rectangle 8170" width="23" height="26" rx="3" transform="translate(7 3)" fill="#ae6800"/>
    <g id="Union_60" data-name="Union 60" transform="translate(4265 -9922)" fill="#fff">
      <path d="M -4240.4990234375 9943.5009765625 L -4253.49951171875 9943.5009765625 L -4253.49951171875 9943.5 L -4240.4990234375 9943.5 L -4240.4990234375 9943.5009765625 Z M -4240.4990234375 9935.5 L -4253.49951171875 9935.5 L -4253.49951171875 9935.4990234375 L -4240.4990234375 9935.4990234375 L -4240.4990234375 9935.5 Z M -4240.4990234375 9931.5 L -4253.49951171875 9931.5 L -4253.49951171875 9931.4990234375 L -4240.4990234375 9931.4990234375 L -4240.4990234375 9931.5 Z" stroke="none"/>
      <path d="M -4239.9990234375 9944.0009765625 L -4253.99951171875 9944.0009765625 L -4253.99951171875 9943 L -4239.9990234375 9943 L -4239.9990234375 9944.0009765625 Z M -4239.9990234375 9940 L -4249.9990234375 9940 L -4249.9990234375 9939 L -4239.9990234375 9939 L -4239.9990234375 9940 Z M -4239.9990234375 9936 L -4253.99951171875 9936 L -4253.99951171875 9934.9990234375 L -4239.9990234375 9934.9990234375 L -4239.9990234375 9936 Z M -4239.9990234375 9932 L -4253.99951171875 9932 L -4253.99951171875 9930.9990234375 L -4239.9990234375 9930.9990234375 L -4239.9990234375 9932 Z" stroke="none" fill="#fff"/>
    </g>
    <g id="Path_3497" data-name="Path 3497" transform="translate(-54.878 -14.673)" fill="#fff" stroke-linejoin="round">
      <path d="M 72.0517578125 35.125 L 71.24714660644531 34.50685119628906 L 67.97515106201172 31.99308967590332 L 64.68186950683594 34.50775146484375 L 63.8784294128418 35.12123107910156 L 63.8784294128418 34.1103515625 L 63.8784294128418 17.6728515625 L 63.8784294128418 17.1728515625 L 64.37842559814453 17.1728515625 L 71.5517578125 17.1728515625 L 72.0517578125 17.1728515625 L 72.0517578125 17.6728515625 L 72.0517578125 34.1103515625 L 72.0517578125 35.125 Z" stroke="none"/>
      <path d="M 64.37842559814453 17.6728515625 L 64.37842559814453 34.1103515625 L 67.97607421875 31.36328125 L 71.5517578125 34.1103515625 L 71.5517578125 17.6728515625 L 64.37842559814453 17.6728515625 M 64.37842559814453 16.6728515625 L 71.5517578125 16.6728515625 C 72.10403442382813 16.6728515625 72.5517578125 17.12057113647461 72.5517578125 17.6728515625 L 72.5517578125 34.1103515625 C 72.5517578125 34.4912109375 72.33541870117188 34.8390007019043 71.9937744140625 35.00735092163086 C 71.8536376953125 35.07641220092773 71.70238494873047 35.11035919189453 71.5518798828125 35.11035919189453 C 71.33550262451172 35.11035919189453 71.12065124511719 35.04019546508789 70.94252777099609 34.90334320068359 L 67.97421264648438 32.62289047241211 L 64.98530578613281 34.90514373779297 C 64.8076171875 35.04082489013672 64.59367370605469 35.11035919189453 64.37830352783203 35.11035919189453 C 64.22728729248047 35.11035919189453 64.07559204101563 35.07620239257813 63.93508148193359 35.0067024230957 C 63.59416961669922 34.83808135986328 63.37842559814453 34.49068069458008 63.37842559814453 34.1103515625 L 63.37842559814453 17.6728515625 C 63.37842559814453 17.12057113647461 63.82614898681641 16.6728515625 64.37842559814453 16.6728515625 Z" stroke="none" fill="#ae6800"/>
    </g>
  </g>
</svg>
