<svg xmlns="http://www.w3.org/2000/svg" width="22.917" height="19.161" viewBox="0 0 22.917 19.161">
  <path id="tweeter" d="M389.417,319.854c-.939.376-.827.213-1.658,0a8.133,8.133,0,0,0,.906-1.878,8.3,8.3,0,0,1-3.006,1.127,4.7,4.7,0,0,0-3.381-1.5,4.651,4.651,0,0,0-4.7,4.7,2.383,2.383,0,0,0,.188,1.127A13.367,13.367,0,0,1,368,318.539a5.2,5.2,0,0,0-.563,2.442,4.425,4.425,0,0,0,2.066,3.945,3.786,3.786,0,0,1-2.066-.564h0a5.016,5.016,0,0,0,3.757,4.7,2.785,2.785,0,0,1-1.315.188h-.939a5.116,5.116,0,0,0,4.508,3.381,9.579,9.579,0,0,1-5.823,2.066H366.5a13.634,13.634,0,0,0,20.851-11.459v-.563a15.541,15.541,0,0,1,2.066-2.818Z" transform="translate(-366.5 -317.6)" fill="#2d2d2d"/>
</svg>
