<svg xmlns="http://www.w3.org/2000/svg" xmlns:xlink="http://www.w3.org/1999/xlink" width="26.552" height="25.29" viewBox="0 0 26.552 25.29">
  <defs>
    <clipPath id="clip-path">
      <path id="Clip_2" data-name="Clip 2" d="M0,0H26.552V25.29H0Z" fill="none"/>
    </clipPath>
  </defs>
  <g id="Unfilled_star" data-name="Unfilled star" clip-path="url(#clip-path)">
    <path id="Fill_1" data-name="Fill 1" d="M5.638,25.29a.916.916,0,0,1-.892-1.129L6.693,16,.321,10.539A.916.916,0,0,1,.843,8.93l8.365-.67L12.431.511a.954.954,0,0,1,1.69,0l3.223,7.75,8.365.67a.916.916,0,0,1,.523,1.608L19.859,16l1.948,8.162a.916.916,0,0,1-1.369.994L13.276,20.78,6.115,25.156A.912.912,0,0,1,5.638,25.29Zm7.638-5.976a1,1,0,0,1,.52.146l6.266,3.828-1.7-7.141a.991.991,0,0,1,.321-.987l5.576-4.777L16.935,9.8a.993.993,0,0,1-.84-.611L13.276,2.4,10.457,9.185a1,1,0,0,1-.84.611l-7.32.585,5.576,4.777a.991.991,0,0,1,.321.987l-1.7,7.141,6.266-3.828A1,1,0,0,1,13.276,19.314Z" transform="translate(0 0)" fill="#464646"/>
  </g>
</svg>
