<?xml version="1.0" encoding="utf-8"?>
<!-- Generator: Adobe Illustrator 16.0.0, SVG Export Plug-In . SVG Version: 6.00 Build 0)  -->
<!DOCTYPE svg PUBLIC "-//W3C//DTD SVG 1.1//EN" "http://www.w3.org/Graphics/SVG/1.1/DTD/svg11.dtd">
<svg version="1.1" id="Layer_1" xmlns="http://www.w3.org/2000/svg" xmlns:xlink="http://www.w3.org/1999/xlink" x="0px" y="0px"
	 width="24px" height="24px" viewBox="114.005 60 24 24" enable-background="new 114.005 60 24 24" xml:space="preserve">
<path id="Path_3359" fill="#515151" d="M126.005,73.968c-1.086-0.002-1.967-0.882-1.968-1.968c0.001-1.087,0.882-1.967,1.968-1.968
	c1.086,0.001,1.966,0.881,1.968,1.968C127.971,73.086,127.091,73.966,126.005,73.968z M126.005,68.557
	c-1.901,0-3.443,1.542-3.443,3.443s1.542,3.442,3.443,3.442s3.442-1.541,3.442-3.442S127.906,68.557,126.005,68.557z
	 M130.526,77.198c-1.196,1.202-2.825,1.877-4.521,1.872c-1.696,0.005-3.324-0.67-4.521-1.872L116.286,72l5.198-5.198
	c1.196-1.203,2.824-1.877,4.521-1.872c1.697-0.005,3.325,0.669,4.521,1.872L135.725,72L130.526,77.198z M131.569,65.759
	c-1.474-1.479-3.477-2.308-5.564-2.305c-2.088-0.004-4.092,0.826-5.565,2.305L114.199,72l6.24,6.241
	c1.474,1.479,3.478,2.308,5.565,2.305c2.088,0.003,4.091-0.827,5.564-2.305L137.811,72L131.569,65.759z"/>
<g>
	
		<rect x="110.829" y="70.688" transform="matrix(0.6814 0.7319 -0.7319 0.6814 92.145 -69.3111)" fill="#515151" width="29.717" height="1"/>
</g>
<g>
	
		<rect x="110.159" y="71.358" transform="matrix(0.6814 0.7319 -0.7319 0.6814 92.4205 -68.6069)" fill="#FFFFFF" width="29.717" height="1"/>
</g>
</svg>
