<svg xmlns="http://www.w3.org/2000/svg" viewBox="0 0 19.31 14.94"><defs><style>.cls-1{fill:#032d44;}.cls-2{fill:none;stroke:#032d44;stroke-miterlimit:10;stroke-width:0.8px;}</style></defs><title>Asset 1</title><g id="Layer_2" data-name="Layer 2"><g id="Layer_1-2" data-name="Layer 1"><rect class="cls-1" x="6.15" y="1.98" width="7" height="1.73"/><rect class="cls-1" x="10.25" y="6.49" width="2.91" height="0.95"/><rect class="cls-1" x="10.25" y="4.61" width="2.91" height="0.95"/><rect class="cls-1" x="10.25" y="10.25" width="2.91" height="0.95"/><rect class="cls-1" x="10.25" y="8.37" width="2.91" height="0.95"/><rect class="cls-1" x="10.25" y="12.14" width="2.91" height="0.95"/><line class="cls-2" x1="15.39" y1="11.01" x2="18.91" y2="14.54"/><polyline class="cls-2" points="16.49 14.54 18.91 14.54 18.91 12.11"/><line class="cls-2" x1="3.92" y1="11.01" x2="0.4" y2="14.54"/><polyline class="cls-2" points="0.4 12.11 0.4 14.54 2.82 14.54"/><line class="cls-2" x1="3.92" y1="3.92" x2="0.4" y2="0.4"/><polyline class="cls-2" points="2.82 0.4 0.4 0.4 0.4 2.82"/><line class="cls-2" x1="15.39" y1="3.92" x2="18.91" y2="0.4"/><polyline class="cls-2" points="18.91 2.82 18.91 0.4 16.49 0.4"/><rect class="cls-1" x="6.15" y="6.49" width="2.98" height="0.95"/><rect class="cls-1" x="6.15" y="4.61" width="2.98" height="0.95"/><rect class="cls-1" x="6.15" y="10.25" width="2.98" height="0.95"/><rect class="cls-1" x="6.15" y="8.37" width="2.98" height="0.95"/><rect class="cls-1" x="6.15" y="12.14" width="2.98" height="0.95"/></g></g></svg>