<svg xmlns="http://www.w3.org/2000/svg" width="31.662" height="24.654" viewBox="0 0 31.662 24.654">
  <g id="Group_5125" data-name="Group 5125" transform="translate(-86.779 -6191.778)">
    <line id="Line_5044" data-name="Line 5044" x2="5.644" y2="5.66" transform="translate(111.806 6209.781)" fill="none" stroke="#d14a02" stroke-linecap="round" stroke-miterlimit="10" stroke-width="1.4"/>
    <path id="Path_3366" data-name="Path 3366" d="M16.49,16.007h3.881v-3.9" transform="translate(97.08 6199.435)" fill="none" stroke="#d14a02" stroke-linecap="round" stroke-miterlimit="10" stroke-width="1.4"/>
    <line id="Line_5045" data-name="Line 5045" x1="5.644" y2="5.66" transform="translate(87.769 6209.781)" fill="none" stroke="#d14a02" stroke-linecap="round" stroke-miterlimit="10" stroke-width="1.4"/>
    <path id="Path_3367" data-name="Path 3367" d="M.4,12.11v3.9H4.281" transform="translate(87.369 6199.435)" fill="none" stroke="#d14a02" stroke-linecap="round" stroke-miterlimit="10" stroke-width="1.4"/>
    <line id="Line_5046" data-name="Line 5046" x1="5.644" y1="5.644" transform="translate(87.769 6192.768)" fill="none" stroke="#d14a02" stroke-linecap="round" stroke-miterlimit="10" stroke-width="1.4"/>
    <path id="Path_3368" data-name="Path 3368" d="M4.281.4H.4V4.281" transform="translate(87.369 6192.368)" fill="none" stroke="#d14a02" stroke-linecap="round" stroke-miterlimit="10" stroke-width="1.4"/>
    <line id="Line_5047" data-name="Line 5047" y1="5.644" x2="5.644" transform="translate(111.806 6192.768)" fill="none" stroke="#d14a02" stroke-linecap="round" stroke-miterlimit="10" stroke-width="1.4"/>
    <path id="Path_3369" data-name="Path 3369" d="M20.371,4.281V.4H16.49" transform="translate(97.08 6192.368)" fill="none" stroke="#d14a02" stroke-linecap="round" stroke-miterlimit="10" stroke-width="1.4"/>
    <rect id="Rectangle_3774" data-name="Rectangle 3774" width="11.225" height="16.774" transform="translate(96.99 6196.301)" fill="#d14a02"/>
    <circle id="Ellipse_41" data-name="Ellipse 41" cx="1" cy="1" r="1" transform="translate(104 6201)" fill="#fff"/>
    <g id="Group_5124" data-name="Group 5124">
      <path id="Path_3393" data-name="Path 3393" d="M0,0H0L5.311,5.311l-5.506.195Z" transform="translate(105.48 6206.797) rotate(135)" fill="#fff"/>
      <path id="Path_3394" data-name="Path 3394" d="M0,0H0L4,4H0Z" transform="translate(107.277 6206.798) rotate(135)" fill="#fff"/>
    </g>
  </g>
</svg>
