<svg xmlns="http://www.w3.org/2000/svg" width="31.662" height="24.654" viewBox="0 0 31.662 24.654">
  <g id="Group_5124" data-name="Group 5124" transform="translate(-86.779 -6191.778)">
    <rect id="Rectangle_3572" data-name="Rectangle 3572" width="11.225" height="2.774" transform="translate(96.989 6195.301)" fill="#2d2d2d"/>
    <rect id="Rectangle_3573" data-name="Rectangle 3573" width="4.666" height="1.523" transform="translate(103.564 6202.533)" fill="#2d2d2d"/>
    <rect id="Rectangle_3574" data-name="Rectangle 3574" width="4.666" height="1.523" transform="translate(103.564 6199.519)" fill="#2d2d2d"/>
    <rect id="Rectangle_3575" data-name="Rectangle 3575" width="4.666" height="1.523" transform="translate(103.564 6208.563)" fill="#2d2d2d"/>
    <rect id="Rectangle_3576" data-name="Rectangle 3576" width="4.666" height="1.523" transform="translate(103.564 6205.548)" fill="#2d2d2d"/>
    <rect id="Rectangle_3577" data-name="Rectangle 3577" width="4.666" height="1.523" transform="translate(103.564 6211.593)" fill="#2d2d2d"/>
    <line id="Line_5044" data-name="Line 5044" x2="5.644" y2="5.66" transform="translate(111.806 6209.781)" fill="none" stroke="#2d2d2d" stroke-linecap="round" stroke-miterlimit="10" stroke-width="1.4"/>
    <path id="Path_3366" data-name="Path 3366" d="M16.49,16.007h3.881v-3.9" transform="translate(97.08 6199.435)" fill="none" stroke="#2d2d2d" stroke-linecap="round" stroke-miterlimit="10" stroke-width="1.4"/>
    <line id="Line_5045" data-name="Line 5045" x1="5.644" y2="5.66" transform="translate(87.769 6209.781)" fill="none" stroke="#2d2d2d" stroke-linecap="round" stroke-miterlimit="10" stroke-width="1.4"/>
    <path id="Path_3367" data-name="Path 3367" d="M.4,12.11v3.9H4.281" transform="translate(87.369 6199.435)" fill="none" stroke="#2d2d2d" stroke-linecap="round" stroke-miterlimit="10" stroke-width="1.4"/>
    <line id="Line_5046" data-name="Line 5046" x1="5.644" y1="5.644" transform="translate(87.769 6192.768)" fill="none" stroke="#2d2d2d" stroke-linecap="round" stroke-miterlimit="10" stroke-width="1.4"/>
    <path id="Path_3368" data-name="Path 3368" d="M4.281.4H.4V4.281" transform="translate(87.369 6192.368)" fill="none" stroke="#2d2d2d" stroke-linecap="round" stroke-miterlimit="10" stroke-width="1.4"/>
    <line id="Line_5047" data-name="Line 5047" y1="5.644" x2="5.644" transform="translate(111.806 6192.768)" fill="none" stroke="#2d2d2d" stroke-linecap="round" stroke-miterlimit="10" stroke-width="1.4"/>
    <path id="Path_3369" data-name="Path 3369" d="M20.371,4.281V.4H16.49" transform="translate(97.08 6192.368)" fill="none" stroke="#2d2d2d" stroke-linecap="round" stroke-miterlimit="10" stroke-width="1.4"/>
    <rect id="Rectangle_3578" data-name="Rectangle 3578" width="4.779" height="1.523" transform="translate(96.989 6202.533)" fill="#2d2d2d"/>
    <rect id="Rectangle_3579" data-name="Rectangle 3579" width="4.779" height="1.523" transform="translate(96.989 6199.519)" fill="#2d2d2d"/>
    <rect id="Rectangle_3580" data-name="Rectangle 3580" width="4.779" height="1.523" transform="translate(96.989 6208.563)" fill="#2d2d2d"/>
    <rect id="Rectangle_3581" data-name="Rectangle 3581" width="4.779" height="1.523" transform="translate(96.989 6205.548)" fill="#2d2d2d"/>
    <rect id="Rectangle_3582" data-name="Rectangle 3582" width="4.779" height="1.523" transform="translate(96.989 6211.593)" fill="#2d2d2d"/>
  </g>
</svg>
